<?xml version="1.0" encoding="UTF-8"?>
<svg width="30px" height="30px" viewBox="0 0 30 30" version="1.1" xmlns="http://www.w3.org/2000/svg" xmlns:xlink="http://www.w3.org/1999/xlink">
    <!-- Generator: Sketch 50.2 (55047) - http://www.bohemiancoding.com/sketch -->
    <title>facebook</title>
    <desc>Created with Sketch.</desc>
    <defs></defs>
    <g id="Home" stroke="none" stroke-width="1" fill="none" fill-rule="evenodd">
        <g id="alur_web_home" transform="translate(-1009.000000, -2719.000000)" fill="#F2F2F2" fill-rule="nonzero">
            <path d="M1036,2719 L1012,2719 C1010.35,2719 1009,2720.35 1009,2722 L1009,2746 C1009,2747.65 1010.35,2749 1012,2749 L1036,2749 C1037.65,2749 1039,2747.65 1039,2746 L1039,2722 C1039,2720.35 1037.65,2719 1036,2719 Z M1034.5,2722 L1034.5,2726.5 L1031.5,2726.5 C1030.6,2726.5 1030,2727.1 1030,2728 L1030,2731 L1034.5,2731 L1034.5,2735.5 L1030,2735.5 L1030,2746 L1025.5,2746 L1025.5,2735.5 L1022.5,2735.5 L1022.5,2731 L1025.5,2731 L1025.5,2727.25 C1025.5,2724.4 1027.9,2722 1030.75,2722 L1034.5,2722 Z" id="facebook"></path>
        </g>
    </g>
</svg>