<?xml version="1.0" encoding="UTF-8"?>
<svg width="30px" height="30px" viewBox="0 0 30 30" version="1.1" xmlns="http://www.w3.org/2000/svg" xmlns:xlink="http://www.w3.org/1999/xlink">
    <!-- Generator: Sketch 50.2 (55047) - http://www.bohemiancoding.com/sketch -->
    <title>instagram</title>
    <desc>Created with Sketch.</desc>
    <defs></defs>
    <g id="Home" stroke="none" stroke-width="1" fill="none" fill-rule="evenodd">
        <g id="alur_web_home" transform="translate(-859.000000, -2719.000000)" fill="#F2F2F2" fill-rule="nonzero">
            <path d="M886,2719 C887.65,2719 889,2720.35 889,2722 L889,2746 C889,2747.65 887.65,2749 886,2749 L862,2749 C860.35,2749 859,2747.65 859,2746 L859,2722 C859,2720.35 860.35,2719 862,2719 L886,2719 Z M878.972103,2723 L869.08763,2723 C865.730913,2723 863,2725.73104 863,2729.08776 L863,2738.97223 C863,2742.32908 865.730913,2745.05999 869.08763,2745.05999 L878.972103,2745.05999 C882.329081,2745.05999 885.059994,2742.32895 885.059994,2738.97223 L885.059994,2729.08776 C885.060125,2725.73104 882.329081,2723 878.972103,2723 Z M883.102855,2738.97223 C883.102855,2741.24984 881.249843,2743.10272 878.972233,2743.10272 L869.08763,2743.10272 C866.810152,2743.10286 864.95727,2741.24984 864.95727,2738.97223 L864.95727,2729.08776 C864.95727,2726.81028 866.810152,2724.95727 869.08763,2724.95727 L878.972103,2724.95727 C881.249712,2724.95727 883.102725,2726.81028 883.102725,2729.08776 L883.102725,2738.97223 L883.102855,2738.97223 Z M873.684302,2729 C870.549931,2729 868,2731.54993 868,2734.6843 C868,2737.81854 870.549931,2740.36834 873.684302,2740.36834 C876.818674,2740.36834 879.368605,2737.81854 879.368605,2734.6843 C879.368605,2731.54993 876.818674,2729 873.684302,2729 Z M873.684302,2738.41094 C871.6293,2738.41094 869.95727,2736.73917 869.95727,2734.68417 C869.95727,2732.62904 871.629169,2730.95714 873.684302,2730.95714 C875.739436,2730.95714 877.411335,2732.62904 877.411335,2734.68417 C877.411335,2736.73917 875.739305,2738.41094 873.684302,2738.41094 Z M879.435331,2727 C879.05823,2727 878.687785,2727.15267 878.421465,2727.42016 C878.153841,2727.68635 878,2728.05693 878,2728.43533 C878,2728.81256 878.153972,2729.18301 878.421465,2729.4505 C878.687654,2729.71669 879.05823,2729.87066 879.435331,2729.87066 C879.813737,2729.87066 880.183008,2729.71669 880.450502,2729.4505 C880.717995,2729.18301 880.870662,2728.81243 880.870662,2728.43533 C880.870662,2728.05693 880.717995,2727.68635 880.450502,2727.42016 C880.184313,2727.15267 879.813737,2727 879.435331,2727 Z" id="instagram"></path>
        </g>
    </g>
</svg>