<?xml version="1.0" encoding="UTF-8"?>
<svg width="30px" height="30px" viewBox="0 0 30 30" version="1.1" xmlns="http://www.w3.org/2000/svg" xmlns:xlink="http://www.w3.org/1999/xlink">
    <!-- Generator: Sketch 50.2 (55047) - http://www.bohemiancoding.com/sketch -->
    <title>linkedin</title>
    <desc>Created with Sketch.</desc>
    <defs></defs>
    <g id="Home" stroke="none" stroke-width="1" fill="none" fill-rule="evenodd">
        <g id="alur_web_home" transform="translate(-959.000000, -2719.000000)" fill="#F2F2F2" fill-rule="nonzero">
            <path d="M986,2719 L962,2719 C960.35,2719 959,2720.35 959,2722 L959,2746 C959,2747.65 960.35,2749 962,2749 L986,2749 C987.65,2749 989,2747.65 989,2746 L989,2722 C989,2720.35 987.65,2719 986,2719 Z M968,2744.5 L963.5,2744.5 L963.5,2731 L968,2731 L968,2744.5 Z M965.75,2728.45 C964.25,2728.45 963.05,2727.25 963.05,2725.75 C963.05,2724.25 964.25,2723.05 965.75,2723.05 C967.25,2723.05 968.45,2724.25 968.45,2725.75 C968.45,2727.25 967.25,2728.45 965.75,2728.45 Z M984.5,2744.5 L980,2744.5 L980,2736.55 C980,2735.35006 978.95,2734.3 977.75,2734.3 C976.55,2734.3 975.5,2735.35006 975.5,2736.55 L975.5,2744.5 L971,2744.5 L971,2731 L975.5,2731 L975.5,2732.8 C976.25,2731.6 977.9,2730.7 979.25,2730.7 C982.1,2730.7 984.5,2733.1 984.5,2735.95 L984.5,2744.5 Z" id="linkedin"></path>
        </g>
    </g>
</svg>