<?xml version="1.0" encoding="UTF-8"?>
<svg width="30px" height="30px" viewBox="0 0 30 30" version="1.1" xmlns="http://www.w3.org/2000/svg" xmlns:xlink="http://www.w3.org/1999/xlink">
    <!-- Generator: Sketch 50.2 (55047) - http://www.bohemiancoding.com/sketch -->
    <title>twitter</title>
    <desc>Created with Sketch.</desc>
    <defs></defs>
    <g id="Home" stroke="none" stroke-width="1" fill="none" fill-rule="evenodd">
        <g id="alur_web_home" transform="translate(-909.000000, -2719.000000)" fill="#F2F2F2" fill-rule="nonzero">
            <path d="M936,2719 L912,2719 C910.35,2719 909,2720.35 909,2722 L909,2746 C909,2747.65 910.35,2749 912,2749 L936,2749 C937.65,2749 939,2747.65 939,2746 L939,2722 C939,2720.35 937.65,2719 936,2719 Z M932.781921,2729.47942 C932.612845,2737.25693 927.709634,2742.66737 920.270279,2743.00552 C917.226906,2743.1746 915.028915,2742.16014 913,2740.97661 C915.197991,2741.31483 918.072287,2740.46945 919.593974,2739.11677 C917.395982,2738.94769 916.043372,2737.76416 915.367067,2735.90432 C916.043372,2736.0734 916.719677,2735.90432 917.226906,2735.90432 C915.197991,2735.22802 913.845381,2734.04448 913.676305,2731.33926 C914.183534,2731.67742 914.859839,2731.84649 915.536144,2731.84649 C914.014457,2731.00111 913,2727.78866 914.183534,2725.75975 C916.381525,2728.12681 919.086745,2730.15573 923.482727,2730.49388 C922.299194,2725.75975 928.724158,2723.2236 931.260301,2726.43605 C932.443835,2726.26698 933.289216,2725.75975 934.134598,2725.42159 C933.796445,2726.60513 933.12014,2727.28143 932.274759,2727.95774 C933.12014,2727.78866 933.965521,2727.61959 934.641826,2727.28143 C934.472684,2728.12681 933.627302,2728.80312 932.781921,2729.47942 Z" id="twitter"></path>
        </g>
    </g>
</svg>