<?xml version="1.0" encoding="UTF-8"?>
<svg width="120px" height="35px" viewBox="0 0 120 35" version="1.1" xmlns="http://www.w3.org/2000/svg" xmlns:xlink="http://www.w3.org/1999/xlink">
    <!-- Generator: Sketch 53.2 (72643) - https://sketchapp.com -->
    <title>accenture</title>
    <desc>Created with Sketch.</desc>
    <g id="Home-Page" stroke="none" stroke-width="1" fill="none" fill-rule="evenodd">
        <g id="alur_web_mobile_home" transform="translate(-213.000000, -582.000000)">
            <g id="accenture" transform="translate(213.000000, 582.000000)">
                <rect id="Rectangle" fill="#FFFFFF" x="0.929735718" y="0" width="119" height="35"></rect>
                <path d="M91.8222031,19.084184 L95.3959983,19.084184 L95.3959983,34.4681087 L91.8338225,34.4681087 L91.8338225,31.7006126 L91.7508268,31.6798605 C91.6512319,31.8666291 91.5549569,32.0542279 91.4528722,32.2393363 C90.3365799,34.2531172 88.2699868,35.2409158 86.158576,34.7362254 C84.4513543,34.3286547 83.5956685,33.1042826 83.2072486,31.493922 C83.0871219,30.9966619 83.024465,30.4872537 83.0205083,29.9757005 C83.0047391,26.4495088 83.0113787,22.9199967 83.0113787,19.3962951 L83.0113787,19.0958052 L86.5992832,19.0958052 C86.5992832,19.2709526 86.5992832,19.4319887 86.5992832,19.5938549 C86.5992832,22.4991447 86.5918136,25.4044345 86.5992832,28.3097243 C86.5983436,28.9037 86.6391118,29.4970085 86.7212869,30.0852714 C86.8939179,31.27395 87.2649088,31.6624288 88.7746007,31.4017828 C89.5514405,31.2673094 90.1091717,30.7501678 90.5399194,30.1159845 C91.4213338,28.817735 91.7923246,27.3551291 91.8089238,25.8061946 C91.8313326,23.7309876 91.8147335,21.6557805 91.8147335,19.5805735 L91.8222031,19.084184 Z" id="Path" fill="#A5A8B5"></path>
                <path d="M60.5494204,34.4705989 L56.9930543,34.4705989 L56.9930543,19.1065962 L60.5444406,19.1065962 L60.5444406,21.8276077 L60.6398857,21.8616411 L60.8631441,21.4250175 C61.9628373,19.2867242 64.1763328,18.2549313 66.3732292,18.8675324 C67.9418481,19.3058161 68.7610157,20.4446897 69.1353263,21.9429892 C69.2852263,22.5599409 69.3621097,23.1923748 69.3643945,23.8272772 C69.3859734,27.2430679 69.3751839,30.6588587 69.374354,34.0746494 C69.374354,34.1958415 69.3594148,34.3170336 69.3494553,34.4639582 L65.7657006,34.4639582 L65.7657006,33.9725492 C65.7657006,31.0265853 65.77815,28.0789613 65.758231,25.1363178 C65.7555906,24.4467956 65.6928294,23.7588174 65.5706607,23.0802026 C65.4378676,22.3538802 65.0569173,22.091574 64.3116158,22.0749724 C63.2658699,22.0509 62.4782406,22.5414789 61.8939508,23.3657511 C60.9320306,24.7221064 60.5784689,26.2710409 60.5593798,27.9063041 C60.5353111,29.9250655 60.5535702,31.9438268 60.5527402,33.9659086 L60.5494204,34.4705989 Z" id="Path" fill="#A5A8B5"></path>
                <path d="M13.1480818,34.4705989 L9.73861808,34.4705989 L9.73861808,32.7780601 C9.66724177,32.8037926 9.61495447,32.8062829 9.60167516,32.8303553 C8.89787156,34.0920811 7.76332023,34.6565375 6.38227165,34.8084426 C5.11326728,34.9454063 3.89240042,34.7793897 2.80100686,34.0671787 C0.626519315,32.646907 0.491236311,29.1945926 2.53625055,27.434817 C3.61519475,26.5084446 4.91822737,26.1017041 6.2826768,25.8950134 C7.30518392,25.740618 8.34429019,25.6941334 9.37592683,25.5986739 C9.4829913,25.5878828 9.59005576,25.5679608 9.79090537,25.539738 C9.71620924,24.5909533 9.70790967,23.6463191 9.55187773,22.7290776 C9.39086606,21.7944044 8.7501392,21.3254076 7.80232821,21.2440595 C6.26856753,21.1137365 5.38134342,21.8251174 5.18879337,23.3474893 C5.1804938,23.4155561 5.17219423,23.4827928 5.15642505,23.6089654 L1.68305468,23.6089654 C1.69384412,22.0666715 2.15198042,20.7808733 3.39359621,19.8545009 C4.23683261,19.2269583 5.20705243,18.9297886 6.23785912,18.8052762 C7.46951543,18.6575215 8.69453207,18.6766134 9.90211962,18.9920448 C11.9131056,19.5174872 13.0891548,20.9493801 13.1273328,23.0362083 C13.1704906,25.3870028 13.1447619,27.7394574 13.1480818,30.0919121 C13.1480818,31.3929286 13.1480818,32.6933916 13.1480818,33.9933013 L13.1480818,34.4705989 Z M9.72616872,27.6921427 C8.19240804,27.7361371 6.73832324,27.8830618 5.47844839,28.7803813 C5.2669135,28.9357597 5.08431443,29.1270963 4.93897629,29.3456677 C4.19201492,30.4438672 4.66509046,31.9712196 5.84611938,32.2401664 C6.84206787,32.4659489 7.75502066,32.2575981 8.46297405,31.4930919 C9.44066349,30.4372266 9.65728228,29.118225 9.72616872,27.6921427 L9.72616872,27.6921427 Z" id="Shape" fill="#A5A8B5" fill-rule="nonzero"></path>
                <path d="M55.1862377,25.8468686 L45.9836736,25.8468686 C46.0666693,28.1105044 46.845999,29.9831713 48.6694147,31.3171143 C50.5608869,32.7000323 52.6183505,32.456818 54.7281014,31.7537379 C54.7281014,32.546467 54.7339111,33.2918813 54.7189719,34.0364656 C54.6987626,34.1457275 54.6252467,34.2376364 54.523102,34.28134 C52.0797084,34.9454063 49.6263553,35.1761693 47.1896013,34.28134 C45.3844446,33.6172738 44.1627478,32.3140438 43.4680737,30.5501178 C42.5258885,28.1936241 42.3664326,25.5965444 43.0132573,23.1424589 C43.7029516,20.4496702 45.6807393,18.873343 48.4635854,18.7587916 C49.3516395,18.7222679 50.2762117,18.752981 51.1352172,18.9571813 C53.3553524,19.4859441 54.5521505,21.039029 54.9530198,23.2196566 C55.1007521,24.0572101 55.1065618,24.9204962 55.1862377,25.8468686 Z M51.700418,23.6380183 C51.700418,22.0077357 50.5874456,20.9651517 48.9449605,20.998355 C47.4203293,21.029068 46.0907381,22.2700418 46.131406,23.6380183 L51.700418,23.6380183 Z" id="Shape" fill="#A5A8B5" fill-rule="nonzero"></path>
                <path d="M119.600866,25.8535093 L110.388343,25.8535093 C110.482128,28.1121646 111.259798,29.9881518 113.087363,31.3187745 C114.967216,32.687581 117.008911,32.466779 119.136091,31.7495875 C119.136091,32.5597483 119.1419,33.3267448 119.126961,34.0879307 C119.126961,34.1576577 119.005787,34.2663985 118.921962,34.2888108 C116.576503,34.9271445 114.215275,35.1471164 111.859857,34.3767996 C109.910288,33.739296 108.593146,32.3846008 107.858634,30.4994828 C106.937501,28.1653835 106.782292,25.5988018 107.415437,23.1706817 C108.100151,20.4637816 110.089558,18.8691926 112.887344,18.7596216 C113.775398,18.7247582 114.69914,18.7596216 115.557316,18.9629919 C117.742593,19.4842839 118.938561,21.009146 119.349389,23.15408 C119.512891,24.0148759 119.517871,24.9063848 119.600866,25.8535093 Z M116.087658,23.6380183 C116.2412,22.1969945 115.124078,21.0572908 113.527241,20.999185 C111.930403,20.9410793 110.521136,22.1945043 110.552674,23.6380183 L116.087658,23.6380183 Z" id="Shape" fill="#A5A8B5" fill-rule="nonzero"></path>
                <path d="M27.6416222,24.3327976 L23.8570179,24.3327976 C23.8005809,23.9227367 23.7624028,23.5135059 23.6835569,23.1117458 C23.5175655,22.2575906 23.102587,21.5686219 22.2095531,21.3361987 C21.2136046,21.078873 20.3114413,21.2731124 19.5893786,22.0459195 C19.020858,22.6535401 18.7594216,23.4155561 18.634098,24.2157559 C18.3851109,25.8086848 18.5511023,27.3617698 19.215068,28.8393172 C20.2475346,31.1510978 22.4568803,32.4435367 25.1600505,32.3032527 C25.9261009,32.2642388 26.6863416,32.1181442 27.4772907,32.0177042 C27.4772907,32.6336257 27.4831004,33.2943716 27.4689911,33.9551175 C27.4490227,34.0543033 27.3817385,34.1374135 27.2888905,34.1775797 C24.3931702,34.9985316 21.4999398,35.2824199 18.6780858,33.9185938 C16.9426455,33.0810403 15.8562317,31.644997 15.270282,29.8296059 C14.6337671,27.9012305 14.5251545,25.837564 14.9557283,23.8530097 C15.6147142,20.8032855 17.8547683,18.893265 20.973747,18.7571314 C21.8696837,18.7106176 22.7680117,18.7643528 23.6520185,18.9173374 C25.9576393,19.3390194 27.3768659,20.978433 27.5777155,23.3209267 C27.6034442,23.6488094 27.6200433,23.975862 27.6416222,24.3327976 Z" id="Path" fill="#A5A8B5"></path>
                <path d="M41.4678772,24.3377781 L37.6550544,24.3377781 C37.6127266,23.9642408 37.5919776,23.6073052 37.5289009,23.2586704 C37.3687192,22.3663314 36.9952385,21.6034853 36.0457676,21.3444995 C35.0224305,21.0664218 34.0945385,21.2772628 33.3650062,22.091574 C32.7840363,22.7448492 32.5267496,23.5516897 32.4188552,24.396714 C32.2155157,25.9921331 32.382337,27.5510286 33.1102094,29.0011833 C34.3211168,31.4158942 36.3827302,32.3771301 38.9887954,32.3024226 C39.7357568,32.2816705 40.4876979,32.1231247 41.2769871,32.0226847 C41.2769871,32.6244947 41.2844567,33.2835805 41.2678575,33.9410061 C41.2464549,34.0517288 41.1719754,34.1448421 41.0686678,34.1900309 C38.5124,34.9371054 35.941193,35.1861303 33.3666661,34.3045823 C31.5490601,33.6845105 30.2053596,32.4842108 29.4384793,30.7244352 C28.3595351,28.2408274 28.1935437,25.6609301 28.9927923,23.0727319 C29.7613326,20.5982551 31.55238,19.2427298 34.0746195,18.8393096 C35.3120855,18.6417499 36.5545313,18.6608418 37.7770581,18.9829139 C39.8154326,19.5191474 41.0711577,20.9402492 41.3458735,23.0279074 C41.4039705,23.4454391 41.4263793,23.8712716 41.4678772,24.3377781 Z" id="Path" fill="#A5A8B5"></path>
                <path d="M70.2665578,19.0650921 L73.2643628,19.0650921 L73.2643628,16.3789441 C73.2546377,16.1299372 73.2574077,15.880599 73.2726624,15.6318696 C73.2834518,15.5305995 73.3598079,15.3828448 73.4436335,15.3504716 C74.5483064,14.8864553 75.6604489,14.4373805 76.8315183,13.961743 L76.8315183,19.0501506 L81.400432,19.0501506 L81.400432,21.5528503 L76.8838056,21.5528503 C76.8738461,21.7188668 76.8597369,21.8475297 76.8597369,21.9795128 C76.8597369,24.3311374 76.8597369,26.6819319 76.8597369,29.0352167 C76.8570489,29.463307 76.884784,29.891047 76.9427326,30.3152044 C77.1527117,31.7470972 77.9893085,32.4153139 79.4409034,32.3074031 C79.9206186,32.2725396 80.395354,32.1779102 80.9348261,32.1023727 L80.9348261,34.601752 C80.3438967,34.6689887 79.7629267,34.7843702 79.1819568,34.7893507 C78.1860083,34.7951613 77.1842501,34.8242142 76.2107104,34.6731391 C74.3848049,34.3900809 73.4228846,33.2619983 73.3125003,31.4250251 C73.2585531,30.5285357 73.2693425,29.6278958 73.2668527,28.7289161 C73.261043,26.5159154 73.2668527,24.3029146 73.2668527,22.0882537 L73.2668527,21.5636414 L70.2665578,21.5636414 L70.2665578,19.0650921 Z" id="Path" fill="#A5A8B5"></path>
                <path d="M97.7256878,19.0858442 L101.262965,19.0858442 L101.262965,21.8184768 L101.35509,21.8682817 C101.904522,20.9825834 102.459763,20.1002054 103.339517,19.5066962 C104.231721,18.9048861 105.2285,18.7056663 106.313254,18.7305687 L106.313254,22.4352283 C105.80283,22.4850333 105.292406,22.502465 104.794432,22.5879635 C102.676382,22.9540301 101.484563,24.2257169 101.374179,26.4370575 C101.267115,28.6027436 101.305293,30.7759003 101.282054,32.9449067 C101.277074,33.4429564 101.282054,33.9410061 101.282054,34.4622981 L97.7265177,34.4622981 L97.7256878,19.0858442 Z" id="Path" fill="#A5A8B5"></path>
                <path d="M78.4291857,6.68108673 L73.802175,4.88893795 C72.7232308,4.47389654 71.6442866,4.04474373 70.5545529,3.64381374 C70.3055658,3.55084446 70.2225701,3.42633204 70.2316996,3.16568604 C70.2499587,2.46094574 70.2375093,1.75454527 70.2375093,1.00083008 C70.3777721,1.04731472 70.4864965,1.07802778 70.5968808,1.12119209 C74.0887868,2.53842013 77.5812462,3.95426471 81.0742589,5.36872581 C81.3547844,5.48161707 81.4477396,5.62273115 81.4361202,5.91492029 C81.4137114,6.46692536 81.4435898,7.02142068 81.4186911,7.57508591 C81.4128814,7.70125849 81.3024971,7.89051737 81.1929428,7.93534185 C77.5892691,9.40956891 73.9822757,10.8760485 70.3719624,12.3347807 C70.3281468,12.3402842 70.2838148,12.3402842 70.2399992,12.3347807 C70.2399992,11.5520126 70.2275499,10.7717348 70.2565984,9.99228704 C70.2565984,9.89599743 70.4723872,9.77480534 70.6101601,9.72084996 C73.0048629,8.79005044 75.4003957,7.86478481 77.7967584,6.94505306 C77.9851587,6.87283585 78.1694091,6.78982757 78.4291857,6.68108673 Z" id="Path" fill="#A5A8B5"></path>
            </g>
        </g>
    </g>
</svg>