<?xml version="1.0" encoding="UTF-8"?>
<svg width="46px" height="46px" viewBox="0 0 46 46" version="1.1" xmlns="http://www.w3.org/2000/svg" xmlns:xlink="http://www.w3.org/1999/xlink">
    <!-- Generator: Sketch 53.2 (72643) - https://sketchapp.com -->
    <title>dell</title>
    <desc>Created with Sketch.</desc>
    <g id="Home-Page" stroke="none" stroke-width="1" fill="none" fill-rule="evenodd">
        <g id="alur_web_mobile_home" transform="translate(-75.000000, -708.000000)" fill="#A5A8B5">
            <g id="dell" transform="translate(75.585061, 708.038164)">
                <path d="M22.61846,2.37540577 C11.4763861,2.393326 2.39161264,11.4066223 2.38554476,22.618904 C2.37947688,33.8378335 11.4607829,42.8730966 22.6204827,42.8809005 C33.7521546,42.8887045 42.8655337,33.9069131 42.8701568,22.6391365 C42.87478,11.3600876 33.7504209,2.37540577 22.61846,2.37540577 M22.6285732,0.000108524005 C35.0882441,-0.0383332543 45.255123,10.140934 45.260324,22.6223724 C45.265525,35.1003424 35.1090483,45.2634237 22.6438873,45.2671812 C10.1515654,45.2712277 -0.00317766785,35.0936946 7.45924239e-07,22.626708 C0.002890213,10.1655021 10.1492538,-0.0285060327 22.6285732,0.000108524005" id="Fill-1"></path>
                <path d="M8.75076486,22.0604402 C8.75076486,22.6686396 8.75511451,23.276839 8.74757512,23.8847628 C8.74583526,24.0415664 8.80035086,24.1019179 8.96505758,24.0947528 C9.17297082,24.0859344 9.38233393,24.1016423 9.58995719,24.0897924 C10.0315916,24.0644393 10.4587271,23.9828684 10.8380166,23.7480764 C11.3953516,23.4022267 11.6377721,22.8838656 11.6830084,22.280351 C11.7566625,21.3026022 11.3182178,20.3659145 10.0924867,20.1333271 C9.72537627,20.0638816 9.33854746,20.0917149 8.96128788,20.0677397 C8.79078163,20.0567166 8.74583526,20.1253354 8.74786509,20.2785564 C8.75511451,20.8724258 8.75076486,21.4662952 8.75076486,22.0604402 M25.1793902,23.4931673 C24.9694471,23.6474907 24.7583441,23.8007117 24.549561,23.9566885 C22.9688984,25.1394669 21.3873659,26.3205918 19.811053,27.5086062 C19.6579454,27.6237975 19.5608032,27.639781 19.3952266,27.5146689 C17.8197836,26.3255522 16.2359313,25.1469075 14.6543988,23.965507 C14.602493,23.9266506 14.5473975,23.8919278 14.4688138,23.8381902 C14.4232875,23.9136985 14.3821108,23.975979 14.3473136,24.0415664 C13.5672765,25.5131499 12.308198,26.3666133 10.6109649,26.6474267 C10.3850731,26.6849052 10.1516419,26.6942748 9.92198042,26.6951016 C8.5431416,26.6992352 7.1640128,26.6931725 5.78517398,26.7011643 C5.58016051,26.7025422 5.5195554,26.6493557 5.51984538,26.4514911 C5.52622486,23.5405666 5.52651484,20.6293665 5.5195554,17.7181665 C5.51897545,17.506523 5.5914696,17.4599504 5.80025277,17.4613283 C7.18663098,17.46932 8.57358915,17.4392821 9.95909743,17.4723514 C11.9599361,17.5197507 13.4190984,18.4197866 14.3389043,20.1085252 C14.3661621,20.1589558 14.3899402,20.2107644 14.4192278,20.2600928 C14.429377,20.2774541 14.4502553,20.2890284 14.4882422,20.3223733 C14.8072165,20.0859278 15.1288006,19.8492068 15.4489348,19.6100056 C16.772968,18.6215093 18.0978712,17.6338398 19.4178447,16.6403831 C19.5532638,16.5381439 19.6411267,16.5318056 19.7800255,16.6392808 C20.3217019,17.0584341 20.8752672,17.4638085 21.4459412,17.8906779 C19.8786176,19.0624332 18.3304324,20.2195829 16.7451303,21.4045659 C17.0632346,21.6401846 17.343932,21.8567884 17.6382582,22.0552042 C17.677985,22.0819352 17.802095,22.0342603 17.8618302,21.9901679 C18.7674272,21.3202392 19.6689645,20.6456256 20.5710818,19.9718388 C21.1278369,19.556268 21.6866218,19.1431774 22.2387373,18.7223706 C22.3570478,18.6322568 22.4367913,18.6220605 22.5620612,18.7187881 C23.0602411,19.1015652 23.56915,19.4716657 24.0731294,19.8478289 C24.1238753,19.8858586 24.1685317,19.9310533 24.2384161,19.9927826 C22.6742822,21.1637112 21.1269669,22.3225143 19.5521039,23.5017102 C19.8649887,23.7329197 20.1407565,23.9475945 20.432183,24.1410499 C20.4779993,24.1716389 20.6125484,24.127271 20.6757633,24.0804228 C21.5700512,23.4201393 22.4594095,22.753793 23.3496377,22.0882735 C23.9235014,21.659475 24.4938855,21.2259917 25.0729688,20.8035315 C25.206938,20.7059771 25.2518843,20.6007065 25.2507244,20.4447296 C25.244055,19.5311904 25.2524643,18.6173756 25.243475,17.7035608 C25.2417352,17.5191995 25.2939309,17.4591237 25.4937248,17.4613283 C26.4329591,17.4704223 27.3719034,17.4712491 28.3111377,17.4610527 C28.5280402,17.4585725 28.5903851,17.522782 28.5898052,17.7258826 C28.5831357,19.687994 28.5857455,21.6501054 28.5860355,23.6119412 C28.5860355,23.6827646 28.5909651,23.7541391 28.5857455,23.8244114 C28.5729865,23.9985763 28.6533101,24.0564476 28.8362853,24.0550697 C29.8053872,24.0481803 30.774489,24.0564476 31.7433009,24.0481803 C31.940485,24.0468024 32.0170388,24.088139 32.0132691,24.2942709 C31.9999302,25.0234488 32.0034099,25.7531779 32.0115293,26.4826314 C32.0135591,26.6490801 31.9631032,26.7036445 31.7841876,26.7030933 C29.6824371,26.6981329 27.5806866,26.6978573 25.478646,26.7036445 C25.2849417,26.7041956 25.2428951,26.6369547 25.244055,26.4683013 C25.2510144,25.5688166 25.2475347,24.6690562 25.2475347,23.769847 L25.2475347,23.5221029 C25.2249165,23.5124577 25.2020084,23.5028125 25.1793902,23.4931673" id="Fill-3"></path>
                <path d="M33.1216021,22.6105234 C33.1216021,21.0573167 33.1253054,19.50411 33.1173292,17.9509032 C33.1161898,17.7349414 33.1703136,17.6626579 33.3862393,17.6653241 C34.3015022,17.6771739 35.2164803,17.6774701 36.1314583,17.6653241 C36.3502326,17.6623617 36.3992289,17.7390889 36.3983744,17.9523845 C36.3915377,20.0995602 36.3941014,22.2467359 36.3943863,24.3939116 C36.3943863,24.7505892 36.394956,24.7508855 36.7279602,24.7508855 C37.6429382,24.7511817 38.5582011,24.7559216 39.473464,24.7470343 C39.6674553,24.7449606 39.7440833,24.7926559 39.7406649,25.0112839 C39.7292704,25.7880353 39.7306947,26.5647868 39.7400952,27.341242 C39.7423741,27.5403179 39.6859713,27.6022329 39.4911255,27.6016404 C37.4483772,27.5948268 35.4061986,27.5948268 33.3634503,27.6019367 C33.1649012,27.6025292 33.1173292,27.5338006 33.1178989,27.3385759 C33.1244508,25.7628546 33.1216021,24.1865409 33.1216021,22.6105234" id="Fill-5"></path>
            </g>
        </g>
    </g>
</svg>