<?xml version="1.0" encoding="UTF-8"?>
<svg width="134px" height="35px" viewBox="0 0 134 35" version="1.1" xmlns="http://www.w3.org/2000/svg" xmlns:xlink="http://www.w3.org/1999/xlink">
    <!-- Generator: Sketch 53.2 (72643) - https://sketchapp.com -->
    <title>e-trader</title>
    <desc>Created with Sketch.</desc>
    <g id="Home-Page" stroke="none" stroke-width="1" fill="none" fill-rule="evenodd">
        <g id="alur_web_mobile_home" transform="translate(-40.000000, -582.000000)">
            <g id="e-trader" transform="translate(40.000000, 582.000000)">
                <rect id="Rectangle" fill="#FFFFFF" x="0.0564962811" y="0.0613496933" width="133" height="34"></rect>
                <path d="M65.072309,29.3983842 L70.0219972,34.6826689 C69.9417957,34.6961774 69.8609845,34.7053161 69.7798867,34.7100486 C68.6485294,34.7100486 67.5171721,34.7171912 66.3858148,34.7029061 C66.2402436,34.6927347 66.1036809,34.6251399 66.003416,34.513629 C64.6457873,32.904178 63.2983407,31.2875845 61.9610764,29.6638484 C61.8177616,29.4650834 61.5903518,29.3536857 61.3535375,29.3662428 C59.8182856,29.3817183 58.2830338,29.3733854 56.7477819,29.3733854 L56.3981925,29.3733854 L56.3981925,34.6945731 L53.0493749,34.6945731 L53.0493749,20 L53.3559727,20 C57.4435667,20 61.5311606,20 65.6187545,20.008333 C66.136247,20.0082834 66.6521939,20.067761 67.1574005,20.1857059 C68.2683933,20.4511701 68.9336314,21.257086 68.9675721,22.4558413 C69.0116951,23.9283937 69.0196146,25.4045173 68.9675721,26.8758793 C68.9143984,28.3186712 67.9946049,29.1888699 66.5102641,29.3186259 C66.050933,29.3591003 65.591602,29.3710045 65.072309,29.3983842 Z M56.406112,26.6496991 C56.4966206,26.6496991 56.5633707,26.6639842 56.6323835,26.6639842 C59.1847256,26.6639842 61.7366905,26.6639842 64.2882783,26.6639842 C64.5085333,26.6628125 64.7282077,26.6400967 64.9444656,26.5961301 C65.3675932,26.5080388 65.62328,26.2390034 65.6379876,25.7902142 C65.6640088,25.065247 65.6651402,24.3378989 65.6379876,23.6129317 C65.6210172,23.1462862 65.3664619,22.8760603 64.9263639,22.7927308 C64.6825272,22.7465205 64.4353444,22.7226228 64.1875875,22.7213054 C61.694076,22.7165437 59.1998103,22.7165437 56.7047903,22.7213054 C56.612019,22.7213054 56.5192477,22.7296384 56.4117688,22.7344001 L56.406112,26.6496991 Z" id="Shape" fill="#A5A8B5" fill-rule="nonzero"></path>
                <path d="M92.6521602,34.691787 L92.6521602,20 L92.964422,20 C95.970089,20 98.9757559,20 101.981423,20 C103.625768,20 105.247893,20.1809099 106.785812,20.8331376 C109.189176,21.8507557 110.442901,23.7217448 110.700196,26.325895 C110.828843,27.6291603 110.758672,28.9193334 110.25227,30.1345241 C109.266364,32.500635 107.461794,33.8907847 105.021006,34.3835261 C103.968793,34.5832761 102.900914,34.6852593 101.830555,34.6882164 C98.8552953,34.7286831 95.8788664,34.7048791 92.903607,34.7048791 C92.8205711,34.7072595 92.7433827,34.697738 92.6521602,34.691787 Z M96.1735855,31.7734249 C96.2612995,31.7734249 96.318606,31.7853268 96.377082,31.7853268 C97.9535952,31.7853268 99.5347865,31.7960386 101.108961,31.7758053 C102.287837,31.7615229 103.467883,31.7091543 104.617521,31.3794698 C105.983521,30.9867049 106.877034,30.121432 107.095735,28.6741529 C107.198819,27.9562771 107.223139,27.2289613 107.168245,26.5056147 C107.043106,24.7655472 106.050184,23.5372643 104.391804,23.0968916 C103.672333,22.9109202 102.934137,22.8102747 102.191936,22.796962 C100.268076,22.7553052 98.3430454,22.7814895 96.4180152,22.7826797 C96.3419964,22.7826797 96.264808,22.7933914 96.1759245,22.8005326 L96.1735855,31.7734249 Z" id="Shape" fill="#A5A8B5" fill-rule="nonzero"></path>
                <path d="M4.59245676,22.6323336 L4.59245676,25.8468422 L12.818553,25.8468422 L12.818553,28.5648879 L4.59245676,28.5648879 L4.59245676,31.9210731 L16.8411141,31.9210731 L16.8411141,34.7118343 L16.5355734,34.7117428 C11.840431,34.7117428 7.14607207,34.7117428 2.45249658,34.7117428 C2.30329132,34.7130124 2.15426224,34.7010613 2.00711222,34.676026 C1.31729529,34.5569702 1.00117816,34.179563 1.00000301,33.4723711 C1.00000301,29.3824049 1.00000301,25.2948198 1.00000301,21.2096158 C0.998827852,20.5393313 1.34197358,20.1416846 1.98713456,20.0464399 C2.26337996,20.0105416 2.54187033,19.9954198 2.8203206,20.0011987 C7.27651446,20.0011987 11.7319249,20.0011987 16.1865519,20.0011987 L16.58493,20.0011987 L16.58493,22.6323336 L4.59245676,22.6323336 Z" id="Path" fill="#A5A8B5"></path>
                <path d="M128.860421,31.9206104 L128.860421,34.7111737 L128.554386,34.7111737 C123.864197,34.7111737 119.170881,34.7111737 114.474438,34.7111737 C114.345107,34.7141638 114.215741,34.7069994 114.087497,34.6897445 C113.353483,34.5706931 113.019307,34.1694901 113.019307,33.4099426 C113.019307,29.5328374 113.022043,25.6557322 113.027515,21.778627 C113.027515,21.4976658 113.027515,21.2143236 113.052138,20.9333625 C113.086142,20.4571571 113.340585,20.1726244 113.797878,20.0809549 C114.001101,20.0332442 114.208486,20.0061264 114.416983,20 C119.050108,20 123.683625,20 128.317532,20 C128.366779,20 128.416026,20 128.491069,20.0095241 L128.491069,22.6286535 L116.588541,22.6286535 L116.588541,25.9216135 L124.750643,25.9216135 L124.750643,28.5538386 L116.589713,28.5538386 L116.589713,31.9241819 L128.860421,31.9206104 Z" id="Path" fill="#A5A8B5"></path>
                <path d="M91.520652,34.6975761 C90.2185746,34.6975761 88.976047,34.6975761 87.7335194,34.6881081 C87.6181694,34.6597742 87.5189438,34.5841473 87.4586745,34.4786293 C86.9372328,33.6691179 86.4238074,32.8536891 85.9183983,32.0323427 C85.8377645,31.8749721 85.6744975,31.7820086 85.5026955,31.7956435 C82.5297907,31.8027445 79.5576493,31.8027445 76.5862713,31.7956435 C76.4224506,31.7784043 76.2653132,31.867368 76.1911819,32.0193243 C75.7067679,32.8477716 75.2028857,33.652549 74.7173265,34.4738953 C74.6478796,34.6294439 74.4920812,34.7238781 74.3268178,34.7105945 C73.2801171,34.6999431 72.2322712,34.7105945 71.1535053,34.7105945 C71.1924417,34.6230158 71.2142002,34.5602905 71.2462654,34.5034827 C73.8313337,30.0164543 76.4152568,25.5329763 78.9980347,21.0530489 C79.4160278,20.3275657 80.0035087,19.9689664 80.821172,20.0021043 C81.1509858,20.0163062 81.4819448,20.0021043 81.8129038,20.0021043 C82.5392346,19.9816734 83.2161294,20.3809534 83.5684751,21.0376634 C86.1535433,25.470251 88.7370847,29.9028387 91.3190991,34.3354263 C91.3775037,34.4383904 91.4336178,34.5449051 91.520652,34.6975761 Z M81.1166302,23.0649923 L77.8242182,28.9327663 L84.3414761,28.9327663 L81.1166302,23.0649923 Z" id="Shape" fill="#A5A8B5" fill-rule="nonzero"></path>
                <path d="M22.3299154,33.5789792 L20.1972887,32.2789142 L22.5678717,28.0860282 L17.9726223,28.0860282 L17.9726223,25.5000038 L22.5746063,25.5000038 L20.1972887,21.3729439 L22.3299154,20 C23.1369463,21.4105588 23.9349977,22.8081874 24.7644772,24.2575366 L27.2046512,20.0011755 L29.337278,21.3717684 L26.9689398,25.4858982 L31.5507201,25.4858982 L31.5507201,28.0778 L26.9577155,28.0778 C27.7658688,29.5059907 28.5425939,30.8801101 29.3327882,32.2789142 L27.2001615,33.5801547 L24.7633548,29.32732 L22.3299154,33.5789792 Z" id="Path" fill="#A5A8B5"></path>
                <polygon id="Path" fill="#A5A8B5" points="32.6822282 20 49.6548505 20 49.6548505 22.7677145 42.8612785 22.7677145 42.8612785 34.7118343 39.4464005 34.7118343 39.4464005 22.7832233 32.6822282 22.7832233"></polygon>
                <path d="M133.385326,21.7248975 C133.357725,22.6568455 132.603899,23.397198 131.684797,23.3950339 C130.765694,23.3928698 130.015265,22.6489754 129.991929,21.7169075 C129.991929,20.7261452 130.721805,19.9950585 131.7116,20.0003851 C132.163008,19.9905359 132.59844,20.1699597 132.915213,20.4963447 C133.231986,20.8227296 133.402059,21.2671846 133.385326,21.7248975 L133.385326,21.7248975 Z M133.135908,21.7169075 C133.135908,20.8513221 132.547807,20.2520707 131.699786,20.238754 C131.314996,20.2362698 130.945144,20.389686 130.672313,20.6649543 C130.399482,20.9402225 130.24624,21.3145723 130.246598,21.7049224 C130.246598,22.5705078 130.838637,23.1790808 131.690597,23.1817442 C132.584563,23.1897342 133.134595,22.6291012 133.134595,21.7102491 L133.135908,21.7169075 Z" id="Shape" fill="#A5A8B5" fill-rule="nonzero"></path>
                <path d="M131.123437,22.2499134 L131.123437,20 C131.425547,20.043325 131.725695,20.0328673 132.006226,20.1404328 C132.330896,20.2644321 132.32403,20.8142117 132.065079,21.1533421 C132.128836,21.5268337 132.184746,21.8510244 132.240656,22.1767091 L132.170032,22.2633591 C132.120008,22.1976246 132.026824,22.133384 132.025844,22.0661556 C132.017997,21.4147862 131.896368,21.335606 131.39514,21.4401836 C131.246047,21.6523269 131.535405,22.1767091 131.123437,22.2499134 Z M131.366695,21.113005 C131.47361,21.113005 131.575621,21.15633 131.648206,21.1040412 C131.778663,21.0114153 131.975819,20.8859221 131.996417,20.7290556 C132.036633,20.4168166 131.826726,20.3510821 131.661938,20.312239 C131.563971,20.3017837 131.465643,20.3017837 131.367675,20.312239 L131.366695,21.113005 Z" id="Shape" fill="#A5A8B5" fill-rule="nonzero"></path>
            </g>
        </g>
    </g>
</svg>