<?xml version="1.0" encoding="UTF-8"?>
<svg width="136px" height="36px" viewBox="0 0 136 36" version="1.1" xmlns="http://www.w3.org/2000/svg" xmlns:xlink="http://www.w3.org/1999/xlink">
    <!-- Generator: Sketch 53.2 (72643) - https://sketchapp.com -->
    <title>freddie</title>
    <desc>Created with Sketch.</desc>
    <g id="Home-Page" stroke="none" stroke-width="1" fill="none" fill-rule="evenodd">
        <g id="alur_web_mobile_home" transform="translate(-163.000000, -707.000000)">
            <g id="freddie" transform="translate(162.261117, 706.259023)">
                <rect id="Rectangle" fill="#FFFFFF" x="0.738882735" y="0.740977149" width="136" height="35"></rect>
                <path d="M100.594965,31.1067174 C101.0661,29.89963 101.482412,28.863574 101.876452,27.8176508 C102.948927,24.9841199 104.028255,22.1538781 105.068179,19.31048 C105.290897,18.7003581 105.607843,18.422432 106.301696,18.4503891 C107.38445,18.4947915 108.472344,18.4602563 109.556812,18.4635453 C110.756065,18.4635453 110.756065,18.4750571 110.756065,19.5966288 C110.756065,24.3109576 110.756065,29.0252864 110.756065,33.7396153 C110.756065,34.4253857 110.742359,35.1111561 110.756065,35.7952819 C110.764631,36.3116654 110.52992,36.5550563 109.98683,36.5419 C109.501989,36.5287438 109.017148,36.5419 108.530594,36.5419 C107.331341,36.5419 107.331341,36.5419 107.331341,35.4121057 C107.331341,31.4652257 107.331341,27.5183458 107.331341,23.5714658 L107.331341,22.6998631 L107.160019,22.6669725 C107.070931,22.8462266 106.964712,23.0189026 106.891043,23.2047349 C105.242927,27.3818495 103.570826,31.5490969 101.977532,35.7459459 C101.646881,36.6191931 101.043828,36.5254547 100.361967,36.5517672 C99.680106,36.5780798 99.2141105,36.4744742 98.9331427,35.7295006 C97.3518419,31.5293625 95.7054387,27.3522479 94.0795942,23.1669106 C94.0124295,22.9736462 93.8820351,22.8063727 93.7078258,22.6899959 C93.69412,22.9465431 93.6667085,23.2030903 93.6649953,23.457993 C93.6649953,27.4333782 93.6649953,31.407667 93.6649953,35.3808595 C93.6649953,36.5402555 93.6649953,36.5484782 92.4948669,36.5435446 C90.0706625,36.5287438 90.4047402,36.785291 90.4047402,34.5322803 C90.3893212,29.5444108 90.4047402,24.5565413 90.4047402,19.5670272 C90.4047402,18.4816352 90.4150195,18.4734125 91.5577363,18.471768 C92.6422038,18.471768 93.7283844,18.5079477 94.8128518,18.4602563 C95.5084186,18.4290101 95.8202244,18.7020027 96.0480825,19.3121245 C97.4186574,22.9745002 98.8234967,26.6237196 100.221483,30.2762281 C100.296865,30.4933065 100.409937,30.7070958 100.594965,31.1067174 Z" id="Path" fill="#A5A8B5"></path>
                <path d="M63.4316773,24.8297625 C63.4316773,22.5826239 63.4316773,20.5521185 63.4316773,18.5233323 C63.4316773,17.3198151 63.4316773,17.3198151 64.5977298,17.3198151 C66.8641178,17.3438854 66.619786,17.0223744 66.619786,19.3726716 C66.6298963,24.5581114 66.6298963,29.7429782 66.619786,34.9272718 C66.619786,36.180649 66.6079907,36.1875263 65.4200326,36.1961228 L65.2515279,36.1961228 C63.7231904,36.1961228 63.7231904,36.1961228 63.4822287,34.6487435 C63.3633774,34.7098215 63.2505267,34.7823631 63.1452194,34.8653766 C60.5569874,37.4030786 56.5128749,37.0385848 54.3644402,34.069336 C52.2480213,31.1465085 52.7467952,26.55595 55.4243346,24.317408 C57.5619114,22.5120178 60.6554678,22.5120178 62.7930446,24.317408 C62.951439,24.4532335 63.1030932,24.5684273 63.4316773,24.8297625 Z M63.4417876,29.8157623 C63.4537087,29.5866823 63.4537087,29.3571182 63.4417876,29.1280382 C63.2480072,27.2677445 61.802237,25.7925762 60.1155051,25.7238038 C58.1372601,25.6429962 56.7201357,26.75539 56.4690637,28.8357554 C56.3649793,29.7940864 56.4726509,30.7640359 56.7841675,31.6743367 C57.234075,32.9775739 58.2670087,33.7271932 59.6723378,33.7908077 C61.8241426,33.8853698 63.4502128,32.1712174 63.4417876,29.8088851 L63.4417876,29.8157623 Z" id="Shape" fill="#A5A8B5" fill-rule="nonzero"></path>
                <path d="M47.5977074,34.5635842 C46.4162459,35.9021563 45.0508139,36.5413717 43.4237726,36.5551183 C40.3637872,36.5808931 37.8945326,34.4364284 37.3476847,31.1905199 C36.9578024,28.8553216 37.3476847,26.6593072 39.000043,24.8722533 C41.2313175,22.4666038 44.6423658,22.3257015 47.114996,24.4890677 C47.1960105,24.5595189 47.2837762,24.6110685 47.5504489,24.7914922 L47.5504489,23.5886675 C47.5504489,21.7844304 47.5690147,19.9801932 47.5504489,18.1759561 C47.5420099,17.5487689 47.7698632,17.3167956 48.39435,17.3167956 C51.192726,17.3597536 50.7572731,16.9885963 50.7673999,19.6296557 C50.7910291,24.726196 50.7673999,29.8227363 50.7673999,34.9227133 C50.7673999,36.1702144 50.7505219,36.1839609 49.5639969,36.1908342 C49.5066117,36.1908342 49.4509142,36.1908342 49.3952167,36.1908342 C47.8795703,36.1977075 47.8795703,36.1977075 47.5977074,34.5635842 Z M44.0060643,33.7851847 C46.031427,33.7851847 47.6618439,32.015314 47.6702829,29.7814966 C47.6804097,27.5064395 46.0550562,25.7142307 43.9858107,25.7193856 C41.9165652,25.7245406 40.4802456,27.3689738 40.485309,29.7024539 C40.4920602,32.0892018 41.9469457,33.7800298 44.0060643,33.7851847 L44.0060643,33.7851847 Z" id="Shape" fill="#A5A8B5" fill-rule="nonzero"></path>
                <path d="M1.01257616,27.4294266 C1.01257616,24.8001395 1.03529181,22.1708523 1.00034466,19.5497817 C0.989860512,18.7642822 1.21526964,18.4372646 2.12913767,18.4487677 C5.5329903,18.4947803 8.94383235,18.4865637 12.3424429,18.4487677 C13.1706904,18.4487677 13.4712359,18.677187 13.4450256,19.4741897 C13.3768786,21.580906 13.6704347,21.2818246 11.4705115,21.3015443 C9.46279756,21.316334 7.45158895,21.3261938 5.44736977,21.3015443 C4.71697429,21.2900411 4.46884951,21.5529699 4.49156516,22.2185082 C4.53000703,23.2570766 4.53000703,24.2989316 4.49156516,25.3407867 C4.46884951,25.9767455 4.70998486,26.2133813 5.39844376,26.2035215 C7.55118834,26.1755853 9.70393291,26.2166679 11.8636669,26.1821585 C12.6429884,26.1706554 12.9540181,26.3941448 12.9278077,27.1681412 C12.8614081,29.1614695 13.1864166,28.9757761 11.0161985,28.9757761 C9.18322034,28.9757761 7.3467475,29.0004257 5.51901144,28.964273 C4.77288974,28.9511266 4.47933366,29.1713294 4.49505988,29.9009566 C4.5352491,31.8170496 4.48457573,33.7331426 4.52127024,35.6525222 C4.53350174,36.3344935 4.2713981,36.5694861 3.56022356,36.5546963 C0.589715619,36.4873209 1.0562601,36.9425162 1.02480766,34.2540701 C1.00034466,31.9731635 1.01257616,29.7021167 1.01257616,27.4294266 Z" id="Path" fill="#A5A8B5"></path>
                <path d="M83.2370291,32.2609299 C83.6140118,32.5682021 83.9352666,32.8274095 84.2516043,33.0934832 C85.372718,34.0341827 85.372718,34.0788144 84.2516043,35.0864614 C82.0405188,37.0639902 77.947798,37.0416743 75.631813,35.0383965 C73.2601002,32.9870537 72.7142948,29.11096 74.3762968,26.1240676 C75.8612808,23.4581802 79.3114919,22.2634233 82.2011462,23.4101153 C84.0221365,24.1328059 85.0301555,25.5987865 85.5284282,27.481902 C85.7234758,28.2183255 85.7513397,29.0028139 85.8464049,29.766703 C85.936553,30.4893937 85.6661089,30.7966659 84.9318122,30.7829331 C82.5273182,30.748601 80.1244633,30.7589006 77.7199694,30.7829331 C77.3692115,30.7829331 77.0217318,30.9683264 76.670974,31.0678895 C76.7807907,31.4421094 76.8348796,31.8558111 77.0118975,32.1836826 C78.0461413,34.0204498 80.8751506,34.4152689 82.4978152,32.9681711 C82.7223658,32.7690449 82.9419992,32.5493195 83.2370291,32.2609299 Z M79.6163562,28.4586501 L79.6163562,28.4586501 C80.353931,28.4586501 81.0915059,28.4672332 81.8274416,28.4586501 C82.6600817,28.4483505 82.7748155,28.2732568 82.5371525,27.4286872 C82.1765604,26.139517 81.0095531,25.3687614 79.6130781,25.4769075 C78.1379284,25.6005031 76.7906251,26.6888306 76.6873646,27.8973204 C76.6726131,28.0689808 76.9840336,28.4123018 77.1626906,28.4329011 C77.977301,28.4912656 78.7984677,28.4586501 79.6163562,28.4586501 L79.6163562,28.4586501 Z" id="Shape" fill="#A5A8B5" fill-rule="nonzero"></path>
                <path d="M33.4974269,32.2565237 C33.9904747,32.6546533 34.4391483,33.0596473 34.9272657,33.4114428 C35.5074187,33.8267332 35.3989482,34.2111342 34.965066,34.6470175 C33.4152522,36.2086467 31.5285224,36.7526428 29.4495039,36.4935153 C26.9448207,36.1811895 24.9167505,35.0022453 24.0851431,32.374933 C23.2535356,29.7476206 23.4918421,27.1940996 25.3851459,25.0884744 C27.2537974,23.0085903 29.6056357,22.5572623 32.1711281,23.3277804 C34.4539397,24.0142108 35.9511618,26.2914436 36.0563453,29.1092404 C36.122085,30.7652537 36.122085,30.7652537 34.5459753,30.7652537 C32.300964,30.7652537 30.0575962,30.7652537 27.8076545,30.7652537 C26.7985498,30.7652537 26.6473485,31.0501223 27.1338224,31.9870998 C28.1905883,34.025798 31.0782053,34.4908546 32.8350992,32.8983361 C33.0454663,32.7078517 33.2361115,32.510503 33.4974269,32.2565237 Z M29.8817425,28.4485511 L29.8817425,28.4485511 C30.5917314,28.4485511 31.3017204,28.4485511 32.0182833,28.4485511 C32.9320653,28.4382547 33.0651882,28.2340416 32.767716,27.3142249 C32.3650603,26.0717859 31.2885724,25.3596144 29.9474822,25.4591468 C28.4683386,25.5672596 27.1535443,26.6003373 26.9316728,27.8015905 C26.8429241,28.264931 27.0122039,28.445119 27.4247206,28.445119 L29.8817425,28.4485511 Z" id="Shape" fill="#A5A8B5" fill-rule="nonzero"></path>
                <path d="M120.099521,34.9929574 C119.179281,35.9329707 117.961725,36.4841888 116.679206,36.5414194 C114.325283,36.7134707 112.256386,35.2751216 111.941874,33.1399646 C111.730561,31.6964539 112.126977,30.483492 113.335881,29.6301174 C114.901888,28.5238274 116.698863,28.3603786 118.495839,28.1848862 C118.712066,28.1642401 118.936483,28.1986503 119.151071,28.160799 C119.478688,28.1023016 120.08314,28.023158 120.089692,27.9216477 C120.130869,27.4795768 120.047718,27.0345275 119.850532,26.6415858 C119.373851,25.834665 118.531877,25.6591727 117.703007,25.6092778 C116.653227,25.5454342 115.617088,25.8841458 114.787222,26.5624422 C114.367873,26.9065448 114.097589,26.9495577 113.701174,26.4867396 C112.425108,24.9984956 112.415279,24.8057981 114.14837,23.8973671 C115.967372,22.9020955 118.087506,22.703537 120.045464,23.3450823 C121.960382,23.9610261 123.015306,25.4475496 123.120144,27.4743142 C123.261019,30.161756 123.177476,32.8629619 123.185667,35.5607268 C123.185667,35.7000884 123.152905,35.9564449 123.110315,35.9616064 C122.327738,36.0938924 121.537391,36.169201 120.744925,36.1869937 C120.581117,36.1869937 120.400928,35.6811627 120.238758,35.4007191 C120.180893,35.2694177 120.134296,35.1329563 120.099521,34.9929574 Z M118.789055,30.2374586 C117.781635,30.5419895 116.713606,30.7157613 115.781537,31.1854615 C114.70368,31.7291437 114.774117,33.1003928 115.801194,33.7283801 C117.221411,34.5886368 119.439374,33.7799955 120.002874,32.1799182 C120.509041,30.7295254 120.278072,30.3802612 118.785779,30.2305766 L118.789055,30.2374586 Z" id="Shape" fill="#A5A8B5" fill-rule="nonzero"></path>
                <path d="M43.9785642,17.3167956 C43.4731019,17.0183543 43.19338,16.8691336 42.9283804,16.6953162 C39.5995265,14.514399 36.2641295,12.3449603 32.9499978,10.1361668 C32.3611097,9.74425758 31.9521596,9.7540963 31.3567282,10.1509248 C27.9575349,12.4203905 24.5223541,14.6423024 21.1035312,16.8773326 C20.9268647,16.9921177 20.7289329,17.0790264 20.285631,17.3167956 C20.285631,16.5214987 20.3576062,15.886901 20.2709088,15.2752603 C20.0827917,13.9634304 20.6569577,13.2042089 21.7594872,12.5220574 C25.0000078,10.5100383 28.178368,8.39471259 31.358364,6.29086541 C31.948888,5.89895623 32.3840109,5.90715517 32.9696274,6.29086541 C36.4277095,8.57672898 39.915236,10.8117591 43.3667749,13.1041819 C43.6937085,13.3574921 43.9062725,13.7311236 43.9572988,14.1421673 C44.0325457,15.1096418 43.9785642,16.0902346 43.9785642,17.3167956 Z" id="Path" fill="#A5A8B5"></path>
                <path d="M136.780978,24.9694258 C136.334727,25.3336792 136.115688,25.5020605 135.908092,25.6841872 C135.512514,26.0278224 135.159436,26.5965388 134.719724,26.6790113 C134.327415,26.7546111 133.841934,26.306167 133.400586,26.0810859 C131.602506,25.1652979 129.513463,26.0810859 129.001828,28.1841339 C128.762623,29.199709 128.762623,30.2612763 129.001828,31.2768515 C129.598463,33.6685531 132.125584,34.5413867 134.106742,33.1359184 C134.60857,32.7785377 134.924051,32.7922831 135.27059,33.2596271 C135.389917,33.414263 135.537033,33.5448444 135.671072,33.687453 C136.710689,34.7836496 136.694343,34.9262583 135.427514,35.6822559 C132.758181,37.2750055 128.889039,36.6238166 126.95692,34.2561694 C124.980665,31.8335407 124.967589,27.9178165 126.925862,25.3577336 C128.936443,22.7289237 133.266548,22.1705163 135.819822,24.2099918 C136.081361,24.4230456 136.337996,24.6240723 136.780978,24.9694258 Z" id="Path" fill="#A5A8B5"></path>
                <path d="M17.9712089,26.0611003 C18.7761364,25.160793 19.5953103,24.3493851 20.8899613,24.18775 C21.1535216,24.155423 21.4242052,24.1247123 21.6842039,24.1101652 C22.2184478,24.0778382 22.5140627,24.2814983 22.4980354,24.8132777 C22.4748848,25.4775977 22.4980354,26.1451505 22.4980354,26.8967535 C22.1668042,26.8967535 21.940641,26.8967535 21.7162585,26.8967535 C19.417229,26.8466466 18.0353182,28.0281989 17.9961403,30.1375363 C17.9640856,31.9397672 17.9551816,33.7436144 17.9961403,35.5442289 C18.01751,36.3297753 17.6987445,36.5722278 16.8599816,36.554448 C14.1673925,36.4930267 14.6143765,36.8146804 14.5947876,34.5016828 C14.5680754,31.542145 14.5947876,28.5842235 14.5947876,25.6246856 C14.5947876,24.441517 14.5947876,24.4318189 15.9446438,24.4447497 C16.5020382,24.4447497 17.209021,24.3316052 17.570526,24.5902213 C17.8910723,24.8213594 17.8376479,25.4921449 17.9712089,26.0611003 Z" id="Path" fill="#A5A8B5"></path>
                <path d="M72.2741087,30.3403435 C72.2741087,32.1347933 72.2547048,33.930903 72.2846927,35.7253528 C72.2952767,36.3428693 72.0447892,36.5553481 71.4026944,36.5553481 C68.423304,36.5188283 68.933099,36.8508264 68.9119311,34.3409207 C68.8819431,31.2749182 68.929571,28.2089156 68.8907631,25.1429131 C68.8801791,24.3394777 69.1747666,24.0987791 70.009137,24.107079 C72.2652888,24.1286589 72.2670528,24.107079 72.2670528,26.2019871 L72.2741087,30.3403435 Z" id="Path" fill="#A5A8B5"></path>
                <path d="M40.6027853,10.5267182 C39.4402116,9.82044738 38.4968662,9.26099431 37.5717898,8.67217769 C37.2080703,8.43726922 37.0735439,6.56727416 37.3724914,6.26436587 C37.4518875,6.19450252 37.5490295,6.14451995 37.6548308,6.11909353 C37.7636876,6.09488412 37.8750831,6.08192695 37.9869946,6.08045727 C40.6011244,5.87800326 40.6011244,5.87800326 40.6027853,8.31517863 L40.6027853,10.5267182 Z" id="Path" fill="#A5A8B5"></path>
                <path d="M70.5487737,17.3167956 C71.8332067,17.3167956 72.8120918,18.2635779 72.8498138,19.5392425 C72.8875358,20.8149072 71.801143,21.8553711 70.5053934,21.8434117 C69.3196149,21.8545565 68.3467465,20.8540016 68.3250636,19.6010325 C68.3043165,18.3094221 69.2681128,17.3227753 70.5487737,17.3167956 Z" id="Path" fill="#A5A8B5"></path>
            </g>
        </g>
    </g>
</svg>