<?xml version="1.0" encoding="UTF-8"?>
<svg width="162px" height="36px" viewBox="0 0 162 36" version="1.1" xmlns="http://www.w3.org/2000/svg" xmlns:xlink="http://www.w3.org/1999/xlink">
    <!-- Generator: Sketch 53.2 (72643) - https://sketchapp.com -->
    <title>lauder</title>
    <desc>Created with Sketch.</desc>
    <g id="Home-Page" stroke="none" stroke-width="1" fill="none" fill-rule="evenodd">
        <g id="alur_web_mobile_home" transform="translate(-36.000000, -639.000000)">
            <g id="lauder" transform="translate(36.000000, 639.000000)">
                <rect id="Rectangle" fill="#FFFFFF" x="0" y="0.0882421979" width="162" height="35"></rect>
                <path d="M118.5906,34.5953066 L118.5906,16.8529141 C118.711287,16.8410253 118.82048,16.8215709 118.929673,16.8215709 C120.976564,16.8215709 123.023456,16.7902278 125.069389,16.8291365 C126.880653,16.8637221 128.596134,17.315496 130.050126,18.6383937 C131.356611,19.8272723 132.04721,21.4290161 132.33456,23.2577276 C132.678422,25.4409411 132.605627,27.6014578 131.832655,29.6722682 C130.914092,32.1343278 129.195738,33.5566589 126.955364,34.1824414 C126.036549,34.4310561 125.097261,34.570875 124.152742,34.5996298 C122.389369,34.6633969 120.623124,34.6180033 118.858793,34.6169225 C118.779293,34.6201649 118.704582,34.6061145 118.5906,34.5953066 Z M120.423894,33.8852218 C121.209318,33.8852218 121.962175,33.9100801 122.713117,33.8798178 C123.694897,33.840909 124.690087,33.8603634 125.65271,33.6755468 C128.082735,33.2064802 129.689022,31.628514 130.31353,28.8930123 C130.789274,26.8156491 130.786966,24.6356063 130.306825,22.5595316 C129.677528,19.7710708 128.145952,17.9607328 125.561716,17.6505436 C123.892211,17.4505958 122.193013,17.5705645 120.506268,17.5489485 C120.485195,17.5489485 120.463165,17.5759685 120.423894,17.6019077 L120.423894,33.8852218 Z" id="Shape" stroke="#A5A8B5" stroke-width="1.13167956" fill="#A5A8B5" fill-rule="nonzero"></path>
                <path d="M149.614224,25.9627114 L149.614224,34.6068117 L147.73825,34.6068117 L147.73825,16.8371209 C147.865059,16.8295469 147.992875,16.8165629 148.120691,16.8154809 C150.109385,16.8154809 152.099085,16.7992509 154.087779,16.8208909 C155.194845,16.8338749 156.280777,17.037291 157.283175,17.5869471 C159.842511,19.0000395 160.101162,22.6528725 157.775316,24.466305 C157.050784,25.018992 156.233658,25.4157995 155.368957,25.6348653 C155.243154,25.6694893 155.118357,25.7084413 154.948271,25.7571313 L160.411141,34.6295337 C159.692554,34.6295337 159.055488,34.6457637 158.419428,34.6133037 C158.306708,34.6133037 158.178893,34.4098876 158.097372,34.2746376 C156.518628,31.6417702 154.946594,29.0056568 153.381269,26.3662975 C153.200113,26.0600914 153.007886,25.9486454 152.670734,25.9573014 C151.6784,25.9789414 150.684053,25.9627114 149.614224,25.9627114 Z M149.654481,17.4289751 L149.654481,25.2745592 C150.898421,25.2745592 152.112169,25.3427252 153.313839,25.2496732 C154.061753,25.1830866 154.795133,24.9895342 155.486708,24.676213 C156.964139,24.0172748 157.673668,22.5403445 157.480434,20.768028 C157.292233,19.0368275 156.399535,17.8736772 154.763089,17.6637692 C153.089406,17.4495331 151.38855,17.4938951 149.654481,17.4289751 Z" id="Shape" stroke="#A5A8B5" stroke-width="1.13167956" fill="#A5A8B5" fill-rule="nonzero"></path>
                <path d="M83.1065042,34.6130411 C83.4449322,33.7874709 83.7430458,33.0508907 84.0485858,32.3153826 C86.1321988,27.2804764 88.21369,22.2441406 90.2930594,17.2063752 C90.417185,16.9050956 90.5688941,16.8075282 90.8839822,16.8096726 C92.0976549,16.8214664 92.0987158,16.8096726 92.5697566,17.9290172 C94.8528193,23.3449009 97.1351748,28.7607846 99.4168229,34.1766683 C99.4698681,34.3031842 99.514426,34.4329167 99.5812629,34.6119689 C98.8524227,34.6119689 98.1755667,34.6323402 97.5029544,34.5937421 C97.3756461,34.5862369 97.2133279,34.3621535 97.1486129,34.2034725 C96.3211087,32.1842206 95.5042136,30.1603227 94.6979275,28.1317787 C94.58335,27.8412208 94.4348237,27.7608082 94.1398927,27.7618803 C91.9162406,27.7740316 89.692942,27.7740316 87.4699972,27.7618803 C87.177188,27.7618803 87.0456361,27.8594477 86.9469721,28.1221291 C86.1619041,30.1131472 85.3471308,32.089155 84.5779763,34.0887504 C84.4167191,34.5058242 84.2183303,34.6880929 83.7812383,34.6194741 C83.5567351,34.6017858 83.3312977,34.5996364 83.1065042,34.6130411 Z M90.8171453,18.4361532 L87.4222565,26.9781247 L94.223704,26.9781247 C93.0906599,24.13366 91.9724684,21.3310098 90.8171453,18.4361532 Z" id="Shape" stroke="#A5A8B5" stroke-width="1.13167956" fill="#A5A8B5" fill-rule="nonzero"></path>
                <path d="M112.555338,16.8096381 L113.521443,16.8096381 L113.521443,17.3123221 C113.521443,21.0368495 113.521443,24.7613768 113.521443,28.4859042 C113.521443,31.8986403 111.691639,34.1405682 108.594304,34.5308376 C107.00023,34.7291539 105.423545,34.6803702 103.908692,34.0260327 C102.149413,33.2656437 101.197799,31.7989519 100.934052,29.77549 C100.87689,29.2987678 100.850096,28.8182485 100.853866,28.3374322 C100.846781,24.6828988 100.846781,21.0290723 100.853866,17.3759529 L100.853866,16.8287274 L102.630534,16.8287274 C102.639229,17.0005308 102.657585,17.1776367 102.657585,17.3589847 C102.657585,21.2107738 102.639229,25.0636235 102.674975,28.9185942 C102.684912,29.6942389 102.809888,30.4629269 103.044993,31.1944586 C103.493266,32.5731276 104.473864,33.3833608 105.740428,33.760904 C106.879396,34.1033808 108.081902,34.0982474 109.218409,33.7460568 C111.314858,33.109748 112.553405,31.2739972 112.55727,28.7934535 C112.563066,24.9840849 112.563066,21.1743628 112.55727,17.3642873 L112.555338,16.8096381 Z" id="Path" stroke="#A5A8B5" stroke-width="1.13167956" fill="#A5A8B5"></path>
                <path d="M14.6874624,32.3893512 C15.4469164,32.7809834 16.1593007,33.2253155 16.9160392,33.5198146 C18.342618,34.0757464 19.7936369,34.1181129 21.1912496,33.380315 C22.3743324,32.7603168 23.1464591,31.7352531 23.2731857,30.1966242 C23.365919,29.3299042 23.0714901,28.4678973 22.4892915,27.9015974 C21.7968214,27.1937661 20.9368913,26.8610337 20.0851079,26.5055681 C19.0441399,26.070536 17.9859733,25.6727038 16.9757817,25.1550053 C15.9094683,24.6083735 15.1301001,23.7083428 14.8648795,22.3402134 C14.5272438,20.6052517 15.0739783,18.9808563 16.3584424,17.9547593 C17.6429064,16.9286622 19.0912097,16.6899629 20.6128335,16.8594291 C21.5990784,16.9798425 22.562715,17.2758627 23.4687066,17.7367266 C23.7402635,17.8731262 23.8561278,18.0467257 23.8181098,18.382558 C23.8068986,18.6035056 23.8068986,18.8250086 23.8181098,19.0459561 C23.6750898,18.9426231 23.5718982,18.8692566 23.4714222,18.7917569 C22.0638524,17.69746 20.5313664,17.2066281 18.8359463,17.5713937 C18.1151283,17.7133465 17.4539518,18.1179229 16.9513415,18.7245904 C15.8814074,20.0203867 15.9918406,21.9878477 17.2862617,22.9726116 C18.0176549,23.5295766 18.8739642,23.8829756 19.694066,24.2735745 C20.6897746,24.7489065 21.7461308,25.1002388 22.72102,25.6282706 C24.358508,26.5221014 24.9975718,27.937764 24.7649381,29.9744581 C24.5839002,31.5761202 23.7954801,32.7396502 22.6033454,33.5559812 C21.2356039,34.4921785 19.7347995,34.7412111 18.1679164,34.5944782 C17.0822701,34.4937029 16.020607,34.1757616 15.0314344,33.6551809 C14.7598775,33.5125813 14.6431081,33.3400152 14.6793157,33.0021161 C14.6932569,32.7982568 14.6959778,32.5935996 14.6874624,32.3893512 Z" id="Path" stroke="#A5A8B5" stroke-width="1.13167956" fill="#A5A8B5"></path>
                <polygon id="Path" stroke="#A5A8B5" stroke-width="1.13167956" fill="#A5A8B5" points="12.0322415 16.8096381 12.0322415 17.5349747 4.01535831 17.5349747 4.01535831 24.592891 11.3852054 24.592891 11.3852054 25.3106268 4.00581188 25.3106268 4.00581188 33.8355037 12.138313 33.8355037 12.138313 34.6335912 2 34.6335912 2 16.8096381"></polygon>
                <polygon id="Path" stroke="#A5A8B5" stroke-width="1.13167956" fill="#A5A8B5" points="64.0155093 16.8096381 64.0155093 17.5409996 55.9960613 17.5409996 55.9960613 24.5855085 63.3548222 24.5855085 63.3548222 25.3136148 55.9748514 25.3136148 55.9748514 33.8110807 64.0971673 33.8110807 64.0971673 34.6335912 53.9588542 34.6335912 53.9588542 16.8096381"></polygon>
                <polygon id="Path" stroke="#A5A8B5" stroke-width="1.13167956" fill="#A5A8B5" points="144.452999 24.5787751 144.452999 25.3008543 137.081994 25.3008543 137.081994 33.8159587 145.203671 33.8159587 145.203671 34.6335912 135.065358 34.6335912 135.065358 16.8096381 145.089162 16.8096381 145.089162 17.5230306 137.091537 17.5230306 137.091537 24.5809468"></polygon>
                <path d="M42.0072858,24.600427 L49.4067475,24.600427 L49.4067475,25.2907226 C49.2475736,25.2983202 49.0883998,25.31243 48.9239201,25.31243 C46.7697674,25.31243 44.6145534,25.321113 42.4614618,25.31243 C42.1102182,25.31243 41.9669618,25.3732107 41.9701452,25.78131 C41.9892461,28.3178207 41.9786345,30.8543314 41.9807568,33.3919274 C41.9807568,33.5189158 41.9945519,33.6469895 42.0041023,33.8173926 L50.1569869,33.8173926 L50.1569869,34.6335912 L40.0186738,34.6335912 L40.0186738,16.8096381 L50.0307089,16.8096381 L50.0307089,17.5520315 L42.0072858,17.5520315 L42.0072858,24.600427 Z" id="Path" stroke="#A5A8B5" stroke-width="1.13167956" fill="#A5A8B5"></path>
                <polygon id="Path" stroke="#A5A8B5" stroke-width="1.13167956" fill="#A5A8B5" points="33.3806354 17.5328031 33.3806354 34.6335912 31.4831969 34.6335912 31.4831969 17.5556056 26.0784934 17.5556056 26.0784934 16.8096381 38.7513847 16.8096381 38.7513847 17.5371464"></polygon>
                <path d="M83.1065042,33.7998017 L83.1065042,34.6335912 L72.9681912,34.6335912 L72.9681912,16.8106629 C73.5543692,16.8106629 74.1448259,16.8052417 74.7427703,16.819337 C74.8048111,16.819337 74.9010812,16.9277621 74.9171262,17.0058282 C74.9365264,17.149528 74.9408292,17.2949087 74.9299622,17.4395289 C74.9299622,22.6916438 74.9299622,27.9444815 74.9299622,33.198042 L74.9299622,33.8008859 L83.1065042,33.7998017 Z" id="Path" stroke="#A5A8B5" stroke-width="1.13167956" fill="#A5A8B5"></path>
                <polygon id="Path" stroke="#A5A8B5" stroke-width="1.13167956" fill="#A5A8B5" points="50.1569869 12 50.1569869 13.2731395 40.0186738 13.2731395 40.0186738 12"></polygon>
            </g>
        </g>
    </g>
</svg>