<?xml version="1.0" encoding="UTF-8"?>
<svg width="99px" height="37px" viewBox="0 0 99 37" version="1.1" xmlns="http://www.w3.org/2000/svg" xmlns:xlink="http://www.w3.org/1999/xlink">
    <!-- Generator: Sketch 53.2 (72643) - https://sketchapp.com -->
    <title>uber</title>
    <desc>Created with Sketch.</desc>
    <g id="Home-Page" stroke="none" stroke-width="1" fill="none" fill-rule="evenodd">
        <g id="alur_web_mobile_home" transform="translate(-239.000000, -638.000000)">
            <g id="uber" transform="translate(239.000000, 638.000000)">
                <rect id="Rectangle" fill="#FFFFFF" x="0.295774648" y="0.97781275" width="98" height="35"></rect>
                <path d="M15.9587909,16.1316796 L19.7006884,16.1316796 L19.7006884,27.9962081 C19.7006884,34.2396842 15.7121222,36.4283524 9.92558949,36.4283524 C4.15829245,36.4283524 0.169726223,34.2385525 0.169726223,27.9962081 L0.169726223,16.606985 C0.169726223,16.2765345 0.334926412,16.1316796 0.665326792,16.1316796 L4.40609274,16.1316796 L4.40609274,27.8094809 C4.40609274,31.5542086 6.05809464,33.1034779 9.92445798,33.1034779 C13.810057,33.1034779 15.4631904,31.5542086 15.4631904,27.8094809 L15.4631904,16.606985 C15.4631904,16.2765345 15.6295221,16.1316796 15.9587909,16.1316796 Z M58.306615,19.3762049 L58.306615,24.3793602 L67.7728122,24.3793602 C67.9380123,24.3793602 68.0002453,24.4619728 67.9380123,24.627198 L66.9049454,27.1904522 C66.8008467,27.4179198 66.6560136,27.523166 66.3471119,27.523166 L60.7880123,27.523166 C58.9696787,27.523166 58.3077465,28.0799523 58.3077465,29.2976395 L58.3077465,32.8318748 L71.1220763,32.8318748 C71.2872765,32.8318748 71.3495094,32.9144874 71.2872765,33.081976 L70.2134752,35.748213 C70.1093765,35.9745489 69.9645434,36.0797951 69.6556417,36.0797951 L55.6226776,36.0797951 C54.5477449,36.0797951 54.1358759,35.7074726 54.1358759,34.8994534 L54.1358759,17.5168553 C54.1358759,16.5458743 54.6733423,16.1316796 56.0775439,16.1316796 L71.1243393,16.1316796 C71.2895395,16.1316796 71.3517724,16.2142922 71.2895395,16.3591472 L70.2157382,19.0457544 C70.1116395,19.273222 69.9668065,19.3762049 69.6579047,19.3762049 L58.306615,19.3762049 L58.306615,19.3762049 Z M46.4235164,30.5605939 C46.4235164,34.5486327 43.6128501,36.0797951 39.6650182,36.0797951 L29.2064884,36.0797951 C28.1111885,36.0797951 27.7185552,35.7074726 27.7185552,34.8994534 L27.7185552,17.5168553 C27.7185552,16.5458743 28.2356544,16.1316796 29.6613546,16.1316796 L38.1555863,16.1316796 C41.8759851,16.1316796 45.471918,16.7722102 45.471918,21.1959456 C45.471918,23.0971672 44.7896186,24.7098106 43.1568524,25.5574386 C45.4108166,26.1560971 46.4235164,28.1806718 46.4235164,30.5605939 Z M31.8315873,24.4404709 L38.4656196,24.4404709 C40.6562193,24.4404709 41.2762858,23.5928429 41.2762858,21.8568464 C41.2762858,20.1197183 40.6562193,19.2935922 38.4656196,19.2935922 L31.8315873,19.2935922 L31.8315873,24.4404709 Z M42.2278842,30.1882714 C42.2278842,28.345897 41.5874505,27.4371584 39.2316506,27.4371584 L34.3333518,27.4371584 C32.5138867,27.4371584 31.8327188,27.9962081 31.8327188,29.2138953 L31.8327188,32.9144874 L39.2316506,32.9144874 C41.586319,32.9144874 42.2278842,32.0080121 42.2278842,30.1882714 Z M97.2033391,36.0797951 L93.4003402,36.0797951 C93.0914385,36.0797951 92.9658411,35.9553104 92.8425067,35.748213 L88.8120747,28.4726451 L85.112043,28.4726451 C83.2937094,28.4726451 82.61141,29.0294315 82.61141,30.2482504 L82.61141,36.0786635 L78.9736113,36.0786635 C78.643211,36.0786635 78.4780108,35.9123066 78.4780108,35.6044897 L78.4780108,17.5157237 C78.4780108,16.5447426 79.0166086,16.1305479 80.4208103,16.1305479 L88.9557762,16.1305479 C93.9378066,16.1305479 96.9351717,17.4319794 96.9351717,22.2699095 C96.9351717,26.0101104 95.1372053,27.4790305 92.9047397,28.0573188 L97.390038,35.7255794 C97.4715066,35.8500642 97.4715066,36.0797951 97.2033391,36.0797951 Z M92.738408,22.3536538 C92.738408,20.3279474 92.1805745,19.3354644 89.5769742,19.3354644 L82.61141,19.3354644 L82.61141,25.3718441 L89.5769742,25.3718432 C92.1805745,25.3729748 92.738408,24.3997304 92.738408,22.3536538 Z" id="Shape" fill="#A5A8B5" fill-rule="nonzero"></path>
            </g>
        </g>
    </g>
</svg>