<svg width="28px" height="32px" viewBox="0 0 28 32" version="1.1" xmlns="http://www.w3.org/2000/svg" xmlns:xlink="http://www.w3.org/1999/xlink">
    <g id="Home-Page" stroke="none" stroke-width="1" fill="none" fill-rule="evenodd">
        <g id="alur_web_mobile_home" transform="translate(-10.000000, -7.000000)" fill="#8FC2E9">
            <g id="Toolbar">
                <g id="Page-1" transform="translate(10.000000, 7.000000)">
                    <polygon id="Fill-1" opacity="0.715073" points="13.85944 3.46682353 9.38721778 6.72988235 9.38721778 18.5228235 13.8591289 21.7849412 13.85944 21.7849412"></polygon>
                    <polygon id="Fill-3" opacity="0.715073" points="14.07756 3.46682353 14.07756 21.7846275 14.0778711 21.7846275 18.5497822 18.5228235 18.5497822 6.72956863"></polygon>
                    <polygon id="Fill-5" fill-opacity="0.45" points="9.38728 0.0449882353 9.38728 6.72985098 13.9687022 3.38741961 13.9687022 3.38710588 9.38759111 0.0449882353"></polygon>
                    <polygon id="Fill-7" fill-opacity="0.45" points="18.54972 6.72969412 18.54972 18.5226353 14.0115422 21.8330667 13.9679867 21.8647529 27.7116311 31.8923608 27.7116311 13.4142431"></polygon>
                    <polygon id="Fill-9" fill-opacity="0.45" points="18.5493467 0.0449882353 13.9685467 3.38710588 18.5493467 6.72953725 18.5496578 6.72953725 18.5496578 0.0449882353"></polygon>
                    <polygon id="Fill-11" fill-opacity="0.45" points="9.38728 6.72997647 0.225991111 13.4142118 0.225991111 31.8923294 0.225991111 31.8923294 13.96808 21.8647216 13.96808 21.8644078 9.38728 18.5226039"></polygon>
                </g>
            </g>
        </g>
    </g>
</svg>
