<?xml version="1.0" encoding="UTF-8"?>
<svg width="84px" height="28px" viewBox="0 0 84 28" version="1.1" xmlns="http://www.w3.org/2000/svg" xmlns:xlink="http://www.w3.org/1999/xlink">
    <!-- Generator: Sketch 52.1 (67048) - http://www.bohemiancoding.com/sketch -->
    <title>alur-logo</title>
    <desc>Created with Sketch.</desc>
    <defs>
        <polygon id="path-1" points="0.241789159 25.7046584 22.734283 25.7046584 22.734283 0.0150391434 0.241789159 0.0150391434"></polygon>
        <polygon id="path-3" points="24.7079899 0.0200983945 0.00015646782 0.0200983945 0.00015646782 27.2877448 24.7079899 27.2877448 24.7079899 0.0200983945"></polygon>
        <polygon id="path-5" points="19.4413684 0.0151158738 19.4413684 25.1676996 0.253900331 25.1676996 0.253900331 0.0151158738 19.4413684 0.0151158738"></polygon>
    </defs>
    <g id="Home-Page" stroke="none" stroke-width="1" fill="none" fill-rule="evenodd">
        <g id="alur_web_home" transform="translate(-31.000000, -12.000000)">
            <g id="title-nav">
                <g id="alur-logo" transform="translate(31.000000, 12.000000)">
                    <g id="Group-3" transform="translate(40.000000, 2.000000)">
                        <mask id="mask-2" fill="white">
                            <use xlink:href="#path-1"></use>
                        </mask>
                        <g id="Clip-2"></g>
                        <path d="M22.734283,16.0792997 C22.734283,22.4513694 18.4869402,25.7047352 11.4878417,25.7047352 C4.48874324,25.7047352 0.241789159,22.4513694 0.241789159,16.0792997 L0.241789159,0.0150391434 L2.55240891,0.0150391434 L2.55240891,16.0792997 C2.55240891,20.6071561 5.2703507,23.4246936 11.4878417,23.4246936 C17.7057214,23.4246936 20.4240519,20.6071561 20.4240519,16.0792997 L20.4240519,0.0150391434 L22.734283,0.0150391434 L22.734283,16.0792997 Z" id="Fill-1" fill="#1E306E" mask="url(#mask-2)"></path>
                    </g>
                    <path d="M44.2555902,25.1874286 L44.2555902,25 L44,25 C44.0844926,25.0629041 44.1668729,25.127092 44.2555902,25.1874286" id="Fill-4" fill="#8FC2E9"></path>
                    <path d="M41.4849369,24.7337899 L28.3289508,24.7337899 L28.3289508,2 L26,2 L26,27 L44,27 C42.983239,26.4055155 42.1400522,25.6489681 41.4849369,24.7337899" id="Fill-6" fill="#8FC2E9"></path>
                    <g id="Group-10">
                        <mask id="mask-4" fill="white">
                            <use xlink:href="#path-3"></use>
                        </mask>
                        <g id="Clip-9"></g>
                        <polygon id="Fill-8" fill="#1E306E" mask="url(#mask-4)" points="13.6187243 0.0200210929 0.00015646782 27.2877448 2.53923801 27.2877448 13.6187243 4.51549082 24.6982107 27.2877448 24.7079899 22.126709"></polygon>
                    </g>
                    <g id="Group-13" transform="translate(64.000000, 2.000000)">
                        <mask id="mask-6" fill="white">
                            <use xlink:href="#path-5"></use>
                        </mask>
                        <g id="Clip-12"></g>
                        <path d="M19.4414068,7.09118632 C19.4414068,4.50882728 17.762692,0.0151158738 12.0890124,0.0151158738 L0.253900331,0.0151158738 L0.253900331,2.29515744 L12.0890124,2.29515744 C13.7335461,2.29515744 17.1581857,3.0329195 17.1581857,7.09118632 C17.1581857,11.8200762 13.2638439,12.1553877 10.0742474,12.1553877 L0.253900331,12.1553877 L0.253900331,14.4365802 L9.94021141,14.4365802 L16.2518103,25.1676996 L18.9044946,25.1676996 L12.5590987,14.4365802 C14.7409286,14.2685408 19.4414068,12.9936665 19.4414068,7.09118632" id="Fill-11" fill="#1E306E" mask="url(#mask-6)"></path>
                    </g>
                </g>
            </g>
        </g>
    </g>
</svg>