<?xml version="1.0" encoding="utf-8"?>
<!-- Generator: Adobe Illustrator 15.0.0, SVG Export Plug-In . SVG Version: 6.00 Build 0)  -->
<!DOCTYPE svg PUBLIC "-//W3C//DTD SVG 1.1//EN" "http://www.w3.org/Graphics/SVG/1.1/DTD/svg11.dtd">
<svg version="1.1" id="Layer_1" xmlns="http://www.w3.org/2000/svg" xmlns:xlink="http://www.w3.org/1999/xlink" x="0px" y="0px"
	 width="77px" height="88px" viewBox="0 0 77 88" enable-background="new 0 0 77 88" xml:space="preserve">
<title>ALURweb</title>
<desc>Created with Sketch.</desc>
<polyline id="Fill-1" opacity="0.4815" fill="#C4DCE9" enable-background="new    " points="38.174,60.046 25.67,51.049 
	25.67,18.529 38.174,9.532 38.174,60.046 "/>
<polyline id="Fill-2" opacity="0.4815" fill="#C4DCE9" enable-background="new    " points="38.785,60.045 38.785,9.532 
	51.289,18.529 51.289,51.049 38.785,60.045 "/>
<polyline id="Fill-3" opacity="0.6" fill="#D2E5EE" enable-background="new    " points="25.67,18.529 25.67,0.094 38.479,9.312 
	25.67,18.529 "/>
<polyline id="Fill-4" opacity="0.3" fill="#D2E5EE" enable-background="new    " points="76.909,87.918 38.479,60.266 38.6,60.178 
	38.785,60.045 51.289,51.049 51.289,18.529 76.909,36.963 76.909,87.918 "/>
<polyline id="Fill-5" opacity="0.6" fill="#D2E5EE" enable-background="new    " points="51.289,18.529 51.289,18.529 38.479,9.312 
	51.289,0.094 51.289,18.529 "/>
<polyline id="Fill-6" opacity="0.3" fill="#D2E5EE" enable-background="new    " points="0.052,87.918 0.052,36.963 25.67,18.529 
	25.67,51.049 38.174,60.046 38.479,60.266 0.052,87.918 "/>
<path id="Fill-7" fill="#B2D0E2" d="M38.174,60.046L25.67,51.049L38.174,60.046 M25.67,51.049v-32.52V51.049"/>
</svg>
