<?xml version="1.0" encoding="utf-8"?>
<!-- Generator: Adobe Illustrator 15.0.0, SVG Export Plug-In . SVG Version: 6.00 Build 0)  -->
<!DOCTYPE svg PUBLIC "-//W3C//DTD SVG 1.1//EN" "http://www.w3.org/Graphics/SVG/1.1/DTD/svg11.dtd">
<svg version="1.1" id="Layer_1" xmlns="http://www.w3.org/2000/svg" xmlns:xlink="http://www.w3.org/1999/xlink" x="0px" y="0px"
	 width="104px" height="35px" viewBox="-6 -1.5 104 35" enable-background="new -6 -1.5 104 35" xml:space="preserve">
<title>logo</title>
<desc>Created with Sketch.</desc>
<g>
	<path fill="#FFFFFF" d="M72.374,21.319c0,8.113-5.27,12.255-13.957,12.255c-8.686,0-13.956-4.142-13.956-12.255V0.861h2.868v20.458
		c0,5.764,3.373,9.352,11.088,9.352c7.718,0,11.092-3.588,11.092-9.352V0.861h2.865V21.319z"/>
	<path fill="#8FC3E9" d="M45.278,29.989H29.083V0.861h-2.867v32.031h22.159C47.123,32.13,46.086,31.162,45.278,29.989"/>
	<path fill="#FFFFFF" d="M10.792-1.574L-6,32.893h3.131L10.792,4.107l13.662,28.785l0.013-6.525L10.792-1.574z"/>
	<path fill="#FFFFFF" d="M98,9.873c0-3.288-2.107-9.012-9.234-9.012H73.903v2.903h14.862c2.067,0,6.367,0.94,6.367,6.107
		c0,6.022-4.891,6.449-8.896,6.449H73.903v2.904h12.164l7.927,13.667h3.331l-7.969-13.667C92.098,19.014,98,17.389,98,9.873"/>
</g>
</svg>
