<?xml version="1.0" encoding="utf-8"?>
<!-- Generator: Adobe Illustrator 15.0.0, SVG Export Plug-In . SVG Version: 6.00 Build 0)  -->
<!DOCTYPE svg PUBLIC "-//W3C//DTD SVG 1.1//EN" "http://www.w3.org/Graphics/SVG/1.1/DTD/svg11.dtd">
<svg version="1.1" id="Layer_1" xmlns="http://www.w3.org/2000/svg" xmlns:xlink="http://www.w3.org/1999/xlink" x="0px" y="0px"
	 width="185px" height="72px" viewBox="0 0 185 72" enable-background="new 0 0 185 72" xml:space="preserve">
<path fill="#8A8C8E" d="M50.469,23.218c-4.758-3.898-12.328-5.195-22.349-5.195C10.094,18.022,0,22.349,0,37.853
	c0,15.498,10.094,19.826,28.12,19.826c18.022,0,28.117-4.328,28.117-19.826V0h-5.768V23.218 M28.12,52.488
	c-14.564,0-22.352-2.74-22.352-14.635c0-11.899,7.788-14.635,22.352-14.635c14.562,0,22.349,2.736,22.349,14.635
	C50.469,49.748,42.681,52.488,28.12,52.488z"/>
<path fill="#8A8C8E" d="M114.229,37.847v0.006c0,11.895-7.066,14.635-21.631,14.635c-14.561,0-21.626-2.74-21.626-14.635V18.022
	h-5.768v19.831c0,15.498,9.373,19.826,27.395,19.826c9.818,0,17.063-1.291,21.631-4.965v4.965h5.768V18.022h-5.768V37.847"/>
<path fill="#8A8C8E" d="M156.883,18.022c-18.025,0-28.119,4.327-28.119,19.831c0,15.498,10.094,19.826,28.119,19.826
	c18.023,0,28.117-4.328,28.117-19.826C185,22.349,174.906,18.022,156.883,18.022 M156.883,52.488
	c-14.564,0-22.352-2.74-22.352-14.635c0-11.899,7.787-14.635,22.352-14.635c14.563,0,22.35,2.736,22.35,14.635
	C179.232,49.748,171.445,52.488,156.883,52.488z"/>
<rect y="66.251" fill="#9FD9DB" width="89.714" height="5.748"/>
<rect x="95.484" y="66.251" fill="#49B5B2" width="89.516" height="5.748"/>
</svg>
