<?xml version="1.0" encoding="utf-8"?>
<!-- Generator: Adobe Illustrator 15.0.0, SVG Export Plug-In . SVG Version: 6.00 Build 0)  -->
<!DOCTYPE svg PUBLIC "-//W3C//DTD SVG 1.1//EN" "http://www.w3.org/Graphics/SVG/1.1/DTD/svg11.dtd">
<svg version="1.1" id="Layer_1" xmlns="http://www.w3.org/2000/svg" xmlns:xlink="http://www.w3.org/1999/xlink" x="0px" y="0px"
	 width="200px" height="78px" viewBox="0 0 200 78" enable-background="new 0 0 200 78" xml:space="preserve">
<g>
	<path fill="#FFFFFF" d="M54.561,25.113c-5.143-4.215-13.327-5.62-24.161-5.62c-19.487,0-30.4,4.68-30.4,21.45
		c0,16.765,10.913,21.443,30.4,21.443c19.483,0,30.396-4.679,30.396-21.443V0h-6.235V25.113z M30.4,56.774
		c-15.746,0-24.164-2.966-24.164-15.831c0-12.871,8.418-15.83,24.164-15.83c15.742,0,24.161,2.959,24.161,15.83
		C54.561,53.809,46.143,56.774,30.4,56.774"/>
	<path fill="#FFFFFF" d="M123.489,40.938v0.006c0,12.865-7.638,15.831-23.384,15.831c-15.742,0-23.379-2.966-23.379-15.831V19.494
		H70.49v21.449c0,16.764,10.133,21.444,29.616,21.444c10.614,0,18.446-1.396,23.384-5.369v5.369h6.236V40.943v-0.006V19.494h-6.236
		V40.938z"/>
	<path fill="#FFFFFF" d="M169.604,19.494c-19.486,0-30.399,4.68-30.399,21.45c0,16.765,10.913,21.443,30.399,21.443
		c19.483,0,30.396-4.679,30.396-21.443C200,24.174,189.087,19.494,169.604,19.494 M169.604,56.774
		c-15.746,0-24.165-2.966-24.165-15.831c0-12.871,8.419-15.83,24.165-15.83c15.742,0,24.161,2.959,24.161,15.83
		C193.765,53.809,185.346,56.774,169.604,56.774"/>
	<rect x="0.001" y="71.763" fill="#FFFFFF" width="96.987" height="6.237"/>
	<rect x="103.227" y="71.763" fill="#FFFFFF" width="96.773" height="6.237"/>
</g>
</svg>
