<svg xmlns="http://www.w3.org/2000/svg" width="130" height="160" viewBox="0 0 130 160">
    <g fill="#FFF" fill-rule="evenodd">
        <path d="M65 0l64.999 65v94.79H0V65L65 0zM0 73.125l65 64.999 64.999-65-65-64.999L0 73.125z"/>
        <path d="M90.718 60.116l-4.087-4.087c-.553-.553-.864-1.14-.932-1.762-.07-.621.163-1.2.695-1.732.533-.533 1.085-.788 1.651-.763.567.025 1.178.362 1.83 1.014l4.087 4.086 1.628-1.628-4.443-4.442c-.987-.986-1.984-1.5-2.991-1.54-1.007-.039-1.974.406-2.902 1.333-.512.513-.84 1.037-.976 1.57-.139.532-.18.997-.12 1.392l-.843-.845-1.63 1.629 7.405 7.403 1.628-1.628zM58.175 85.256a3.493 3.493 0 0 1-.739-1.052 2.932 2.932 0 0 1-.268-1.14 2.76 2.76 0 0 1 .215-1.133 3.17 3.17 0 0 1 .703-1.029c.316-.316.66-.55 1.03-.703a2.75 2.75 0 0 1 1.133-.215c.384.01.764.098 1.14.267a3.5 3.5 0 0 1 1.05.74c.326.327.573.676.741 1.052.168.374.257.754.267 1.14.01.384-.062.762-.215 1.133-.153.37-.388.713-.704 1.029-.316.315-.658.55-1.029.703-.37.153-.748.224-1.132.214a2.944 2.944 0 0 1-1.14-.267 3.502 3.502 0 0 1-1.052-.74m4.116 2.887c.653-.266 1.254-.675 1.807-1.23a5.501 5.501 0 0 0 1.221-1.797 5.193 5.193 0 0 0 .407-2.007c.001-.681-.135-1.345-.407-1.99a5.57 5.57 0 0 0-1.22-1.785 5.582 5.582 0 0 0-1.785-1.222 5.1 5.1 0 0 0-3.998 0 5.533 5.533 0 0 0-1.8 1.222 5.49 5.49 0 0 0-1.228 1.806 5.131 5.131 0 0 0 .007 3.99c.272.646.68 1.242 1.222 1.785.543.542 1.137.95 1.784 1.221.647.272 1.31.408 1.991.408.683 0 1.349-.134 2-.401M77.49 61.824c.153-.37.387-.713.702-1.028.316-.316.66-.55 1.03-.705a2.77 2.77 0 0 1 1.133-.214c.384.01.765.099 1.14.267.375.167.725.414 1.052.74.326.326.572.676.74 1.051.167.375.256.756.267 1.14.008.386-.062.763-.215 1.133s-.388.714-.704 1.03c-.315.315-.658.55-1.028.703a2.758 2.758 0 0 1-1.134.214 2.944 2.944 0 0 1-1.139-.266 3.533 3.533 0 0 1-1.052-.74 3.532 3.532 0 0 1-.74-1.052 2.95 2.95 0 0 1-.267-1.14c-.01-.385.062-.761.215-1.133m-.865 4.983c.542.543 1.136.95 1.782 1.221a5.086 5.086 0 0 0 1.991.408 5.24 5.24 0 0 0 2-.4 5.476 5.476 0 0 0 1.806-1.23 5.492 5.492 0 0 0 1.222-1.798c.271-.657.408-1.324.408-2.006a5.1 5.1 0 0 0-.408-1.992 5.566 5.566 0 0 0-1.221-1.784 5.576 5.576 0 0 0-1.785-1.221 5.118 5.118 0 0 0-1.991-.409 5.24 5.24 0 0 0-2.007.408 5.526 5.526 0 0 0-1.798 1.222 5.471 5.471 0 0 0-1.23 1.807c-.266.65-.399 1.318-.4 1.998.001.682.136 1.346.408 1.992.27.646.68 1.241 1.223 1.784M62.136 68.619a7.239 7.239 0 0 0-.503 2.755c.015.933.214 1.848.599 2.747a7.772 7.772 0 0 0 1.673 2.443 7.779 7.779 0 0 0 2.443 1.673c.899.384 1.814.585 2.748.6a7.23 7.23 0 0 0 2.754-.504 7.07 7.07 0 0 0 2.45-1.621 7.086 7.086 0 0 0 1.622-2.45 7.274 7.274 0 0 0 .503-2.755 7.224 7.224 0 0 0-.6-2.746 7.746 7.746 0 0 0-1.674-2.443l-1.686 1.687a6.02 6.02 0 0 1 1.228 1.734c.285.62.44 1.247.458 1.88a4.71 4.71 0 0 1-1.42 3.523 4.631 4.631 0 0 1-1.674 1.096 4.776 4.776 0 0 1-1.873.303 4.944 4.944 0 0 1-1.88-.458 5.822 5.822 0 0 1-1.71-1.208 5.882 5.882 0 0 1-1.2-1.702 4.946 4.946 0 0 1-.467-1.888 4.801 4.801 0 0 1 .304-1.873 4.628 4.628 0 0 1 1.096-1.673c.63-.632 1.308-1.041 2.027-1.23a5.17 5.17 0 0 1 2.237-.073v-2.31a7.818 7.818 0 0 0-3.072.318c-1.003.312-1.923.886-2.762 1.725a7.056 7.056 0 0 0-1.621 2.45M37.49 92.613l7.137 7.138-10.469-3.805-1.836 1.836 10.365 10.365 1.659-1.659-7.137-7.136 10.468 3.804 1.836-1.836-10.365-10.364zM48.417 93.236a2.803 2.803 0 0 1-.266-.814 2.706 2.706 0 0 1 0-.89c.05-.295.143-.586.282-.873.137-.286.325-.547.562-.785.237-.237.498-.423.785-.562.286-.137.578-.232.874-.282.295-.048.592-.047.888 0 .296.05.568.139.814.267l-3.94 3.939zm6.693 2.665c.414-.414.76-.869 1.037-1.362.276-.494.474-.996.592-1.51a4.893 4.893 0 0 0 .11-1.532 4.48 4.48 0 0 0-.377-1.46l-1.939 1.94c.079.395.032.797-.141 1.206-.172.412-.447.803-.821 1.179-.267.266-.56.47-.882.613-.32.144-.65.234-.991.268a2.946 2.946 0 0 1-1-.068 2.572 2.572 0 0 1-.905-.415L55.555 89a5.409 5.409 0 0 0-2.288-1.798 5.184 5.184 0 0 0-2.006-.406c-.682 0-1.35.13-2.007.391a5.2 5.2 0 0 0-1.77 1.178 5.196 5.196 0 0 0-1.176 1.769 5.376 5.376 0 0 0-.393 2.007c0 .68.136 1.349.407 2.005a5.416 5.416 0 0 0 1.193 1.77 5.282 5.282 0 0 0 1.777 1.185 5.32 5.32 0 0 0 2.013.399 5.32 5.32 0 0 0 2.014-.4 5.334 5.334 0 0 0 1.791-1.199zM30.8 94.742l-2.83-2.83 1.826-1.826c1.096-1.096 2.225-1.107 3.08-.251.856.855.845 1.986-.25 3.08L30.8 94.742zm-5.956-5.957l1.574-1.574c1.073-1.073 2.1-1.233 2.978-.354.88.879.72 1.906-.353 2.978l-1.575 1.574-2.624-2.624zm8.626.48c-.845-.845-2.1-1.005-3.115-.286.423-.787.514-1.791-.41-2.716-1.165-1.163-2.614-1.016-4.052.422l-2.145 2.145 7.006 7.006 2.362-2.361c1.426-1.427 1.587-2.978.354-4.21zM64.412 62.179l-3.275-3.276 3.298-3.297-.525-.524-3.298 3.297-2.67-2.67 3.48-3.48-.536-.536-4.061 4.062 7.005 7.006zM44.15 69.502l6.47 6.47.582-.582-6.47-6.47 2.567-2.567-.536-.537-5.705 5.706.536.536zM52.317 61.152c1.496-1.495 3.765-1.255 5.568.547 1.804 1.803 2.043 4.074.549 5.57-1.483 1.482-3.755 1.243-5.557-.56-1.803-1.803-2.043-4.074-.56-5.557m6.664 6.664c1.791-1.792 1.642-4.565-.501-6.71-2.146-2.145-4.918-2.293-6.71-.501-1.78 1.78-1.632 4.552.513 6.697 2.145 2.145 4.919 2.294 6.698.514M40.967 78.619l1.711-.959c1.14-.639 1.894-.525 2.51.092.891.89.662 2.145-.342 3.148-.959.96-2.145 1.256-3.274.697l-.605.605c1.438.89 3.115.513 4.403-.776 1.313-1.313 1.598-3.036.366-4.268-.924-.924-1.997-.993-3.468-.16l-1.519.832c-1.095.617-1.836.834-2.578.093-.856-.856-.593-2.077.32-2.99 1.015-1.015 2.11-1.13 3.114-.65l.582-.583c-1.312-.764-2.852-.661-4.22.709-1.21 1.209-1.508 2.92-.32 4.107.991.993 2.064.81 3.32.103M41.583 85.009l-.536-.537-3.777 3.777-2.807-2.807 3.423-3.423-.537-.537-3.423 3.424-2.59-2.59 3.777-3.777-.536-.536-4.348 4.347 7.006 7.005zM72.692 119.069c-.944.943-2.282.64-3.408-.486-1.14-1.14-1.444-2.479-.502-3.422.944-.943 2.282-.639 3.422.502 1.125 1.126 1.43 2.463.488 3.406m-5.506-5.505c-1.977 1.978-1.87 4.79.228 6.89 2.084 2.082 4.897 2.188 6.874.212 1.977-1.977 1.87-4.79-.213-6.874-2.1-2.098-4.912-2.204-6.89-.228M87.776 96.533c.35-.35.76-.609 1.171-.715l-1.885-1.886c-.168.045-.518.274-.838.593-.668.67-.896 1.566-.699 2.342l-.669-.67-1.885 1.887 6.797 6.797 1.885-1.885-4.212-4.213c-.486-.76-.304-1.612.335-2.25M86.666 104.943c-.486.486-1.019.53-1.551 0l-2.981-2.982 1.49-1.49-1.52-1.52-1.491 1.49-1.839-1.84-1.87 1.87 1.839 1.84-1.034 1.035 1.521 1.52 1.033-1.034 3.225 3.223c1.506 1.506 3.056 1.323 4.44-.06.503-.502.882-1.034 1.004-1.429l-1.673-1.673c-.075.35-.304.76-.593 1.05M66.517 123.54c.41.623.32 1.354-.289 1.962-.867.866-2.19.608-3.33-.532-1.157-1.157-1.415-2.48-.548-3.346.609-.609 1.338-.7 1.961-.29l1.856-1.854c-1.641-1.247-3.726-1.171-5.429.532-1.931 1.93-1.825 4.714.289 6.828 2.099 2.098 4.881 2.204 6.813.274 1.703-1.704 1.794-3.772.532-5.43l-1.855 1.855zM74.82 105.93c-.791.79-1.11 1.81-1.05 2.6l-.622-.623-1.887 1.886 6.798 6.798 1.886-1.887-4.304-4.302c-.44-.746-.29-1.597.289-2.176.745-.744 1.597-.623 2.311.092l4.045 4.045 1.887-1.886-4.441-4.44c-1.506-1.507-3.376-1.643-4.912-.107M109.355 81.797c-.076.35-.304.76-.593 1.05-.487.486-1.02.532-1.55 0l-2.982-2.982 1.49-1.49-1.52-1.52-1.49 1.49-1.84-1.84-1.871 1.87 1.84 1.84-1.034 1.034 1.52 1.521 1.035-1.034 3.223 3.224c1.506 1.506 3.058 1.323 4.44-.061.503-.501.883-1.034 1.005-1.43l-1.673-1.672zM102.466 87.59c.411.624.32 1.354-.289 1.963-.867.866-2.19.608-3.33-.533-1.156-1.155-1.414-2.478-.548-3.345.608-.609 1.338-.7 1.962-.289l1.855-1.855c-1.642-1.247-3.726-1.172-5.429.532-1.931 1.93-1.824 4.714.29 6.828 2.098 2.098 4.88 2.205 6.812.274 1.703-1.703 1.794-3.772.533-5.43l-1.856 1.856zM96.201 94.738c.198.532-.091 1.277-.638 1.824-.594.594-1.446.959-2.038.366-.579-.578-.229-1.445.365-2.037.547-.548 1.292-.837 1.824-.64l.487.487zm-6.143-4.045c-1.552 1.551-1.72 3.604-.685 5.034l1.794-1.796c-.243-.547-.167-1.11.365-1.641.761-.76 1.582-.639 2.16-.062l.502.503c-.471.076-1.354.563-1.947 1.155-1.475 1.476-1.748 3.514-.456 4.806 1.414 1.414 3.36 1.049 4.729-.32.746-.745 1.172-1.687 1.172-2.144l.365.366 1.809-1.81-4.334-4.334c-1.627-1.628-3.665-1.566-5.474.243zM70.2 103.63l-2.8-2.8-.706.706 1.54 1.541-2.62-.46-.685.684 2.8 2.8.706-.707-1.636-1.637 2.808.465zM61.719 112.11l-.633-.633-1.282 1.28-.483-.483 1.172-1.172-.616-.615-1.172 1.172-.437-.438 1.28-1.282-.629-.629-2 2.002 2.799 2.8zM63.43 110.491c.61-.611.765-1.422.19-1.996-.433-.434-.957-.43-1.55-.064l-.675.42c-.177.113-.332.13-.456.008-.155-.156-.104-.388.106-.597.241-.243.487-.25.701-.156l.717-.715c-.562-.406-1.324-.392-2.007.291-.62.62-.716 1.437-.168 1.984.474.474.998.379 1.5.06l.652-.425c.218-.137.364-.164.497-.031.173.173.114.424-.11.646-.228.229-.488.297-.739.165l-.761.76c.652.453 1.432.32 2.103-.35M54.005 116.861l-.425.425-.702-.703.425-.424c.264-.264.519-.246.733-.032.21.21.233.47-.031.734m.743-1.445c-.625-.625-1.378-.557-1.984.05l-1.227 1.227 2.8 2.798.725-.724-.87-.87.501-.503c.607-.606.675-1.359.055-1.978M80.026 91.514c.205-.205.424-.214.593-.045.16.159.155.383-.05.588l-.493.492-.543-.542.493-.493zm-1.04-.055l-.506-.505.42-.42c.214-.214.406-.251.58-.078.172.173.14.37-.074.584l-.42.42zm2.28 1.104c.584-.583.652-1.208.146-1.715-.315-.314-.766-.383-1.117-.205.133-.278.082-.666-.22-.967-.5-.5-1.111-.41-1.695.174l-1.2 1.199 2.8 2.8 1.286-1.286zM83.204 90.625l.734-.734-.994-.994-.793-2.818-.77.77.505 1.683-1.682-.506-.794.794 2.8.811zM56.544 114.267l-.456.456-.676-.675.458-.457c.26-.259.51-.245.715-.04.205.205.219.456-.041.716m.757-1.433c-.612-.61-1.368-.538-1.97.064l-1.258 1.259 2.799 2.8.725-.725-.925-.926.256-.255 1.508.341.811-.81-1.66-.347c.215-.47.138-.975-.286-1.4M72.142 101.687l-2.17-2.171.867-.866-.63-.63-2.462 2.463.629.628.862-.86 2.17 2.17zM67.022 106.808l-.634-.635-1.281 1.281-.483-.483 1.171-1.172-.615-.615-1.172 1.172-.437-.438 1.281-1.28-.63-.63-2.001 2.001 2.8 2.8zM75.357 98.472l-.634-.634-1.281 1.282-.483-.483 1.172-1.173-.616-.615-1.172 1.172-.438-.437 1.282-1.282-.63-.63-2.001 2.003 2.8 2.799zM74.915 94.574c.465-.465 1.022-.429 1.496.045.469.47.505 1.026.04 1.491l-.3.302-1.538-1.538.302-.3zm2.206 2.134c.88-.88.867-1.96.015-2.814-.853-.853-1.934-.866-2.814.014l-1.058 1.058 2.8 2.8 1.057-1.058zM16.069 78.06l-.575.575-.5-1.077 1.075.502zm-2.307-1.003l1.732 3.866.725-.725-.346-.738 1.016-1.017.744.342.743-.743-3.866-1.733-.748.748zM18.6 72.22l1.258 2.033-2.075-1.217-.555.556 1.212 2.079-2.037-1.254-.75.748 3.535 2.065.67-.67-1.204-2.08 2.074 1.209.671-.67-2.06-3.538zM28.8 66.35l-.301.303-1.538-1.538.301-.3c.466-.466 1.022-.43 1.496.044.47.47.507 1.028.042 1.492m.683-2.216c-.852-.852-1.932-.867-2.812.014l-1.058 1.058 2.8 2.798 1.056-1.057c.88-.88.868-1.96.014-2.813M25.238 68.161l-.455.456-.676-.675.456-.456c.261-.26.511-.247.717-.042.205.206.219.458-.042.717m.757-1.431c-.61-.611-1.367-.539-1.968.063l-1.26 1.259 2.8 2.798.724-.723-.926-.927.256-.255 1.51.342.811-.812-1.66-.346c.215-.47.138-.975-.287-1.4M22.79 71.34l-.574.574-.502-1.077 1.076.503zm-2.307-1.004l1.732 3.866.725-.725-.347-.738 1.018-1.017.743.342.743-.743-3.866-1.733-.748.748zM18.768 64.19c.465-.466 1.022-.43 1.496.045.47.47.507 1.027.041 1.492l-.302.301-1.536-1.537.3-.302zm2.207 2.133c.88-.88.866-1.96.013-2.813-.852-.852-1.933-.865-2.813.015l-1.057 1.057 2.8 2.799 1.057-1.058zM13.255 69.638c.38-.379.954-.315 1.437.168.484.485.547 1.06.168 1.437-.378.38-.943.306-1.427-.177-.484-.484-.556-1.049-.178-1.428m2.249 2.248c.811-.812.761-1.983-.074-2.817-.839-.84-2.005-.885-2.817-.073-.807.807-.757 1.969.082 2.808.835.835 2 .89 2.809.082M19.352 67.947l-.634-.634-1.254 1.255-2.165-2.167-.734.734 2.799 2.8zM12.147 72.16l-1.157 1.158.547.546.433-.432c.146.283.1.602-.177.88-.402.401-.972.324-1.45-.154-.467-.466-.571-1.037-.165-1.442.265-.265.543-.288.834-.15l.748-.748c-.675-.465-1.504-.465-2.224.256-.803.802-.785 1.969.067 2.822.854.852 2.02.87 2.832.058.743-.743.765-1.74-.01-2.515l-.278-.279z"/>
    </g>
</svg>
