<?xml version="1.0" encoding="UTF-8"?>
<svg width="58px" height="58px" viewBox="0 0 58 58" version="1.1" xmlns="http://www.w3.org/2000/svg" xmlns:xlink="http://www.w3.org/1999/xlink">
    <!-- Generator: Sketch 52.1 (67048) - http://www.bohemiancoding.com/sketch -->
    <title>glass-wall-icon-2</title>
    <desc>Created with Sketch.</desc>
    <g id="Dividing-Walls" stroke="none" stroke-width="1" fill="none" fill-rule="evenodd">
        <g id="alur_web_dividingWalls_overview" transform="translate(-692.000000, -1019.000000)">
            <g id="duoDifferent" transform="translate(-169.000000, 842.000000)">
                <g id="Group-5" transform="translate(745.000000, 178.000000)">
                    <g id="glass-wall-icon-2" transform="translate(117.000000, 0.000000)">
                        <rect id="Rectangle-6" stroke="#98BFE1" x="-0.5" y="-0.5" width="57" height="57" rx="28.5"></rect>
                        <g id="ic_halfThick" transform="translate(24.000000, 24.000000) rotate(-270.000000) translate(-24.000000, -24.000000) " fill="#1E306E">
                            <g id="Page-1" transform="translate(10.000000, 2.000000)">
                                <path d="M-9.18485099e-17,21.5 L36,21.5 L36,14.5 L-9.18485099e-17,14.5 L-9.18485099e-17,21.5 Z M1.34826741,20.1417489 L34.6517326,20.1417489 L34.6517326,15.8582511 L1.34826741,15.8582511 L1.34826741,20.1417489 Z" id="Fill-1"></path>
                                <polygon id="Fill-2" points="18 36 19 36 19 24 18 24"></polygon>
                                <polygon id="Fill-3" points="18 12 19 12 19 -4.72510919e-13 18 -4.72510919e-13"></polygon>
                                <polygon id="Fill-4" points="18.5 13 11 5.94168538 11.9999057 5 18.5 11.1179602 25.0000943 5 26 5.94168538"></polygon>
                                <polygon id="Fill-5" points="25.0001414 31 18.5003536 24.8827053 11.9998586 31 11 30.0589801 18.5003536 23 26 30.0589801"></polygon>
                            </g>
                        </g>
                    </g>
                </g>
            </g>
        </g>
    </g>
</svg>