<?xml version="1.0" encoding="UTF-8"?>
<svg width="58px" height="58px" viewBox="0 0 58 58" version="1.1" xmlns="http://www.w3.org/2000/svg" xmlns:xlink="http://www.w3.org/1999/xlink">
    <!-- Generator: Sketch 52.1 (67048) - http://www.bohemiancoding.com/sketch -->
    <title>glass-wall-icon-3</title>
    <desc>Created with Sketch.</desc>
    <g id="Dividing-Walls" stroke="none" stroke-width="1" fill="none" fill-rule="evenodd">
        <g id="alur_web_dividingWalls_overview" transform="translate(-1129.000000, -1019.000000)">
            <g id="duoDifferent" transform="translate(-169.000000, 842.000000)">
                <g id="Group-5" transform="translate(1182.000000, 178.000000)">
                    <g id="glass-wall-icon-3" transform="translate(117.000000, 0.000000)">
                        <rect id="Rectangle-6" stroke="#98BFE1" x="-0.5" y="-0.5" width="57" height="57" rx="28.5"></rect>
                        <g id="Group-8" transform="translate(16.000000, 12.000000)" stroke="#1E306E">
                            <polygon id="Stroke-4" points="3.43005371 32.4328125 20.4690102 32.4328125 20.4690102 24.9902812 3.43005371 24.9902812"></polygon>
                            <path d="M21.5333217,2.44365 L18.9694957,2.44365 L18.9694957,11.1525562 C18.9694957,11.5825875 18.9256696,12.0074625 18.8515826,12.4240875 C21.3528,12.2178375 23.3249739,10.169775 23.3249739,7.6432125 L23.3249739,4.21430625 C23.3249739,3.23668125 22.5225391,2.44365 21.5333217,2.44365 Z" id="Stroke-6"></path>
                            <path d="M4.9293913,11.1524531 L4.9293913,2.44354688 L2.36556522,2.44354688 C1.37634783,2.44354688 0.573913043,3.23657813 0.573913043,4.21420313 L0.573913043,7.64310938 C0.573913043,10.1696719 2.54608696,12.2187656 5.04834783,12.4250156 C4.97321739,12.0073594 4.9293913,11.5824844 4.9293913,11.1524531 Z" id="Stroke-7"></path>
                            <path d="M18.9700537,11.1524531 C18.9700537,13.0365469 18.2229233,14.8288594 16.9519668,16.2334219 C15.3596189,17.9917031 14.2190972,20.0490469 13.7307494,22.5333281 L12.2083146,22.5333281 L11.6928363,22.5333281 L10.1693581,22.5333281 C9.68101023,20.0490469 8.54048849,17.9917031 6.94814067,16.2334219 C5.67614067,14.8288594 4.93005371,13.0365469 4.93005371,11.1524531 L4.93005371,0.142828125 L11.6928363,0.142828125 L12.2083146,0.142828125 L18.9700537,0.142828125 L18.9700537,11.1524531 Z" id="Stroke-1"></path>
                            <polygon id="Stroke-3" points="5.33996582 24.9902812 18.5524876 24.9902812 18.5524876 22.5338437 5.33996582 22.5338437"></polygon>
                        </g>
                    </g>
                </g>
            </g>
        </g>
    </g>
</svg>