<?xml version="1.0" encoding="UTF-8"?>
<svg width="58px" height="58px" viewBox="0 0 58 58" version="1.1" xmlns="http://www.w3.org/2000/svg" xmlns:xlink="http://www.w3.org/1999/xlink">
    <!-- Generator: Sketch 52.1 (67048) - http://www.bohemiancoding.com/sketch -->
    <title>glass-wall-icon-1</title>
    <desc>Created with Sketch.</desc>
    <g id="Dividing-Walls" stroke="none" stroke-width="1" fill="none" fill-rule="evenodd">
        <g id="alur_web_dividingWalls_overview" transform="translate(-255.000000, -1019.000000)">
            <g id="duoDifferent" transform="translate(-169.000000, 842.000000)">
                <g id="Group-5" transform="translate(308.000000, 178.000000)">
                    <g id="glass-wall-icon-1" transform="translate(117.000000, 0.000000)">
                        <rect id="Rectangle-6" stroke="#98BFE1" x="-0.5" y="-0.5" width="57" height="57" rx="28.5"></rect>
                        <g id="ic_frameless" fill="#1E306E">
                            <g id="Page-1" transform="translate(11.000000, 11.000000)">
                                <polygon id="Fill-1" points="0 5.25310189 4.45148148 32.9556679 7.38240741 32.4955358 7.19225926 31.3106491 5.45951852 31.5827434 1.3877037 6.24870566 3.12107407 5.97661132 2.9302963 4.79172453"></polygon>
                                <polygon id="Fill-2" points="25.6654667 1.21894528 25.8562444 2.40383208 28.1726519 2.03958679 32.2432074 27.3742472 7.79091111 31.2165679 3.71972593 5.88253019 18.2780222 3.59432264 18.0872444 2.40943585 2.33202222 4.88630377 6.78413333 32.5894925 33.6321704 28.3698509 29.1800593 0.666662264"></polygon>
                                <polygon id="Fill-3" points="16.9093333 9.7886717 16.1544074 5.09395472 17.351963 4.90591698 18.1068889 9.60001132"></polygon>
                                <polygon id="Fill-4" points="14.8522704 8.31232642 14.6621222 7.12806226 19.4089 6.38213774 19.5996778 7.56640189"></polygon>
                                <polygon id="Fill-5" points="22.9498111 12.0475528 22.1961444 7.35283585 23.3937 7.16542075 24.1473667 11.8595151"></polygon>
                                <polygon id="Fill-6" points="20.8936926 10.5715189 20.7029148 9.38725472 25.4496926 8.64133019 25.6404704 9.82559434"></polygon>
                                <polygon id="Fill-7" points="19.735237 3.36556415 19.5444593 2.1813 24.2918667 1.43475283 24.4826444 2.61963962"></polygon>
                                <polygon id="Fill-8" points="22.2422333 0.000124528302 21.0440481 0.188162264 21.7983444 4.88287925 22.9965296 4.69421887"></polygon>
                            </g>
                        </g>
                    </g>
                </g>
            </g>
        </g>
    </g>
</svg>