<svg width="56" height="45" viewBox="0 0 56 45" xmlns="http://www.w3.org/2000/svg"><title>27CCB1D7-AD18-44EE-9188-C1A0634319A1</title><g fill="#1e306e" fill-rule="evenodd"><path d="M0 44.926h56V43H0z"/><path d="M3.038 44.926h28.925V0H3.038v44.926zM4.963 43h25.075V1.926H4.963V43zM45.293 8.67L41 4.377 36.707 8.67l-1.414-1.414L41 1.549l5.707 5.707zM41 41.549l-4.293-4.293-1.415 1.414L41 44.377l5.707-5.707-1.414-1.414z"/><path d="M40.037 41.963h1.926v-39h-1.926zM19.293 29.814L9.149 19.67l1.414-1.413L20.707 28.4zM25.293 24.814L15.149 14.67l1.414-1.414 10.144 10.146zM24.74 30.117L8.293 13.67l1.414-1.414 16.447 16.447zM46.327 25.963h-1.12v-3.75l-.896.384v-.984l2.016-.96zM49.438 24.955c.632 0 .823-.735.823-1.615 0-.887-.19-1.63-.823-1.63-.64 0-.84.743-.84 1.63 0 .88.2 1.615.84 1.615m0-4.333c1.528 0 1.943 1.207 1.943 2.718 0 1.496-.415 2.703-1.942 2.703s-1.96-1.207-1.96-2.703c0-1.51.433-2.718 1.96-2.718M52.12 22.469c.335-.472.751-1 .751-2.08h.911c0 1.017-.863 2.032-1.23 2.328l-.433-.248z"/></g></svg>