<?xml version="1.0" encoding="utf-8"?>
<!-- Generator: Adobe Illustrator 15.0.0, SVG Export Plug-In . SVG Version: 6.00 Build 0)  -->
<!DOCTYPE svg PUBLIC "-//W3C//DTD SVG 1.1//EN" "http://www.w3.org/Graphics/SVG/1.1/DTD/svg11.dtd">
<svg version="1.1" id="Layer_1" xmlns="http://www.w3.org/2000/svg" xmlns:xlink="http://www.w3.org/1999/xlink" x="0px" y="0px"
	 width="49px" height="49px" viewBox="0 0 49 49" enable-background="new 0 0 49 49" xml:space="preserve">
<title>9D27E36E-1EC8-4A7B-9720-3C5FE1FFA624</title>
<path fill="#FFFFFF" d="M0,0v49h49V0H0z M47,47H2V2h45V47z"/>
<path fill="#FFFFFF" d="M19.518,13l-7.296,21h3.262l2.085-6.177l0.001,0.001h7.12L26.835,34h3.356l-7.33-21H19.518z M17.891,25.354
	l2.105-6.081c0.401-1.255,0.762-2.523,1.082-3.802h0.066c0.318,1.215,0.637,2.462,1.115,3.834l2.104,6.048H17.891L17.891,25.354z"/>
<path fill="#FFFFFF" d="M32.475,13H35v21h-2.525V13z"/>
</svg>
