<?xml version="1.0" encoding="utf-8"?>
<!-- Generator: Adobe Illustrator 15.0.0, SVG Export Plug-In . SVG Version: 6.00 Build 0)  -->
<!DOCTYPE svg PUBLIC "-//W3C//DTD SVG 1.1//EN" "http://www.w3.org/Graphics/SVG/1.1/DTD/svg11.dtd">
<svg version="1.1" id="Layer_1" xmlns="http://www.w3.org/2000/svg" xmlns:xlink="http://www.w3.org/1999/xlink" x="0px" y="0px"
	 width="34px" height="24px" viewBox="0 0 34 24" enable-background="new 0 0 34 24" xml:space="preserve">
<title>Binoculars</title>
<desc>Created with Sketch.</desc>
<g id="Product-Glass-Walls">
	<g id="alur_web_prod_dividingWall_overview" transform="translate(-249.000000, -4567.000000)">
		<g id="SPOT-4" transform="translate(74.000000, 4224.000000)">
			<g id="Group-6" transform="translate(156.000000, 326.000000)">
				<g id="Binoculars" transform="translate(20.000000, 18.000000)">
					<path fill="#222222" d="M6.261,23C2.257,23-1,19.775-1,15.813s3.257-7.188,7.261-7.188c1.938,0,3.759,0.746,5.13,2.101
						c1.354,1.338,2.131,3.192,2.131,5.086C13.522,19.775,10.265,23,6.261,23z M6.261,10.625C3.36,10.625,1,12.952,1,15.813
						S3.36,21,6.261,21s5.261-2.327,5.261-5.188c0-1.384-0.546-2.685-1.537-3.664C8.991,11.166,7.668,10.625,6.261,10.625z"/>
					<path fill="#222222" d="M13.521,15.856l-1.998-0.088l0.542-12.327c0.027-0.632-0.211-1.257-0.654-1.715
						C10.965,1.266,10.337,1,9.689,1c0,0-0.001,0-0.001,0C8.801,1,7.994,1.479,7.581,2.252L1.716,13.191l-1.763-0.945L5.818,1.308
						C6.578-0.115,8.062-1,9.689-1c0,0,0.001,0,0.002,0c1.186,0.001,2.336,0.488,3.157,1.336c0.824,0.851,1.267,2.015,1.215,3.193
						L13.521,15.856z"/>
					<path fill="#222222" d="M25.739,23c-4.004,0-7.261-3.225-7.261-7.188s3.257-7.188,7.261-7.188S33,11.85,33,15.813
						S29.743,23,25.739,23z M25.739,10.625c-2.9,0-5.261,2.327-5.261,5.188S22.839,21,25.739,21S31,18.673,31,15.813
						S28.64,10.625,25.739,10.625z"/>
					<path fill="#222222" d="M18.479,15.854L17.958,3.528c-0.053-1.176,0.39-2.34,1.214-3.192c0.82-0.848,1.971-1.335,3.157-1.336
						c0.009,0,0.019,0,0.028,0c1.584,0,3.049,0.852,3.822,2.229l5.861,11.02l-1.766,0.939l-5.851-11C24.017,1.462,23.219,1,22.352,1
						c-0.005,0-0.01,0-0.016,0c-0.652,0-1.28,0.266-1.727,0.727c-0.443,0.458-0.682,1.083-0.653,1.714l0.521,12.33L18.479,15.854z"
						/>
					<path fill="#222222" d="M18.567,16.226c-0.433-0.957-1.438-1.563-2.499-1.478L16,14.752l-0.068-0.004
						c-1.059-0.088-2.066,0.52-2.499,1.477L11.611,15.4c0.766-1.692,2.527-2.744,4.389-2.652c1.871-0.09,3.623,0.96,4.39,2.651
						L18.567,16.226z"/>
					<path fill="#222222" d="M13.823,6.717l-1.754-0.962c0.784-1.43,2.292-2.318,3.934-2.318c1.643,0,3.151,0.888,3.934,2.318
						l-1.754,0.961c-0.433-0.789-1.268-1.279-2.18-1.279C15.091,5.437,14.256,5.927,13.823,6.717z"/>
				</g>
			</g>
		</g>
	</g>
</g>
</svg>
