<?xml version="1.0" encoding="utf-8"?>
<!-- Generator: Adobe Illustrator 15.0.0, SVG Export Plug-In . SVG Version: 6.00 Build 0)  -->
<!DOCTYPE svg PUBLIC "-//W3C//DTD SVG 1.1//EN" "http://www.w3.org/Graphics/SVG/1.1/DTD/svg11.dtd">
<svg version="1.1" id="Layer_1" xmlns="http://www.w3.org/2000/svg" xmlns:xlink="http://www.w3.org/1999/xlink" x="0px" y="0px"
	 width="54px" height="54px" viewBox="0 0 54 54" enable-background="new 0 0 54 54" xml:space="preserve">
<g>
	<path fill="none" stroke="#3E9C98" stroke-width="1.212" stroke-linecap="round" d="M32.164,18.832c0,2.87-2.313,5.198-5.164,5.198
		c-2.852,0-5.164-2.327-5.164-5.198c0-2.87,2.312-5.197,5.164-5.197C29.852,13.635,32.164,15.962,32.164,18.832z"/>
	<path fill="none" stroke="#3E9C98" stroke-width="1.212" stroke-linecap="round" d="M28.531,18.832c0,0.852-0.686,1.542-1.53,1.542
		c-0.847,0-1.534-0.689-1.534-1.542c0-0.85,0.687-1.54,1.534-1.54C27.846,17.292,28.531,17.982,28.531,18.832z M26.999,8.564v5.07
		 M25.772,23.881l-9.857,21.555 M23.011,22.057l-8.193,17.914l2.86,1.609 M26.999,30.994V35.1 M13.381,33.049h4.549 M21.581,33.049
		H27 M28.227,23.881l9.857,21.555 M30.988,22.057l8.191,17.914L36.32,41.58 M26.999,30.994V35.1 M40.619,33.049h-4.551
		 M32.419,33.049h-5.42"/>
</g>
</svg>
