<?xml version="1.0" encoding="utf-8"?>
<!-- Generator: Adobe Illustrator 15.0.0, SVG Export Plug-In . SVG Version: 6.00 Build 0)  -->
<!DOCTYPE svg PUBLIC "-//W3C//DTD SVG 1.1//EN" "http://www.w3.org/Graphics/SVG/1.1/DTD/svg11.dtd">
<svg version="1.1" id="Layer_1" xmlns="http://www.w3.org/2000/svg" xmlns:xlink="http://www.w3.org/1999/xlink" x="0px" y="0px"
	 width="35px" height="49px" viewBox="0 0 35 49" enable-background="new 0 0 35 49" xml:space="preserve">
<title>ic-cup-blue</title>
<desc>Created with Sketch.</desc>
<g id="Design">
	<g id="ic-cup-blue">
		<path fill="#1E306E" d="M27.02,41.646H7.979v-9.443H27.02V41.646z M9.979,39.646H25.02v-5.443H9.979V39.646z M11.813,21.74
			l-1.298-0.106c-3.074-0.253-5.392-2.737-5.392-5.777v-3.431c0-1.527,1.252-2.77,2.792-2.77h3.564v9.708
			c0.001,0.355,0.035,0.725,0.102,1.095L11.813,21.74z M7.915,11.656c-0.437,0-0.792,0.345-0.792,0.77v3.431
			c0,1.573,0.955,2.919,2.356,3.496v-7.696H7.915z M23.197,21.738l0.221-1.273c0.069-0.398,0.104-0.758,0.104-1.1V9.656h3.563
			c1.539,0,2.791,1.242,2.793,2.769v3.432c0,3.04-2.318,5.522-5.391,5.775L23.197,21.738z M25.521,11.656v7.695
			c1.4-0.577,2.355-1.922,2.355-3.495v-3.431c0-0.424-0.355-0.77-0.793-0.77H25.521z"/>
		<path fill="#1E306E" d="M25.102,34.202H9.89v-4.456h4.548c-0.515-1.688-1.399-3.212-2.683-4.632
			c-1.468-1.618-2.277-3.66-2.277-5.749V7.354H25.52l0.002,12.011c0,2.089-0.811,4.131-2.281,5.752
			c-1.281,1.417-2.166,2.941-2.683,4.63h4.544V34.202z M11.89,32.202h11.212v-0.456H11.89V32.202z M16.515,29.745h1.966
			c0.568-2.207,1.646-4.168,3.277-5.973c1.138-1.253,1.764-2.818,1.764-4.408L23.52,9.354H11.478v10.012
			c0,1.591,0.625,3.156,1.76,4.406C14.871,25.58,15.948,27.54,16.515,29.745z"/>
	</g>
</g>
</svg>
