<?xml version="1.0" encoding="utf-8"?>
<!-- Generator: Adobe Illustrator 15.0.0, SVG Export Plug-In . SVG Version: 6.00 Build 0)  -->
<!DOCTYPE svg PUBLIC "-//W3C//DTD SVG 1.1//EN" "http://www.w3.org/Graphics/SVG/1.1/DTD/svg11.dtd">
<svg version="1.1" id="Layer_1" xmlns="http://www.w3.org/2000/svg" xmlns:xlink="http://www.w3.org/1999/xlink" x="0px" y="0px"
	 width="54px" height="54px" viewBox="0 0 54 54" enable-background="new 0 0 54 54" xml:space="preserve">
<g>
	<path fill="none" stroke="#3E9C98" d="M18.479,43.146h17.041v-7.443H18.479V43.146z M36.584,13.156h-2.563v8.709
		c0,0.43-0.045,0.854-0.117,1.271c2.5-0.206,4.474-2.254,4.474-4.779v-3.431C38.377,13.949,37.574,13.156,36.584,13.156
		L36.584,13.156z M19.979,21.864v-8.708h-2.564c-0.99,0-1.792,0.793-1.792,1.77v3.431c0,2.525,1.972,4.574,4.474,4.78
		C20.021,22.717,19.98,22.291,19.979,21.864L19.979,21.864L19.979,21.864z"/>
	<path fill="none" stroke="#3E9C98" d="M34.021,21.864c0,1.885-0.748,3.677-2.021,5.08c-1.592,1.76-2.731,3.815-3.221,6.301h-3.562
		c-0.488-2.484-1.629-4.541-3.22-6.301c-1.273-1.403-2.019-3.195-2.019-5.079V10.854H34.02L34.021,21.864L34.021,21.864z
		 M20.39,35.702h13.211v-2.456H20.39V35.702z"/>
</g>
</svg>
