<svg width="47" height="47" viewBox="0 0 47 47" xmlns="http://www.w3.org/2000/svg"><title>DABB2304-55FE-476D-BC2F-00AAA6256678</title><g fill="#FFF" fill-rule="evenodd"><path d="M.857 7.946l6.06 38.136 3.99-.634-.259-1.63-2.359.374L2.746 9.316l2.36-.374-.26-1.631z"/><path d="M35.797 2.392l.26 1.631 3.153-.501 5.541 34.876-33.288 5.29L5.921 8.812l19.819-3.15-.26-1.63L4.032 7.44l6.06 38.137 36.55-5.81-6.06-38.136z"/><path d="M23.877 14.19l-1.028-6.463 1.63-.26 1.028 6.463z"/><path d="M21.076 12.157l-.259-1.63L27.28 9.5l.26 1.63zM32.1 17.3l-1.026-6.464 1.63-.258 1.026 6.462z"/><path d="M29.3 15.267l-.26-1.63 6.463-1.027.26 1.63zM27.724 5.347l-.26-1.63 6.463-1.028.26 1.632z"/><path d="M31.136.714l-1.63.26 1.026 6.462 1.631-.26z"/></g></svg>