<?xml version="1.0" encoding="UTF-8"?>
<svg width="21px" height="21px" viewBox="0 0 21 21" version="1.1" xmlns="http://www.w3.org/2000/svg" xmlns:xlink="http://www.w3.org/1999/xlink">
    <!-- Generator: Sketch 52.1 (67048) - http://www.bohemiancoding.com/sketch -->
    <title>ic-flowerpot-blue</title>
    <desc>Created with Sketch.</desc>
    <g id="Dividing-Walls" stroke="none" stroke-width="1" fill="none" fill-rule="evenodd">
        <g id="alur_web_dividingWalls_overview" transform="translate(-182.000000, -4533.000000)" stroke="#1E306E" stroke-width="0.857142857">
            <g id="Features" transform="translate(103.000000, 4245.000000)">
                <g id="Group-18">
                    <g id="Group-17" transform="translate(78.000000, 88.000000)">
                        <g id="ic-flowerpot-blue" transform="translate(0.000000, 199.000000)">
                            <g id="ic_furniture">
                                <g id="Page-1" transform="translate(2.142857, 2.142857)">
                                    <polygon id="Stroke-1" points="0 18.8785714 19.2857143 18.8785714 19.2857143 15.0214286 0 15.0214286"></polygon>
                                    <path d="M15.1485857,8.16428571 C15.1507286,8.91128571 15.3097286,9.82328571 15.8570143,10.7357143 C17.1427286,12.8785714 17.1427286,15.0214286 13.7141571,15.0214286 C10.2855857,15.0214286 10.2855857,12.8785714 11.5713,10.7357143 C12.3538714,9.432 12.3427286,8.12828571 12.2141571,7.30714286" id="Stroke-3"></path>
                                    <path d="M13.0576286,3.56717143 C17.0849143,4.54688571 14.3776286,8.15374286 12.5030571,4.30602857 C14.3776286,8.15374286 9.86948571,8.28574286 11.5799143,4.33302857 C9.86948571,8.28574286 6.95562857,4.84345714 10.9829143,3.62802857 C6.95562857,4.84345714 7.83034286,0.418885714 11.1620571,2.7216 C7.83034286,0.418885714 11.8344857,-1.65625714 11.9823429,2.29688571 C11.8344857,-1.65625714 15.9534857,0.181457143 12.8257714,2.67317143 C15.9534857,0.181457143 17.0849143,4.54688571 13.0576286,3.56717143 Z" id="Stroke-4"></path>
                                    <path d="M15.1699286,1.73571429 C15.9182143,-0.225428571 18.4785,1.41685714 15.8256429,3.53014286 C18.9533571,1.03842857 20.0852143,5.40428571 16.0575,4.42414286 C20.0852143,5.40428571 17.3775,9.01114286 15.5029286,5.163 C17.2347857,8.718 13.5182143,9.10157143 14.2917857,6.02142857" id="Stroke-5"></path>
                                    <polygon id="Stroke-6" points="1.28571429 15.0214286 9 15.0214286 9 12.8785714 1.28571429 12.8785714"></polygon>
                                    <polygon id="Stroke-7" points="1.28571429 12.8785714 9 12.8785714 9 10.7357143 1.28571429 10.7357143"></polygon>
                                </g>
                            </g>
                        </g>
                    </g>
                </g>
            </g>
        </g>
    </g>
</svg>