<svg xmlns="http://www.w3.org/2000/svg" xmlns:xlink="http://www.w3.org/1999/xlink" width="53" height="35" viewBox="0 0 53 35">
    <defs>
        <path id="a" d="M0 35h56V.12H0z"/>
    </defs>
    <g fill="none" fill-rule="evenodd" transform="translate(-2)">
        <path fill="#1E306E" d="M10 26.12c-1.654 0-3 1.346-3 3s1.346 3 3 3 3-1.346 3-3-1.346-3-3-3zm0 8c-2.757 0-5-2.243-5-5s2.243-5 5-5 5 2.243 5 5-2.243 5-5 5zM28 26.12c-1.654 0-3 1.346-3 3s1.346 3 3 3 3-1.346 3-3-1.346-3-3-3m0 8c-2.757 0-5-2.243-5-5s2.243-5 5-5 5 2.243 5 5-2.243 5-5 5M44 26.12c-1.654 0-3 1.346-3 3s1.346 3 3 3 3-1.346 3-3-1.346-3-3-3m0 8c-2.757 0-5-2.243-5-5s2.243-5 5-5 5 2.243 5 5-2.243 5-5 5"/>
        <path fill="#1E306E" d="M6 30.12H2v-22h16v21h-2v-19H4v18h2z"/>
        <mask id="b" fill="#fff">
            <use xlink:href="#a"/>
        </mask>
        <path fill="#1E306E" d="M13 30.12h11v-2H13zM32 30.12h8v-2h-8z" mask="url(#b)"/>
        <path fill="#1E306E" d="M53 30.12h-5v-2h3v-26H21v27h-2v-29h34zM13 22.12H3v-2h8v-6H3v-2h10z" mask="url(#b)"/>
        <path fill="#1E306E" d="M35 21.12h20v-2H35zM39 17.12h10v-2H39z" mask="url(#b)"/>
    </g>
</svg>
