<svg width="47" height="48" viewBox="0 0 47 48" xmlns="http://www.w3.org/2000/svg"><title>0D64497B-FD49-4293-A5D8-ACC1225E42FD</title><g stroke-width="2" stroke="#FFF" fill="none" fill-rule="evenodd"><path d="M1 46.05h45v-9H1zM36.347 21.05c.005 1.743.376 3.871 1.653 6 3 5 3 10-5 10s-8-5-5-10c1.826-3.042 1.8-6.084 1.5-8"/><path d="M31.468 10.323c9.397 2.286 3.08 10.702-1.294 1.724 4.374 8.978-6.145 9.286-2.154.063-3.991 9.223-10.79 1.191-1.393-1.645-9.397 2.836-7.356-7.488.418-2.115-7.774-5.373 1.569-10.215 1.914-.99-.345-9.225 9.266-4.937 1.968.877 7.298-5.814 9.938 4.372.54 2.086z"/><path d="M36.397 6.05c1.745-4.576 7.72-.744 1.53 4.187 7.297-5.814 9.938 4.373.54 2.086 9.398 2.287 3.08 10.703-1.294 1.724 4.041 8.295-4.63 9.19-2.826 2.003M4 37.05h18v-5H4zM4 32.05h18v-5H4z"/></g></svg>