<?xml version="1.0" encoding="utf-8"?>
<!-- Generator: Adobe Illustrator 15.0.0, SVG Export Plug-In . SVG Version: 6.00 Build 0)  -->
<!DOCTYPE svg PUBLIC "-//W3C//DTD SVG 1.1//EN" "http://www.w3.org/Graphics/SVG/1.1/DTD/svg11.dtd">
<svg version="1.1" id="Layer_1" xmlns="http://www.w3.org/2000/svg" xmlns:xlink="http://www.w3.org/1999/xlink" x="0px" y="0px"
	 width="54px" height="54px" viewBox="0 0 54 54" enable-background="new 0 0 54 54" xml:space="preserve">
<g>
	<g transform="translate(0 -.2)">
		<path fill="none" stroke="#3E9C98" stroke-width="1.042" stroke-linecap="round" d="M9.851,37.828c0,0,1.01-21.257,21.353-21.257
			c15.848,0,16.725,21.257,4.953,21.257c0,0-5.066-0.228-5.066-4.989c0,0,0.152-3.162,3.047-3.162c0,0,1.98-0.037,1.98,1.981
			c0,0-0.08,1.144-1.181,1.144c0,0-0.787,0.057-0.787-0.843"/>
		<defs>
			<filter id="Adobe_OpacityMaskFilter" filterUnits="userSpaceOnUse" x="9.346" y="16.07" width="35.305" height="22.26">
				<feColorMatrix  type="matrix" values="1 0 0 0 0  0 1 0 0 0  0 0 1 0 0  0 0 0 1 0"/>
			</filter>
		</defs>
		<mask maskUnits="userSpaceOnUse" x="9.346" y="16.07" width="35.305" height="22.26" id="b">
			<g filter="url(#Adobe_OpacityMaskFilter)">
				<path id="a" fill="#FFFFFF" d="M9.226,38.458h39.335V15.943H9.226V38.458z"/>
			</g>
		</mask>
		<path mask="url(#b)" fill="none" stroke="#3E9C98" d="M9.846,37.83h21.257V16.57H9.846V37.83z M31.104,37.83H44.15V16.57H31.104
			V37.83z"/>
	</g>
	<g>
		<path fill="none" stroke="#3E9C98" stroke-width="0.833" d="M31.108,37.63h13.046v-8.159H31.108V37.63z M36.121,29.534v8.094"/>
	</g>
</g>
</svg>
