<svg width="56" height="35" viewBox="0 0 56 35" xmlns="http://www.w3.org/2000/svg" xmlns:xlink="http://www.w3.org/1999/xlink"><title>E3014673-25C0-4F94-A22A-07726DA93031</title><defs><path id="a" d="M0 35h56V.12H0z"/></defs><g fill="none" fill-rule="evenodd"><path fill="#FFF" d="M0 34.88h56v-1.926H0z"/><g transform="translate(0 -.12)"><path d="M10 26.12c-1.654 0-3 1.346-3 3s1.346 3 3 3 3-1.346 3-3-1.346-3-3-3zm0 8c-2.757 0-5-2.243-5-5s2.243-5 5-5 5 2.243 5 5-2.243 5-5 5zM28 26.12c-1.654 0-3 1.346-3 3s1.346 3 3 3 3-1.346 3-3-1.346-3-3-3m0 8c-2.757 0-5-2.243-5-5s2.243-5 5-5 5 2.243 5 5-2.243 5-5 5M44 26.12c-1.654 0-3 1.346-3 3s1.346 3 3 3 3-1.346 3-3-1.346-3-3-3m0 8c-2.757 0-5-2.243-5-5s2.243-5 5-5 5 2.243 5 5-2.243 5-5 5" fill="#FFF"/><path fill="#FFF" d="M6 30.12H2v-22h16v21h-2v-19H4v18h2z"/><mask id="b" fill="#fff"><use xlink:href="#a"/></mask><path fill="#FFF" mask="url(#b)" d="M13 30.12h11v-2H13zM32 30.12h8v-2h-8z"/><path fill="#FFF" mask="url(#b)" d="M53 30.12h-5v-2h3v-26H21v27h-2v-29h34zM13 22.12H3v-2h8v-6H3v-2h10z"/><path fill="#FFF" mask="url(#b)" d="M35 21.12h20v-2H35zM39 17.12h10v-2H39z"/></g></g></svg>