<svg xmlns="http://www.w3.org/2000/svg" width="48" height="48" viewBox="0 0 48 48">
    <g fill="none" fill-rule="evenodd">
        <path stroke="#3E9C98" stroke-width="2" d="M47 24c0 12.702-10.297 23-23 23C11.298 47 1 36.702 1 24S11.298 1 24 1c12.703 0 23 10.298 23 23z"/>
        <path stroke="#3E9C98" stroke-width="2" d="M38.917 38.333a48.551 48.551 0 0 0-30 0c-.687-2.113-1.373-4.227-2.061-6.34a55.224 55.224 0 0 1 34.122 0c-.688 2.113-1.374 4.227-2.061 6.34z"/>
        <path stroke="#3E9C98" stroke-width="2" d="M29.917 36.6A13.86 13.86 0 0 1 24 37.917c-2.181 0-4.245-.502-6.082-1.396M11.917 30.91A13.86 13.86 0 0 1 10.084 24c0-7.686 6.23-13.917 13.916-13.917 7.687 0 13.917 6.231 13.917 13.917a13.87 13.87 0 0 1-1.356 6"/>
        <path fill="#3E9C98" d="M24 30s2.5-1.678 2.5-6.177c0-5.294-2.583-8.823-2.583-8.823S21.5 18.529 21.5 23.823C21.5 28.322 24 30 24 30M18.292 30s2.292-1.678 2.292-6.177c0-5.294-2.292-7.058-2.292-7.058S16 18.529 16 23.823C16 28.322 18.292 30 18.292 30m11.5 0s-2.208-1.678-2.208-6.177c0-5.294 2.208-7.058 2.208-7.058S32 18.529 32 23.823C32 28.322 29.792 30 29.792 30"/>
    </g>
</svg>
