<?xml version="1.0" encoding="utf-8"?>
<!-- Generator: Adobe Illustrator 15.0.0, SVG Export Plug-In . SVG Version: 6.00 Build 0)  -->
<!DOCTYPE svg PUBLIC "-//W3C//DTD SVG 1.1//EN" "http://www.w3.org/Graphics/SVG/1.1/DTD/svg11.dtd">
<svg version="1.1" id="Layer_1" xmlns="http://www.w3.org/2000/svg" xmlns:xlink="http://www.w3.org/1999/xlink" x="0px" y="0px"
	 width="48px" height="48px" viewBox="0 0 48 48" enable-background="new 0 0 48 48" xml:space="preserve">
<path fill="#FFFFFF" d="M24,0C10.767,0,0,10.767,0,24s10.767,24,24,24s24-10.767,24-24S37.233,0,24,0z M8.441,39.539l0.785-0.255
	c2.696-0.876,5.463-1.494,8.259-1.873l-0.005,0.01c2.041,0.993,4.234,1.496,6.518,1.496c0.007,0,0.014,0,0.021,0
	c2.174,0,4.359-0.488,6.323-1.413l-0.047-0.101c2.814,0.379,5.6,0.999,8.313,1.881l0.909,0.295C35.536,43.545,30.05,46,24,46
	C17.93,46,12.426,43.528,8.441,39.539z M11.084,24c0-7.123,5.794-12.917,12.916-12.917s12.917,5.794,12.917,12.918
	c0.003,1.909-0.431,3.826-1.25,5.545c-1.605-0.341-3.224-0.616-4.851-0.816C31.394,27.758,32,26.182,32,23.823
	c0-5.294-2.208-7.058-2.208-7.058s-2.208,1.764-2.208,7.058c0,2.184,0.521,3.698,1.056,4.684c-1.076-0.09-2.153-0.146-3.232-0.174
	c0.568-0.986,1.093-2.449,1.093-4.51c0-5.294-2.583-8.823-2.583-8.823S21.5,18.529,21.5,23.823c0,2.058,0.523,3.52,1.091,4.507
	c-1.03,0.023-2.06,0.066-3.087,0.146c0.55-0.986,1.08-2.491,1.08-4.653c0-5.294-2.292-7.058-2.292-7.058S16,18.529,16,23.823
	c0,2.336,0.618,3.906,1.212,4.881c-1.633,0.194-3.257,0.468-4.869,0.805C11.53,27.788,11.081,25.91,11.084,24z M39.715,32.644
	l-1.443,4.439c-9.314-2.822-19.394-2.822-28.709,0l-1.443-4.439C18.369,29.521,29.464,29.521,39.715,32.644z M39.585,39.512
	l2.654-8.16l-0.952-0.31c-1.204-0.392-2.423-0.731-3.648-1.039c0.829-1.884,1.281-3.944,1.278-6.003
	c0-8.225-6.691-14.917-14.917-14.917c-8.225,0-14.916,6.692-14.916,14.916c-0.003,2.057,0.43,4.09,1.249,5.968
	c-1.272,0.315-2.536,0.669-3.786,1.075l-0.952,0.31l2.568,7.896C4.351,35.289,2,29.916,2,24C2,11.869,11.869,2,24,2s22,9.869,22,22
	C46,30.047,43.547,35.53,39.585,39.512z"/>
</svg>
