<?xml version="1.0" encoding="utf-8"?>
<!-- Generator: Adobe Illustrator 15.0.0, SVG Export Plug-In . SVG Version: 6.00 Build 0)  -->
<!DOCTYPE svg PUBLIC "-//W3C//DTD SVG 1.1//EN" "http://www.w3.org/Graphics/SVG/1.1/DTD/svg11.dtd">
<svg version="1.1" id="Layer_1" xmlns="http://www.w3.org/2000/svg" xmlns:xlink="http://www.w3.org/1999/xlink" x="0px" y="0px"
	 width="34px" height="32px" viewBox="0 0 34 32" enable-background="new 0 0 34 32" xml:space="preserve">
<title>Loudspeaker</title>
<desc>Created with Sketch.</desc>
<g id="Product-Glass-Walls">
	<g id="alur_web_prod_dividingWall_overview" transform="translate(-249.000000, -4658.000000)">
		<g id="SPOT-4" transform="translate(74.000000, 4224.000000)">
			<g id="Group-6" transform="translate(156.000000, 422.000000)">
				<g id="Loudspeaker" transform="translate(20.000000, 14.000000)">
					<path fill="#222222" d="M33,29.771L4.565,18.359V9.934L33-1.479V29.771z M6.565,17.008L31,26.814V1.479L6.565,11.286V17.008z"
						/>
					<path fill="#222222" d="M5.565,18.684H3.478C0.967,18.684-1,16.69-1,14.146S0.967,9.61,3.478,9.61h2.087v2H3.478
						C2.088,11.61,1,12.724,1,14.146c0,1.423,1.088,2.537,2.478,2.537h2.087V18.684z"/>
					<path fill="#222222" d="M17.586,29.347c-0.468,0-0.938-0.088-1.39-0.263l-6.475-2.548c-1.932-0.787-2.901-3.01-2.17-4.96
						l0.974-2.615l1.874,0.697l-0.974,2.617c-0.355,0.948,0.112,2.026,1.04,2.404l6.459,2.541c0.45,0.173,0.94,0.166,1.374-0.027
						c0.433-0.193,0.767-0.556,0.94-1.02l0.978-2.553l1.867,0.715l-0.975,2.546c-0.36,0.962-1.068,1.723-1.992,2.137
						C18.628,29.237,18.108,29.347,17.586,29.347z"/>
				</g>
			</g>
		</g>
	</g>
</g>
</svg>
