<?xml version="1.0" encoding="utf-8"?>
<!-- Generator: Adobe Illustrator 15.0.0, SVG Export Plug-In . SVG Version: 6.00 Build 0)  -->
<!DOCTYPE svg PUBLIC "-//W3C//DTD SVG 1.1//EN" "http://www.w3.org/Graphics/SVG/1.1/DTD/svg11.dtd">
<svg version="1.1" id="Layer_1" xmlns="http://www.w3.org/2000/svg" xmlns:xlink="http://www.w3.org/1999/xlink" x="0px" y="0px"
	 width="34px" height="31px" viewBox="0 0 34 31" enable-background="new 0 0 34 31" xml:space="preserve">
<title>News</title>
<desc>Created with Sketch.</desc>
<path fill="#222222" d="M28.826,31H5.174C2.321,31,0,28.693,0,25.857V15.5c0-1.722,1.356-3.071,3.087-3.071s3.087,1.349,3.087,3.071
	v8.977h-2V15.5c0-0.621-0.457-1.071-1.087-1.071S2,14.879,2,15.5v10.357C2,27.59,3.424,29,5.174,29s3.174-1.41,3.174-3.143V0H34
	v25.857C34,28.693,31.68,31,28.826,31z M9.267,29h19.56C30.576,29,32,27.59,32,25.857V2H10.348v23.857
	C10.348,27.04,9.944,28.13,9.267,29z"/>
<path fill="#222222" d="M28.436,15.81H13.913V5.524h14.521V15.81H28.436z M15.913,13.81h10.521V7.524H15.913V13.81z"/>
<rect x="14.217" y="17" fill="#222222" width="13.914" height="2"/>
<rect x="14.217" y="22" fill="#222222" width="10.436" height="2"/>
</svg>
