<svg width="48" height="48" viewBox="0 0 48 48" xmlns="http://www.w3.org/2000/svg"><title>6B0BFE19-1725-45BB-8658-72B08DB4B81F</title><g fill="none" fill-rule="evenodd"><path d="M24 48c-2.521 0-5.008-.391-7.391-1.16l.616-1.903A21.98 21.98 0 0 0 24 46c12.131 0 22-9.869 22-22S36.131 2 24 2 2 11.869 2 24c0 4.501 1.35 8.828 3.903 12.514l-1.644 1.138A23.86 23.86 0 0 1 0 24C0 10.767 10.767 0 24 0s24 10.767 24 24-10.767 24-24 24" fill="#FFF"/><path d="M34 17.5c0 5.522-4.477 10-10 10-5.522 0-10-4.478-10-10h20zM24 27.5v9M20 17.5v-6M28 17.5v-6M7.095 39.499a4.391 4.391 0 0 1 4.406 4.406M6.958 32.083c6.604 0 11.959 5.354 11.959 11.959M7.028 35.79a8.182 8.182 0 0 1 8.183 8.182" stroke="#FFF" stroke-width="2"/></g></svg>