<?xml version="1.0" encoding="utf-8"?>
<!-- Generator: Adobe Illustrator 15.0.0, SVG Export Plug-In . SVG Version: 6.00 Build 0)  -->
<!DOCTYPE svg PUBLIC "-//W3C//DTD SVG 1.1//EN" "http://www.w3.org/Graphics/SVG/1.1/DTD/svg11.dtd">
<svg version="1.1" id="Layer_1" xmlns="http://www.w3.org/2000/svg" xmlns:xlink="http://www.w3.org/1999/xlink" x="0px" y="0px"
	 width="48px" height="48px" viewBox="0 0 48 48" enable-background="new 0 0 48 48" xml:space="preserve">
<path fill="#1E306E" d="M26.695,27.498v-1.796c-0.002-1.892-0.002-3.848,0.002-5.772c0.002-1.653,0.078-2.916,0.244-4.094
	c0.084-0.592,0.207-1.284,0.478-1.935c0.405-0.98,1.114-1.456,2.17-1.456h0.069c0.912,0.019,1.623,0.436,2.234,1.315
	c0.477,0.687,0.797,1.501,0.951,2.419c0.391,2.326,0.215,4.528-0.527,6.547c-0.547,1.493-1.422,2.707-2.602,3.607
	C28.84,27.002,27.792,27.405,26.695,27.498z M29.906,9.568h-0.955l-0.059,0.01l-0.26,0.041c-0.214,0.03-0.426,0.068-0.637,0.116
	c-1.324,0.311-2.463,1.085-3.387,2.3c-0.736,0.971-1.291,2.135-1.693,3.558c-0.324,1.142-0.53,2.391-0.629,3.819
	c-0.167,2.401-0.164,4.833-0.162,7.184v0.74c-0.707-0.172-1.377-0.469-1.98-0.877c-1.1-0.759-1.877-1.849-2.376-3.333
	c-0.349-1.04-0.532-2.206-0.559-3.564c-0.029-1.431,0.03-2.686,0.179-3.838c0.104-0.801,0.243-1.39,0.45-1.911
	c0.34-0.858,0.933-1.293,1.761-1.293c0.251,0,0.517,0.04,0.792,0.119c0.349,0.101,0.66,0.293,0.951,0.586l0.401,0.404l0.485-0.297
	l1.024-0.628l0.698-0.428l-0.514-0.637c-0.874-1.082-1.97-1.749-3.257-1.983c-0.124-0.022-0.246-0.04-0.363-0.057l-0.153-0.023
	L19.61,9.568h-0.969l-0.059,0.009c-0.105,0.018-0.21,0.033-0.315,0.049c-0.251,0.037-0.511,0.075-0.777,0.139
	c-1.461,0.354-2.678,1.215-3.617,2.558c-0.8,1.142-1.313,2.467-1.569,4.051c-0.073,0.45-0.114,0.9-0.153,1.335
	c-0.018,0.194-0.036,0.394-0.057,0.588c-0.004,0.03-0.01,0.06-0.017,0.089l-0.01,0.062v1.553l0.003,0.036l0.028,0.299
	c0.021,0.219,0.042,0.445,0.069,0.672c0.32,2.666,1.414,4.835,3.251,6.449c1.219,1.071,2.677,1.818,4.457,2.283
	c0.68,0.178,1.421,0.311,2.251,0.404v8.287h4.569v-8.275l0.113-0.012c2.879-0.305,5.207-1.68,6.92-4.085
	c1.002-1.408,1.664-3.059,1.967-4.906c0.072-0.438,0.111-0.876,0.15-1.299c0.018-0.189,0.037-0.385,0.057-0.575l0.011-0.056
	c0.004-0.02,0.008-0.039,0.01-0.059l0.011-0.057v-1.453l-0.005-0.035l-0.026-0.302c-0.021-0.224-0.041-0.455-0.07-0.687
	c-0.266-2.184-1.035-3.914-2.35-5.29c-0.979-1.022-2.142-1.607-3.457-1.738l-0.019-0.005L29.906,9.568z M26.049,28.254h0.006
	c0.188-0.009,0.379-0.014,0.568-0.027c1.303-0.1,2.488-0.525,3.527-1.321c1.34-1.022,2.266-2.36,2.84-3.931
	c0.826-2.248,0.957-4.564,0.563-6.913c-0.164-0.975-0.502-1.892-1.07-2.711c-0.684-0.98-1.572-1.598-2.811-1.622l-0.084-0.001
	c-1.338,0-2.316,0.65-2.834,1.9c-0.279,0.676-0.422,1.388-0.523,2.109c-0.197,1.391-0.25,2.791-0.252,4.194
	c-0.004,2.72-0.002,5.441-0.002,8.162v0.154C26.01,28.25,26.031,28.254,26.049,28.254z M29.803,10.286
	c0.031,0.009,0.061,0.023,0.09,0.026c1.223,0.106,2.23,0.649,3.068,1.525c1.307,1.366,1.932,3.035,2.156,4.88
	c0.039,0.323,0.064,0.648,0.096,0.972v1.36c-0.008,0.051-0.02,0.101-0.023,0.153c-0.065,0.612-0.104,1.228-0.203,1.835
	c-0.274,1.669-0.858,3.22-1.844,4.605c-1.574,2.212-3.697,3.501-6.41,3.787c-0.25,0.027-0.5,0.046-0.756,0.068v8.215h-3.132v-8.219
	l-0.095-0.012c-0.908-0.078-1.809-0.206-2.693-0.438c-1.544-0.403-2.957-1.066-4.164-2.127c-1.812-1.593-2.729-3.637-3.012-5.996
	c-0.039-0.318-0.064-0.638-0.096-0.957v-1.454c0.008-0.046,0.019-0.092,0.024-0.138c0.067-0.628,0.103-1.261,0.204-1.884
	c0.218-1.35,0.656-2.622,1.448-3.755c0.796-1.137,1.833-1.939,3.198-2.27c0.342-0.083,0.694-0.12,1.042-0.178h0.854
	c0.165,0.026,0.332,0.047,0.497,0.077c1.166,0.212,2.093,0.82,2.827,1.728l-1.025,0.628c-0.346-0.362-0.781-0.627-1.261-0.77
	c-0.322-0.095-0.656-0.145-0.992-0.148c-1.014,0-1.936,0.504-2.429,1.747c-0.267,0.671-0.402,1.372-0.495,2.084
	c-0.17,1.309-0.211,2.626-0.185,3.945c0.026,1.285,0.186,2.553,0.597,3.778c0.504,1.502,1.324,2.781,2.65,3.695
	c0.933,0.643,1.977,0.99,3.106,1.162V28c0.005-2.849-0.037-5.696,0.16-8.539c0.086-1.242,0.263-2.472,0.603-3.673
	c0.338-1.193,0.82-2.323,1.576-3.319c0.766-1.008,1.723-1.741,2.977-2.036c0.279-0.066,0.568-0.099,0.853-0.148L29.803,10.286
	L29.803,10.286z"/>
</svg>
