<svg width="56" height="56" viewBox="0 0 56 56" xmlns="http://www.w3.org/2000/svg"><title>80694B97-F770-48E4-B197-395C0E0CC4A1</title><g fill="#FFF" fill-rule="evenodd"><path d="M28.5 56h2V0h-2zM25.5 56h2.001V0H25.5z"/><path d="M30 19.917h26v-2H30zM0 19.917h27v-2H0zM30 37.917h26v-2H30zM0 37.917h25.999v-2H0zM2 11h20V9H2zM34 4h20V2H34zM30 9h20V7H30zM36 14h20v-2H36zM12 7h10V5H12zM3 15h10v-2H3zM5.207 50.075c-1.273 0-2.56-.02-3.831-.05C.786 50.012.315 50 0 50v-2c.325 0 .812.012 1.422.026 3.61.084 14.603.346 17.165-2.155.37-.362.413-.67.413-.87 0-.45-.162-.818-.506-1.155-2.18-2.134-10.018-1.97-14.229-1.88C3.41 41.983 2.64 42 2 42H0v-2h2c.627 0 1.383-.016 2.223-.034 5.134-.108 12.89-.272 15.67 2.45.735.72 1.107 1.59 1.107 2.584 0 .856-.352 1.653-1.017 2.303-2.323 2.268-8.396 2.772-14.776 2.772"/><path d="M0 46h14v-2H0zM14 54h7v-2h-7zM30 43h19v-2H30zM35 46h19v-2H35zM33 49h9v-2h-9zM45 52h6v-2h-6z"/></g></svg>