<svg width="54" height="54" viewBox="0 0 54 54" xmlns="http://www.w3.org/2000/svg"><title>54953AB4-A7AB-46FE-8AA9-D1506530B579</title><g fill="#FFF" fill-rule="evenodd"><path d="M1.005 0l1.157 5.79L0 9.034l3.14 4.185-1.047 4.183 4.281 3.211 1.413 4.239 2.33-2.329L11.224 24h-2v4.721l2.734.911-.878 2.638 6.143 6.144v4.432l6.804 1.134 4.703.941 1.9 1.901 3.95 1.974L38.743 54h14.098l-2.4-4.802 2.927-2.927-1.216-3.643-2.1-5.251-9.214-7.166-1.229 1.578 8.786 6.834 1.88 4.693.804 2.414-3.072 3.073L49.606 52h-9.9l-3.838-4.796-4.05-2.027-2.1-2.098-5.329-1.065-5.164-.861v-3.567l-5.857-5.857 1.122-3.362-3.265-1.088V26h4l-4.892-6.522-1.672 1.67-.586-1.76-3.719-2.789.954-3.818-2.86-3.815L4.285 6.21 3.444 2h16.781v15.492l13.39 10.301 1.218-1.586-12.609-9.699V0z"/><path d="M32.45 39.547l-8.929-8.836 1.407-1.422L32 36.287l12.355-21.78 1.741.986z"/></g></svg>