<svg width="56" height="47" viewBox="0 0 56 47" xmlns="http://www.w3.org/2000/svg"><title>30AF3A19-AD5D-4953-A9B4-66C8A39DCA71</title><g fill="#1e306e" fill-rule="evenodd"><path d="M0 46.161h56v-1.926H0zM41.89 2.557L24.368 40.359c1.804-.076 5.36-1.038 8.697-6.687 4.126-6.98 1.98-10.148 1.959-10.18l-.324-.456.224-.521 8.848-19.086-1.882-.872zM24.109 42.285c-.843 0-1.374-.138-1.448-.158l-1.095-.302L40.953 0l5.375 2.492-9.45 20.385c.649 1.344 1.74 5.184-2.155 11.776-3.94 6.667-8.377 7.632-10.614 7.632zM20.134 35.758l-5-7 1.566-1.12 5 7zM18.383 40l-6-4 1.068-1.604 6 4zM35.451 40l-1.068-1.604 6-4L41.451 36z"/></g></svg>