<svg width="38" height="48" viewBox="0 0 38 48" xmlns="http://www.w3.org/2000/svg"><title>ACE38F76-3A88-4DD3-B37B-388D1B672487</title><g fill="#FFF" fill-rule="evenodd"><path d="M29.66 48h1.651V0h-1.65zM35.517 48h1.651V0h-1.65zM1.355 31.87L.143 30.656c3.67-3.67 3.67-9.644 0-13.314l1.212-1.212c4.339 4.339 4.339 11.4 0 15.738zM7.36 38.095L6.15 36.883c7.103-7.104 7.103-18.662 0-25.766L7.36 9.905c7.771 7.772 7.771 20.418 0 28.19M21.913 24.857h5.143v-1.714h-5.143zM23.377 37.463l-1.212-1.212 4.042-4.043 1.212 1.212zM26.208 15.792l-4.043-4.043 1.212-1.212 4.043 4.043z"/></g></svg>