<svg width="36" height="48" viewBox="0 0 36 48" xmlns="http://www.w3.org/2000/svg"><title>F180B482-4BA0-4276-BB22-FD81F9C4B831</title><g fill="#1e306e" fill-rule="evenodd"><path d="M2 46V2h32v33c0 6.065-4.935 11-11 11H2zm21 2H0V0h36v35c0 7.168-5.832 13-13 13z"/><path d="M14.107 17.917c-.839 0-1.52.683-1.52 1.521 0 .839.681 1.521 1.52 1.521.84 0 1.521-.682 1.521-1.521 0-.838-.682-1.521-1.52-1.521m0 5.042a3.525 3.525 0 0 1-3.522-3.521 3.526 3.526 0 0 1 3.521-3.521 3.526 3.526 0 0 1 3.521 3.521 3.525 3.525 0 0 1-3.52 3.521M22.302 26.11c-.84 0-1.521.683-1.521 1.521 0 .84.682 1.521 1.52 1.521.84 0 1.522-.682 1.522-1.52 0-.839-.682-1.522-1.521-1.522m0 5.042a3.525 3.525 0 0 1-3.521-3.52 3.526 3.526 0 0 1 3.52-3.522 3.526 3.526 0 0 1 3.522 3.521 3.525 3.525 0 0 1-3.521 3.521M11.885 31.242l-1.414-1.414 13.37-13.37 1.414 1.414zM1.042 13.88h33v-1.926h-33zM5.042 35.88h25v-1.926h-25zM5.042 39.88h25v-1.926h-25zM5.146 5.057h-1.61v-1.14h4.61v1.14H6.508v4.86H5.146z"/><path d="M5.396 9.667h.862v-4.86h1.638v-.64h-4.11v.64h1.61v4.86zm1.362.5H4.896v-4.86h-1.61v-1.64h5.11v1.64H6.758v4.86zM11.146 7.362l-.375-1.273c-.105-.356-.212-.8-.302-1.158h-.016c-.09.357-.18.811-.276 1.158L9.82 7.362h1.326zM9.624 8.377l-.428 1.54H7.793l1.832-6h1.781l1.86 6h-1.46l-.463-1.54H9.624z"/><path d="M10.15 7.112h.662l-.28-.953-.06-.21-.054.207-.269.956zm1.33.5H9.491l.444-1.59c.057-.204.111-.444.164-.68.037-.164.073-.326.111-.47l.046-.19h.39l.123.418c.075.303.16.638.241.917l.47 1.595zm.511 2.055h.934l-1.705-5.5H9.808l-1.68 5.5h.877l.428-1.54h2.095l.463 1.54zm1.612.5H11.62l-.463-1.54H9.814l-.428 1.54H7.453l1.986-6.5h2.15l2.014 6.5z"/><path d="M17.012 9.917l-.543-1.087c-.222-.418-.365-.729-.534-1.075h-.018c-.125.346-.276.657-.463 1.075l-.498 1.087h-1.55l1.737-3.035-1.674-2.965h1.558l.526 1.095c.177.365.312.659.453.997h.018c.142-.383.259-.65.41-.997l.508-1.095h1.548l-1.691 2.93 1.779 3.07h-1.566z"/><path d="M17.166 9.667h.979l-1.635-2.82 1.547-2.68h-.956l-.441.95c-.148.341-.263.603-.402.979l-.061.163h-.34l-.082-.154a18.433 18.433 0 0 0-.447-.984l-.459-.954h-.972l1.533 2.716-1.593 2.784h.959l.558-1.224c.126-.278.235-.516.328-.773l.059-.165h.332l.21.395c.121.251.242.502.406.813l.477.954zm1.846.5h-2.155l-.612-1.226a20.084 20.084 0 0 1-.301-.591l-.134.3-.694 1.517h-2.14l1.879-3.286-1.815-3.214h2.144l.594 1.236c.082.17.156.326.225.477.063-.15.127-.297.199-.462l.58-1.251h2.14l-1.834 3.18 1.924 3.32z"/></g></svg>