<svg width="50" height="29" viewBox="0 0 50 29" xmlns="http://www.w3.org/2000/svg" xmlns:xlink="http://www.w3.org/1999/xlink"><title>7F3A1EAA-9A7A-47AA-8CA2-8E8CD1F59916</title><defs><path id="a" d="M0 29h50V0H0z"/></defs><g fill="none" fill-rule="evenodd"><path d="M0 3v26h20.38L25 21l4.619 8H50V3H0zm2 2h46v22H30.774L25 17l-5.773 10H2V5z" fill="#FFF"/><g><path d="M14 12c-2.206 0-4 1.794-4 4s1.794 4 4 4 4-1.794 4-4-1.794-4-4-4zm0 10c-3.309 0-6-2.691-6-6s2.691-6 6-6 6 2.691 6 6-2.691 6-6 6zM36 12c-2.206 0-4 1.794-4 4s1.794 4 4 4 4-1.794 4-4-1.794-4-4-4m0 10c-3.309 0-6-2.691-6-6s2.691-6 6-6 6 2.691 6 6-2.691 6-6 6M50 4h-2V2H2v2H0V0h50z" fill="#FFF"/><mask id="b" fill="#fff"><use xlink:href="#a"/></mask><path fill="#FFF" mask="url(#b)" d="M3 28h2V4H3zM45 28h2V4h-2z"/></g></g></svg>