<svg xmlns="http://www.w3.org/2000/svg" width="48" height="48" viewBox="0 0 48 48">
    <g fill="#3E9C98" fill-rule="evenodd">
        <path d="M24 2C11.869 2 2 11.869 2 24s9.869 22 22 22 22-9.869 22-22S36.131 2 24 2m0 46C10.767 48 0 37.233 0 24S10.767 0 24 0s24 10.767 24 24-10.767 24-24 24"/>
        <path d="M12.474 16.046c-.43 2.71-1.122 13.143 11.4 21.748 12.512-8.594 12.032-19.01 11.653-21.75-6.373-.898-10.126-2.936-11.52-3.83-1.394.895-5.151 2.935-11.533 3.832zm11.4 24.153l-.551-.365c-8.361-5.538-11.366-11.985-12.414-16.418-1.148-4.85-.286-8.365-.248-8.513l.167-.664.68-.083c8-.984 11.845-3.914 11.883-3.943l.618-.48.617.482c.036.027 3.88 2.957 11.88 3.94l.695.086.158.68c.033.142 3.117 14.282-12.933 24.913l-.552.365z"/>
        <path d="M23.85 30.273l-5.557-5.558 1.414-1.415 3.715 3.715 4.712-8.159 1.733 1z"/>
    </g>
</svg>
