<?xml version="1.0" encoding="UTF-8"?>
<svg width="22px" height="22px" viewBox="0 0 22 22" version="1.1" xmlns="http://www.w3.org/2000/svg" xmlns:xlink="http://www.w3.org/1999/xlink">
    <!-- Generator: Sketch 52.1 (67048) - http://www.bohemiancoding.com/sketch -->
    <title>ic_power-blue</title>
    <desc>Created with Sketch.</desc>
    <g id="Dividing-Walls" stroke="none" stroke-width="1" fill="none" fill-rule="evenodd">
        <g id="alur_web_dividingWalls_overview" transform="translate(-904.000000, -3996.000000)">
            <g id="Features" transform="translate(94.000000, 3673.000000)">
                <g id="Group-18">
                    <g id="Group-17" transform="translate(809.000000, 64.000000)">
                        <g id="ic_power-blue" transform="translate(0.000000, 258.000000)">
                            <g id="Page-1" transform="translate(1.714286, 1.714286)">
                                <path d="M10.2857143,20.5714286 C9.20528571,20.5714286 8.13942857,20.4038571 7.11814286,20.0742857 L7.38214286,19.2587143 C8.31771429,19.5612857 9.29442857,19.7142857 10.2857143,19.7142857 C15.4847143,19.7142857 19.7142857,15.4847143 19.7142857,10.2857143 C19.7142857,5.08671429 15.4847143,0.857142857 10.2857143,0.857142857 C5.08671429,0.857142857 0.857142857,5.08671429 0.857142857,10.2857143 C0.857142857,12.2147143 1.43571429,14.0691429 2.52985714,15.6488571 L1.82528571,16.1365714 C0.631285714,14.4132857 0,12.39 0,10.2857143 C0,4.61442857 4.61442857,0 10.2857143,0 C15.957,0 20.5714286,4.61442857 20.5714286,10.2857143 C20.5714286,15.957 15.957,20.5714286 10.2857143,20.5714286" id="Fill-1" fill="#1E306E"></path>
                                <path d="M14.5714286,7.5 C14.5714286,9.86657143 12.6527143,11.7857143 10.2857143,11.7857143 C7.91914286,11.7857143 6,9.86657143 6,7.5 L14.5714286,7.5 Z" id="Stroke-3" stroke="#1E306E" stroke-width="0.857142857"></path>
                                <path d="M10.2857143,11.7857143 L10.2857143,15.6428571" id="Stroke-5" stroke="#1E306E" stroke-width="0.857142857"></path>
                                <path d="M8.57142857,7.5 L8.57142857,4.92857143" id="Stroke-7" stroke="#1E306E" stroke-width="0.857142857"></path>
                                <path d="M12,7.5 L12,4.92857143" id="Stroke-9" stroke="#1E306E" stroke-width="0.857142857"></path>
                                <path d="M3.04058571,16.9281429 C4.08372857,16.9281429 4.92887143,17.7638571 4.92887143,18.8164286" id="Stroke-11" stroke="#1E306E" stroke-width="0.857142857"></path>
                                <path d="M2.982,13.7498571 C5.81228571,13.7498571 8.10728571,16.0444286 8.10728571,18.8751429" id="Stroke-13" stroke="#1E306E" stroke-width="0.857142857"></path>
                                <path d="M3.01212857,15.3381857 C4.94927143,15.3381857 6.51912857,16.9080429 6.51912857,18.8451857" id="Stroke-15" stroke="#1E306E" stroke-width="0.857142857"></path>
                            </g>
                        </g>
                    </g>
                </g>
            </g>
        </g>
    </g>
</svg>