<?xml version="1.0" encoding="utf-8"?>
<!-- Generator: Adobe Illustrator 15.0.0, SVG Export Plug-In . SVG Version: 6.00 Build 0)  -->
<!DOCTYPE svg PUBLIC "-//W3C//DTD SVG 1.1//EN" "http://www.w3.org/Graphics/SVG/1.1/DTD/svg11.dtd">
<svg version="1.1" id="Layer_1" xmlns="http://www.w3.org/2000/svg" xmlns:xlink="http://www.w3.org/1999/xlink" x="0px" y="0px"
	 width="40px" height="37px" viewBox="0 0 40 37" enable-background="new 0 0 40 37" xml:space="preserve">
<path fill="#1E306E" d="M35.834,10.098H4.167C1.869,10.098,0,11.981,0,14.295v10.091c0,2.314,1.869,4.196,4.167,4.196h4.167v7.576
	c0,0.46,0.373,0.833,0.833,0.833h21.667c0.46,0,0.833-0.373,0.833-0.833v-7.576h4.167c2.297,0,4.165-1.882,4.165-4.196V14.295
	C39.999,11.981,38.131,10.098,35.834,10.098z M30.001,35.326H10V23.538h20.001V35.326z M38.333,24.387
	c0,1.396-1.121,2.53-2.499,2.53h-4.167v-4.212c0-0.46-0.373-0.833-0.833-0.833H9.167c-0.46,0-0.833,0.373-0.833,0.833v4.212H4.167
	c-1.378,0-2.5-1.135-2.5-2.53V14.295c0-1.396,1.121-2.53,2.5-2.53h31.667c1.378,0,2.499,1.135,2.499,2.53V24.387z"/>
<path fill="#1E306E" d="M5.833,18.493c-1.379,0-2.5-1.128-2.5-2.516c0-1.387,1.122-2.515,2.5-2.515c1.378,0,2.5,1.128,2.5,2.515
	C8.333,17.364,7.212,18.493,5.833,18.493z M5.833,15.129C5.374,15.129,5,15.509,5,15.977c0,0.468,0.374,0.849,0.833,0.849
	s0.833-0.38,0.833-0.849C6.667,15.509,6.293,15.129,5.833,15.129z"/>
<path fill="#1E306E" d="M27.5,33.628h-15c-0.46,0-0.833-0.373-0.833-0.833v-6.727c0-0.46,0.373-0.833,0.833-0.833h15
	c0.46,0,0.833,0.373,0.833,0.833v6.727C28.333,33.255,27.96,33.628,27.5,33.628z M13.333,31.962h13.333v-5.061H13.333V31.962z"/>
<path fill="#1E306E" d="M31.603,5.566c-0.03-0.073-0.08-0.133-0.129-0.194C31.455,5.35,31.446,5.321,31.426,5.3l-0.003-0.002
	c0,0,0,0,0-0.001l-4.997-5.042c0,0-0.001,0-0.002-0.001c-0.076-0.077-0.167-0.139-0.268-0.181c-0.102-0.042-0.211-0.065-0.322-0.065
	H9.167c-0.46,0-0.833,0.373-0.833,0.833v6.728c0,0.46,0.373,0.833,0.833,0.833S10,8.029,10,7.568V1.674h15.001v4.212
	c0,0.46,0.373,0.833,0.833,0.833h4.167v0.849c0,0.46,0.373,0.833,0.833,0.833s0.833-0.373,0.833-0.833V5.886
	C31.667,5.775,31.645,5.667,31.603,5.566z M26.667,1.682l3.341,3.371h-3.341V1.682z"/>
</svg>
