<?xml version="1.0" encoding="UTF-8"?>
<svg width="54px" height="54px" viewBox="0 0 54 54" version="1.1" xmlns="http://www.w3.org/2000/svg" xmlns:xlink="http://www.w3.org/1999/xlink">
    <!-- Generator: Sketch 52 (66869) - http://www.bohemiancoding.com/sketch -->
    <title>tax-green</title>
    <desc>Created with Sketch.</desc>
    <g id="Design" stroke="none" stroke-width="1" fill="none" fill-rule="evenodd">
        <g id="alur_design_duo_overview" transform="translate(-201.000000, -9664.000000)" fill="#3E9C98">
            <g id="values" transform="translate(0.000000, 9423.000000)">
                <g id="Group-5" transform="translate(157.000000, 240.000000)">
                    <g id="Group-20">
                        <g id="tax-green" transform="translate(43.000000, 0.000000)">
                            <g id="Page-1" transform="translate(1.000000, 1.000000)">
                                <polygon id="Fill-1" points="1.0053 0 2.1623 5.79 0.0003 9.034 3.1393 13.219 2.0933 17.402 6.3743 20.613 7.7873 24.852 10.1163 22.523 11.2253 24 9.2253 24 9.2253 28.721 11.9593 29.632 11.0813 32.27 17.2243 38.414 17.2243 42.846 24.0283 43.98 28.7313 44.921 30.6313 46.822 34.5803 48.796 38.7443 54 52.8423 54 50.4413 49.198 53.3693 46.271 52.1533 42.628 50.0523 37.377 40.8393 30.211 39.6103 31.789 48.3963 38.623 50.2763 43.316 51.0803 45.73 48.0083 48.803 49.6063 52 39.7053 52 35.8683 47.204 31.8173 45.177 29.7183 43.079 24.3893 42.014 19.2253 41.153 19.2253 37.586 13.3683 31.729 14.4903 28.367 11.2253 27.279 11.2253 26 15.2243 26 10.3333 19.478 8.6613 21.148 8.0753 19.388 4.3563 16.599 5.3103 12.781 2.4493 8.966 4.2863 6.21 3.4443 2 20.2253 2 20.2253 17.492 33.6153 27.793 34.8333 26.207 22.2243 16.508 22.2243 0"></polygon>
                                <polygon id="Fill-2" points="32.4502 39.5469 23.5212 30.7109 24.9282 29.2889 31.9992 36.2869 44.3542 14.5069 46.0952 15.4929"></polygon>
                            </g>
                        </g>
                    </g>
                </g>
            </g>
        </g>
    </g>
</svg>