<?xml version="1.0" encoding="UTF-8"?>
<svg width="105px" height="30px" viewBox="0 0 105 30" version="1.1" xmlns="http://www.w3.org/2000/svg" xmlns:xlink="http://www.w3.org/1999/xlink">
    <!-- Generator: Sketch 52.2 (67145) - http://www.bohemiancoding.com/sketch -->
    <title>accenture</title>
    <desc>Created with Sketch.</desc>
    <g id="Product-Glass-Walls" stroke="none" stroke-width="1" fill="none" fill-rule="evenodd">
        <g id="alur_web_getStarted" transform="translate(-1068.000000, -1306.000000)" fill="#A5A8B5">
            <g id="HERO" transform="translate(266.000000, 619.000000)">
                <g id="Group-15">
                    <g id="Group-14" transform="translate(0.000000, 628.000000)">
                        <g id="Group-7" transform="translate(0.000000, 54.000000)">
                            <g id="accenture" transform="translate(802.000000, 5.000000)">
                                <path d="M80.2665037,15.9799511 L83.4249389,15.9799511 L83.4249389,29.5738386 L80.2767726,29.5738386 L80.2767726,27.1283619 L80.203423,27.1100244 C80.1154034,27.2750611 80.0303178,27.4408313 79.9400978,27.604401 C78.9535452,29.3838631 77.1271394,30.2567237 75.2611247,29.8107579 C73.7523227,29.4506112 72.996088,28.3687042 72.6528117,26.9457213 C72.5466466,26.5063212 72.4912719,26.0561866 72.4877751,25.6041565 C72.4738386,22.4882641 72.4797066,19.3694377 72.4797066,16.2557457 L72.4797066,15.99022 L75.6506112,15.99022 C75.6506112,16.1449878 75.6506112,16.2872861 75.6506112,16.4303178 C75.6506112,18.997555 75.6440098,21.5647922 75.6506112,24.1320293 C75.6497809,24.6568915 75.6858109,25.181164 75.7584352,25.700978 C75.9110024,26.7513447 76.2388753,27.094621 77.5731051,26.8643032 C78.2596577,26.7454768 78.7525672,26.2885086 79.1332518,25.7281174 C79.9122249,24.5809291 80.2400978,23.2885086 80.2547677,21.9198044 C80.2745721,20.0860636 80.2599022,18.2523227 80.2599022,16.4185819 L80.2665037,15.9799511 Z" id="Path"></path>
                                <path d="M52.6283619,29.5760391 L49.4853301,29.5760391 L49.4853301,15.9997555 L52.6239609,15.9997555 L52.6239609,18.4041565 L52.708313,18.4342298 L52.9056235,18.0484108 C53.8775061,16.1589242 55.8337408,15.2471883 57.7753056,15.7885086 C59.1616137,16.1757946 59.8855746,17.1821516 60.2163814,18.5061125 C60.3488594,19.0512772 60.4168072,19.6101225 60.4188264,20.1711491 C60.4378973,23.1894866 60.4283619,26.207824 60.4276284,29.2261614 C60.4276284,29.3332518 60.4144254,29.4403423 60.4056235,29.5701711 L57.2383863,29.5701711 L57.2383863,29.1359413 C57.2383863,26.5327628 57.2493888,23.9281174 57.2317848,21.3278729 C57.2294513,20.7185819 57.1739844,20.1106552 57.0660147,19.5110024 C56.9486553,18.8691932 56.6119804,18.6374083 55.9533007,18.6227384 C55.0290954,18.601467 54.3330073,19.0349633 53.8166259,19.7633252 C52.9665037,20.9618582 52.6540342,22.3305623 52.6371638,23.7755501 C52.6158924,25.5594132 52.6320293,27.3432763 52.6312958,29.1300733 L52.6283619,29.5760391 Z" id="Path"></path>
                                <path d="M10.7361858,29.5760391 L7.72298289,29.5760391 L7.72298289,28.0804401 C7.6599022,28.1031785 7.61369193,28.105379 7.60195599,28.1266504 C6.9799511,29.2415648 5.97726161,29.7403423 4.75672372,29.8745721 C3.63520782,29.995599 2.55623472,29.8488998 1.59168704,29.2195599 C-0.33007335,27.9645477 -0.449633252,24.9139364 1.35770171,23.3589242 C2.31124694,22.5403423 3.46283619,22.1809291 4.66870416,21.9982885 C5.57237164,21.8618582 6.49070905,21.8207824 7.40244499,21.7364303 C7.49706601,21.7268949 7.59168704,21.709291 7.76919315,21.6843521 C7.70317848,20.8459658 7.69584352,20.0112469 7.55794621,19.2007335 C7.41564792,18.3748166 6.84938875,17.9603912 6.01173594,17.8885086 C4.65623472,17.7733496 3.87212714,18.401956 3.70195599,19.7471883 C3.69462103,19.807335 3.68728606,19.8667482 3.67334963,19.9782396 L0.603667482,19.9782396 C0.613202934,18.6154034 1.01809291,17.4792176 2.11540342,16.6606357 C2.8606357,16.1061125 3.71809291,15.8435208 4.62909535,15.7334963 C5.71760391,15.602934 6.8002445,15.6198044 7.86748166,15.898533 C9.64474328,16.3628362 10.6841076,17.6281174 10.7178484,19.4721271 C10.7559902,21.5493888 10.7332518,23.6281174 10.7361858,25.706846 C10.7361858,26.8564792 10.7361858,28.0056235 10.7361858,29.1542787 L10.7361858,29.5760391 Z M7.71198044,23.5863081 C6.35647922,23.6251834 5.07139364,23.7550122 3.95794621,24.5479218 C3.7709967,24.6852207 3.60961999,24.8542938 3.48117359,25.0474328 C2.82102689,26.0178484 3.2391198,27.3674817 4.28288509,27.6051345 C5.16308068,27.8046455 5.96992665,27.6205379 6.59559902,26.9449878 C7.4596577,26.0119804 7.65110024,24.8464548 7.71198044,23.5863081 Z" id="Shape" fill-rule="nonzero"></path>
                                <path d="M47.8885086,21.9557457 L39.7555012,21.9557457 C39.8288509,23.9559902 40.5176039,25.6107579 42.1290954,26.7894866 C43.8007335,28.0114914 45.6190709,27.796577 47.4836186,27.1753056 C47.4836186,27.8757946 47.4887531,28.5344743 47.4755501,29.1924205 C47.4576897,29.288969 47.392718,29.3701836 47.302445,29.408802 C45.1430318,29.995599 42.9748166,30.199511 40.8212714,29.408802 C39.2259169,28.8220049 38.1462103,27.6704156 37.5322738,26.1117359 C36.6995929,24.0294383 36.5586696,21.7345486 37.1303178,19.5660147 C37.7398533,17.1865526 39.4877751,15.793643 41.9471883,15.6924205 C42.7320293,15.6601467 43.5491443,15.6872861 44.308313,15.8677262 C46.2704156,16.3349633 47.3281174,17.707335 47.6823961,19.6342298 C47.8129584,20.3743276 47.8180929,21.1371638 47.8885086,21.9557457 Z M44.807824,20.003912 C44.807824,18.5633252 43.8242054,17.6420538 42.3726161,17.6713936 C41.0251834,17.698533 39.8501222,18.79511 39.8860636,20.003912 L44.807824,20.003912 Z" id="Shape" fill-rule="nonzero"></path>
                                <path d="M104.816626,21.9616137 L96.6748166,21.9616137 C96.7577017,23.9574572 97.4449878,25.6151589 99.0601467,26.7909535 C100.721516,28.000489 102.525917,27.805379 104.405868,27.1716381 C104.405868,27.8875306 104.411002,28.5652812 104.3978,29.2378973 C104.3978,29.299511 104.290709,29.395599 104.216626,29.4154034 C102.143765,29.9794621 100.056968,30.1738386 97.9753056,29.493154 C96.2523227,28.9298289 95.0882641,27.7327628 94.4391198,26.0669927 C93.6250449,24.0044836 93.4878742,21.7365434 94.0474328,19.5909535 C94.6525672,17.199022 96.4107579,15.7899756 98.8833741,15.693154 C99.6682152,15.6623472 100.484597,15.693154 101.243032,15.8728606 C103.174328,16.3334963 104.231296,17.6809291 104.594377,19.5762836 C104.738875,20.3369193 104.743276,21.1246944 104.816626,21.9616137 Z M101.711736,20.003912 C101.847433,18.7305623 100.860147,17.7234719 99.4488998,17.6721271 C98.0376528,17.6207824 96.792176,18.7283619 96.8200489,20.003912 L101.711736,20.003912 Z" id="Shape" fill-rule="nonzero"></path>
                                <path d="M23.5452323,20.6178484 L20.200489,20.6178484 C20.1506112,20.2555012 20.1168704,19.8938875 20.0471883,19.5388753 C19.900489,18.7841076 19.5337408,18.1753056 18.7444988,17.9699267 C17.8643032,17.7425428 17.0669927,17.9141809 16.4288509,18.597066 C15.9264059,19.1339853 15.6953545,19.807335 15.5845966,20.5144254 C15.3645477,21.9220049 15.5112469,23.2943765 16.098044,24.6 C17.0105134,26.6427873 18.9630807,27.7848411 21.3520782,27.6608802 C22.0290954,27.6264059 22.700978,27.4973105 23.4,27.4085575 C23.4,27.9528117 23.4051345,28.5366748 23.392665,29.1205379 C23.3750174,29.2081827 23.3155532,29.2816224 23.2334963,29.3171149 C20.6743276,30.0425428 18.1173594,30.2933985 15.6234719,29.0882641 C14.0897311,28.3481663 13.1295844,27.0792176 12.6117359,25.4750611 C12.0491992,23.7710669 11.9532099,21.9475238 12.3337408,20.1938875 C12.9161369,17.499022 14.8958435,15.8112469 17.6523227,15.6909535 C18.4441302,15.649852 19.2380512,15.6973347 20.0193154,15.8325183 C22.0569682,16.2051345 23.3112469,17.6537897 23.4887531,19.7237164 C23.5114914,20.0134474 23.5261614,20.302445 23.5452323,20.6178484 Z" id="Path"></path>
                                <path d="M35.7645477,20.6222494 L32.3948655,20.6222494 C32.3574572,20.292176 32.3391198,19.9767726 32.2833741,19.6687042 C32.1418093,18.8801956 31.8117359,18.2061125 30.9726161,17.9772616 C30.0682152,17.7315403 29.2481663,17.9178484 28.603423,18.6374083 C28.0899756,19.2146699 27.8625917,19.9276284 27.7672372,20.6743276 C27.5875306,22.0841076 27.7349633,23.4616137 28.3782396,24.7430318 C29.4484108,26.8767726 31.2704156,27.7261614 33.5735941,27.6601467 C34.2337408,27.6418093 34.8982885,27.5017115 35.5958435,27.4129584 C35.5958435,27.9447433 35.602445,28.5271394 35.5877751,29.1080685 C35.5688599,29.2059077 35.5030368,29.2881866 35.4117359,29.3281174 C33.1525672,29.9882641 30.8801956,30.208313 28.60489,29.4293399 C26.998533,28.8814181 25.8110024,27.8207824 25.1332518,26.2657702 C24.1797066,24.0711491 24.0330073,21.7914425 24.7393643,19.504401 C25.4185819,17.3178484 27.001467,16.1200489 29.2305623,15.7635697 C30.3242054,15.5889976 31.4222494,15.605868 32.5026895,15.8904645 C34.3041565,16.3643032 35.4139364,17.6200489 35.6567237,19.4647922 C35.7080685,19.8337408 35.7278729,20.2100244 35.7645477,20.6222494 Z" id="Path"></path>
                                <path d="M61.2161369,15.9630807 L63.8655257,15.9630807 L63.8655257,13.5894866 C63.8569309,13.3694534 63.8593789,13.1491277 63.8728606,12.9293399 C63.8823961,12.8398533 63.9498778,12.709291 64.0239609,12.6806846 C65.0002445,12.2706601 65.9831296,11.8738386 67.0180929,11.4535452 L67.0180929,15.9498778 L71.0559902,15.9498778 L71.0559902,18.1613692 L67.0643032,18.1613692 C67.0555012,18.3080685 67.0430318,18.4217604 67.0430318,18.5383863 C67.0430318,20.6163814 67.0430318,22.693643 67.0430318,24.7731051 C67.0406562,25.1513838 67.0651679,25.5293531 67.1163814,25.9041565 C67.301956,27.1694377 68.0413203,27.7599022 69.3242054,27.6645477 C69.7481663,27.6337408 70.1677262,27.5501222 70.6444988,27.4833741 L70.6444988,29.6919315 C70.1222494,29.7513447 69.608802,29.8533007 69.0953545,29.8577017 C68.2151589,29.8628362 67.3298289,29.8885086 66.4694377,29.7550122 C64.8557457,29.50489 64.0056235,28.5080685 63.9080685,26.8848411 C63.8603912,26.092665 63.8699267,25.2968215 63.8677262,24.502445 C63.8625917,22.5469438 63.8677262,20.5914425 63.8677262,18.6344743 L63.8677262,18.1709046 L61.2161369,18.1709046 L61.2161369,15.9630807 Z" id="Path"></path>
                                <path d="M85.4838631,15.9814181 L88.6100244,15.9814181 L88.6100244,18.396088 L88.6914425,18.4400978 C89.1770171,17.6574572 89.6677262,16.8777506 90.4452323,16.3533007 C91.2337408,15.8215159 92.1146699,15.6454768 93.0733496,15.6674817 L93.0733496,18.9410758 C92.6222494,18.9850856 92.1711491,19.000489 91.7310513,19.0760391 C89.8591687,19.399511 88.805868,20.5232274 88.708313,22.4772616 C88.6136919,24.3909535 88.6474328,26.3112469 88.6268949,28.2278729 C88.6224939,28.6679707 88.6268949,29.1080685 88.6268949,29.5687042 L85.4845966,29.5687042 L85.4838631,15.9814181 Z" id="Path"></path>
                                <path d="M68.4300733,5.0200489 L64.3408313,3.43643032 C63.3872861,3.06968215 62.4337408,2.69046455 61.4706601,2.33618582 C61.2506112,2.25403423 61.1772616,2.14400978 61.1853301,1.91369193 C61.201467,1.29095355 61.1904645,0.666748166 61.1904645,0.000733496333 C61.3144254,0.041809291 61.4105134,0.0689486553 61.5080685,0.107090465 C64.594132,1.3594132 67.6806846,2.61051345 70.7677262,3.8603912 C71.0156479,3.9601467 71.0977995,4.08484108 71.0875306,4.34303178 C71.0677262,4.83080685 71.094132,5.3207824 71.0721271,5.81002445 C71.0669927,5.92151589 70.9694377,6.08875306 70.8726161,6.12836186 C67.6877751,7.43105134 64.5,8.72689487 61.309291,10.0158924 C61.2705677,10.0207556 61.2313883,10.0207556 61.192665,10.0158924 C61.192665,9.32420538 61.1816626,8.63471883 61.207335,7.94596577 C61.207335,7.8608802 61.398044,7.75378973 61.5198044,7.70611247 C63.6361858,6.88361858 65.7533007,6.06601467 67.8711491,5.25330073 C68.0376528,5.18948655 68.200489,5.11613692 68.4300733,5.0200489 Z" id="Path"></path>
                            </g>
                        </g>
                    </g>
                </g>
            </g>
        </g>
    </g>
</svg>