<?xml version="1.0" encoding="UTF-8"?>
<svg width="46px" height="45px" viewBox="0 0 46 45" version="1.1" xmlns="http://www.w3.org/2000/svg" xmlns:xlink="http://www.w3.org/1999/xlink">
    <!-- Generator: Sketch 52.2 (67145) - http://www.bohemiancoding.com/sketch -->
    <title>dell</title>
    <desc>Created with Sketch.</desc>
    <g id="Product-Glass-Walls" stroke="none" stroke-width="1" fill="none" fill-rule="evenodd">
        <g id="alur_web_getStarted" transform="translate(-773.000000, -1301.000000)" fill="#A5A8B5">
            <g id="HERO" transform="translate(266.000000, 619.000000)">
                <g id="Group-15">
                    <g id="Group-14" transform="translate(0.000000, 628.000000)">
                        <g id="Group-7" transform="translate(0.000000, 54.000000)">
                            <g id="dell" transform="translate(507.957000, 0.000000)">
                                <path d="M22.4883643,2.36138531 C11.4103768,2.37919977 2.37785669,11.3392966 2.37182371,22.4853995 C2.36579073,33.6381111 11.3948634,42.6200449 22.4903753,42.6278028 C33.5580207,42.6355607 42.6189819,33.7067829 42.6235785,22.5055126 C42.628175,11.2930364 33.5562969,2.36138531 22.4883643,2.36138531 M22.4984193,0.00010788346 C34.8864254,-0.0381069983 44.9948269,10.0810788 44.999998,22.4888475 C45.0051691,34.8931682 34.9071099,44.9962635 22.5136454,44.9999988 C10.0931762,45.0040214 -0.00315939071,34.8865596 7.41633871e-07,22.4931574 C0.00287358922,10.1055018 10.0908779,-0.0283377804 22.4984193,0.00010788346" id="Fill-1"></path>
                                <path d="M8.70043266,21.9302319 C8.70043266,22.5348415 8.70475729,23.1394512 8.69726127,23.7437868 C8.69553141,23.8996649 8.74973346,23.9596601 8.91349283,23.9525374 C9.1202102,23.943771 9.32836911,23.9593862 9.53479817,23.9476063 C9.97389239,23.9224028 10.3985712,23.8413133 10.775679,23.6079072 C11.3298084,23.2640988 11.5708345,22.7487972 11.6158107,22.1488447 C11.6890411,21.176867 11.2531183,20.2457079 10.0344372,20.0144934 C9.66943836,19.9454577 9.28483449,19.9731268 8.90974481,19.9492931 C8.74021927,19.938335 8.69553141,20.0065488 8.69754958,20.1588655 C8.70475729,20.7492297 8.70043266,21.3395938 8.70043266,21.9302319 M25.0345647,23.3545026 C24.8258291,23.5079151 24.6159404,23.6602318 24.4083581,23.815288 C22.8367871,24.9910852 21.2643512,26.1652387 19.6971049,27.346241 C19.5448778,27.4607525 19.4482944,27.4766416 19.2836701,27.3522679 C17.7172887,26.1701698 16.1425463,24.9984819 14.5701104,23.8240544 C14.5185032,23.7854273 14.4637245,23.7509095 14.3855928,23.6974891 C14.3403284,23.7725517 14.2993885,23.8344646 14.2647915,23.8996649 C13.4892409,25.3625626 12.2374044,26.2109885 10.5499333,26.4901445 C10.3253408,26.5274018 10.0932522,26.5367161 9.86491169,26.537538 C8.4940036,26.5416472 7.1228072,26.5356203 5.75189912,26.5435649 C5.54806483,26.5449346 5.48780831,26.4920621 5.48809662,26.2953654 C5.49443941,23.4016222 5.49472772,20.507605 5.48780831,17.6135878 C5.48723169,17.4031935 5.55930888,17.3568958 5.76689117,17.3582656 C7.14529529,17.3662101 8.52427602,17.3363495 9.90181521,17.3692236 C11.8911456,17.4163431 13.3419152,18.3110667 14.2564305,19.9898378 C14.2835315,20.0399708 14.3071728,20.0914736 14.336292,20.1405108 C14.3463828,20.1577697 14.3671411,20.1692756 14.4049095,20.2024237 C14.7220491,19.9673738 15.0417835,19.73205 15.3600764,19.4942606 C16.6764941,18.5115988 17.9937768,17.5297588 19.3061582,16.5421659 C19.4407984,16.4405301 19.5281559,16.4342292 19.6662558,16.5410701 C20.2048166,16.9577494 20.7551979,17.3607311 21.3225896,17.785081 C19.7642808,18.9499202 18.2250004,20.10024 16.6488165,21.2782288 C16.9650912,21.5124568 17.244174,21.7277822 17.5368074,21.9250269 C17.5763057,21.9516001 17.6997019,21.9042066 17.7590935,21.8603745 C18.6594817,21.1943998 19.5558336,20.5237681 20.4527621,19.8539581 C21.0063149,19.4408402 21.5618858,19.0301878 22.1108257,18.6118648 C22.2284556,18.5222829 22.3077405,18.5121467 22.4322899,18.6083035 C22.9276043,18.9888212 23.4335862,19.3567373 23.9346668,19.7306802 C23.9851208,19.7684855 24.0295204,19.8134134 24.0990028,19.8747784 C22.5438654,21.0387957 21.0054499,22.1907592 19.4396451,23.3629951 C19.7507303,23.5928399 20.0249119,23.8062476 20.3146622,23.9985611 C20.360215,24.0289697 20.4939902,23.9848636 20.5568415,23.9382919 C21.4459857,23.2819056 22.3302286,22.6194924 23.2153365,21.957901 C23.7858995,21.5316334 24.3530028,21.1007086 24.9287554,20.6807419 C25.061954,20.5837633 25.1066419,20.4791141 25.1054886,20.3240579 C25.0988575,19.4159107 25.1072185,18.5074895 25.0982809,17.5990684 C25.096551,17.4157952 25.1484466,17.356074 25.3470913,17.3582656 C26.2809234,17.3673059 27.2144671,17.3681278 28.1482991,17.3579916 C28.3639541,17.355526 28.4259404,17.4193566 28.4253638,17.6212584 C28.4187327,19.5717887 28.4213275,21.5223191 28.4216158,23.4725754 C28.4216158,23.5429808 28.4265171,23.6139341 28.4213275,23.6837916 C28.4086419,23.8569285 28.4885034,23.9144582 28.6704263,23.9130885 C29.6339541,23.9062397 30.5974819,23.9144582 31.5607214,23.9062397 C31.7567714,23.9048699 31.8328849,23.9459626 31.8291369,24.1508778 C31.8158747,24.8757519 31.8193344,25.6011738 31.827407,26.3263218 C31.8294252,26.4917882 31.7792595,26.5460304 31.601373,26.5454825 C29.5117112,26.5405514 27.4220494,26.5402775 25.3320993,26.5460304 C25.139509,26.5465783 25.0977043,26.4797343 25.0988575,26.3120764 C25.1057769,25.4179007 25.1023172,24.523451 25.1023172,23.6295493 L25.1023172,23.3832674 C25.0798291,23.3736792 25.0570527,23.3640909 25.0345647,23.3545026" id="Fill-3"></path>
                                <path d="M32.931095,22.4770684 C32.931095,20.9330292 32.9347769,19.38899 32.9268467,17.8449509 C32.9257138,17.6302638 32.9795263,17.5584069 33.1942101,17.5610574 C34.1042086,17.5728372 35.0139239,17.5731317 35.9236392,17.5610574 C36.1411552,17.5581124 36.1898697,17.6343867 36.1890201,17.8464234 C36.1822227,19.9809257 36.1847717,22.1154281 36.1850549,24.2499304 C36.1850549,24.6045028 36.1856214,24.6047973 36.5167102,24.6047973 C37.4264255,24.6050918 38.336424,24.6098037 39.2464226,24.6009689 C39.4392981,24.5989074 39.5154853,24.6463211 39.5120866,24.8636587 C39.5007577,25.6358255 39.5021738,26.4079924 39.5115202,27.1798647 C39.513786,27.3777656 39.4577076,27.4393151 39.2639824,27.4387261 C37.2329835,27.4319527 35.2025511,27.4319527 33.1715522,27.4390206 C32.9741451,27.4396096 32.9268467,27.3712867 32.9274131,27.1772142 C32.9339273,25.6107934 32.931095,24.0437836 32.931095,22.4770684" id="Fill-5"></path>
                            </g>
                        </g>
                    </g>
                </g>
            </g>
        </g>
    </g>
</svg>