<?xml version="1.0" encoding="UTF-8"?>
<svg width="120px" height="27px" viewBox="0 0 120 27" version="1.1" xmlns="http://www.w3.org/2000/svg" xmlns:xlink="http://www.w3.org/1999/xlink">
    <!-- Generator: Sketch 52.2 (67145) - http://www.bohemiancoding.com/sketch -->
    <title>freddieMac</title>
    <desc>Created with Sketch.</desc>
    <g id="Product-Glass-Walls" stroke="none" stroke-width="1" fill="none" fill-rule="evenodd">
        <g id="alur_web_getStarted" transform="translate(-877.000000, -1309.000000)" fill="#A5A8B5">
            <g id="HERO" transform="translate(266.000000, 619.000000)">
                <g id="Group-15">
                    <g id="Group-14" transform="translate(0.000000, 628.000000)">
                        <g id="Group-7" transform="translate(0.000000, 54.000000)">
                            <g id="freddieMac" transform="translate(611.000000, 8.000000)">
                                <path d="M88.0196619,22.1853591 C88.4360399,21.1187255 88.8039667,20.2032226 89.1522101,19.2790005 C90.1000379,16.7751726 91.0539221,14.274251 91.972982,11.761704 C92.1698153,11.2225745 92.4499241,10.9769872 93.0631354,11.0016912 C94.0200478,11.0409271 94.9815025,11.0104103 95.939929,11.0133166 C96.9998004,11.0133166 96.9998004,11.0234889 96.9998004,12.0145572 C96.9998004,16.1803379 96.9998004,20.3461185 96.9998004,24.5118992 C96.9998004,25.117875 96.9876876,25.7238507 96.9998004,26.3283733 C97.0073709,26.7846716 96.7999389,26.9997422 96.3199686,26.9881167 C95.8914778,26.9764913 95.4629869,26.9881167 95.032982,26.9881167 C93.9731106,26.9881167 93.9731106,26.9881167 93.9731106,25.9897826 C93.9731106,22.5021522 93.9731106,19.0145219 93.9731106,15.5268916 L93.9731106,14.7567065 L93.8217005,14.7276429 C93.7429672,14.8860395 93.6490928,15.0386233 93.5839865,15.2028326 C92.1274204,18.893908 90.6496569,22.5762644 89.2415421,26.284778 C88.9493205,27.0564162 88.4163566,26.9735849 87.813744,26.9968358 C87.2111315,27.0200867 86.7992957,26.9285364 86.550983,26.2702462 C85.153467,22.5588262 83.698415,18.8677508 82.2615323,15.1694095 C82.2021737,14.9986328 82.0869342,14.8508229 81.9329722,14.7479875 C81.9208593,14.9746834 81.8966337,15.2013794 81.8951196,15.4266222 C81.8951196,18.939441 81.8951196,22.4512909 81.8951196,25.9621721 C81.8951196,26.9866636 81.8951196,26.9939295 80.860988,26.9895699 C78.7185338,26.9764913 79.0137837,27.2031873 79.0137837,25.2123316 C79.0001567,20.8048388 79.0137837,16.397346 79.0137837,11.9884 C79.0137837,11.0293016 79.0228683,11.0220357 80.0327743,11.0205825 C80.9912008,11.0205825 81.9511414,11.0525525 82.9095679,11.0104103 C83.5242933,10.9827999 83.7998598,11.2240276 84.0012354,11.7631572 C85.2125169,14.9993875 86.4540805,18.2239924 87.6895877,21.4515036 C87.7562082,21.6433233 87.8561389,21.8322366 88.0196619,22.1853591 Z" id="Path"></path>
                                <path d="M55.175632,16.6387758 C55.175632,14.653109 55.175632,12.8588683 55.175632,11.066147 C55.175632,10.0026682 55.175632,10.0026682 56.2061614,10.0026682 C58.2091413,10.0239377 57.9932067,9.73983698 57.9932067,11.8166591 C58.0021419,16.3987334 58.0021419,20.9803013 57.9932067,25.5613628 C57.9932067,26.6689 57.9827822,26.674977 56.9328932,26.6825733 L56.7839727,26.6825733 C55.4332644,26.6825733 55.4332644,26.6825733 55.2203082,25.3152434 C55.1152702,25.3692145 55.0155354,25.4333154 54.9224673,25.5066696 C52.6350494,27.7490906 49.060959,27.4270085 47.1622234,24.8032544 C45.2917827,22.2205202 45.7325872,18.1641082 48.0989329,16.1860377 C49.9880725,14.5907185 52.7220841,14.5907185 54.6112236,16.1860377 C54.7512088,16.3060589 54.8852372,16.407849 55.175632,16.6387758 Z M55.1845673,21.0446165 C55.1951028,20.8421917 55.1951028,20.6393391 55.1845673,20.4369143 C55.0133088,18.79308 53.7355714,17.4895588 52.2448779,17.4287886 C50.496552,17.3573836 49.2441311,18.3403419 49.0222396,20.1786409 C48.9302523,21.0254627 49.02541,21.8825512 49.3007209,22.6869316 C49.6983384,23.8385272 50.6112207,24.5009225 51.8532171,24.557135 C53.7549311,24.640694 55.1920133,23.1259964 55.1845673,21.0385395 L55.1845673,21.0446165 Z" id="Shape" fill-rule="nonzero"></path>
                                <path d="M41.1819459,25.239993 C40.1377983,26.422812 38.9310619,26.9876499 37.4931215,26.9997969 C34.7887792,27.0225726 32.6065107,25.1276328 32.1232195,22.2594105 C31.7786508,20.1959304 32.1232195,18.2554391 33.5835345,16.6763225 C35.5554819,14.5505887 38.5700852,14.4260815 40.755337,16.3377235 C40.8269357,16.3999771 40.9045009,16.4455286 41.14018,16.6049586 L41.14018,15.5420917 C41.14018,13.9477914 41.156588,12.353491 41.14018,10.7591906 C41.1327218,10.2049815 41.3340931,10 41.8859997,10 C44.3591379,10.0379595 43.9742949,9.70998917 43.9832447,12.0437412 C44.0041277,16.5472601 43.9832447,21.050779 43.9832447,25.5573347 C43.9832447,26.6596795 43.9683283,26.6718266 42.9197058,26.6779001 C42.8689901,26.6779001 42.819766,26.6779001 42.7705419,26.6779001 C41.4310497,26.6839736 41.4310497,26.6839736 41.1819459,25.239993 Z M38.0077371,24.5521663 C39.7977045,24.5521663 41.2386282,22.9882336 41.2460864,21.0143379 C41.2550362,19.0040011 39.8185874,17.4203294 37.9898375,17.4248845 C36.1610875,17.4294397 34.8917023,18.8825306 34.8961773,20.9444923 C34.9021438,23.053524 36.187937,24.5476111 38.0077371,24.5521663 Z" id="Shape" fill-rule="nonzero"></path>
                                <path d="M0.0111145118,18.9359492 C0.0111145118,16.6125997 0.0311900623,14.2892502 0.000304600057,11.9731611 C-0.0089610386,11.2790605 0.190250193,10.9900939 0.997905029,11.0002585 C4.00614905,11.0409171 7.02057016,11.0336567 10.0241814,11.0002585 C10.7561668,11.0002585 11.0217818,11.2020995 10.9986177,11.9063648 C10.938391,13.7679486 11.1978289,13.5036676 9.25358907,13.5210927 C7.47921927,13.5341616 5.70176092,13.5428742 3.93047966,13.5210927 C3.2849735,13.5109281 3.06568672,13.743263 3.08576227,14.3313609 C3.11973628,15.2490839 3.11973628,16.1697112 3.08576227,17.0903384 C3.06568672,17.6522986 3.27879641,17.8614 3.88724002,17.8526875 C5.78978449,17.8280019 7.69232896,17.8643042 9.60105052,17.8338103 C10.2897963,17.8236456 10.5646769,18.0211303 10.5415128,18.7050663 C10.4828305,20.4664557 10.7700653,20.3023691 8.85207807,20.3023691 C7.23213557,20.3023691 5.60910454,20.3241505 3.99379486,20.2922045 C3.33439024,20.2805877 3.07495236,20.4751682 3.08885082,21.1198977 C3.1243691,22.8130387 3.07958518,24.5061796 3.11201492,26.2022248 C3.12282483,26.8048436 2.89118386,27.0124929 2.26266471,26.9994241 C-0.362599581,26.9398883 0.0497213396,27.3421181 0.0219244236,24.9664933 C0.000304600057,22.9509876 0.0111145118,20.9441944 0.0111145118,18.9359492 Z" id="Path"></path>
                                <path d="M72.679131,23.2052701 C73.0122994,23.4767889 73.2962167,23.7058355 73.5757884,23.9409495 C74.5666021,24.7721914 74.5666021,24.8116299 73.5757884,25.7020295 C71.6216837,27.4494577 68.0046344,27.4297385 65.9578219,25.6595573 C63.8617585,23.8469039 63.3793887,20.4218233 64.8482265,17.7824786 C66.16062,15.4267877 69.2098346,14.3710498 71.7636424,15.3843154 C73.3729903,16.0229155 74.2638535,17.318318 74.7042151,18.9823186 C74.8765935,19.6330536 74.901219,20.3262608 74.9852354,21.0012656 C75.0649061,21.6398657 74.825894,21.9113845 74.17694,21.8992496 C72.0519054,21.8689123 69.9283194,21.8780135 67.8032848,21.8992496 C67.4932934,21.8992496 67.1861991,22.063071 66.8762077,22.1510491 C66.9732611,22.4817256 67.0210635,22.84729 67.1775077,23.1370112 C68.0915478,24.7600565 70.591759,25.1089354 72.0258314,23.8302184 C72.2242838,23.6542621 72.4183906,23.4601034 72.679131,23.2052701 Z M69.4792664,19.8454147 C70.1311175,19.8454147 70.7829686,19.852999 71.4333711,19.8454147 C72.1692386,19.8363135 72.2706377,19.6815933 72.0605968,18.9352958 C71.741914,17.7961304 70.7105407,17.1150581 69.4763693,17.2106206 C68.1726671,17.3198349 66.9819524,18.2815271 66.8906933,19.3493999 C66.8776562,19.5010864 67.1528823,19.8044593 67.3107751,19.8226617 C68.0307084,19.8742351 68.756436,19.8454147 69.4792664,19.8454147 Z" id="Shape" fill-rule="nonzero"></path>
                                <path d="M28.7204532,23.2013767 C29.1561972,23.5531809 29.5527242,23.9110507 29.9841108,24.2219121 C30.4968362,24.5888803 30.4009725,24.9285533 30.0175178,25.3137183 C28.6478292,26.6936399 26.9803822,27.1743379 25.1429951,26.9453619 C22.9294157,26.6693776 21.1370554,25.6276126 20.4021006,23.3060081 C19.6671457,20.9844036 19.8777553,18.7280043 21.5510122,16.8673846 C23.2024819,15.0295109 25.2809807,14.6306984 27.5483019,15.3115609 C29.5657965,15.9181198 30.8890058,17.9303792 30.9819645,20.4203038 C31.0400637,21.8836273 31.0400637,21.8836273 29.6471354,21.8836273 C27.6630478,21.8836273 25.6804127,21.8836273 23.6919676,21.8836273 C22.8001449,21.8836273 22.6665168,22.1353493 23.0964509,22.9633023 C24.0303955,24.7647824 26.5824027,25.1757261 28.1351038,23.7685093 C28.3210212,23.6001892 28.4895089,23.4258035 28.7204532,23.2013767 Z M25.5249973,19.8364908 C26.1524687,19.8364908 26.77994,19.8364908 27.4132213,19.8364908 C28.2208001,19.8273924 28.338451,19.6469411 28.0755521,18.8341521 C27.7196945,17.7362803 26.7683202,17.1069754 25.5830965,17.1949265 C24.2758646,17.2904595 23.1138806,18.2033307 22.9177958,19.2648089 C22.8393619,19.6742363 22.9889673,19.833458 23.3535398,19.833458 L25.5249973,19.8364908 Z" id="Shape" fill-rule="nonzero"></path>
                                <path d="M105.257325,25.6194054 C104.444039,26.450041 103.367992,26.9371206 102.234532,26.987692 C100.15419,27.1397239 98.3257483,25.8687376 98.0477903,23.9820224 C97.8610373,22.7064753 98.2113802,21.6346508 99.279781,20.8805728 C100.66378,19.903008 102.251904,19.7585778 103.840029,19.6035053 C104.031125,19.5852615 104.229459,19.6156679 104.419108,19.5822208 C104.708647,19.53053 105.242848,19.4605954 105.248639,19.3708966 C105.285029,18.980264 105.211543,18.5869996 105.037275,18.2397797 C104.615995,17.5267503 103.871878,17.3716778 103.139343,17.3275886 C102.211572,17.2711737 101.295857,17.5704736 100.562441,18.169845 C100.191831,18.4739087 99.9529605,18.5119167 99.6026176,18.102951 C98.4748611,16.7878755 98.466175,16.6175999 99.9978391,15.8148717 C101.605429,14.9354076 103.479154,14.759953 105.209551,15.3268495 C106.901909,15.8711235 107.834227,17.1846786 107.926879,18.9756138 C108.051381,21.3503512 107.977549,23.7372512 107.984787,26.1211105 C107.984787,26.2442563 107.955833,26.4707837 107.918193,26.4753447 C107.22657,26.5922382 106.52808,26.6587841 105.827718,26.6745064 C105.682948,26.6745064 105.523701,26.2275328 105.380379,25.9797209 C105.32924,25.8636974 105.288059,25.7431143 105.257325,25.6194054 Z M104.099167,21.4172452 C103.208833,21.6863416 102.264934,21.8398937 101.441194,22.2549407 C100.488609,22.7353613 100.55086,23.9470551 101.458566,24.5019714 C102.71372,25.2621306 104.673903,24.5475809 105.171911,23.1336847 C105.619249,21.8520563 105.415124,21.5434316 104.096271,21.4111639 L104.099167,21.4172452 Z" id="Shape" fill-rule="nonzero"></path>
                                <path d="M37.9834332,10 C37.5367176,9.73628463 37.2895061,9.60442694 37.0553057,9.45083447 C34.1133438,7.52368365 31.1655992,5.60667574 28.2366484,3.65489217 C27.7162031,3.30858462 27.3547827,3.31727853 26.8285546,3.66793304 C23.8244284,5.67332907 20.7884973,7.63670453 17.7670229,9.61167187 C17.6108893,9.71310086 17.4359618,9.78989709 17.0441821,10 C17.0441821,9.297242 17.1077921,8.73648458 17.031171,8.19601296 C16.8649176,7.0368245 17.3723518,6.36594418 18.3467412,5.76316618 C21.2106363,3.98526088 24.0195954,2.11606949 26.8300003,0.257020996 C27.3518913,-0.0892865566 27.7364426,-0.0820416287 28.2539966,0.257020996 C31.3101673,2.27690689 34.3923603,4.25187423 37.4427483,6.27755606 C37.7316844,6.50139173 37.9195434,6.83154832 37.9646393,7.19476393 C38.0311407,8.04966542 37.9834332,8.91615879 37.9834332,10 Z" id="Path"></path>
                                <path d="M120,16.7621882 C119.605614,17.0840579 119.412033,17.2328468 119.228564,17.3937817 C118.878962,17.6974324 118.56692,18.1999743 118.178313,18.2728504 C117.8316,18.3396536 117.402542,17.9433894 117.01249,17.7444982 C115.423389,16.9352691 113.577143,17.7444982 113.124972,19.6028405 C112.913569,20.5002457 112.913569,21.4382916 113.124972,22.3356968 C113.652264,24.4491057 115.885673,25.2203784 117.636574,23.9784471 C118.080077,23.6626503 118.358892,23.6747964 118.665155,24.0877613 C118.770614,24.2244041 118.900631,24.3397914 119.019091,24.4658064 C119.937881,25.4344522 119.923434,25.5604672 118.80384,26.2284987 C116.444748,27.6359197 113.025292,27.0605017 111.317731,24.9683483 C109.571164,22.8276109 109.559607,19.3675112 111.290283,17.1053135 C113.067186,14.7823856 116.89403,14.2889533 119.150553,16.0911202 C119.381695,16.2793836 119.608503,16.4570193 120,16.7621882 Z" id="Path"></path>
                                <path d="M14.9987509,17.7268381 C15.7101267,16.9312884 16.4340931,16.214294 17.5782749,16.0714664 C17.8112032,16.0429009 18.0504269,16.0157636 18.2802076,16.0029092 C18.7523596,15.9743436 19.0136171,16.1543064 18.9994526,16.6242091 C18.9789926,17.2112305 18.9994526,17.8011084 18.9994526,18.4652567 C18.7067183,18.4652567 18.5068406,18.4652567 18.3085367,18.4652567 C16.2767091,18.4209801 15.0554092,19.4650497 15.0207847,21.3289497 C14.9924556,22.9214772 14.9845864,24.515433 15.0207847,26.1065322 C15.0396708,26.8006743 14.7579534,27.0149157 14.0166747,26.9992046 C11.6370284,26.9449301 12.0320623,27.229157 12.01475,25.1852943 C11.9911424,22.5701213 12.01475,19.9563766 12.01475,17.3412036 C12.01475,16.2957057 12.01475,16.2871361 13.2077208,16.2985623 C13.7003328,16.2985623 14.3251473,16.198583 14.6446369,16.4271071 C14.9279281,16.6313505 14.8807129,17.224085 14.9987509,17.7268381 Z" id="Path"></path>
                                <path d="M62.9903627,21.5081587 C62.9903627,23.0938105 62.9732139,24.6809292 62.9997165,26.266581 C63.0090704,26.8122447 62.7876955,27 62.2202274,27 C59.587113,26.9677296 60.0376577,27.2610972 60.01895,25.0432382 C59.9924473,22.3339884 60.0345398,19.6247387 60.0002422,16.915489 C59.9908884,16.2055394 60.2512377,15.9928479 60.9886345,16.0001821 C62.9825678,16.019251 62.9841268,16.0001821 62.9841268,17.8513316 L62.9903627,21.5081587 Z" id="Path"></path>
                                <path d="M35,4 C33.9725451,3.37590915 33.1388388,2.88155272 32.3212783,2.36124941 C31.9998317,2.15367433 31.8809404,0.50126748 32.1451431,0.233604883 C32.2153115,0.171870668 32.3011632,0.127703952 32.3946679,0.105236087 C32.490873,0.0838436282 32.5893217,0.0723941205 32.6882265,0.0710954491 C34.9985322,-0.107801491 34.9985322,-0.107801491 35,2.04578992 L35,4 Z" id="Path"></path>
                                <path d="M61.4655526,10 C62.600704,10 63.4658193,10.836617 63.4991571,11.9638483 C63.5324949,13.0910796 62.5723668,14.0104776 61.4272141,13.9999098 C60.3792512,14.0097578 59.5194533,13.125625 59.5002905,12.0184485 C59.4819547,10.8771269 60.333735,10.0052839 61.4655526,10 Z" id="Path"></path>
                            </g>
                        </g>
                    </g>
                </g>
            </g>
        </g>
    </g>
</svg>