<?xml version="1.0" encoding="UTF-8"?>
<svg width="87px" height="18px" viewBox="0 0 87 18" version="1.1" xmlns="http://www.w3.org/2000/svg" xmlns:xlink="http://www.w3.org/1999/xlink">
    <!-- Generator: Sketch 52.2 (67145) - http://www.bohemiancoding.com/sketch -->
    <title>uber</title>
    <desc>Created with Sketch.</desc>
    <g id="Product-Glass-Walls" stroke="none" stroke-width="1" fill="none" fill-rule="evenodd">
        <g id="alur_web_getStarted" transform="translate(-627.000000, -1315.000000)" fill="#A5A8B5" fill-rule="nonzero">
            <g id="HERO" transform="translate(266.000000, 619.000000)">
                <g id="Group-15">
                    <g id="Group-14" transform="translate(0.000000, 628.000000)">
                        <g id="Group-7" transform="translate(0.000000, 54.000000)">
                            <g id="uber" transform="translate(360.957000, 13.000000)">
                                <path d="M14.104,1 L17.411,1 L17.411,11.484 C17.411,17.001 13.886,18.935 8.772,18.935 C3.675,18.935 0.15,17 0.15,11.484 L0.15,1.42 C0.15,1.128 0.296,1 0.588,1 L3.894,1 L3.894,11.319 C3.894,14.628 5.354,15.997 8.771,15.997 C12.205,15.997 13.666,14.628 13.666,11.319 L13.666,1.42 C13.666,1.128 13.813,1 14.104,1 Z M51.53,3.867 L51.53,8.288 L59.896,8.288 C60.042,8.288 60.097,8.361 60.042,8.507 L59.129,10.772 C59.037,10.973 58.909,11.066 58.636,11.066 L53.723,11.066 C52.116,11.066 51.531,11.558 51.531,12.634 L51.531,15.757 L62.856,15.757 C63.002,15.757 63.057,15.83 63.002,15.978 L62.053,18.334 C61.961,18.534 61.833,18.627 61.56,18.627 L49.158,18.627 C48.208,18.627 47.844,18.298 47.844,17.584 L47.844,2.224 C47.844,1.366 48.319,1 49.56,1 L62.858,1 C63.004,1 63.059,1.073 63.004,1.201 L62.055,3.575 C61.963,3.776 61.835,3.867 61.562,3.867 L51.53,3.867 Z M41.028,13.75 C41.028,17.274 38.544,18.627 35.055,18.627 L25.812,18.627 C24.844,18.627 24.497,18.298 24.497,17.584 L24.497,2.224 C24.497,1.366 24.954,1 26.214,1 L33.721,1 C37.009,1 40.187,1.566 40.187,5.475 C40.187,7.155 39.584,8.58 38.141,9.329 C40.133,9.858 41.028,11.647 41.028,13.75 Z M28.132,8.342 L33.995,8.342 C35.931,8.342 36.479,7.593 36.479,6.059 C36.479,4.524 35.931,3.794 33.995,3.794 L28.132,3.794 L28.132,8.342 Z M37.32,13.421 C37.32,11.793 36.754,10.99 34.672,10.99 L30.343,10.99 C28.735,10.99 28.133,11.484 28.133,12.56 L28.133,15.83 L34.672,15.83 C36.753,15.83 37.32,15.029 37.32,13.421 Z M85.906,18.627 L82.545,18.627 C82.272,18.627 82.161,18.517 82.052,18.334 L78.49,11.905 L75.22,11.905 C73.613,11.905 73.01,12.397 73.01,13.474 L73.01,18.626 L69.795,18.626 C69.503,18.626 69.357,18.479 69.357,18.207 L69.357,2.223 C69.357,1.365 69.833,0.999 71.074,0.999 L78.617,0.999 C83.02,0.999 85.669,2.149 85.669,6.424 C85.669,9.729 84.08,11.027 82.107,11.538 L86.071,18.314 C86.143,18.424 86.143,18.627 85.906,18.627 Z M81.96,6.498 C81.96,4.708 81.467,3.831 79.166,3.831 L73.01,3.831 L73.01,9.16500087 L79.166,9.165 C81.467,9.166 81.96,8.306 81.96,6.498 Z" id="Shape"></path>
                            </g>
                        </g>
                    </g>
                </g>
            </g>
        </g>
    </g>
</svg>