<?xml version="1.0" encoding="UTF-8"?>
<svg width="125px" height="16px" viewBox="0 0 125 16" version="1.1" xmlns="http://www.w3.org/2000/svg" xmlns:xlink="http://www.w3.org/1999/xlink">
    <!-- Generator: Sketch 52.2 (67145) - http://www.bohemiancoding.com/sketch -->
    <title>esteeLauder</title>
    <desc>Created with Sketch.</desc>
    <g id="Install-Portfolio" stroke="none" stroke-width="1" fill="none" fill-rule="evenodd">
        <g id="alur_web_installPortfolio_default" transform="translate(-492.000000, -486.000000)" fill="#FFFFFF">
            <g id="HERO" transform="translate(0.000000, 114.000000)">
                <g id="bg_prod_dividing_hero">
                    <g id="Group-7" transform="translate(315.000000, 357.000000)">
                        <g id="esteeLauder" transform="translate(177.000000, 15.000000)">
                            <path d="M92,15.969929 L92,2.03399155 C92.0952325,2.02465339 92.1813952,2.00937275 92.2675579,2.00937275 C93.882731,2.00937275 95.497904,1.98475395 97.1123213,2.01531522 C98.5415643,2.04248079 99.8952259,2.39733105 101.042551,3.4364141 C102.07348,4.37023057 102.618421,5.62833603 102.845165,7.06471555 C103.116502,8.77954215 103.05906,10.4765414 102.449119,12.1030799 C101.724294,14.0369289 100.368365,15.1541129 98.6005177,15.64564 C97.8754934,15.8409168 97.1343151,15.950739 96.3890079,15.9733247 C94.9975556,16.0234112 93.6038359,15.9877564 92.2116277,15.9869074 C92.1488952,15.9894542 92.0899418,15.9784182 92,15.969929 Z M93.4466267,15.4121859 C94.0663936,15.4121859 94.6604629,15.4317111 95.2530205,15.4079412 C96.0277292,15.37738 96.8130192,15.3926606 97.5726116,15.2474946 C99.49011,14.8790615 100.757609,13.6396324 101.250399,11.4910056 C101.625802,9.85932017 101.623981,8.14698403 101.245109,6.5163106 C100.748539,4.32608652 99.5399937,2.90413871 97.5008093,2.66049751 C96.1834267,2.50344656 94.8426139,2.59767713 93.5116266,2.58069865 C93.4949987,2.58069865 93.477615,2.60192175 93.4466267,2.62229593 L93.4466267,15.4121859 Z" id="Shape" fill-rule="nonzero"></path>
                            <path d="M116.480305,9.1893718 L116.480305,15.9789658 L115,15.9789658 L115,2.02158664 C115.100064,2.01563757 115.200921,2.00543915 115.301779,2.00458929 C116.871029,2.00458929 118.441074,1.99184127 120.010324,2.00883863 C120.883895,2.01903704 121.740788,2.17881219 122.531766,2.61054504 C124.551302,3.72047241 124.7554,6.58962615 122.920108,8.01400461 C122.34839,8.44811806 121.703607,8.75979448 121.021283,8.93186185 C120.922014,8.95905762 120.823539,8.98965286 120.689327,9.02789691 L125,15.996813 C124.432973,15.996813 123.930273,16.009561 123.428367,15.984065 C123.339422,15.984065 123.238564,15.8242898 123.174238,15.7180564 C121.928473,13.6500447 120.688003,11.5794834 119.452827,9.50637249 C119.309879,9.2658599 119.158196,9.17832351 118.892154,9.18512246 C118.109117,9.20211981 117.324492,9.1893718 116.480305,9.1893718 Z M116.512071,2.48646434 L116.512071,8.64885587 C117.493647,8.64885587 118.451398,8.70239754 119.399619,8.62930891 C119.989787,8.57700784 120.568487,8.42498019 121.114199,8.17887896 C122.280019,7.66130946 122.839898,6.5012399 122.687421,5.10915642 C122.538914,3.74936791 121.834498,2.83576001 120.543202,2.67088565 C119.222522,2.50261183 117.8804,2.53745641 116.512071,2.48646434 Z" id="Shape" fill-rule="nonzero"></path>
                            <path d="M64,15.9838587 C64.2670487,15.3354064 64.502286,14.7568523 64.7433833,14.1791402 C66.387533,10.2244233 68.0300084,6.26858361 69.6708095,2.31162103 C69.7687552,2.07497805 69.8884667,1.99834277 70.1370983,2.00002707 C71.0947904,2.00929067 71.0956275,2.00002707 71.4673192,2.87922732 C73.2688518,7.13318668 75.0698263,11.387146 76.8702428,15.6411054 C76.9120999,15.7404786 76.94726,15.8423782 77,15.9830166 C76.4248825,15.9830166 75.890785,15.9990174 75.3600361,15.9687001 C75.2595789,15.9628051 75.1314959,15.7867966 75.0804302,15.662159 C74.4274583,14.0761177 73.7828579,12.4864271 73.1466289,10.8930871 C73.0562174,10.6648656 72.9390173,10.6017047 72.7062915,10.6025468 C70.9516389,10.6120911 69.1972653,10.6120911 67.4431708,10.6025468 C67.2121193,10.6025468 67.1083135,10.6791821 67.0304591,10.8855078 C66.410973,12.4493727 65.7680469,14.0014474 65.1611179,15.5720494 C65.0338721,15.8996442 64.8773263,16.042809 64.5324232,15.9889116 C64.3552709,15.9750181 64.1773814,15.9733299 64,15.9838587 Z M70.0843583,3.2775623 L67.4054994,9.98693821 L72.7724258,9.98693821 C71.8783566,7.7527253 70.9960075,5.55135607 70.0843583,3.2775623 Z" id="Shape" fill-rule="nonzero"></path>
                            <path d="M87.2376596,2 L88,2 L88,2.39483806 C88,5.32030489 88,8.24577172 88,11.1712386 C88,13.8518058 86.5561273,15.6127503 84.112064,15.9192912 C82.8542024,16.0750607 81.6100629,16.036743 80.4147132,15.5227872 C79.0264913,14.9255321 78.275586,13.7735046 78.0674671,12.1841565 C78.022361,11.8097103 78.0012182,11.4322817 78.0041929,11.0546197 C77.9986024,8.18413034 77.9986024,5.31419629 78.0041929,2.44481756 L78.0041929,2.01499385 L79.4061368,2.01499385 C79.4129979,2.1499385 79.4274824,2.28904812 79.4274824,2.4314897 C79.4274824,5.45691553 79.4129979,8.48317436 79.4412045,11.5110992 C79.4490459,12.120337 79.5476629,12.7241106 79.7331809,13.2986993 C80.0869068,14.3815885 80.8606823,15.0179942 81.8601105,15.3145392 C82.7588539,15.5835411 83.7077345,15.579509 84.6045359,15.3028774 C86.2588146,14.8030823 87.2361349,13.3611737 87.2391843,11.4128061 C87.2437583,8.42069998 87.2437583,5.42831615 87.2391843,2.43565466 L87.2376596,2 Z" id="Path"></path>
                            <path d="M10.0114978,14.2372396 C10.6107724,14.5448509 11.1729047,14.8938559 11.7700364,15.1251732 C12.8957296,15.5618353 14.0407082,15.5951125 15.1435447,15.0156019 C16.0770987,14.5286182 16.686373,13.7234717 16.7863712,12.5149404 C16.8595457,11.8341667 16.627216,11.1570948 16.1678113,10.712289 C15.6213929,10.1563159 14.9428342,9.89496798 14.2707039,9.61576397 C13.4492907,9.27406372 12.6143063,8.9615825 11.8171784,8.55495108 C10.9757655,8.12559376 10.360777,7.41865572 10.1514952,6.34404496 C9.88507164,4.98130216 10.3164921,3.70540479 11.3300446,2.89944672 C12.3435971,2.09348865 13.4864329,1.90599991 14.6871247,2.0391088 C15.4653567,2.13368873 16.2257487,2.36620067 16.940654,2.72819077 C17.1549357,2.83532719 17.2463626,2.97168264 17.2163631,3.23546549 C17.2075165,3.4090109 17.2075165,3.58299266 17.2163631,3.75653808 C17.1035081,3.67537412 17.022081,3.61774772 16.9427968,3.55687475 C15.8321033,2.69734847 14.6228402,2.31181968 13.2850081,2.59832844 C12.7162208,2.7098267 12.1944957,3.02760523 11.797893,3.50411818 C10.9536231,4.52191417 11.0407643,6.06727587 12.0621738,6.84076836 C12.6393058,7.27824207 13.3150075,7.5558228 13.9621383,7.86262255 C14.7478378,8.23597674 15.5813937,8.51193419 16.350665,8.926682 C17.6427837,9.6287502 18.14706,10.7406964 17.963492,12.3404379 C17.8206375,13.5984792 17.1985063,14.5123854 16.2578096,15.1535806 C15.1785441,15.888926 13.9942805,16.0845312 12.7578751,15.9692783 C11.9012069,15.8901234 11.0634635,15.6403932 10.2829213,15.231498 C10.0686396,15.1194917 9.9764985,14.9839479 10.0050694,14.7185418 C10.0160702,14.5584185 10.0182172,14.3976685 10.0114978,14.2372396 Z" id="Path"></path>
                            <polygon id="Path" points="7.91630048 2 7.91630048 2.56972281 1.59029086 2.56972281 1.59029086 8.11343284 7.40573342 8.11343284 7.40573342 8.6771855 1.5827579 8.6771855 1.5827579 15.3731343 8 15.3731343 8 16 0 16 0 2"></polygon>
                            <polygon id="Path" points="48.9355649 2 48.9355649 2.57445513 42.6075314 2.57445513 42.6075314 8.10763424 48.4142259 8.10763424 48.4142259 8.67953245 42.590795 8.67953245 42.590795 15.3539511 49 15.3539511 49 16 41 16 41 2"></polygon>
                            <polygon id="Path" points="112.407655 8.10234542 112.407655 8.66950959 106.591299 8.66950959 106.591299 15.3577825 113 15.3577825 113 16 105 16 105 2 112.909642 2 112.909642 2.56034115 106.598829 2.56034115 106.598829 8.10405117"></polygon>
                            <path d="M31.5691857,8.11935209 L37.4079967,8.11935209 L37.4079967,8.66155158 C37.2823948,8.66751918 37.156793,8.67860188 37.0270044,8.67860188 C35.3271928,8.67860188 33.6265439,8.68542199 31.9275696,8.67860188 C31.6504082,8.67860188 31.5373665,8.72634271 31.5398786,9.04688832 C31.5549508,11.0392157 31.5465773,13.0315431 31.548252,15.0247229 C31.548252,15.1244672 31.5591375,15.2250639 31.5666736,15.3589088 L38,15.3589088 L38,16 L30,16 L30,2 L37.9003559,2 L37.9003559,2.5831202 L31.5691857,2.5831202 L31.5691857,8.11935209 Z" id="Path"></path>
                            <polygon id="Path" points="24.7620173 2.56801706 24.7620173 16 23.2647754 16 23.2647754 2.58592751 19 2.58592751 19 2 29 2 29 2.57142857"></polygon>
                            <path d="M64,15.3450918 L64,16 L56,16 L56,2.00080495 C56.4625448,2.00080495 56.9284659,1.99654677 57.4002954,2.00761804 C57.4492509,2.00761804 57.5252163,2.09278165 57.5378772,2.15409946 C57.5531856,2.26696985 57.5565809,2.38116059 57.5480059,2.49475392 C57.5480059,6.62007943 57.5480059,10.7459727 57.5480059,14.8724337 L57.5480059,15.3459434 L64,15.3450918 Z" id="Path"></path>
                            <polygon id="Path" points="38 0 38 1 30 1 30 0"></polygon>
                        </g>
                    </g>
                </g>
            </g>
        </g>
    </g>
</svg>