<?xml version="1.0" encoding="UTF-8"?>
<svg width="117px" height="13px" viewBox="0 0 117 13" version="1.1" xmlns="http://www.w3.org/2000/svg" xmlns:xlink="http://www.w3.org/1999/xlink">
    <!-- Generator: Sketch 52.2 (67145) - http://www.bohemiancoding.com/sketch -->
    <title>etrade</title>
    <desc>Created with Sketch.</desc>
    <g id="Install-Portfolio" stroke="none" stroke-width="1" fill="none" fill-rule="evenodd">
        <g id="alur_web_installPortfolio_default" transform="translate(-315.000000, -487.000000)" fill="#FFFFFF">
            <g id="HERO" transform="translate(0.000000, 114.000000)">
                <g id="bg_prod_dividing_hero">
                    <g id="Group-7" transform="translate(315.000000, 357.000000)">
                        <g id="etrade" transform="translate(0.000000, 16.000000)">
                            <path d="M56.6255833,8.30481045 L61,12.9742283 C60.9291199,12.9861649 60.8577009,12.9942403 60.7860285,12.9984221 C59.7861618,12.9984221 58.7862952,13.0047336 57.7864285,12.9921107 C57.6577761,12.9831228 57.5370853,12.9233931 57.4484735,12.8248574 C56.2486335,11.4026783 55.0577923,9.97418781 53.8759499,8.53938585 C53.7492917,8.36374867 53.5483123,8.26531294 53.3390215,8.27640895 C51.9822024,8.29008375 50.6253833,8.28272039 49.2685642,8.28272039 L48.9596054,8.28272039 L48.9596054,12.9847473 L46,12.9847473 L46,0 L46.2709639,0 C49.8834822,0 53.4960005,0 57.1085189,0.00736335316 C57.5658664,0.00731958043 58.021848,0.0598765278 58.4683376,0.164097585 C59.4502066,0.398672978 60.0381282,1.11081442 60.0681243,2.17008537 C60.1071191,3.47129506 60.1141181,4.77566048 60.0681243,6.07581826 C60.0211305,7.35073027 59.2082389,8.11967472 57.8964138,8.23433265 C57.4904679,8.2700975 57.0845221,8.28061658 56.6255833,8.30481045 Z M48.9666045,5.87595582 C49.0465938,5.87595582 49.1055859,5.88857871 49.1665778,5.88857871 C51.422277,5.88857871 53.677643,5.88857871 55.9326756,5.88857871 C56.1273317,5.88754337 56.3214747,5.86747075 56.5125983,5.82861998 C56.8865485,5.75077882 57.1125183,5.5130477 57.1255166,5.11647854 C57.1485135,4.47586681 57.1495134,3.83315127 57.1255166,3.19253955 C57.1105186,2.78019177 56.8855486,2.54140875 56.4966005,2.46777522 C56.2811034,2.42694191 56.0626492,2.40582482 55.8436875,2.40466076 C53.6399813,2.40045313 51.4356086,2.40045313 49.2305693,2.40466076 C49.1485802,2.40466076 49.0665911,2.41202411 48.9716038,2.41623174 L48.9666045,5.87595582 Z" id="Shape" fill-rule="nonzero"></path>
                            <path d="M81,12.9822854 L81,0 L81.2759696,0 C83.9323066,0 86.5886435,0 89.2449805,0 C90.6982139,0 92.1318089,0.159859638 93.4909852,0.736195703 C95.6150212,1.63540617 96.7230341,3.28869137 96.9504248,5.5898288 C97.0641202,6.74144922 97.0021045,7.88150085 96.5545583,8.95529487 C95.6832384,11.0460907 94.0884027,12.2744858 91.9312917,12.709893 C91.001371,12.8864006 90.057605,12.9765172 89.1116468,12.9791302 C86.4821833,13.0148883 83.8516862,12.9938542 81.2222227,12.9938542 C81.1488376,12.9959576 81.0806203,12.9875439 81,12.9822854 Z M84.112152,10.403497 C84.1896715,10.403497 84.2403176,10.4140141 84.2919973,10.4140141 C85.6852823,10.4140141 87.0827015,10.4234794 88.4739193,10.4056004 C89.5157822,10.3929799 90.5586786,10.3467047 91.5747017,10.0553816 C92.7819397,9.7083179 93.5716056,8.94372608 93.7648877,7.66484897 C93.8559914,7.0305035 93.8774844,6.38781644 93.8289705,5.74863673 C93.7183759,4.21103942 92.8408545,3.12567661 91.375218,2.7365446 C90.7393666,2.57221238 90.0869666,2.48327776 89.4310274,2.47151414 C87.7307651,2.43470436 86.0294691,2.45784194 84.3281731,2.45889365 C84.2609895,2.45889365 84.1927723,2.46835902 84.1142192,2.47466927 L84.112152,10.403497 Z" id="Shape" fill-rule="nonzero"></path>
                            <path d="M3.17492787,2.32604145 L3.17492787,5.16651749 L10.4449562,5.16651749 L10.4449562,7.56829779 L3.17492787,7.56829779 L3.17492787,10.5339652 L14,10.5339652 L14,13 L13.7299704,12.9999192 C9.58051518,12.9999192 5.43175237,12.9999192 1.28368194,12.9999192 C1.15181788,13.0010411 1.02010953,12.9904806 0.890061837,12.9683583 C0.280418036,12.8631555 0.00104123413,12.5296626 2.65865546e-06,11.9047579 C2.65865546e-06,8.29069046 2.65865546e-06,4.6787271 2.65865546e-06,1.0688678 C-0.00103591681,0.476575945 0.302228121,0.125198539 0.872406054,0.0410362862 C1.11654517,0.00931498714 1.36266834,-0.00404724941 1.60875606,0.00105921605 C5.54703425,0.00105921605 9.48462005,0.00105921605 13.4215135,0.00105921605 L13.7735905,0.00105921605 L13.7735905,2.32604145 L3.17492787,2.32604145 Z" id="Path"></path>
                            <path d="M113,10.5335563 L113,12.9994163 L112.729534,12.9994163 C108.584456,12.9994163 104.436615,12.9994163 100.28601,12.9994163 C100.17171,13.0020585 100.05738,12.9957277 99.9440415,12.9804805 C99.2953368,12.8752817 99,12.5207618 99,11.8495934 C99,8.42361897 99.002418,4.99764455 99.0072539,1.57167014 C99.0072539,1.32340096 99.0072539,1.07302781 99.0290155,0.82475863 C99.0590674,0.403963411 99.2839378,0.152538267 99.6880829,0.0715351873 C99.8676865,0.0293759751 100.050968,0.00541351091 100.235233,0 C104.329879,0 108.42487,0 112.520207,0 C112.563731,0 112.607254,0 112.673575,0.00841590439 L112.673575,2.32278961 L102.154404,2.32278961 L102.154404,5.23258855 L109.367876,5.23258855 L109.367876,7.55853413 L102.15544,7.55853413 L102.15544,10.5367123 L113,10.5335563 Z" id="Path"></path>
                            <path d="M80,12.9874009 C78.849255,12.9874009 77.7511386,12.9874009 76.6530222,12.9790346 C76.5510786,12.9539975 76.4633855,12.8871704 76.4101209,12.7939302 C75.9492831,12.0786117 75.4955299,11.3580642 75.0488614,10.6322878 C74.9775992,10.4932284 74.8333076,10.4110819 74.6814732,10.4231303 C72.0540905,10.429405 69.4273826,10.429405 66.8013495,10.4231303 C66.6565686,10.407897 66.5176943,10.4865091 66.4521788,10.6207841 C66.0240652,11.3528353 65.5787461,12.0639706 65.1496205,12.7897471 C65.0882449,12.9271964 64.950554,13.0106424 64.8044982,12.9989045 C63.879449,12.9894924 62.9533877,12.9989045 62,12.9989045 C62.034411,12.9215163 62.0536407,12.8660895 62.0819792,12.8158917 C64.3666011,8.85096334 66.6502109,4.88917229 68.9328085,0.930518599 C69.302221,0.289450958 69.8214225,-0.0274226072 70.544054,0.00185943838 C70.8355356,0.0144088865 71.1280292,0.00185943838 71.4205229,0.00185943838 C72.0624369,-0.0161941976 72.6606604,0.336626557 72.9720551,0.916923363 C75.256677,4.83374556 77.5399494,8.75056775 79.8218724,12.6673899 C79.8734889,12.7583734 79.9230812,12.8524943 80,12.9874009 Z M70.8051729,2.70835708 L67.8954175,7.89337073 L73.6552151,7.89337073 L70.8051729,2.70835708 Z" id="Shape" fill-rule="nonzero"></path>
                            <path d="M18.8508721,11.9989613 L16.9661073,10.8501688 L19.0611722,7.1451571 L15,7.1451571 L15,4.86003635 L19.0671241,4.86003635 L16.9661073,1.21319138 L18.8508721,0 C19.5641068,1.2464295 20.2694056,2.48143339 21.00248,3.7621397 L23.1590477,0.00103869125 L25.0438125,1.21215269 L22.9507316,4.84757206 L27,4.84757206 L27,7.13788626 L22.9408118,7.13788626 C23.6550384,8.39989613 24.3414896,9.6141262 25.0398446,10.8501688 L23.1550798,12 L21.001488,8.24201506 L18.8508721,11.9989613 Z" id="Path"></path>
                            <polygon id="Path" points="28 0 43 0 43 2.4456698 36.9960027 2.4456698 36.9960027 13 33.9780147 13 33.9780147 2.45937399 28 2.45937399"></polygon>
                            <path d="M116.999003,1.52419248 C116.97461,2.3477012 116.308397,3.00190811 115.496116,2.99999582 C114.683835,2.99808353 114.020624,2.34074686 114,1.51713216 C114,0.641652626 114.645047,-0.0043665488 115.519804,0.000340330437 C115.918748,-0.00836289127 116.303572,0.15018363 116.583529,0.438591179 C116.863485,0.726998728 117.013792,1.11973798 116.999003,1.52419248 Z M116.778574,1.51713216 C116.778574,0.752264288 116.258824,0.222740374 115.509363,0.210973176 C115.169295,0.208778018 114.842429,0.344343087 114.601307,0.587581774 C114.360186,0.830820461 114.224754,1.1616118 114.22507,1.50654169 C114.22507,2.27140956 114.748301,2.80917051 115.501242,2.81152395 C116.291308,2.81858427 116.777413,2.32318523 116.777413,1.51124856 L116.778574,1.51713216 Z" id="Shape" fill-rule="nonzero"></path>
                            <path d="M115,1.98811881 L115,0 C115.266998,0.0382838284 115.532261,0.0290429043 115.780188,0.124092409 C116.067123,0.233663366 116.061055,0.719471947 115.8322,1.01914191 C115.888547,1.34917492 115.937959,1.63564356 115.987371,1.92343234 L115.924956,2 C115.880745,1.94191419 115.798392,1.88514851 115.797525,1.82574257 C115.79059,1.25016502 115.683098,1.18019802 115.240124,1.27260726 C115.108359,1.46006601 115.364088,1.92343234 115,1.98811881 Z M115.214985,0.98349835 C115.309474,0.98349835 115.399629,1.02178218 115.463778,0.975577558 C115.579073,0.893729373 115.753315,0.782838284 115.771519,0.644224422 C115.807061,0.368316832 115.62155,0.310231023 115.475915,0.275907591 C115.389333,0.266668902 115.302433,0.266668902 115.215852,0.275907591 L115.214985,0.98349835 Z" id="Shape" fill-rule="nonzero"></path>
                        </g>
                    </g>
                </g>
            </g>
        </g>
    </g>
</svg>