<?xml version="1.0" encoding="utf-8"?>
<!-- Generator: Adobe Illustrator 15.0.0, SVG Export Plug-In . SVG Version: 6.00 Build 0)  -->
<!DOCTYPE svg PUBLIC "-//W3C//DTD SVG 1.1//EN" "http://www.w3.org/Graphics/SVG/1.1/DTD/svg11.dtd">
<svg version="1.1" id="Layer_1" xmlns="http://www.w3.org/2000/svg" xmlns:xlink="http://www.w3.org/1999/xlink" x="0px" y="0px"
	 width="50px" height="44px" viewBox="0 0 50 44" enable-background="new 0 0 50 44" xml:space="preserve">
<path fill="#FFFFFF" d="M16.422,29.098c0.324,1.148-0.628,2.387-3.239,2.672c-4.052,0.442-7.212-2.291-3.466-4.396
	c0.859,0.067,1.526,0.161,2.915,0.217C15.352,27.701,16.209,28.331,16.422,29.098z M11.298,21.225c1.897,0,2.879-1.312,2.879-3.156
	c0-2.019-1.139-3.626-3.255-3.626c-1.853,0-2.966,1.255-2.966,3.097C7.956,19.608,9.136,21.225,11.298,21.225z M49.915,12.208
	c0,9.771-9.394,22.347-16.802,27.958c-3.104,2.323-6.42,3.723-10.297,3.723C10.835,43.889,0,29.529,0,18.506
	C0,2.285,21.35,0.157,31.26,0.157C44.852,0.158,49.915,4.891,49.915,12.208z M16.706,26.109c-1.266-0.594-3.153-0.637-6.237-0.883
	c-1.434-0.115-1.72-0.541-1.72-1.125c0-0.352,0.175-0.746,0.55-1.056c0.25-0.21,0.574-0.37,0.936-0.44
	c0.37,0.045,0.691,0.059,0.985,0.059c3.44,0,5.382-2.11,5.382-4.625c0-1.08-0.399-2.201-1.103-3.012c0.75,0,2.16,0.09,2.601,0.181
	V13.41c-0.792,0.227-1.763,0.271-2.601,0.271c-0.705,0-1.366-0.136-1.986-0.315c-0.75-0.225-1.628-0.404-2.376-0.404
	c-3.457,0-5.591,2.16-5.591,4.952c0,1.923,1.219,3.628,2.984,4.302c-1.324,0.632-2.03,1.528-2.03,2.562
	c0,1.014,0.7,2.062,2.07,2.438c-1.987,0.884-3.84,2.476-2.458,4.332c2.028,2.728,9.187,2.437,11.415-0.399
	C19.272,28.923,18.087,26.756,16.706,26.109z M28.805,23.561c0-2.063-1.941-3.139-3.797-4.084c-1.762-0.898-3.44-1.71-3.44-3.145
	c0-1.213,1.277-1.753,2.604-1.753c1.367,0,2.645,0.494,3.706,1.349v-2.021c-1.104-0.63-2.383-0.944-3.663-0.944
	c-2.38,0-5.028,1.213-5.028,3.999c0,2.293,1.985,3.28,3.837,4.178c1.677,0.807,3.222,1.526,3.222,3.009
	c0,1.479-1.545,1.795-2.78,1.795c-1.146,0-2.955-0.494-4.41-1.301v2.064c1.411,0.586,2.778,0.898,4.323,0.898
	C25.85,27.605,28.805,26.572,28.805,23.561z M43.502,26.661c-0.132,0.047-0.309,0.09-0.439,0.09h-0.002
	c-0.748,0-1.778-0.199-3.412-1.995c-2.116-2.382-4.571-5.416-4.571-5.416l3.752-3.594c2.204-2.11,2.821-2.244,2.998-2.29h-3.484
	c-0.704,0.944-1.5,1.662-1.5,1.662l-4.014,3.822V6.898l-3.045,0.806c0.397,0.54,0.528,1.44,0.528,3.462v12.443
	c0,2.514-0.131,2.785-0.396,3.504h3.265c-0.221-0.584-0.354-0.99-0.354-3.504v-3.595c0,0,1.811,2.202,4.059,4.944
	c1.411,1.703,2.559,2.47,3.926,2.47C41.871,27.428,42.842,27.158,43.502,26.661z"/>
</svg>
