<?xml version="1.0" encoding="utf-8"?>
<!-- Generator: Adobe Illustrator 15.0.0, SVG Export Plug-In . SVG Version: 6.00 Build 0)  -->
<!DOCTYPE svg PUBLIC "-//W3C//DTD SVG 1.1//EN" "http://www.w3.org/Graphics/SVG/1.1/DTD/svg11.dtd">
<svg version="1.1" id="Layer_1" xmlns="http://www.w3.org/2000/svg" xmlns:xlink="http://www.w3.org/1999/xlink" x="0px" y="0px"
	 width="99px" height="23px" viewBox="0 0 99 23" enable-background="new 0 0 99 23" xml:space="preserve">
<path fill="#FFFFFF" d="M10.215,13.548c0,2.365-1.243,4.754-5.144,4.754C1.829,18.302,0,16.498,0,13.231v-1.072h2.316v0.73
	c0,2.024,0.537,3.462,2.803,3.462c2.122,0,2.78-1.219,2.78-3.145V0.481h2.316V13.548z M24.476,5.722
	c-0.487-2.461-2.462-3.706-4.875-3.706c-4.145,0-5.9,3.413-5.9,7.046c0,3.974,1.755,7.289,5.924,7.289
	c3.047,0,4.803-2.146,5.022-5.022h2.316c-0.439,4.339-3.145,6.973-7.533,6.973c-5.413,0-8.045-3.999-8.045-9.069
	c0-5.047,2.877-9.167,8.24-9.167c3.633,0,6.631,1.95,7.167,5.656H24.476z M27.954,0.481h7.631c3.461,0,5.339,1.925,5.339,5.144
	c0,3.219-1.878,5.168-5.339,5.144H30.27v7.119h-2.316V0.481z M30.27,8.819h4.534c2.609,0.024,3.803-1.122,3.803-3.194
	c0-2.072-1.194-3.193-3.803-3.193H30.27V8.819z M51.845,13.89c-0.561,2.779-2.56,4.291-5.388,4.291
	c-4.022,0-5.924-2.779-6.046-6.632c0-3.778,2.487-6.557,5.925-6.557c4.461,0,5.827,4.169,5.705,7.216h-9.435
	c-0.073,2.194,1.17,4.144,3.925,4.144c1.707,0,2.901-0.829,3.267-2.462H51.845z M49.846,10.378
	c-0.098-1.975-1.584-3.559-3.632-3.559c-2.17,0-3.462,1.634-3.608,3.559H49.846z M52.973,5.283h1.951v2h0.049
	c0.878-1.561,2.292-2.292,4.097-2.292c3.315,0,4.338,1.901,4.338,4.607v8.289h-2.071V9.355c0-1.536-0.976-2.536-2.561-2.536
	c-2.51,0-3.729,1.683-3.729,3.949v7.119h-2.073V5.283z M65.042,5.283h1.949v2h0.05c0.877-1.561,2.292-2.292,4.096-2.292
	c3.314,0,4.339,1.901,4.339,4.607v8.289h-2.071V9.355c0-1.536-0.975-2.536-2.562-2.536c-2.51,0-3.729,1.683-3.729,3.949v7.119
	h-2.071V5.283z M87.86,13.89C87.3,16.669,85.3,18.18,82.472,18.18c-4.022,0-5.923-2.779-6.046-6.632
	c0-3.778,2.487-6.557,5.924-6.557c4.461,0,5.826,4.169,5.705,7.216h-9.435c-0.073,2.194,1.171,4.144,3.925,4.144
	c1.705,0,2.899-0.829,3.267-2.462H87.86z M85.861,10.378c-0.098-1.975-1.584-3.559-3.633-3.559c-2.169,0-3.462,1.634-3.608,3.559
	H85.861z M93.645,19.57c-0.951,2.462-1.803,3.364-3.658,3.364c-0.486,0-0.974-0.049-1.437-0.219v-1.901
	c0.39,0.122,0.804,0.292,1.219,0.292c0.854,0,1.315-0.414,1.706-1.146l0.854-2.145L87.33,5.283h2.341l3.681,10.313H93.4
	l3.535-10.313h2.193L93.645,19.57z M94.424,20.464c0.332,0,0.613,0.263,0.613,0.608c0,0.352-0.281,0.614-0.613,0.614
	c-0.334,0-0.615-0.262-0.615-0.614C93.809,20.728,94.09,20.464,94.424,20.464z M94.424,21.597c0.282,0,0.502-0.226,0.502-0.524
	c0-0.293-0.22-0.519-0.502-0.519c-0.286,0-0.506,0.226-0.506,0.519C93.918,21.371,94.138,21.597,94.424,21.597z M94.186,20.717
	h0.275c0.171,0,0.25,0.068,0.25,0.205c0,0.13-0.082,0.183-0.188,0.194l0.205,0.315h-0.12l-0.194-0.307h-0.118v0.307h-0.11V20.717z
	 M94.296,21.035h0.117c0.097,0,0.188-0.005,0.188-0.118c0-0.094-0.082-0.109-0.158-0.109h-0.146V21.035z"/>
</svg>
