<?xml version="1.0" encoding="utf-8"?>
<!-- Generator: Adobe Illustrator 15.0.0, SVG Export Plug-In . SVG Version: 6.00 Build 0)  -->
<!DOCTYPE svg PUBLIC "-//W3C//DTD SVG 1.1//EN" "http://www.w3.org/Graphics/SVG/1.1/DTD/svg11.dtd">
<svg version="1.1" xmlns="http://www.w3.org/2000/svg" xmlns:xlink="http://www.w3.org/1999/xlink" x="0px" y="0px" width="100px"
	 height="26px" viewBox="0 0 100 26" enable-background="new 0 0 100 26" xml:space="preserve">
<g id="Background">
</g>
<g id="Guides">
</g>
<g id="Foreground">
	<path fill="#FFFFFF" d="M0,19.437c0-2.241,1.97-4.22,4.96-5.385c-1.271,0.951-2.02,2.126-2.02,3.396c0,3.155,4.59,5.71,10.29,5.71
		c9.93,0,20.648-4.022,25.09-6.371c-4.71,3.421-14.63,9.141-27.11,9.141C5.1,25.928,0,23.022,0,19.437z"/>
	<path fill="#FFFFFF" d="M49.57,8.529c12.45-5.839,25.509-8.746,34.989-8.435C94.04,0.401,100,3.37,100,7.404
		c0,1.684-1.21,3.235-3.23,4.468c0.25-0.534,0.39-1.091,0.39-1.665c0-3.488-4.46-6.064-11.319-6.907
		C71.31,1.513,52.86,6.988,49.57,8.529z"/>
	<path fill="#FFFFFF" d="M13.271,10.866l4.48-6.827h3.259c-0.27,0.136-0.509,0.373-0.61,0.764l-2.68,9.994
		c-0.1,0.371,0.011,0.609,0.21,0.761H14.61c0.3-0.151,0.49-0.39,0.589-0.761l2.211-8.285c0.06-0.202,0.18-0.422,0.18-0.422
		l-0.289,0.457l-6.19,9.251L9.87,6.749L9.75,6.326c0,0-0.091,0.305-0.12,0.443l-2.15,8.029c-0.101,0.371,0.011,0.609,0.23,0.761
		H5.771c0.309-0.151,0.529-0.39,0.629-0.761L9.08,4.803C9.17,4.48,9.011,4.175,8.8,4.039h3.37L13.271,10.866z M23.56,14.443
		c-1.56,0-1.84-1.746-1.56-2.899c0.03-0.119,0.06-0.201,0.07-0.253h4.89c0.761-2.813-0.52-3.897-2.41-3.897
		c-2.3,0-4.329,1.916-4.93,4.15c-0.69,2.576,0.66,4.184,2.699,4.184c2.11,0,4.39-1.454,4.911-2.815
		C26.41,13.871,25.061,14.443,23.56,14.443z M24.92,10.308h-2.561C22.7,9.19,23.44,8.343,24.23,8.343
		C24.899,8.343,25.24,9.105,24.92,10.308z M28.569,10.46c0.53-0.882,1.65-2.117,2.871-2.117c0.709,0,0.949,0.591,0.739,1.373
		c-0.06,0.268-0.149,0.592-0.42,0.778c-0.649,0.439-2.329,0.643-3.289,1.202c-0.951,0.51-1.45,1.239-1.621,1.879
		c-0.249,0.916,0.081,2.152,1.49,2.152c0.95,0,1.94-0.524,2.58-1.017c-0.13,0.644,0.079,0.814,0.381,1.053l2.188-0.711
		c-0.43-0.138-0.35-0.323-0.219-0.814c0.028-0.101,1-3.726,1.099-4.098c0.68-2.542-1.148-2.747-2.05-2.747
		c-1.288,0-2.35,0.323-3.05,0.627L28.569,10.46z M30.38,11.901c0.55-0.237,0.851-0.289,1.311-0.491l-0.681,2.522
		c-0.31,0.239-0.7,0.442-1.141,0.442c-0.568,0-0.969-0.341-0.738-1.17C29.301,12.56,29.771,12.206,30.38,11.901z M41.53,4.58
		c0.24,0.052,0.529,0.137,0.39,0.678L41.131,7.8c-0.341-0.253-0.6-0.407-1.261-0.407c-2.09,0-4.32,1.916-4.939,4.219
		c-0.681,2.56,0.369,4.115,2.029,4.115c0.931,0,1.761-0.455,2.3-0.813l-0.34,1.06l3.09-1.84c-0.19-0.295-0.149-0.393-0.069-0.86
		L44.6,3.819L41.53,4.58z M37.43,11.308c0.351-1.324,1.351-2.913,2.69-2.913c0.47,0,0.579,0.201,0.729,0.438l-1.41,5.286
		c-0.22,0.118-0.5,0.29-0.869,0.29C37.94,14.41,36.74,13.88,37.43,11.308z M38.15,21.887c1.97,0.418,5.85,0.548,7.46-6.002
		l2.22-8.419c0.109-0.391,0.16-0.639,0.16-0.639l-3.07,0.771c0.22,0.137,0.34,0.372,0.24,0.762l-2.26,8.329
		C41.78,20.926,38.15,21.887,38.15,21.887z M46.94,14.673c-0.49,1.711-0.14,4.063,2.83,4.063c2.329,0,4.37-1.812,5.02-4.183
		c0.601-2.271-0.229-4.15-2.81-4.15C49.46,10.404,47.55,12.402,46.94,14.673z M52.42,14.5c-0.551,2.272-1.391,3.237-2.359,3.271
		c-0.86,0.034-1.32-1.034-0.801-3.15c0.5-1.981,1.371-3.27,2.381-3.303C52.729,11.285,52.86,12.722,52.42,14.5z M61.561,10.404
		c-1.061,0-2.261,0.71-2.65,1.067l1.079-4.556l-2.95,0.75C57.29,7.75,57.56,7.851,57.42,8.376l-2.591,9.463
		c-0.1,0.373-0.309,0.578-0.599,0.73h3.189c-0.221-0.152-0.319-0.357-0.221-0.73l1.43-5.336c0.341-0.338,0.891-0.677,1.482-0.677
		c0.979,0,1.06,0.796,0.828,1.644l-1.17,4.37c-0.101,0.373-0.311,0.578-0.601,0.73h3.142c-0.211-0.152-0.32-0.357-0.22-0.73
		l1.308-4.878C63.858,11.233,63.14,10.404,61.561,10.404z M76.358,10.404c-2.139,0-3.249,1.202-3.549,2.318
		c-0.27,0.983-0.1,1.663,1.001,2.49c0.979,0.729,1.378,0.881,1.198,1.525c-0.101,0.392-0.558,1-1.529,1
		c-1.009,0-1.5-1.167-1.41-2.389l-0.689,2.712c0.66,0.455,1.39,0.676,2.28,0.676c1.151,0,3.261-0.693,3.76-2.557
		c0.41-1.526-0.529-2.186-1.41-2.795c-0.591-0.392-1.11-0.677-0.961-1.27c0.111-0.409,0.491-0.831,1.301-0.831
		c0.899,0,1.17,1.184,1.229,2.066l0.641-2.625C77.541,10.489,76.739,10.404,76.358,10.404z M78.429,14.673
		c-0.489,1.711-0.149,4.063,2.821,4.063c2.339,0,4.37-1.812,5.021-4.183c0.609-2.271-0.23-4.15-2.8-4.15
		C80.939,10.404,79.04,12.402,78.429,14.673z M83.899,14.5c-0.54,2.272-1.39,3.237-2.36,3.271c-0.859,0.034-1.31-1.034-0.789-3.15
		c0.49-1.981,1.36-3.27,2.379-3.303C84.209,11.285,84.35,12.722,83.899,14.5z M93.04,10.404c-1.061,0-1.95,0.506-2.691,1.067
		l0.271-1.368l-2.86,0.721c0.24,0.085,0.429,0.238,0.279,0.762l-1.7,6.252c-0.099,0.373-0.309,0.578-0.6,0.73h3.12
		c-0.199-0.152-0.31-0.357-0.21-0.73l1.42-5.319c0.311-0.323,0.92-0.676,1.41-0.676c1.279,0,0.999,1.117,0.82,1.778l-1.131,4.217
		c-0.1,0.373-0.28,0.578-0.599,0.73h3.1c-0.21-0.152-0.31-0.357-0.21-0.73l1.31-4.878C95.208,11.319,94.409,10.404,93.04,10.404z
		 M70.04,10.404c-1.06,0-1.951,0.506-2.69,1.067l0.27-1.368l-2.86,0.721c0.251,0.085,0.431,0.238,0.292,0.762l-1.712,6.252
		c-0.099,0.373-0.31,0.578-0.599,0.73h3.12c-0.19-0.152-0.312-0.357-0.211-0.73l1.42-5.319c0.309-0.323,0.931-0.676,1.421-0.676
		c1.27,0,0.989,1.117,0.81,1.778l-1.13,4.217c-0.101,0.373-0.28,0.578-0.6,0.73h3.109c-0.21-0.152-0.321-0.357-0.221-0.73
		l1.311-4.878C72.21,11.319,71.409,10.404,70.04,10.404z M47.97,21.58c-0.02,0.059,1.85,3.64,1.85,3.64l1.201-4.521
		c0.038-0.153,0.119-0.239,0.229-0.298h-0.771c0.071,0.059,0.11,0.145,0.071,0.298l-0.53,1.996L48.8,20.4h-1.42
		c0.09,0.098,0.15,0.204,0.19,0.284c0.13,0.211,0.1,0.246,0,0.617L46.7,24.61c-0.04,0.151-0.121,0.246-0.23,0.296h0.771
		c-0.08-0.05-0.119-0.145-0.08-0.296L47.97,21.58z M52.09,23.668c-0.271,1.026,0.2,1.318,0.688,1.318
		c0.41,0,0.701-0.226,0.962-0.423c-0.05,0.211,0,0.37,0.149,0.437l1.061-0.391c-0.181-0.061-0.201-0.166-0.101-0.525l0.63-2.405
		l-1.26,0.167c0.079,0.032,0.18,0.078,0.129,0.283l-0.54,2.009c-0.078,0.093-0.249,0.199-0.39,0.199
		c-0.188,0-0.439-0.073-0.29-0.636c0.102-0.377,0.53-2.022,0.53-2.022l-1.289,0.167c0.08,0.032,0.18,0.078,0.129,0.283
		C52.499,22.129,52.16,23.415,52.09,23.668z M56.93,23.833c-0.16,0.637,0.09,1.153,0.82,1.153c0.569,0,0.85-0.398,0.939-0.582
		c-0.1,0.073-0.18,0.171-0.35,0.171c-0.13,0-0.53,0.013-0.351-0.704l0.421-1.581h0.7l0.13-0.506h-0.689l0.229-0.847l-1.799,1.353
		h0.359L56.93,23.833z M62.7,23l0.339-1.273c-0.059-0.034-0.1-0.047-0.24-0.047c-0.209,0-0.499,0.171-0.79,0.565l0.149-0.565
		l-1.319,0.167c0.09,0.032,0.191,0.071,0.141,0.278L60.32,24.61c-0.04,0.151-0.121,0.246-0.23,0.296h1.37
		c-0.081-0.05-0.11-0.145-0.07-0.296l0.52-1.977c0.131-0.105,0.23-0.156,0.441-0.156C62.539,22.477,62.711,22.681,62.7,23z
		 M65.779,21.679l-1.29,0.167c0.071,0.032,0.181,0.078,0.12,0.283l-0.649,2.48c-0.04,0.151-0.12,0.246-0.23,0.296h1.351
		c-0.081-0.05-0.109-0.145-0.07-0.296L65.779,21.679z M65.26,21.474c0.28,0,0.581-0.261,0.66-0.579c0.09-0.325-0.07-0.58-0.351-0.58
		c-0.279,0-0.579,0.255-0.669,0.58C64.81,21.213,64.979,21.474,65.26,21.474z M67.21,23.833c-0.17,0.637,0.089,1.153,0.809,1.153
		c0.572,0,0.852-0.398,0.941-0.582c-0.101,0.073-0.18,0.171-0.341,0.171c-0.14,0-0.539,0.013-0.349-0.704l0.419-1.581h0.69
		l0.129-0.506h-0.688l0.227-0.847l-1.798,1.353h0.359L67.21,23.833z M72.37,21.679l-1.29,0.167c0.069,0.032,0.18,0.078,0.129,0.283
		l-0.658,2.48c-0.04,0.151-0.121,0.246-0.231,0.296h1.362c-0.082-0.05-0.122-0.145-0.082-0.296L72.37,21.679z M71.85,21.474
		c0.28,0,0.58-0.261,0.67-0.579c0.081-0.325-0.081-0.58-0.359-0.58c-0.28,0-0.58,0.255-0.671,0.58
		C71.409,21.213,71.569,21.474,71.85,21.474z M76.64,23.325c0.251-0.949-0.109-1.646-1.091-1.646c-0.999,0-1.718,0.769-1.969,1.71
		c-0.18,0.657-0.07,1.598,1.12,1.598C75.601,24.987,76.38,24.312,76.64,23.325z M74.799,24.537
		c-0.219,0.005-0.409-0.301-0.189-1.187c0.211-0.814,0.501-1.237,0.81-1.247c0.341-0.007,0.36,0.505,0.191,1.2
		C75.359,24.27,75.079,24.53,74.799,24.537z M81.18,22.726c0.181-0.67-0.091-1.047-0.63-1.047c-0.39,0-0.69,0.145-1,0.391
		l0.101-0.399l-1.241,0.142c0.091,0.034,0.141,0.105,0.091,0.313l-0.659,2.485c-0.04,0.151-0.12,0.246-0.23,0.296h1.339
		c-0.079-0.05-0.108-0.145-0.07-0.296l0.542-2.049c0.079-0.106,0.299-0.225,0.438-0.225c0.44,0,0.29,0.451,0.241,0.648l-0.43,1.625
		c-0.041,0.151-0.131,0.246-0.23,0.296h1.319c-0.08-0.05-0.111-0.145-0.07-0.296L81.18,22.726z M84.079,22.118
		c0.211,0,0.31,0.19,0.229,0.521c-0.029,0.136-0.049,0.221-0.179,0.301c-0.261,0.158-0.82,0.225-1.17,0.443
		c-0.352,0.206-0.539,0.489-0.611,0.748c-0.1,0.386,0.031,0.856,0.552,0.856c0.328,0,0.688-0.179,0.919-0.365
		c-0.028,0.221,0.05,0.294,0.161,0.374l0.968-0.293c-0.149-0.071-0.129-0.132-0.079-0.34l0.411-1.518
		c0.289-1.102-0.432-1.166-0.771-1.166c-0.48,0-0.929,0.111-1.188,0.213l-0.3,1.021C83.19,22.633,83.669,22.118,84.079,22.118z
		 M84.109,23.33l-0.249,0.953c-0.069,0.047-0.159,0.095-0.271,0.095c-0.169,0-0.318-0.12-0.239-0.417
		c0.051-0.212,0.189-0.344,0.37-0.458C83.869,23.415,83.949,23.41,84.109,23.33z M86.74,24.61c-0.041,0.151-0.122,0.246-0.231,0.296
		h1.371c-0.081-0.05-0.11-0.145-0.081-0.296l1.142-4.295l-1.321,0.189c0.092,0.035,0.18,0.082,0.13,0.294L86.74,24.61z
		 M90.58,23.648c0.37,0.292,0.489,0.347,0.43,0.559c-0.039,0.138-0.188,0.33-0.521,0.33c-0.369,0-0.549-0.479-0.519-0.953
		l-0.292,1.158c0.301,0.186,0.601,0.245,0.921,0.245c0.42,0,1.291-0.271,1.489-1.053c0.171-0.617-0.198-0.877-0.519-1.109
		c-0.19-0.131-0.41-0.238-0.351-0.449c0.04-0.152,0.16-0.284,0.449-0.284c0.332,0,0.42,0.483,0.45,0.822l0.281-1.142
		c-0.271-0.059-0.601-0.093-0.741-0.093c-0.859,0-1.311,0.476-1.439,0.959C90.12,23.024,90.15,23.325,90.58,23.648z M97.861,14.462
		c0.509,0,0.92-0.4,0.92-0.945c0-0.536-0.411-0.939-0.92-0.939c-0.522,0-0.921,0.403-0.921,0.939
		C96.94,14.062,97.339,14.462,97.861,14.462z M96.71,13.517c0-0.65,0.53-1.127,1.151-1.127c0.618,0,1.147,0.477,1.147,1.127
		c0,0.657-0.529,1.135-1.147,1.135C97.24,14.652,96.71,14.174,96.71,13.517z M97.619,14.174h-0.2v-1.308h0.501
		c0.309,0,0.46,0.114,0.46,0.374c0,0.23-0.14,0.334-0.33,0.357l0.371,0.576h-0.231l-0.341-0.567h-0.229V14.174z M97.861,13.439
		c0.169,0,0.318-0.01,0.318-0.212c0-0.161-0.149-0.191-0.289-0.191h-0.271v0.403H97.861z"/>
</g>
<g id="Cortes_x2F_Cruzes">
</g>
</svg>
