<?xml version="1.0" encoding="utf-8"?>
<!-- Generator: Adobe Illustrator 15.0.0, SVG Export Plug-In . SVG Version: 6.00 Build 0)  -->
<!DOCTYPE svg PUBLIC "-//W3C//DTD SVG 1.1//EN" "http://www.w3.org/Graphics/SVG/1.1/DTD/svg11.dtd">
<svg version="1.1" id="Layer_1" xmlns="http://www.w3.org/2000/svg" xmlns:xlink="http://www.w3.org/1999/xlink" x="0px" y="0px"
	 width="113px" height="26px" viewBox="0 0 113 26" enable-background="new 0 0 113 26" xml:space="preserve">
<path fill="#FFFFFF" d="M27.378,18.768V7.813h3.328l4.699,7.629l0,0V7.813h2.448v10.955h-3.231l-4.795-7.825l0,0v7.825H27.378
	L27.378,18.768z M44.117,18.768V17.79l0,0c-0.587,0.881-1.468,1.174-2.447,1.174c-1.371,0-2.643-0.784-2.643-2.349
	c0-2.542,3.131-2.64,5.089-2.64c0-0.783-0.686-1.368-1.468-1.368c-0.783,0-1.467,0.39-1.958,0.88l-1.173-1.272
	c0.783-0.783,2.056-1.173,3.328-1.173c2.643,0,3.425,1.369,3.425,3.912v3.815H44.117L44.117,18.768z M44.117,15.442H43.53
	c-0.686,0-2.25,0.098-2.25,1.077c0,0.585,0.586,0.879,1.076,0.879c0.881,0,1.762-0.488,1.762-1.467V15.442L44.117,15.442z
	 M52.829,11.236h-2.056v-2.25h-2.349v2.25h-1.468v1.858h1.468v3.619c0,1.664,1.271,2.251,2.742,2.251c0.587,0,1.173,0,1.663-0.196
	v-1.957c-0.194,0.195-0.686,0.195-0.979,0.195c-0.977,0-1.076-0.586-1.076-1.368v-2.544h2.056V11.236L52.829,11.236z M54.199,18.768
	v-7.532h2.349v7.532H54.199L54.199,18.768z M54.004,8.889c0-0.783,0.587-1.371,1.37-1.371c0.784,0,1.371,0.587,1.371,1.371
	c0,0.685-0.587,1.368-1.371,1.368C54.591,10.257,54.004,9.574,54.004,8.889L54.004,8.889z M57.724,15.051
	c0-2.444,1.858-4.01,4.208-4.01c2.251,0,4.112,1.566,4.112,4.01c0,2.348-1.861,3.914-4.112,3.914
	C59.582,18.964,57.724,17.398,57.724,15.051L57.724,15.051z M60.071,15.051c0,1.076,0.687,1.86,1.861,1.86
	c1.175,0,1.86-0.784,1.86-1.86c0-1.173-0.685-1.957-1.86-1.957C60.758,13.094,60.071,13.877,60.071,15.051L60.071,15.051z
	 M67.218,18.768h2.35v-3.717c0-0.978,0.194-1.957,1.369-1.957c1.176,0,1.176,1.077,1.176,1.957v3.717h2.348v-4.109
	c0-2.052-0.391-3.618-2.741-3.618c-1.173,0-1.958,0.588-2.251,1.173l0,0v-0.978h-2.251V18.768L67.218,18.768z M77.79,18.768h2.349
	l1.37-4.989l0,0l1.566,4.989h2.35l2.642-7.532h-2.348l-1.372,4.694H84.25l-1.37-4.694h-2.544l-1.271,4.694l0,0l-1.568-4.694h-2.446
	L77.79,18.768L77.79,18.768z M89.145,18.768v-7.532h2.251v7.532H89.145L89.145,18.768z M88.949,8.889
	c0-0.783,0.587-1.371,1.273-1.371c0.782,0,1.37,0.587,1.37,1.371c0,0.685-0.589,1.368-1.37,1.368
	C89.536,10.257,88.949,9.574,88.949,8.889L88.949,8.889z M100.792,7.032v11.736h-2.154V17.79l0,0
	c-0.39,0.587-1.271,1.174-2.349,1.174c-2.249,0-3.719-1.566-3.719-3.914c0-2.054,1.372-4.009,3.426-4.009
	c0.978,0,1.859,0.293,2.448,0.977l0,0V7.032H100.792L100.792,7.032z M98.638,15.051c0-1.173-0.685-1.957-1.858-1.957
	c-1.176,0-1.861,0.784-1.861,1.957c0,1.076,0.685,1.86,1.861,1.86C97.954,16.911,98.638,16.126,98.638,15.051L98.638,15.051z
	 M107.742,16.322l1.566,1.174c-0.685,0.881-1.957,1.468-3.132,1.468c-2.35,0-4.209-1.566-4.209-3.914c0-2.444,1.859-4.01,4.209-4.01
	c2.153,0,3.524,1.566,3.524,4.01v0.684h-5.384c0.194,0.881,0.784,1.469,1.761,1.469C106.763,17.204,107.353,16.812,107.742,16.322
	L107.742,16.322z M104.317,14.171h3.035c0-0.784-0.589-1.467-1.468-1.467C104.904,12.704,104.317,13.388,104.317,14.171
	L104.317,14.171z M110.386,11.629c-0.785,0-1.372-0.588-1.372-1.373c0-0.78,0.586-1.368,1.372-1.368
	c0.783,0,1.466,0.587,1.466,1.368C111.852,11.041,111.169,11.629,110.386,11.629L110.386,11.629z M109.309,10.257
	c0,0.686,0.49,1.174,1.077,1.174c0.685,0,1.174-0.488,1.174-1.174c0-0.683-0.489-1.173-1.174-1.173
	C109.799,9.084,109.309,9.574,109.309,10.257L109.309,10.257z M110.094,10.355v0.686h-0.198V9.477h0.589
	c0.391,0,0.587,0.097,0.587,0.489c0,0.195-0.196,0.39-0.392,0.39l0.392,0.686h-0.294l-0.391-0.686L110.094,10.355L110.094,10.355z
	 M110.094,10.161h0.292c0.194,0,0.391,0,0.391-0.293c0-0.196-0.197-0.196-0.293-0.196h-0.391V10.161L110.094,10.161z M1.838,1.757
	v19.04h19.055V1.757H1.838L1.838,1.757z M0,25.997V0h22.728v25.997H0L0,25.997z"/>
</svg>
