<?xml version="1.0" encoding="utf-8"?>
<!-- Generator: Adobe Illustrator 15.0.0, SVG Export Plug-In . SVG Version: 6.00 Build 0)  -->
<!DOCTYPE svg PUBLIC "-//W3C//DTD SVG 1.1//EN" "http://www.w3.org/Graphics/SVG/1.1/DTD/svg11.dtd">
<svg version="1.1" id="Layer_1" xmlns="http://www.w3.org/2000/svg" xmlns:xlink="http://www.w3.org/1999/xlink" x="0px" y="0px"
	 width="80px" height="41.515px" viewBox="-15.93 -8.249 80 41.515" enable-background="new -15.93 -8.249 80 41.515"
	 xml:space="preserve">
<path fill="#FFFFFF" d="M38.187,7.687c1.173,0.871,1.479,1.705,1.479,4.045v7.938h-2.595l0.003-7.835
	c0-0.698,0.02-1.335-0.304-1.817c-0.302-0.45-0.9-0.635-1.327-0.618c-0.969,0.042-1.49,0.727-1.49,1.35v8.92h-2.595V2.571h2.595
	v5.242c0.554-0.438,1.349-0.705,2.177-0.715C36.899,7.085,37.685,7.313,38.187,7.687 M17.084,13.556
	c0-1.675-0.066-2.375-0.066-2.389c-0.012-0.936-0.5-1.878-1.562-1.878c-1.063,0-1.556,0.943-1.566,1.887
	c-0.001,0.006-0.068,0.704-0.068,2.381c0,1.678,0.067,2.239,0.068,2.244c0.045,0.909,0.485,1.959,1.566,1.959
	c1.08,0,1.477-0.983,1.562-1.912C17.03,15.704,17.084,15.23,17.084,13.556 M19.666,13.556c0,0.996-0.052,1.824-0.067,2.016
	c-0.168,2.679-1.717,4.375-4.153,4.375c-2.434,0-3.985-1.665-4.154-4.372c-0.013-0.208-0.076-1.022-0.068-2.019
	c0.017-1.364,0.054-1.79,0.072-2.021c0.266-2.899,1.74-4.434,4.151-4.434c1.703,0,3.778,0.783,4.146,4.437
	C19.628,11.884,19.666,13.107,19.666,13.556z M43.996,12.019h3.237c0.002-0.252-0.024-0.49-0.046-0.846
	c-0.045-0.675-0.334-1.895-1.582-1.885c-1.048,0.009-1.506,0.854-1.581,1.878C44.015,11.332,44.015,11.452,43.996,12.019
	 M49.688,15.441c-0.164,2.84-1.736,4.505-4.088,4.505c-2.354,0-3.929-1.711-4.086-4.372c-0.012-0.194-0.065-1.022-0.065-2.019
	c0-1.396,0.042-1.761,0.066-2.019c0.289-2.917,1.75-4.436,4.085-4.436c1.217,0,2.244,0.473,2.973,1.37
	c0.627,0.772,1.037,1.972,1.115,3.068c0.049,0.712,0.061,1.053,0.068,1.255c0.017,0.519,0.007,1.377,0.007,1.377h-5.784
	c-0.003,1.052,0.045,1.358,0.063,1.638c0.071,0.972,0.481,1.95,1.56,1.95c1.264,0,1.504-1.29,1.574-1.894
	c0.027-0.233,0.022-0.422,0.022-0.422h2.489V15.441z M3.022-6.155l-16.183,18.796L3.022,31.306h42.165l16.117-18.601L45.18-6.155
	H3.022 M64.07,12.645L46.199,33.267H2.004L-15.93,12.575L2.003-8.249h44.196L64.07,12.645z M3.543,4.894v4.828h1.354
	c1.563,0,1.892-1.313,1.967-2.061c0.011-0.091,0.015-0.17,0.015-0.398c0-0.2-0.013-0.304-0.015-0.397
	C6.83,5.603,6.108,4.893,4.771,4.893H3.543 M9.82,19.67H7.258c0,0-0.105-0.48-0.127-1.042l-0.268-3.973
	c-0.141-2.021-1.069-2.745-1.894-2.745H3.543v7.759H0.98V2.708h3.966c2.426,0.027,4.49,1.19,4.501,4.509
	c0.005,2.182-0.9,3.226-1.603,3.647c0.972,0.566,1.46,1.67,1.574,3.548l0.268,4.203C9.709,19.206,9.82,19.67,9.82,19.67z
	 M27.172,15.326c-0.012,0.187-0.023,0.356-0.033,0.474c-0.074,0.949-0.407,1.959-1.564,1.959c-1.079,0-1.507-1.094-1.585-1.899
	c-0.049-0.486-0.039-0.866-0.047-2.304c-0.011-1.675,0.041-2.107,0.065-2.381c0.093-1.059,0.505-1.878,1.567-1.887
	c1.093-0.006,1.554,0.943,1.564,1.878c0,0.008,0.021,0.235,0.039,0.733h2.564c-0.007-0.171-0.013-0.313-0.02-0.399
	c-0.295-3.542-2.452-4.4-4.154-4.4c-2.414,0-3.887,1.534-4.15,4.434c-0.022,0.231-0.058,0.658-0.071,2.022
	c-0.011,0.993,0.052,1.811,0.068,2.016c0.166,2.707,1.717,4.365,4.153,4.375c2.521,0.01,3.911-1.529,4.154-4.375
	c0.008-0.105,0.022-0.177,0.013-0.247h-2.563"/>
</svg>
