<?xml version="1.0" encoding="utf-8"?>
<!-- Generator: Adobe Illustrator 15.0.0, SVG Export Plug-In . SVG Version: 6.00 Build 0)  -->
<!DOCTYPE svg PUBLIC "-//W3C//DTD SVG 1.1//EN" "http://www.w3.org/Graphics/SVG/1.1/DTD/svg11.dtd">
<svg version="1.1" id="Layer_1" xmlns="http://www.w3.org/2000/svg" xmlns:xlink="http://www.w3.org/1999/xlink" x="0px" y="0px"
	 width="86px" height="18px" viewBox="2310.15 482 86 18" enable-background="new 2310.15 482 86 18" xml:space="preserve">
<path fill="#FFFFFF" d="M2324.104,482h3.307v10.484c0,5.517-3.525,7.451-8.639,7.451c-5.097,0-8.622-1.935-8.622-7.451V482.42
	c0-0.292,0.146-0.42,0.438-0.42h3.306v10.319c0,3.309,1.46,4.678,4.877,4.678c3.434,0,4.895-1.369,4.895-4.678v-9.899
	C2323.666,482.128,2323.813,482,2324.104,482z M2361.53,484.867v4.421h8.366c0.146,0,0.201,0.073,0.146,0.219l-0.913,2.265
	c-0.092,0.201-0.22,0.294-0.493,0.294h-4.913c-1.607,0-2.192,0.492-2.192,1.568v3.123h11.325c0.146,0,0.201,0.073,0.146,0.221
	l-0.949,2.356c-0.092,0.2-0.22,0.293-0.493,0.293h-12.402c-0.95,0-1.314-0.329-1.314-1.043v-15.36c0-0.858,0.475-1.224,1.716-1.224
	h13.298c0.146,0,0.201,0.073,0.146,0.201l-0.949,2.374c-0.092,0.201-0.22,0.292-0.493,0.292H2361.53z M2351.028,494.75
	c0,3.524-2.484,4.877-5.973,4.877h-9.243c-0.968,0-1.315-0.329-1.315-1.043v-15.36c0-0.858,0.457-1.224,1.717-1.224h7.507
	c3.288,0,6.466,0.566,6.466,4.475c0,1.68-0.603,3.105-2.046,3.854C2350.133,490.858,2351.028,492.647,2351.028,494.75z
	 M2338.132,489.342h5.863c1.936,0,2.484-0.749,2.484-2.283c0-1.535-0.548-2.265-2.484-2.265h-5.863V489.342z M2347.32,494.421
	c0-1.628-0.566-2.431-2.648-2.431h-4.329c-1.608,0-2.21,0.494-2.21,1.57v3.27h6.539
	C2346.753,496.83,2347.32,496.029,2347.32,494.421z M2395.906,499.627h-3.361c-0.273,0-0.384-0.11-0.493-0.293l-3.562-6.429h-3.27
	c-1.607,0-2.21,0.492-2.21,1.569v5.152h-3.215c-0.292,0-0.438-0.147-0.438-0.419v-15.984c0-0.858,0.476-1.224,1.717-1.224h7.543
	c4.403,0,7.052,1.15,7.052,5.425c0,3.305-1.589,4.603-3.562,5.114l3.964,6.776C2396.143,499.424,2396.143,499.627,2395.906,499.627z
	 M2391.96,487.498c0-1.79-0.493-2.667-2.794-2.667h-6.156v5.334h6.156C2391.467,490.166,2391.96,489.306,2391.96,487.498z"/>
</svg>
