<?xml version="1.0" encoding="utf-8"?>
<!-- Generator: Adobe Illustrator 15.0.0, SVG Export Plug-In . SVG Version: 6.00 Build 0)  -->
<!DOCTYPE svg PUBLIC "-//W3C//DTD SVG 1.1//EN" "http://www.w3.org/Graphics/SVG/1.1/DTD/svg11.dtd">
<svg version="1.1"
	 id="svg2" xmlns:sodipodi="http://sodipodi.sourceforge.net/DTD/sodipodi-0.dtd" xmlns:dc="http://purl.org/dc/elements/1.1/" xmlns:rdf="http://www.w3.org/1999/02/22-rdf-syntax-ns#" xmlns:svg="http://www.w3.org/2000/svg" xmlns:cc="http://creativecommons.org/ns#" xmlns:inkscape="http://www.inkscape.org/namespaces/inkscape" sodipodi:docname="New document 1" inkscape:version="0.47 r22583"
	 xmlns="http://www.w3.org/2000/svg" xmlns:xlink="http://www.w3.org/1999/xlink" x="0px" y="0px" width="91px" height="39.229px"
	 viewBox="0 0 91 39.229" enable-background="new 0 0 91 39.229" xml:space="preserve">
<defs>
	
	
		<inkscape:perspective  id="perspective10" sodipodi:type="inkscape:persp3d" inkscape:vp_x="0 : 526.18109 : 1" inkscape:vp_y="0 : 1000 : 0" inkscape:vp_z="744.09448 : 526.18109 : 1" inkscape:persp3d-origin="372.04724 : 350.78739 : 1">
		</inkscape:perspective>
	
		<inkscape:perspective  id="perspective2824" sodipodi:type="inkscape:persp3d" inkscape:vp_x="0 : 0.5 : 1" inkscape:vp_y="0 : 1000 : 0" inkscape:vp_z="1 : 0.5 : 1" inkscape:persp3d-origin="0.5 : 0.33333333 : 1">
		</inkscape:perspective>
</defs>
<sodipodi:namedview  id="base" showgrid="false" bordercolor="#666666" inkscape:cy="14.752417" pagecolor="#ffffff" inkscape:cx="102.85718" borderopacity="1.0" inkscape:zoom="5.7066123" inkscape:window-maximized="1" inkscape:pageshadow="2" inkscape:current-layer="layer1" inkscape:document-units="px" inkscape:window-y="-8" inkscape:pageopacity="0.0" inkscape:window-height="1000" inkscape:window-width="1680" inkscape:window-x="-8">
	</sodipodi:namedview>
<path fill="#FFFFFF" d="M0,0V39.23h91V0H0z M90.215,38.448H0.784V0.786h89.431V38.448z"/>
<path fill="#FFFFFF" d="M53.835,38.624h0.853V0.562h-0.853V38.624z"/>
<path fill="#FFFFFF" d="M64.229,22.304c0.156-0.072,0.508-0.229,0.664-0.307c0.182-0.09,0.156-0.17,0.104-0.318
	c-0.235-0.717-0.354-1.484-0.354-2.278c0-4.07,3.31-7.39,7.387-7.39c4.066,0,7.384,3.318,7.384,7.39
	c0,1.045-0.222,2.042-0.611,2.946c-0.03,0.064-0.034,0.189,0.072,0.242c0.118,0.051,0.567,0.25,0.696,0.305
	c0.132,0.053,0.216,0.021,0.283-0.119c0.443-1.034,0.692-2.176,0.692-3.374c0-4.701-3.819-8.524-8.519-8.524
	c-4.701,0-8.521,3.823-8.521,8.524c0,0.968,0.16,1.892,0.459,2.757C64.008,22.292,64.078,22.372,64.229,22.304 M62.064,23.306
	c0.18-0.086,0.787-0.363,0.944-0.443c0.164-0.071,0.128-0.209,0.104-0.274c-0.359-0.994-0.549-2.063-0.549-3.182
	c0-5.227,4.242-9.47,9.465-9.47c5.213,0,9.459,4.244,9.459,9.47c0,1.34-0.278,2.609-0.781,3.766c-0.029,0.059-0.07,0.199,0.079,0.26
	c0.153,0.064,0.833,0.369,0.96,0.424c0.135,0.06,0.219,0.033,0.281-0.123c0.584-1.319,0.897-2.789,0.897-4.325
	c0-6.019-4.888-10.911-10.896-10.911c-6.021,0-10.905,4.894-10.905,10.911c0,1.325,0.235,2.593,0.674,3.772
	C61.824,23.249,61.881,23.39,62.064,23.306 M59.121,24.661c0.209-0.104,1.496-0.695,1.72-0.797c0.228-0.101,0.128-0.275,0.095-0.367
	c-0.473-1.279-0.731-2.654-0.731-4.097c0-6.525,5.302-11.832,11.823-11.832c6.519,0,11.82,5.306,11.82,11.832
	c0,1.651-0.342,3.224-0.953,4.653c-0.039,0.086-0.082,0.264,0.131,0.355c0.211,0.092,1.455,0.641,1.629,0.711
	c0.168,0.084,0.295,0.063,0.408-0.189c0.725-1.701,1.119-3.57,1.119-5.53c0-7.812-6.351-14.175-14.154-14.175
	c-7.811,0-14.159,6.363-14.159,14.175c0,1.795,0.339,3.517,0.946,5.097C58.852,24.585,58.91,24.759,59.121,24.661"/>
<path fill="#FFFFFF" d="M72.032,16.325c0.833,0,1.519-0.679,1.519-1.516c0-0.845-0.686-1.521-1.519-1.521
	c-0.845,0-1.515,0.678-1.515,1.521C70.518,15.647,71.188,16.325,72.032,16.325 M72.588,24.275c0.295,0,0.535-0.239,0.535-0.537
	v-3.325c0.014-0.421,0.313-0.964,0.605-1.279l3.133-3.132c0.214-0.213,0.214-0.559,0-0.765l-0.569-0.569
	c-0.21-0.214-0.554-0.214-0.761,0l-2.829,2.835c-0.188,0.182-0.317,0.297-0.671,0.297c-0.352,0-0.483-0.116-0.666-0.297
	l-2.836-2.835c-0.213-0.214-0.549-0.214-0.76,0L67.2,15.237c-0.21,0.206-0.21,0.552,0,0.765l3.134,3.132
	c0.297,0.313,0.592,0.857,0.604,1.279v3.325c0,0.298,0.24,0.537,0.537,0.537H72.588"/>
<path fill="#FFFFFF" d="M82.475,25.452c-0.535,0.192-1.521,1.172-1.975,1.567l-0.119,0.021c0.157-0.179,0.842-1.043,1.02-1.34
	c0.539-0.896-0.478-1.74-1.601-1.097c-0.424,0.242-1.133,0.992-1.477,1.258l-0.112,0.025c0.154-0.146,0.785-0.979,0.961-1.246
	c0.486-0.729-0.541-1.412-1.426-0.881c-0.625,0.377-1.139,0.891-1.664,1.299l-0.09,0.021c0.145-0.14,0.492-0.552,0.628-0.697
	c0.522-0.584-0.228-1.26-1.015-0.854c-0.754,0.39-1.85,1.474-3.037,2.236c0.555,0.299,1.527,0.342,3.068,1.002
	c1.545,0.658,2.038,2.197,1.035,3.41c-0.934,1.125-2.352,0.742-3.574,0.365c-1.418-0.443-1.916-0.904-3.625-1.498
	c-1.117-0.387-1.572-0.377-1.552-0.703c0.021-0.363,0.979-0.146,1.884,0.184c2.502,0.904,5.825,2.97,6.641,0.746
	c0.644-1.752-2.238-2.508-3.34-2.721c-1.539-0.293-2.6-1.42-3.934-2.139c-2.009-1.086-3.559-1.113-4.704-0.904
	c-1.235,0.223-3,1.232-4.065,1.871c-0.738,0.436-0.688,1.104,0.039,2.139c2.563,3.646,6.795,6.027,11.584,6.027
	c5.082,0,9.537-2.695,12.035-6.715C84.611,25.948,83.742,24.999,82.475,25.452"/>
<path fill="#FFFFFF" d="M41.881,35.202c0.001,0.403,1.455,0.848,2.215,0.848c0.764,0,1.827-0.287,2.375-1.635
	c0.579-1.424,2.973-9.625,2.973-9.625l0.271-0.002c0.539-0.099,0.73-0.422,0.73-1.244c0-0.291-0.036-0.318-0.278-0.318h-1.963
	c-0.19,0.006-0.208,0.037-0.271,0.226l-1.636,6.325l-1.683-6.325c-0.055-0.188-0.079-0.22-0.268-0.226h-1.975
	c-0.238,0-0.282,0.027-0.282,0.318c0,0.826,0.199,1.151,0.743,1.244l0.275,0.002c0,0,1.57,5.502,2.4,7.811
	c0,0-0.123,0.445-0.123,0.449c-0.267,0.857-0.725,1.26-1.447,1.26c-0.172,0-1.141-0.147-1.141-0.147
	c-0.547-0.045-0.691,0.186-0.758,0.389C41.948,34.831,41.881,35.142,41.881,35.202 M35.182,20.156h-2.344
	c-0.206,0-0.212,0.018-0.247,0.225l-1.317,8.193l-1.596-8.154c-0.037-0.219-0.072-0.264-0.324-0.264H28.28
	c-0.396,0-0.41,0.059-0.46,0.276l-1.664,8.142l-1.248-8.193c-0.028-0.207-0.038-0.225-0.242-0.225H22.26
	c-0.252,0-0.292,0.021-0.292,0.325c0,0.902,0.216,1.234,0.858,1.306l0.242,0.012l1.834,10.082c0.059,0.231,0.09,0.281,0.308,0.281
	h1.588c0.253,0,0.263-0.017,0.306-0.281l1.58-7.838l1.338,7.842c0.045,0.262,0.05,0.277,0.308,0.277h1.622
	c0.213,0,0.248-0.05,0.306-0.281l2.078-10.088l0.231-0.006c0.643-0.07,0.854-0.404,0.854-1.306
	C35.418,20.197,35.379,20.167,35.182,20.156 M39.203,30.159c-0.221,0.239-0.682,0.733-1.324,0.733c-0.664,0-1.167-0.563-1.167-1.309
	c0-1.648,1.957-1.558,2.492-1.521L39.203,30.159L39.203,30.159z M41.29,30.579c-0.094-0.349-0.187-0.787-0.187-1.601v-3.174
	c0-1.996-0.867-2.887-2.838-2.887c-1.371,0-2.822,0.594-2.822,0.967c0,0.049,0.06,0.336,0.148,0.6
	c0.04,0.121,0.133,0.396,0.717,0.353c0.237-0.021,1.246-0.211,1.668-0.211c1.115,0,1.226,0.647,1.226,1.418v0.631
	c-1.394,0-4.394,0.014-4.394,3.037c0,1.703,0.943,2.756,2.465,2.756c1.154,0,1.729-0.631,2.076-1.014l0.131-0.146l0.043,0.229
	c0.07,0.366,0.14,0.625,0.428,0.625h2.02c0.256,0,0.286-0.021,0.286-0.316C42.257,30.945,42.038,30.624,41.29,30.579 M27.081,15.719
	l-0.212-0.002V8.569c0-0.174-0.012-0.192-0.176-0.192h-2.827c-0.244,0-0.278,0.02-0.278,0.31c0,0.978,0.26,1.272,1.094,1.272h0.205
	v5.76l-0.215,0.002c-0.836,0-1.092,0.3-1.092,1.273c0,0.289,0.039,0.313,0.281,0.313H27.9c0.236,0,0.281-0.023,0.281-0.313
	C28.182,16.032,27.907,15.719,27.081,15.719 M25.855,4.982c-0.674,0-1.201,0.563-1.201,1.282c0,0.71,0.537,1.292,1.201,1.292
	c0.654,0,1.183-0.582,1.183-1.292C27.039,5.557,26.51,4.982,25.855,4.982 M12.482,7.247h0.056c0.853,0,1.127-0.319,1.127-1.313
	c0-0.298-0.038-0.322-0.289-0.322H9.487c-0.224,0-0.257,0.035-0.277,0.171l-0.011,0.15c0,0.99,0.271,1.309,1.112,1.313h0.057v5.865
	c0,1.12,0,2.649-1.802,2.649c-1.667,0-1.8-1.202-1.8-2.649V7.247h0.056c0.839-0.006,1.11-0.323,1.11-1.313
	c0,0-0.011-0.184-0.011-0.187C7.9,5.642,7.86,5.61,7.645,5.61H3.76c-0.249,0-0.289,0.024-0.289,0.322
	c0,1.005,0.259,1.313,1.13,1.313h0.051v5.865c0,3.156,1.173,4.508,3.915,4.508c2.741,0,3.916-1.352,3.916-4.508L12.482,7.247
	 M21.502,15.719v-4.823c0-1.958-0.645-2.839-2.085-2.839c-1.285,0-1.998,0.753-2.552,1.322c-0.041-0.204-0.085-0.37-0.085-0.37
	c-0.089-0.395-0.158-0.635-0.413-0.635H14.18c-0.243,0-0.275,0.02-0.275,0.31c0,0.924,0.228,1.253,1.007,1.271
	c0.109,0.387,0.178,0.704,0.178,1.624v4.142c-0.822,0.005-1.077,0.306-1.077,1.273c0,0.289,0.041,0.313,0.284,0.313h2.6
	c0.16,0,0.168-0.023,0.168-0.195l0.001-6.469c0.236-0.245,0.777-0.782,1.474-0.782c0.985,0,0.985,1.123,0.985,1.605v5.646
	c0,0.172,0.004,0.195,0.169,0.195h2.596c0.235,0,0.278-0.023,0.278-0.313C22.568,16.043,22.303,15.727,21.502,15.719 M31.941,17.62
	c1.156,0,2.091-0.306,2.091-0.55c0-0.044-0.067-0.383-0.11-0.553c-0.158-0.67-0.219-0.92-1.445-0.767
	c-0.158,0.02-0.289-0.019-0.388-0.112c-0.241-0.238-0.241-0.767-0.241-1.188V9.958h1.1c0.843,0,1.099-0.296,1.099-1.272
	c0-0.291-0.036-0.309-0.282-0.309h-1.916V5.862c0-0.236-0.02-0.249-0.111-0.25c-0.086,0-0.489,0.055-0.693,0.082
	C30.479,5.79,29.87,6.226,29.87,7.237v1.142h-1.13c-0.243,0-0.277,0.019-0.277,0.309c0,0.978,0.254,1.272,1.092,1.272h0.314v4.183
	C29.871,15.849,29.871,17.62,31.941,17.62 M36.807,11.821l0.012-0.157c0.056-0.604,0.182-2.024,1.447-2.024
	c1.234,0,1.242,1.447,1.242,2.183L36.807,11.821L36.807,11.821z M41.548,13.001c0-3.275-1.091-4.943-3.237-4.943
	c-2.125,0-3.551,1.96-3.551,4.873c0,3.87,1.979,4.688,3.635,4.688c1.338,0,2.894-0.624,2.894-1.022c0-0.063-0.069-0.362-0.158-0.633
	c-0.063-0.198-0.176-0.401-0.741-0.372c-0.432,0.021-1.135,0.225-1.777,0.225c-1.236,0-1.867-0.772-1.871-2.42h4.49
	C41.491,13.396,41.548,13.332,41.548,13.001 M45.951,15.911c-1.204,0-1.443-1.104-1.443-3.02c0-2.027,0.252-3.123,1.543-3.123
	c0.516,0,0.893,0.111,1.318,0.389v5.072C47.113,15.528,46.749,15.911,45.951,15.911z M49.531,15.719
	c-0.108-0.35-0.178-0.715-0.178-1.597V5.22c0-0.173-0.015-0.196-0.177-0.196H46.57c-0.243,0-0.286,0.023-0.286,0.313
	c0,0.94,0.252,1.252,1.034,1.269l0.051,0.001V8.66l-0.16-0.109c-0.298-0.206-0.7-0.492-1.572-0.492
	c-2.033,0-3.111,1.783-3.111,5.147c0,2.845,0.981,4.414,2.768,4.414c1.412,0,2.347-1.035,2.347-1.035l0.111,0.386
	c0.084,0.302,0.096,0.336,0.341,0.336h2.291c0.239,0,0.281-0.023,0.281-0.313C50.665,16.035,50.412,15.719,49.531,15.719"/>
<path fill="#FFFFFF" d="M85.861,33.726c-0.639,0-1.162,0.515-1.162,1.176c0,0.658,0.523,1.175,1.162,1.175
	c0.635,0,1.166-0.517,1.166-1.175C87.027,34.24,86.496,33.726,85.861,33.726z M85.861,35.886c-0.521,0-0.937-0.438-0.937-0.984
	c0-0.555,0.413-0.981,0.937-0.981c0.519,0,0.938,0.43,0.938,0.981C86.8,35.45,86.38,35.886,85.861,35.886z M85.988,34.976
	c0.195,0,0.324-0.156,0.324-0.36c0-0.203-0.133-0.375-0.426-0.375h-0.4v1.313h0.215v-0.568c0.04,0.005,0.061,0.019,0.086,0.041
	c0.07,0.072,0.135,0.162,0.225,0.322l0.112,0.205h0.259l-0.191-0.313C86.121,35.128,86.036,35.001,85.988,34.976z M85.701,34.833
	v-0.416h0.119c0.191,0,0.267,0.067,0.267,0.201c0,0.065-0.022,0.121-0.062,0.157c-0.041,0.041-0.099,0.058-0.213,0.058H85.701z"/>
</svg>
