<?xml version="1.0" encoding="UTF-8"?>
<svg width="48px" height="48px" viewBox="0 0 48 48" version="1.1" xmlns="http://www.w3.org/2000/svg" xmlns:xlink="http://www.w3.org/1999/xlink">
    <!-- Generator: Sketch 52.1 (67048) - http://www.bohemiancoding.com/sketch -->
    <title>glass-feature-7</title>
    <desc>Created with Sketch.</desc>
    <g id="Glass-Walls" stroke="none" stroke-width="1" fill="none" fill-rule="evenodd">
        <g id="alur_web_glass_overview" transform="translate(-450.000000, -4492.000000)">
            <g id="values" transform="translate(-1.000000, 4076.000000)">
                <g id="Group-5" transform="translate(106.000000, 396.000000)">
                    <g id="feature_2" transform="translate(246.000000, 0.000000)">
                        <g id="Group-20" transform="translate(49.000000, 16.000000)">
                            <g id="glass-feature-7" transform="translate(46.000000, 0.000000)">
                                <g id="Page-1" transform="translate(4.000000, 4.000000)">
                                    <path d="M24,48 C21.479,48 18.992,47.609 16.609,46.84 L17.225,44.937 C19.408,45.643 21.687,46 24,46 C36.131,46 46,36.131 46,24 C46,11.869 36.131,2 24,2 C11.869,2 2,11.869 2,24 C2,28.501 3.35,32.828 5.903,36.514 L4.259,37.652 C1.473,33.631 0,28.91 0,24 C0,10.767 10.767,0 24,0 C37.233,0 48,10.767 48,24 C48,37.233 37.233,48 24,48" id="Fill-1" fill="#1E306E"></path>
                                    <path d="M34,17.5 C34,23.022 29.523,27.5 24,27.5 C18.478,27.5 14,23.022 14,17.5 L34,17.5 Z" id="Stroke-3" stroke="#1E306E" stroke-width="2"></path>
                                    <path d="M24,27.5 L24,36.5" id="Stroke-5" stroke="#1E306E" stroke-width="2"></path>
                                    <path d="M20,17.5 L20,11.5" id="Stroke-7" stroke="#1E306E" stroke-width="2"></path>
                                    <path d="M28,17.5 L28,11.5" id="Stroke-9" stroke="#1E306E" stroke-width="2"></path>
                                    <path d="M7.0947,39.499 C9.5287,39.499 11.5007,41.449 11.5007,43.905" id="Stroke-11" stroke="#1E306E" stroke-width="2"></path>
                                    <path d="M6.958,32.083 C13.562,32.083 18.917,37.437 18.917,44.042" id="Stroke-13" stroke="#1E306E" stroke-width="2"></path>
                                    <path d="M7.0283,35.7891 C11.5483,35.7891 15.2113,39.4521 15.2113,43.9721" id="Stroke-15" stroke="#1E306E" stroke-width="2"></path>
                                </g>
                            </g>
                        </g>
                    </g>
                </g>
            </g>
        </g>
    </g>
</svg>