<?xml version="1.0" encoding="UTF-8"?>
<svg width="56px" height="56px" viewBox="0 0 56 56" version="1.1" xmlns="http://www.w3.org/2000/svg" xmlns:xlink="http://www.w3.org/1999/xlink">
    <!-- Generator: Sketch 52.1 (67048) - http://www.bohemiancoding.com/sketch -->
    <title>glass-feature-3</title>
    <desc>Created with Sketch.</desc>
    <g id="Glass-Walls" stroke="none" stroke-width="1" fill="none" fill-rule="evenodd">
        <g id="alur_web_glass_overview" transform="translate(-693.000000, -4316.000000)" fill="#1E306E">
            <g id="values" transform="translate(-1.000000, 4076.000000)">
                <g id="Group-5" transform="translate(106.000000, 224.000000)">
                    <g id="feature_3" transform="translate(492.000000, 0.000000)">
                        <g id="Group-20" transform="translate(66.000000, 16.000000)">
                            <g id="glass-feature-3" transform="translate(29.000000, 0.000000)">
                                <g id="Page-1">
                                    <polygon id="Fill-1" points="29.5 56 31.5 56 31.5 0 29.5 0"></polygon>
                                    <polygon id="Fill-2" points="26.5 56 28.501 56 28.501 0 26.5 0"></polygon>
                                    <polygon id="Fill-3" points="31 19.917 57 19.917 57 17.917 31 17.917"></polygon>
                                    <polygon id="Fill-4" points="1 19.917 28 19.917 28 17.917 1 17.917"></polygon>
                                    <polygon id="Fill-5" points="31 37.917 57 37.917 57 35.917 31 35.917"></polygon>
                                    <polygon id="Fill-6" points="1 37.917 26.999 37.917 26.999 35.917 1 35.917"></polygon>
                                    <polygon id="Fill-7" points="3 11 23 11 23 9 3 9"></polygon>
                                    <polygon id="Fill-8" points="35 4 55 4 55 2 35 2"></polygon>
                                    <polygon id="Fill-9" points="31 9 51 9 51 7 31 7"></polygon>
                                    <polygon id="Fill-10" points="37 14 57 14 57 12 37 12"></polygon>
                                    <polygon id="Fill-11" points="13 7 23 7 23 5 13 5"></polygon>
                                    <polygon id="Fill-12" points="4 15 14 15 14 13 4 13"></polygon>
                                    <g id="Group-23" transform="translate(0.000000, 39.000000)">
                                        <g id="Group-15">
                                            <path d="M6.2075,11.0752 C4.9335,11.0752 3.6465,11.0552 2.3755,11.0252 C1.7855,11.0122 1.3145,11.0002 0.9995,11.0002 L0.9995,9.0002 C1.3255,9.0002 1.8115,9.0122 2.4225,9.0262 C6.0325,9.1102 17.0245,9.3722 19.5865,6.8712 C19.9575,6.5092 19.9995,6.2002 19.9995,6.0002 C19.9995,5.5512 19.8385,5.1832 19.4935,4.8462 C17.3145,2.7122 9.4765,2.8752 5.2655,2.9662 C4.4095,2.9832 3.6395,3.0002 2.9995,3.0002 L0.9995,3.0002 L0.9995,1.0002 L2.9995,1.0002 C3.6275,1.0002 4.3835,0.9842 5.2235,0.9662 C10.3565,0.8582 18.1125,0.6942 20.8925,3.4162 C21.6275,4.1362 21.9995,5.0052 21.9995,6.0002 C21.9995,6.8562 21.6485,7.6532 20.9835,8.3032 C18.6605,10.5712 12.5875,11.0752 6.2075,11.0752" id="Fill-13"></path>
                                        </g>
                                        <polygon id="Fill-16" points="1 7 15 7 15 5 1 5"></polygon>
                                        <polygon id="Fill-18" points="15 15 22 15 22 13 15 13"></polygon>
                                        <polygon id="Fill-19" points="31 4 50 4 50 2 31 2"></polygon>
                                        <polygon id="Fill-20" points="36 7 55 7 55 5 36 5"></polygon>
                                        <polygon id="Fill-21" points="34 10 43 10 43 8 34 8"></polygon>
                                        <polygon id="Fill-22" points="46 13 52 13 52 11 46 11"></polygon>
                                    </g>
                                </g>
                            </g>
                        </g>
                    </g>
                </g>
            </g>
        </g>
    </g>
</svg>