<?xml version="1.0" encoding="utf-8"?>
<!-- Generator: Adobe Illustrator 15.0.0, SVG Export Plug-In . SVG Version: 6.00 Build 0)  -->
<!DOCTYPE svg PUBLIC "-//W3C//DTD SVG 1.1//EN" "http://www.w3.org/Graphics/SVG/1.1/DTD/svg11.dtd">
<svg version="1.1" id="Layer_1" xmlns="http://www.w3.org/2000/svg" xmlns:xlink="http://www.w3.org/1999/xlink" x="0px" y="0px"
	 width="92px" height="29.978px" viewBox="0 0 92 29.978" enable-background="new 0 0 92 29.978" xml:space="preserve">
<path fill="#E40520" d="M19.987,0v9.993h9.992v9.992h-9.992v9.992H9.994v-9.992H0V9.993h9.994V0H19.987z"/>
<path d="M42.248,6.089l0.8,2.648h-1.617L42.248,6.089z M40.911,3.951l-2.874,7.51h2.554l0.329-1.043h2.618l0.331,1.043h2.554
	l-2.811-7.51H40.911 M52.878,6.854c-0.148-0.285-0.36-0.679-1.073-0.902c-0.341-0.107-0.65-0.128-0.842-0.128
	c-1.201,0-1.575,0.648-1.744,0.924V5.962h-2.097v5.51h2.191V8.471c0.01-0.188,0.01-0.412,0.212-0.616
	c0.15-0.149,0.373-0.223,0.598-0.223c0.265,0,0.639,0.118,0.735,0.543c0.019,0.107,0.03,0.212,0.03,0.32v2.977h2.19V8.525
	c0-0.243,0.012-0.893,0.811-0.893c0.754,0,0.764,0.595,0.764,0.947v2.882h2.191V7.985c-0.01-0.523-0.021-1.119-0.521-1.608
	c-0.362-0.36-0.936-0.554-1.53-0.554C53.537,5.823,53.04,6.492,52.878,6.854 M60.784,7.122c0.298,0,0.636,0.168,0.733,0.562
	c0.021,0.085,0.021,0.171,0.033,0.257h-1.597C60.006,7.696,60.121,7.122,60.784,7.122 M57.698,8.684c0,1.534,1,3.002,3.041,3.002
	c1.321,0,2.279-0.522,2.927-1.512l-1.809-0.755c-0.225,0.446-0.502,0.712-0.998,0.712c-0.408,0-0.607-0.2-0.663-0.254
	c-0.242-0.246-0.255-0.53-0.265-0.776h3.851c-0.021-0.841-0.032-1.756-0.84-2.552c-0.669-0.65-1.544-0.82-2.211-0.82
	C58.941,5.728,57.698,6.887,57.698,8.684 M66.688,6.43V5.917h-2.108v5.543h2.183V8.866c0.011-0.361,0.03-1.204,1.319-1.204
	c0.148,0,0.299,0.012,0.447,0.021v-1.85C67.687,5.833,67.281,5.897,66.688,6.43 M69.229,11.461h2.191v-5.51h-2.191V11.461z
	 M69.229,5.407h2.191V3.95h-2.191V5.407z M73.069,6.536c-0.457,0.466-0.786,1.214-0.786,2.128c0,1.777,1.118,3.011,2.937,3.011
	c1.277,0,1.987-0.565,2.296-0.884c0.277-0.275,0.395-0.509,0.533-0.808L76.38,9.067c-0.098,0.288-0.311,0.925-0.979,0.925
	c-0.861,0-0.947-0.83-0.947-1.265c0-0.83,0.33-1.488,1-1.488c0.521,0,0.786,0.348,0.927,0.839l1.669-0.946
	c-0.129-0.215-0.223-0.364-0.435-0.575c-0.842-0.852-1.895-0.863-2.269-0.863C74.933,5.694,73.837,5.739,73.069,6.536 M80.529,9.748
	c0-0.063,0.021-0.319,0.444-0.487c0.191-0.066,0.385-0.109,0.565-0.151c0.223-0.063,0.434-0.138,0.649-0.211
	c0,0.188,0,0.414-0.107,0.65c-0.19,0.422-0.702,0.625-1.011,0.625C80.656,10.174,80.529,9.898,80.529,9.748 M79.675,6.141
	c-0.784,0.417-0.902,1.001-0.989,1.47l2.054-0.054c0.076-0.383,0.214-0.51,0.717-0.51c0.625,0,0.732,0.254,0.742,0.627
	c-0.33,0.095-0.565,0.15-1.17,0.233c-0.97,0.126-1.566,0.213-2.065,0.725c-0.395,0.393-0.468,0.851-0.468,1.181
	c0,0.936,0.605,1.777,1.991,1.777c1.03,0,1.541-0.363,1.817-0.554v0.425h2.162c-0.161-0.222-0.195-0.319-0.195-0.68v-3
	c0-0.659,0-2.011-2.616-2.011C81.081,5.769,80.294,5.823,79.675,6.141 M87.43,6.685V5.951h-2.073v5.51h2.193V8.525
	c0-0.298,0.021-0.904,0.797-0.904c0.735,0,0.742,0.553,0.742,0.831v3.009h2.193V7.983c0-0.417-0.032-1.151-0.552-1.661
	c-0.182-0.17-0.618-0.511-1.491-0.511C88.028,5.812,87.612,6.43,87.43,6.685 M40.489,15.015h0.979c0.415,0,1.161,0.02,1.161,0.881
	c0,0.854-0.755,0.874-1.149,0.874h-0.99V15.015 M38.106,13.438v7.519h2.382V18.31h0.702l1.458,2.647h2.638l-1.828-3.029
	c0.353-0.137,0.668-0.254,0.968-0.574C44.966,16.8,45,16.13,45,15.844c0-0.723-0.301-1.745-1.299-2.17
	c-0.457-0.192-1.138-0.236-1.851-0.236H38.106 M48.331,16.621c0.295,0,0.637,0.168,0.732,0.563c0.022,0.085,0.022,0.17,0.033,0.256
	H47.5C47.553,17.193,47.67,16.621,48.331,16.621 M45.247,18.183c0,1.533,0.999,3.001,3.039,3.001c1.32,0,2.276-0.521,2.926-1.513
	l-1.808-0.755c-0.223,0.448-0.499,0.714-1,0.714c-0.403,0-0.606-0.202-0.658-0.255c-0.246-0.246-0.258-0.532-0.267-0.776h3.852
	c-0.021-0.841-0.031-1.755-0.843-2.554c-0.669-0.65-1.541-0.819-2.211-0.819C46.49,15.226,45.247,16.385,45.247,18.183
	 M54.288,19.28c-0.147-0.161-0.311-0.459-0.311-1.087c0-0.255,0.021-0.457,0.065-0.649c0.19-0.691,0.712-0.691,0.786-0.691
	c0.202,0,0.608,0.119,0.767,0.637c0.075,0.226,0.085,0.459,0.085,0.693c0,0.278,0,0.788-0.288,1.086
	c-0.148,0.148-0.349,0.244-0.552,0.244C54.628,19.513,54.427,19.428,54.288,19.28 M55.629,13.45v2.385
	c-0.224-0.206-0.575-0.546-1.404-0.546c-1.203,0-2.403,0.863-2.403,2.786c0,1.735,0.903,3.021,2.478,3.021
	c0.223,0,0.52-0.021,0.829-0.138s0.413-0.234,0.564-0.402v0.402h2.128V13.45H55.629 M61.339,17.247c0,1.928,1.215,3.945,3.896,3.945
	c1.076,0,2.147-0.351,2.914-1.104c0.362-0.361,0.543-0.703,0.733-1.064l-2.02-0.978c-0.088,0.253-0.416,1.231-1.523,1.231
	c-1.167,0-1.584-1.054-1.584-2.169c0-0.298,0-1.15,0.564-1.691c0.16-0.158,0.489-0.404,1.01-0.404c1.001,0,1.363,0.797,1.553,1.243
	l1.991-0.988c-0.159-0.297-0.31-0.554-0.629-0.883c-0.786-0.81-1.873-1.212-3.01-1.212C62.693,13.173,61.339,15.226,61.339,17.247
	 M71.522,15.93v-0.512h-2.107v5.541h2.183v-2.596c0.009-0.36,0.031-1.2,1.317-1.2c0.15,0,0.3,0.011,0.447,0.021v-1.852
	C72.521,15.332,72.118,15.395,71.522,15.93 M75.938,18.184c0-0.616,0.181-1.405,1.01-1.424c1.001-0.034,1.021,1.072,1.021,1.403
	c0,0.828-0.243,1.478-1.009,1.478C76.064,19.641,75.938,18.717,75.938,18.184 M73.755,18.247c0,1.479,0.917,2.926,3.142,2.926
	c2.081,0,3.285-1.222,3.285-2.956c0-0.872-0.341-1.703-0.862-2.204c-0.424-0.403-1.189-0.787-2.308-0.799c-0.008,0-0.015,0-0.024,0
	C74.972,15.215,73.755,16.445,73.755,18.247 M81.373,15.863c-0.33,0.321-0.551,0.768-0.551,1.256c0,1.169,1.011,1.469,1.52,1.617
	c0.5,0.149,0.957,0.224,1.148,0.255c0.223,0.034,0.556,0.087,0.556,0.362c0,0.243-0.312,0.341-0.578,0.341
	c-0.179,0-0.478-0.021-0.871-0.182c-0.424-0.182-0.628-0.362-0.83-0.563l-1.223,1.118c0.468,0.383,1.372,1.106,2.946,1.106
	c1.711,0,2.616-0.958,2.616-2.045c0-0.625-0.307-1.137-0.859-1.435c-0.266-0.14-0.501-0.191-1.48-0.413
	c-0.733-0.184-0.884-0.214-0.884-0.418c0-0.287,0.384-0.287,0.47-0.287c0.584,0,1.041,0.287,1.414,0.521l1.181-1.075
	c-0.308-0.232-0.628-0.467-1.384-0.646c-0.414-0.097-0.829-0.151-1.244-0.151C82.956,15.225,82.022,15.247,81.373,15.863
	 M87.268,15.863c-0.331,0.321-0.556,0.768-0.556,1.256c0,1.169,1.011,1.469,1.521,1.617c0.503,0.149,0.96,0.224,1.152,0.255
	c0.224,0.034,0.552,0.087,0.552,0.362c0,0.243-0.311,0.341-0.575,0.341c-0.181,0-0.479-0.021-0.869-0.182
	c-0.431-0.182-0.629-0.362-0.833-0.563l-1.225,1.118c0.471,0.383,1.374,1.106,2.95,1.106c1.712,0,2.614-0.958,2.614-2.045
	c0-0.625-0.307-1.137-0.86-1.435c-0.266-0.14-0.502-0.191-1.479-0.413c-0.734-0.184-0.881-0.214-0.881-0.418
	c0-0.287,0.383-0.287,0.466-0.287c0.585,0,1.042,0.287,1.416,0.521l1.181-1.075c-0.308-0.232-0.628-0.467-1.383-0.646
	c-0.417-0.097-0.832-0.151-1.242-0.151C88.853,15.225,87.916,15.247,87.268,15.863"/>
</svg>
