<?xml version="1.0" encoding="utf-8"?>
<!-- Generator: Adobe Illustrator 15.0.0, SVG Export Plug-In . SVG Version: 6.00 Build 0)  -->
<!DOCTYPE svg PUBLIC "-//W3C//DTD SVG 1.1//EN" "http://www.w3.org/Graphics/SVG/1.1/DTD/svg11.dtd">
<svg version="1.1" id="Layer_1" xmlns="http://www.w3.org/2000/svg" xmlns:xlink="http://www.w3.org/1999/xlink" x="0px" y="0px"
	 width="100px" height="16px" viewBox="0 0 100 16" enable-background="new 0 0 100 16" xml:space="preserve">
<path fill="#010000" d="M11.623,0v0.087l-0.001,12.49v0.087h-0.646v-0.087V0.087V0H11.623z M21.76,8.104
	c0,2.725-2.063,4.78-4.796,4.78c-1.327,0-2.545-0.487-3.431-1.374c-0.881-0.881-1.366-2.09-1.366-3.406
	c0.001-2.724,2.063-4.779,4.797-4.779c1.323,0,2.54,0.488,3.427,1.376C21.273,5.584,21.76,6.792,21.76,8.104z M19.922,11.085
	c0.769-0.77,1.191-1.827,1.191-2.981s-0.423-2.212-1.191-2.981c-0.765-0.765-1.815-1.186-2.958-1.186
	c-2.366,0-4.15,1.792-4.15,4.167c0,2.375,1.784,4.167,4.15,4.167C18.106,12.271,19.157,11.851,19.922,11.085z M10.468,8.104
	c0,2.725-2.063,4.78-4.796,4.78c-1.291,0-2.485-0.465-3.364-1.31c-0.858-0.824-1.361-1.96-1.423-3.206H0.876V8.282
	c0,0,0-0.177,0-0.178V0.345V0.257h0.646v0.087l-0.001,5.3c0.837-1.439,2.395-2.319,4.15-2.319c1.323,0,2.54,0.488,3.427,1.376
	C9.981,5.584,10.468,6.792,10.468,8.104z M8.63,11.085c0.769-0.77,1.192-1.827,1.192-2.981S9.398,5.892,8.63,5.123
	C7.865,4.358,6.814,3.938,5.672,3.938c-2.366,0-4.15,1.792-4.15,4.167c0,2.375,1.784,4.167,4.15,4.167
	C6.814,12.271,7.865,11.851,8.63,11.085z M70.592,8.104v0.177c0,0,0,0.087-0.003,0.087h-0.006c-0.062,1.246-0.564,2.381-1.423,3.206
	c-0.879,0.845-2.073,1.31-3.364,1.31c-2.734,0-4.796-2.055-4.796-4.78c0-1.312,0.485-2.52,1.369-3.403
	c0.887-0.888,2.104-1.376,3.427-1.376c1.756,0,3.313,0.88,4.15,2.319l-0.002-5.3V0.257h0.646v0.087
	C70.591,0.345,70.592,8.104,70.592,8.104z M69.946,8.104c0-2.375-1.785-4.167-4.15-4.167c-1.144,0-2.193,0.421-2.958,1.186
	c-0.77,0.769-1.191,1.827-1.191,2.981s0.422,2.211,1.191,2.981c0.765,0.766,1.814,1.187,2.958,1.187
	C68.162,12.271,69.946,10.479,69.946,8.104z M27.025,8.104c0,2.725-2.063,4.78-4.797,4.78c-1.326,0-2.545-0.487-3.431-1.374
	c-0.88-0.881-1.365-2.09-1.365-3.406c0.001-2.724,2.063-4.779,4.797-4.779c1.322,0,2.539,0.488,3.427,1.375
	C26.539,5.584,27.025,6.792,27.025,8.104z M25.188,11.085c0.768-0.77,1.191-1.827,1.191-2.981s-0.424-2.212-1.191-2.981
	c-0.765-0.765-1.815-1.186-2.958-1.186c-2.366,0-4.15,1.792-4.15,4.167c0,2.375,1.784,4.167,4.149,4.167
	C23.372,12.271,24.422,11.851,25.188,11.085z M42.07,0.284v0.087v1.984v0.087h-0.646V0.284H42.07z M41.424,3.463h0.646V3.55
	l-0.001,9.027v0.087h-0.646v-0.087l0.001-9.027V3.463z M81.474,0.26v0.087v12.23v0.087h0.646v-0.087V0.347V0.26H81.474z
	 M92.842,3.471v0.088v4.679v0.087h0.646V8.238l0.001-4.679V3.471H92.842z M80.716,8.103v0.001c0,0.008-0.001,4.473-0.001,4.473
	v0.087h-0.646v-0.087v-2.006c-0.833,1.434-2.392,2.313-4.149,2.313c-1.327,0-2.545-0.487-3.43-1.374
	c-0.881-0.881-1.366-2.09-1.366-3.406c0.001-2.724,2.063-4.779,4.796-4.779c2.658,0,4.702,1.972,4.79,4.601h0.007v0.087
	c0,0,0,0.083,0,0.084C80.716,8.098,80.716,8.099,80.716,8.103z M78.878,11.085c0.769-0.77,1.19-1.827,1.19-2.981
	s-0.422-2.212-1.19-2.981c-0.765-0.765-1.815-1.186-2.957-1.186c-2.367,0-4.151,1.792-4.151,4.167c0,2.375,1.784,4.167,4.149,4.167
	C77.062,12.271,78.113,11.851,78.878,11.085z M92.204,7.903v0.004l-0.017,0.253l-0.005,0.081h-8.903
	c0.08,2.803,2.46,4.045,4.146,4.03c1.664,0,3.061-0.866,3.735-2.313l0.025-0.052h0.71l-0.053,0.123
	c-0.782,1.804-2.441,2.871-4.435,2.854c-1.339,0-2.562-0.487-3.441-1.373c-0.87-0.873-1.35-2.076-1.354-3.388l0,0l-0.002-0.017l0,0
	c0-0.001,0-0.002,0-0.002h0.002c0.008-2.726,2.074-4.779,4.812-4.779c1.226,0,2.384,0.437,3.26,1.229
	c0.937,0.848,1.464,2.004,1.52,3.344V7.903z M90.216,5.006c-0.79-0.719-1.806-1.108-2.791-1.068c-2.194,0-3.949,1.581-4.123,3.691
	h8.233C91.465,6.66,90.988,5.708,90.216,5.006z M99.12,10.107c-0.103-1.929-1.433-2.29-2.606-2.607l-0.075-0.02
	c-1.216-0.341-1.845-0.707-1.894-1.76c-0.022-0.469,0.135-0.904,0.44-1.225c0.344-0.36,0.853-0.558,1.432-0.558
	c0.529-0.01,0.997,0.158,1.316,0.473c0.323,0.318,0.487,0.766,0.487,1.331v0.087h0.646V5.741c0-1.448-0.961-2.396-2.449-2.416
	c-1.506,0-2.518,0.964-2.519,2.399c0.052,1.578,1.06,1.988,2.477,2.396c1.479,0.327,2.066,0.905,2.098,2.063
	c0.016,0.571-0.183,1.101-0.56,1.488c-0.381,0.393-0.899,0.601-1.497,0.601c-1.332,0-2.191-0.854-2.191-2.176v-0.087h-0.643
	l-0.004,0.082c-0.046,0.728,0.186,1.382,0.668,1.895c0.536,0.57,1.327,0.898,2.17,0.898c0.778,0,1.489-0.3,2.001-0.843
	C98.912,11.518,99.161,10.832,99.12,10.107z M39.703,4.247c-0.585-0.611-1.395-0.921-2.405-0.921c-0.989,0-1.943,0.421-2.553,1.127
	c-0.238,0.271-0.419,0.572-0.547,0.896c-0.127-0.323-0.308-0.625-0.547-0.896c-0.608-0.706-1.563-1.127-2.552-1.127
	c-1.011,0-1.82,0.31-2.405,0.921c-0.67,0.684-1.009,1.8-1.009,3.317v5.013v0.087h0.625v-0.087V7.564
	c0-1.351,0.277-2.297,0.849-2.894c0.449-0.487,1.102-0.733,1.939-0.733c0.684,0,1.605,0.261,2.144,0.994
	c0.498,0.673,0.63,1.167,0.645,2.399c-0.001,0.087-0.001,0.161-0.003,0.231c0,0.002-0.001,5.015-0.001,5.015v0.087h0.631v-0.087
	V7.564c-0.003-0.095-0.003-0.183-0.003-0.258c0.016-1.214,0.147-1.702,0.644-2.374c0.539-0.733,1.461-0.994,2.144-0.994
	c0.838,0,1.491,0.246,1.939,0.731c0.571,0.598,0.849,1.544,0.849,2.895v5.013v0.087h0.626v-0.087V7.564
	C40.713,6.047,40.372,4.93,39.703,4.247z M49.121,4.243c-0.635-0.591-1.531-0.917-2.524-0.917c-0.98,0-1.902,0.334-2.526,0.917
	c-0.791,0.747-1.192,1.961-1.192,3.608l0.001,4.726v0.087h0.597v-0.087l-0.001-4.726c0-1.416,0.322-2.457,0.958-3.096
	c0.674-0.679,1.55-0.829,2.166-0.834c0.612,0.006,1.487,0.155,2.16,0.834c0.636,0.639,0.957,1.68,0.957,3.096v4.726v0.087h0.597
	v-0.087l0.001-4.726C50.313,6.204,49.912,4.99,49.121,4.243z M60.425,7.919v0.185c0,0-0.001,2.371-0.001,2.855h0.001v0.339
	c0,1.914-0.939,3.037-1.729,3.644c-0.999,0.767-2.153,1.041-2.898,1.041c-1.985,0-3.741-1.153-4.584-3.008l-0.055-0.123h0.675
	c0,0,0.048,0,0.048-0.001l0.025,0.041l0.083,0.136c0.225,0.375,0.604,1.005,1.161,1.43c0.726,0.579,1.665,0.912,2.578,0.912
	c2.119,0,4.049-1.759,4.049-3.688v-0.384h-0.001V11.21l0.001-0.639c-0.835,1.435-2.393,2.313-4.151,2.313
	c-2.734,0-4.796-2.055-4.796-4.78c0.001-2.724,2.063-4.779,4.797-4.779c2.654,0,4.698,1.969,4.79,4.594H60.425z M58.586,11.085
	c0.769-0.77,1.192-1.827,1.192-2.981s-0.424-2.212-1.192-2.981c-0.765-0.765-1.814-1.186-2.958-1.186
	c-2.365,0-4.15,1.792-4.15,4.167c0,2.375,1.785,4.167,4.149,4.167C56.771,12.271,57.821,11.851,58.586,11.085z"/>
</svg>
