<?xml version="1.0" encoding="utf-8"?>
<!-- Generator: Adobe Illustrator 15.0.0, SVG Export Plug-In . SVG Version: 6.00 Build 0)  -->
<!DOCTYPE svg PUBLIC "-//W3C//DTD SVG 1.1//EN" "http://www.w3.org/Graphics/SVG/1.1/DTD/svg11.dtd">
<svg version="1.1" id="Layer_1" xmlns="http://www.w3.org/2000/svg" xmlns:xlink="http://www.w3.org/1999/xlink" x="0px" y="0px"
	 width="100px" height="35.473px" viewBox="0 0 100 35.473" enable-background="new 0 0 100 35.473" xml:space="preserve">
<path fill="#FFFFFF" d="M0,0.589h23.225v34.667H0V0.589z"/>
<path fill-rule="evenodd" clip-rule="evenodd" fill="#1194D3" d="M0.001,0.589h23.225v18.546l-8.102-5.738L0.001,24.11V0.589"/>
<path fill-rule="evenodd" clip-rule="evenodd" fill="#66AB2F" d="M15.124,17.781l8.101,5.737v11.74H0v-6.764L15.124,17.781"/>
<path fill="#FFFFFF" d="M12.874,24.018h4.49v6.248h-4.49V24.018z"/>
<path fill-rule="evenodd" clip-rule="evenodd" fill="#12110C" d="M29.285,3.428c0-1.654,0.104-2.133-1.734-2.133
	c-0.266,0-0.837-0.029-0.837-0.375c0-0.265,0.215-0.343,0.454-0.343c0.852,0,1.652,0.102,2.505,0.102
	c3.041,0,6.083-0.102,9.151-0.102c0.532,0,0.428,0.533,0.428,0.93v1.868c0,0.212,0.133,1.042-0.267,1.042
	c-0.269,0-0.375-0.375-0.429-0.562c-0.72-2.532-2.321-2.559-4.692-2.559c-0.455,0-1.843,0-2.27,0.183
	c-0.399,0.188-0.347,0.935-0.347,1.282v3.788c0,1.253,0.24,1.253,1.334,1.253c0.801,0,2.188,0.025,3.229-0.106
	c0.665-0.081,0.798-1.067,0.933-1.842C36.771,5.692,36.849,5.4,37.091,5.4c0.132,0,0.294,0.055,0.294,0.267
	c-0.026,0.748-0.08,1.546-0.135,2.295c0.055,0.853,0.108,1.652,0.135,2.508c0,0.427-0.162,0.48-0.294,0.48
	c-0.242,0-0.319-0.294-0.347-0.454c-0.135-0.773-0.348-1.572-0.933-1.708c-1.042-0.24-2.429-0.24-3.229-0.24
	c-1.064,0-1.334,0-1.334,0.908v4.96c0,1.708-0.106,2.191,1.734,2.215c0.24,0,0.693-0.024,0.693,0.32
	c0,0.292-0.211,0.346-0.453,0.346c-1.015,0-1.975-0.107-2.986-0.107c-1.016,0-2.031,0.107-3.043,0.107
	c-0.236,0-0.452-0.054-0.452-0.346c0-0.345,0.571-0.32,0.81-0.32c1.866,0,1.734-0.534,1.734-2.215V3.428 M41.015,10.085
	L41.015,10.085v4.613c0,1.053,0.22,1.888-1.105,2.012c-0.27,0.023-0.687-0.025-0.687,0.342c0,0.197,0.174,0.245,0.345,0.245
	c0.76,0,1.545-0.098,2.33-0.098c0.737,0,1.522,0.098,2.308,0.098c0.173,0,0.296-0.073,0.296-0.271c0-0.316-0.443-0.293-0.69-0.316
	c-1.321-0.124-1.102-0.958-1.102-2.012V10.82c0-0.981-0.026-1.621,0.563-2.457c0.293-0.368,0.713-0.88,1.253-0.88
	c0.685,0,0.734,0.93,1.569,0.93c0.588,0,1.03-0.369,1.03-0.979c0-0.74-0.662-1.179-1.401-1.179c-1.691,0-2.647,1.962-2.893,1.962
	c-0.173,0-0.122-0.417-0.122-0.514V6.499c0-0.168,0.026-0.391-0.22-0.391c-0.196,0-0.322,0.197-0.441,0.318
	c-0.394,0.468-1.45,1.103-2.039,1.277c-0.219,0.075-0.564,0.122-0.564,0.417c0,0.149,0.146,0.198,0.292,0.198h0.318
	c0.197,0,0.567,0.024,0.715,0.195C41.04,8.782,41.015,9.74,41.015,10.085 M49.714,10.523L49.714,10.523l7.433,0
	c0.247,0,0.296-0.219,0.296-0.416c0-0.81-0.368-1.869-0.861-2.479c-0.854-1.056-2.205-1.521-3.528-1.521
	c-1.671,0-3.193,0.563-4.42,1.647c-1.301,1.127-1.767,2.428-1.767,4.096c0,3.067,2.38,5.644,5.596,5.644
	c1.521,0,2.724-0.394,3.876-1.374c0.172-0.15,0.957-0.809,0.957-1.105c0-0.098-0.074-0.193-0.195-0.193
	c-0.318,0-1.227,1.594-3.634,1.594c-2.969,0-4.76-2.381-4.76-5.129C48.706,10.48,48.951,10.523,49.714,10.523 M49.737,9.937
	c-0.272,0-0.833,0.071-0.833-0.319c0-0.394,0.39-1.023,0.612-1.292c0.735-1.032,1.938-1.631,3.19-1.631
	c0.784,0,1.595,0.049,2.135,0.614c0.344,0.37,0.64,0.93,0.64,1.445c0,0.593-0.371,0.863-0.91,0.984
	c-0.71,0.174-2.086,0.198-2.847,0.198H49.737z M92.27,10.523L92.27,10.523l7.435,0c0.244,0,0.296-0.219,0.296-0.416
	c0-0.81-0.369-1.869-0.863-2.479c-0.852-1.056-2.205-1.521-3.528-1.521c-1.671,0-3.191,0.563-4.42,1.647
	c-1.299,1.127-1.767,2.428-1.767,4.096c0,3.067,2.381,5.644,5.596,5.644c1.522,0,2.727-0.394,3.878-1.374
	c0.171-0.15,0.956-0.809,0.956-1.105c0-0.098-0.07-0.193-0.196-0.193c-0.317,0-1.226,1.594-3.633,1.594
	c-2.971,0-4.761-2.381-4.761-5.129C91.262,10.48,91.509,10.523,92.27,10.523 M92.294,9.937c-0.271,0-0.833,0.071-0.833-0.319
	c0-0.394,0.392-1.023,0.611-1.292c0.736-1.032,1.939-1.631,3.191-1.631c0.783,0,1.594,0.049,2.135,0.614
	c0.346,0.37,0.638,0.93,0.638,1.445c0,0.593-0.367,0.863-0.909,0.984c-0.711,0.174-2.085,0.198-2.847,0.198H92.294z M87.821,14.697
	L87.821,14.697V6.499c0-0.169,0.023-0.392-0.219-0.392c-0.197,0-0.32,0.196-0.442,0.318c-0.394,0.469-1.448,1.104-2.037,1.277
	c-0.221,0.076-0.567,0.123-0.567,0.417c0,0.149,0.151,0.198,0.299,0.198h0.318c0.195,0,0.563,0.024,0.711,0.195
	c0.271,0.269,0.244,1.226,0.244,1.571v4.612c0,1.055,0.224,1.89-1.104,2.012c-0.268,0.023-0.687-0.025-0.687,0.343
	c0,0.197,0.173,0.245,0.346,0.245c0.761,0,1.543-0.099,2.33-0.099c0.735,0,1.52,0.099,2.312,0.099c0.169,0,0.286-0.073,0.286-0.271
	c0-0.316-0.439-0.293-0.684-0.316C87.603,16.586,87.821,15.752,87.821,14.697 M86.963,3.972c0.713,0,1.077-0.563,1.077-1.228
	c0-0.587-0.39-1.178-1.027-1.178c-0.662,0-1.108,0.591-1.108,1.228C85.904,3.433,86.303,3.972,86.963,3.972z M36.399,31.797
	l-4.468-11.193c-0.148-0.393-0.174-0.711-0.638-0.711h-2.846c-0.272,0-0.712-0.123-0.712,0.271c0,0.344,0.342,0.391,0.589,0.391
	c1.323,0,1.334,0.07,1.314,1.398v10.873c-0.072,1.203-0.154,1.842-1.529,1.842c-0.219,0-0.64,0.023-0.64,0.318
	c0,0.244,0.174,0.293,0.393,0.293c0.712,0,1.449-0.096,2.187-0.096c0.733,0,1.471,0.096,2.206,0.096c0.223,0,0.541,0,0.541-0.293
	c0-0.344-0.517-0.318-0.761-0.318c-1.742,0-1.612-1.211-1.634-2.75V21.807h0.156l4.835,12.445c0.048,0.168,0.122,0.461,0.367,0.461
	c0.218,0,0.293-0.268,0.368-0.439l5.448-12.762h0.171v11.117c0,0.443,0.05,1.348-0.366,1.695c-0.271,0.217-0.787,0.344-1.154,0.344
	c-0.245,0-0.765-0.053-0.765,0.318c0,0.27,0.272,0.293,0.468,0.293c0.959,0,1.942-0.096,2.924-0.096
	c0.785,0,1.567,0.096,2.355,0.096c0.193,0,0.463-0.023,0.463-0.293c0-0.371-0.515-0.318-0.76-0.318
	c-0.345,0-0.713-0.025-0.955-0.322c-0.297-0.342-0.272-1.324-0.272-1.717V22.493c0-0.443-0.096-1.396,0.199-1.74
	c0.22-0.27,0.76-0.197,1.078-0.197c0.247,0,0.589-0.047,0.589-0.391c0-0.393-0.443-0.27-0.712-0.27h-2.725
	c-0.268,0-0.515,0-0.663,0.316L36.399,31.797 M51.848,29.215l-1.892,0.887c-1.346,0.662-3.629,1.695-3.629,3.438
	c0,1.225,1.152,1.938,2.308,1.938c2.134,0,3.729-1.865,3.95-1.865c0.345,0,0.465,1.717,1.668,1.717c0.638,0,1.254-0.367,1.743-0.713
	c0.172-0.143,0.589-0.488,0.589-0.76c0-0.098-0.074-0.193-0.169-0.193c-0.224,0-0.492,0.611-1.108,0.611
	c-0.882,0-0.858-1.422-0.858-1.963V26.52c0-0.662,0.099-1.303-0.488-1.795c-0.564-0.512-1.475-0.635-2.236-0.635
	c-1.567,0-3.237,0.66-4.39,1.691c-0.47,0.395-1.032,1.104-1.032,1.742c0,0.248,0.123,0.297,0.317,0.297
	c0.297,0,0.81-0.199,1.06-0.318c0.392-0.174,0.513-0.518,0.685-0.883c0.562-1.256,1.325-1.926,2.824-1.926
	c1.521,0,1.567,0.867,1.567,2.068v1.084C52.756,28.778,52.731,28.803,51.848,29.215 M52.316,29.463
	c0.074-0.023,0.198-0.098,0.269-0.098c0.246,0,0.171,0.59,0.171,0.686v1.473c0,0.813-0.024,1.178-0.612,1.791
	c-0.59,0.588-1.423,0.982-2.282,0.982c-0.909,0-1.694-0.441-1.694-1.398c0-1.178,0.958-1.816,1.914-2.305L52.316,29.463z
	 M65.5,27.231c0.442,0,0.293-1.055,0.293-1.252c0-0.318,0.123-0.857-0.194-1.08c-0.786-0.539-2.086-0.809-3.021-0.809
	c-3.287,0-6.379,2.6-6.379,5.916c0,2.967,2.478,5.471,5.498,5.471c1.326,0,2.553-0.393,3.558-1.205
	c0.172-0.145,0.736-0.635,0.736-0.879c0-0.1-0.074-0.199-0.174-0.199c-0.12,0-0.294,0.225-0.363,0.295
	c-0.765,0.736-1.771,1.082-2.823,1.082c-2.752,0-4.589-2.555-4.589-5.057c0-1.498,0.635-2.992,1.77-3.977
	c0.634-0.539,1.617-0.963,2.478-0.963C64.273,24.575,64.712,27.231,65.5,27.231 M71.387,15.776c0.096,0,0.168,0.1,0.167,0.198
	c0,0.271-0.417,0.615-0.587,0.759c-0.491,0.345-1.108,0.711-1.742,0.711c-0.57,0-0.875-0.148-1.1-0.79
	c-0.058-0.143-0.229-0.803-0.498-0.803c-0.369,0-1.791,1.643-3.779,1.643c-3.116,0-5.301-2.725-5.301-5.668
	c0-1.548,0.615-2.897,1.72-3.953c1.103-1.053,2.198-1.707,4.193-1.766c0.909-0.028,1.816,0.196,2.624,0.513
	c0.126,0.049,0.348,0.147,0.467,0.147c0.297,0,0.198-0.76,0.198-0.907V3.528c0-0.906,0.222-1.983-0.954-1.983
	c-0.226,0-0.642,0.071-0.642-0.248c0-0.173,0.2-0.244,0.346-0.271c0.688-0.121,1.62-0.366,2.208-0.759
	C68.826,0.168,69.052,0,69.221,0c0.249,0,0.221,0.193,0.221,0.388v14.528c0,0.271,0.052,1.474,0.835,1.474
	C70.892,16.39,71.165,15.776,71.387,15.776 M67.749,14.058v-4.44c0-0.763,0.05-1.582-0.589-2.173
	c-0.591-0.564-1.719-0.86-2.525-0.786c-2.674,0.245-4.271,2.343-4.271,4.798c0,2.455,1.522,4.981,4.245,4.981
	c1.006,0,2.208-0.344,2.893-1.155C67.823,14.891,67.749,14.549,67.749,14.058z M83.823,15.776c0.096,0,0.166,0.1,0.166,0.198
	c0,0.271-0.413,0.615-0.587,0.759c-0.49,0.345-1.106,0.711-1.744,0.711c-0.568,0-0.873-0.148-1.098-0.79
	c-0.058-0.143-0.229-0.803-0.498-0.803c-0.368,0-1.792,1.643-3.779,1.643c-3.117,0-5.301-2.725-5.301-5.668
	c0-1.548,0.615-2.897,1.72-3.953c1.104-1.053,2.2-1.707,4.194-1.766c0.907-0.028,1.816,0.196,2.625,0.513
	c0.125,0.049,0.345,0.147,0.466,0.147c0.297,0,0.199-0.76,0.199-0.907V3.528c0-0.906,0.219-1.983-0.958-1.983
	c-0.222,0-0.64,0.071-0.64-0.248c0-0.173,0.199-0.244,0.346-0.271c0.687-0.121,1.619-0.366,2.208-0.759
	C81.265,0.168,81.485,0,81.657,0c0.246,0,0.223,0.193,0.223,0.388v14.528c0,0.271,0.051,1.474,0.833,1.474
	C83.33,16.39,83.599,15.776,83.823,15.776 M80.187,14.058v-4.44c0-0.763,0.047-1.582-0.589-2.173
	c-0.591-0.564-1.718-0.86-2.529-0.786c-2.673,0.245-4.268,2.343-4.268,4.798c0,2.455,1.521,4.981,4.245,4.981
	c1.005,0,2.207-0.344,2.894-1.155C80.26,14.891,80.187,14.549,80.187,14.058z"/>
</svg>
