<?xml version="1.0" encoding="utf-8"?>
<!-- Generator: Adobe Illustrator 15.0.0, SVG Export Plug-In . SVG Version: 6.00 Build 0)  -->
<!DOCTYPE svg PUBLIC "-//W3C//DTD SVG 1.1//EN" "http://www.w3.org/Graphics/SVG/1.1/DTD/svg11.dtd">
<svg version="1.1" id="Layer_1" xmlns="http://www.w3.org/2000/svg" xmlns:xlink="http://www.w3.org/1999/xlink" x="0px" y="0px"
	 width="101px" height="41.167px" viewBox="1199.5 1199.5 101 41.167" enable-background="new 1199.5 1199.5 101 41.167"
	 xml:space="preserve">
<path fill="#7793C0" d="M1293.27,1218.743h-3.965v-15.627h3.732v1.75c0.467-1.05,1.63-1.983,3.146-2.099
	c2.566-0.117,4.316,1.4,4.316,4.665v11.312h-4.082v-11.777c0-1.4,0-2.565-0.933-2.799c-0.352-0.116-0.935,0-1.402,0.349
	c-0.581,0.583-0.815,1.283-0.815,2.45L1293.27,1218.743L1293.27,1218.743z M1225.862,1204.166c-0.933-0.816-2.099-1.4-3.499-1.4
	c-1.399,0-2.449,0.584-3.499,1.4c-1.632,1.399-2.683,3.965-2.683,6.763c0,2.916,1.05,5.364,2.683,6.764
	c1.05,0.816,2.099,1.399,3.499,1.399c1.4,0,2.566-0.583,3.499-1.399c1.75-1.4,2.682-3.849,2.682-6.764
	C1228.544,1208.131,1227.612,1205.565,1225.862,1204.166L1225.862,1204.166z M1224.346,1210.929c0,2.916,0,5.249-0.466,6.414
	c-0.351,0.583-0.7,0.933-1.517,0.933c-0.7,0-1.167-0.35-1.399-0.933c-0.583-1.166-0.583-3.499-0.583-6.414
	c0-2.798,0-5.249,0.583-6.414c0.233-0.583,0.7-0.933,1.399-0.933c0.816,0,1.166,0.35,1.517,0.933
	C1224.463,1205.681,1224.346,1208.131,1224.346,1210.929z M1266.563,1224.691v4.198h-0.815c-0.469-1.749-1.167-3.265-3.034-3.382
	c-1.165-0.116-2.217,0.584-2.332,1.633c-0.117,1.05,0.234,1.982,2.332,3.148c2.683,1.517,4.781,2.216,4.781,5.364
	c0,3.382-2.914,5.015-5.363,5.015h-4.664v-5.832h0.815c0.583,3.033,1.516,4.898,3.731,5.015c1.399,0,2.449-0.816,2.449-2.333
	c0-1.517-0.935-2.449-3.149-3.732c-2.448-1.517-3.966-2.449-3.966-4.548c0-2.799,1.984-4.548,5.133-4.548
	C1263.529,1224.691,1266.563,1224.691,1266.563,1224.691L1266.563,1224.691z M1271.694,1218.743v-11.313
	c0-3.265-1.75-4.782-4.314-4.665c-1.749,0.116-2.799,1.284-3.268,2.215c-0.583-1.631-1.865-2.333-3.732-2.215
	c-1.514,0.116-2.681,1.05-3.146,2.099v-1.75h-3.618v15.627h3.968v-11.778c0-1.167,0.116-1.866,0.815-2.45
	c0.468-0.349,0.935-0.465,1.284-0.349c0.934,0.233,0.934,1.399,0.934,2.799v11.778h3.965v-11.895c0-1.051,0.232-1.75,0.815-2.333
	c0.469-0.349,0.933-0.465,1.284-0.349c0.932,0.233,1.049,1.399,1.049,2.799v11.778H1271.694L1271.694,1218.743z M1231.227,1199.852
	h4.082v18.892h-4.082V1199.852z M1249.77,1218.743v-18.892h-4.082v4.431c-0.35-0.816-1.166-1.4-2.332-1.4
	c-2.916,0-5.249,3.032-5.364,7.697c-0.116,3.149,0.933,8.396,5.015,8.396c1.633,0,2.565-0.932,2.916-1.748v1.516L1249.77,1218.743
	L1249.77,1218.743L1249.77,1218.743z M1244.988,1204.399c0.816,1.166,0.816,3.964,0.816,6.18c0,2.333,0.117,5.364-0.816,6.648
	c-0.349,0.466-0.7,0.699-1.284,0.699c-0.815,0-1.282-0.933-1.516-2.449c-0.117-1.4-0.117-3.149-0.117-5.015
	c0-3.148,0.233-6.647,1.75-6.647C1244.404,1203.816,1244.639,1204.05,1244.988,1204.399z M1283.822,1203.582
	c1.052,0.584,1.75,1.517,1.75,3.616v11.545h-3.852v-1.749c-0.465,1.283-1.746,2.099-3.496,2.099c-1.401,0-3.85-0.699-3.85-4.314
	c0-3.382,2.219-4.083,4.665-5.131c2.214-0.933,2.448-1.05,2.448-1.982v-2.566c0-1.049-0.584-1.516-1.747-1.516
	c-0.469,0.116-1.284,0.35-1.284,0.933c-0.117,0.7,0.7,0.7,0.815,1.75c0.119,1.633-1.165,2.216-2.332,2.1
	c-0.815,0-1.75-0.466-1.865-1.749c-0.117-2.1,2.215-3.849,5.481-3.849C1282.073,1202.766,1283.004,1203.116,1283.822,1203.582
	L1283.822,1203.582z M1281.49,1209.413l-1.283,0.817c-1.282,0.816-1.516,1.864-1.631,3.031c-0.117,0.932-0.117,1.749,0,3.148
	c0.115,1.283,0.933,1.517,1.631,1.283c0.816-0.35,1.283-1.866,1.283-3.5V1209.413L1281.49,1209.413z M1226.096,1225.391
	c1.049,0.7,1.632,1.516,1.632,3.614v11.663h-3.731v-1.748c-0.468,1.166-1.75,1.981-3.5,1.981c-1.517,0-3.849-0.583-3.849-4.198
	c0-3.382,2.216-4.082,4.548-5.13c2.332-1.05,2.566-1.167,2.566-1.983v-2.565c0-1.167-0.583-1.632-1.75-1.517
	c-0.467,0-1.282,0.233-1.282,0.816c-0.116,0.816,0.699,0.816,0.815,1.866c0.117,1.516-1.166,2.099-2.331,2.099
	c-0.817-0.117-1.75-0.583-1.866-1.865c-0.117-1.984,2.215-3.732,5.48-3.732C1224.346,1224.691,1225.279,1224.924,1226.096,1225.391
	L1226.096,1225.391z M1223.764,1231.222l-1.284,0.817c-1.283,0.815-1.516,1.865-1.632,3.032c-0.116,0.932-0.116,1.865,0,3.148
	c0,1.399,0.816,1.632,1.516,1.282c0.934-0.351,1.4-1.75,1.4-3.499V1231.222z M1254.318,1229.355c0-3.265-1.75-4.898-4.316-4.664
	c-1.282,0.116-2.332,0.699-2.916,1.516v-4.547h-3.965v10.729c0,3.965-2.798,7.697-5.598,7.581c-1.982,0-2.449-1.516-2.683-3.149
	c-0.349-2.333-0.349-5.015-0.117-7.93c0.234-1.866,0.7-3.382,2.101-3.382c1.049,0,1.167,0.701,0.699,1.167
	c-0.467,0.583-1.166,1.167-0.816,2.448c0.35,1.401,2.566,1.634,3.616,0.584c0.816-0.933,0.7-2.449,0.116-3.382
	c-0.7-1.166-1.866-1.632-3.614-1.632c-2.216,0-6.415,1.982-6.415,8.279c0,6.764,4.314,7.93,6.765,7.93
	c2.798,0,5.248-2.448,5.947-4.432v4.199h3.965v-11.781c0-1.164,0.233-1.864,0.816-2.448c0.467-0.349,1.05-0.466,1.4-0.349
	c0.934,0.232,0.934,1.399,0.934,2.797v11.78h4.083V1229.355L1254.318,1229.355L1254.318,1229.355z M1213.5,1199.5v6.648h-0.816
	c-0.7-3.266-2.216-5.715-4.315-5.831c-1.399-0.117-2.216,0.699-2.915,1.865c-0.699,1.399-1.05,4.315-1.05,7.813
	c0,3.266,0.116,5.714,0.467,7.464c0.232,0.816,0.816,2.099,2.333,2.099c0.816,0,1.398-0.233,1.75-0.699
	c0.583-0.7,0.699-2.1,0.699-3.032v-3.148c0-1.166-0.35-1.866-0.933-2.215c-0.466-0.234-1.167-0.234-1.516-0.351v-0.816h6.53v16.676
	h-0.816c-0.35-1.282-0.583-2.215-1.167-3.265c-0.582-1.049-1.632-2.215-3.381-2.215c-1.866-0.117-3.266,1.05-3.266,2.797
	c0,2.333,1.4,2.916,3.966,4.315c2.449,1.399,5.597,2.566,5.597,6.648c0,3.965-3.382,6.414-7.23,6.414h-6.181v-8.048h0.817
	c1.049,6.064,3.615,7.114,5.365,7.114c2.215,0,3.265-1.399,3.265-3.382c-0.116-2.565-1.866-3.498-4.315-4.78
	c-3.498-1.983-5.131-2.917-5.131-6.181c0.116-2.799,2.333-4.548,4.781-5.248c-5.131-0.583-6.647-5.247-6.53-10.263
	c0-5.014,2.915-10.379,8.629-10.379L1213.5,1199.5L1213.5,1199.5z"/>
</svg>
