<?xml version="1.0" encoding="utf-8"?>
<!-- Generator: Adobe Illustrator 15.0.0, SVG Export Plug-In . SVG Version: 6.00 Build 0)  -->
<!DOCTYPE svg PUBLIC "-//W3C//DTD SVG 1.1//EN" "http://www.w3.org/Graphics/SVG/1.1/DTD/svg11.dtd">
<svg version="1.1" id="Layer_1" xmlns="http://www.w3.org/2000/svg" xmlns:xlink="http://www.w3.org/1999/xlink" x="0px" y="0px"
	 width="50px" height="44px" viewBox="0 0 50 44" enable-background="new 0 0 50 44" xml:space="preserve">
<path fill="#F36F21" d="M31.26,0.157C21.35,0.157,0,2.285,0,18.506c0,11.023,10.835,25.383,22.816,25.383
	c3.877,0,7.194-1.4,10.297-3.723c7.408-5.611,16.802-18.187,16.802-27.958C49.915,4.891,44.852,0.158,31.26,0.157"/>
<path fill="#FFFFFF" d="M13.183,31.77c-4.052,0.442-7.212-2.291-3.466-4.396c0.859,0.068,1.526,0.161,2.915,0.217
	c2.72,0.11,3.577,0.74,3.79,1.506C16.746,30.246,15.794,31.484,13.183,31.77 M7.956,17.54c0-1.842,1.113-3.097,2.966-3.097
	c2.116,0,3.255,1.607,3.255,3.626c0,1.844-0.982,3.156-2.879,3.156C9.136,21.225,7.956,19.608,7.956,17.54 M16.706,26.109
	c-1.266-0.594-3.153-0.637-6.237-0.883c-1.434-0.115-1.72-0.541-1.72-1.125c0-0.351,0.175-0.746,0.55-1.055
	c0.25-0.21,0.574-0.37,0.936-0.441c0.37,0.045,0.691,0.059,0.985,0.059c3.44,0,5.382-2.11,5.382-4.625
	c0-1.08-0.399-2.201-1.103-3.012c0.75,0,2.16,0.09,2.601,0.181V13.41c-0.792,0.227-1.763,0.271-2.601,0.271
	c-0.705,0-1.366-0.136-1.986-0.315c-0.75-0.225-1.628-0.404-2.376-0.404c-3.457,0-5.591,2.16-5.591,4.952
	c0,1.923,1.219,3.628,2.984,4.302c-1.324,0.632-2.03,1.528-2.03,2.562c0,1.013,0.7,2.061,2.07,2.438
	c-1.987,0.883-3.84,2.475-2.458,4.332c2.028,2.727,9.187,2.436,11.415-0.4C19.272,28.923,18.087,26.756,16.706,26.109
	 M25.008,19.476c-1.762-0.898-3.44-1.71-3.44-3.145c0-1.213,1.277-1.753,2.604-1.753c1.367,0,2.645,0.494,3.706,1.349v-2.021
	c-1.104-0.63-2.383-0.944-3.663-0.944c-2.38,0-5.028,1.213-5.028,3.999c0,2.293,1.985,3.28,3.837,4.178
	c1.677,0.807,3.222,1.526,3.222,3.009c0,1.479-1.545,1.795-2.78,1.795c-1.146,0-2.955-0.494-4.41-1.301v2.065
	c1.411,0.586,2.778,0.899,4.323,0.899c2.471,0,5.426-1.034,5.426-4.045C28.805,21.498,26.863,20.422,25.008,19.476 M43.061,26.751
	c-0.748,0-1.779-0.199-3.412-1.995c-2.117-2.382-4.572-5.416-4.572-5.416l3.752-3.594c2.204-2.11,2.822-2.244,2.998-2.29h-3.484
	c-0.705,0.944-1.5,1.662-1.5,1.662l-4.014,3.822V6.898l-3.045,0.806c0.398,0.54,0.529,1.44,0.529,3.462v12.443
	c0,2.514-0.131,2.785-0.396,3.504h3.265c-0.221-0.584-0.354-0.99-0.354-3.504v-3.595c0,0,1.811,2.202,4.059,4.944
	c1.411,1.703,2.559,2.47,3.926,2.47c1.058,0,2.029-0.27,2.689-0.767c-0.132,0.047-0.309,0.09-0.439,0.09"/>
</svg>
