<?xml version="1.0" encoding="utf-8"?>
<!-- Generator: Adobe Illustrator 15.0.0, SVG Export Plug-In . SVG Version: 6.00 Build 0)  -->
<!DOCTYPE svg PUBLIC "-//W3C//DTD SVG 1.1//EN" "http://www.w3.org/Graphics/SVG/1.1/DTD/svg11.dtd">
<svg version="1.1"
	 id="Logo" xmlns:dc="http://purl.org/dc/elements/1.1/" xmlns:rdf="http://www.w3.org/1999/02/22-rdf-syntax-ns#" xmlns:svg="http://www.w3.org/2000/svg" xmlns:cc="http://creativecommons.org/ns#"
	 xmlns="http://www.w3.org/2000/svg" xmlns:xlink="http://www.w3.org/1999/xlink" x="0px" y="0px" width="77px" height="28px"
	 viewBox="111.5 40.969 77 28" enable-background="new 111.5 40.969 77 28" xml:space="preserve">
<path id="UBS" fill="#E60000" d="M156.536,57.764c0,5.743-3.131,6.433-6.263,6.433c-5.384,0-6.53-2.759-6.53-6.701V46.374h-1.987
	v-1.071h7.524v1.071h-2.139v10.797c0,3.81,0.994,5.705,3.724,5.705c2.787,0,4.145-1.379,4.145-5.341V46.374h-2.006v-1.071h5.348
	v1.071h-1.815V57.764L156.536,57.764z M161.802,62.914v-16.54h-2.095v-1.071h8.345c3.553,0,5.309,2.01,5.309,4.364
	c0,2.508-2.273,3.924-4.297,4.346c3.935,0.364,5.003,2.891,5.003,4.749c0,3.789-3.227,5.225-6.398,5.225h-8.096v-1.072H161.802
	L161.802,62.914z M169.961,49.878c0-1.742-0.897-3.504-2.864-3.504h-2.169v7.179h1.938
	C168.948,53.553,169.961,51.791,169.961,49.878z M170.629,58.761c0-2.491-1.067-4.156-3.57-4.156h-2.131v8.308h1.73
	C169.313,62.914,170.629,61.344,170.629,58.761L170.629,58.761z M182.393,46.125c-1.967,0-3.227,1.168-3.227,3.197
	c0,1.836,1.986,2.718,3.914,3.369c1.146,0.403,2.596,0.938,3.59,1.895c1.088,1.035,1.68,2.412,1.644,4.155
	c-0.077,3.255-2.35,5.456-6.359,5.475c-1.51,0-3.859-0.344-5.271-1.168l-0.153-4.899h1.186c0.095,3.29,1.641,5.016,4.353,5.016
	c2.177,0,3.382-1.455,3.382-3.677c0-1.914-1.587-2.737-3.993-3.542c-0.784-0.269-2.328-0.841-3.418-1.914
	c-0.973-0.976-1.432-2.201-1.432-3.503c0-3.809,2.711-5.456,6.073-5.456c1.336,0,3.342,0.479,4.506,1.148l0.114,4.25h-1.183
	C185.867,47.447,184.55,46.125,182.393,46.125L182.393,46.125z"/>
<path id="Key" d="M132.358,49.083l-0.498,0.416l0.526,1.719l-1.577-0.859l-0.525,0.415l1.742,0.942l-1.853,1.498l-0.498-0.666
	l0.664-0.526l-0.498-0.583l-0.664,0.527l-0.497-0.638l0.664-0.526l-0.497-0.638l-3.401,2.828l3.235,2.606l0.581-0.721
	c0.415,0.028,0.719,0.333,0.885,0.721l-0.581,0.721l0.359,0.276c0.802-0.721,1.853-1.191,2.931-1.191
	c2.267,0,4.037,1.856,4.037,4.13c0,0.747-0.193,1.553-0.608,2.217l0.608,0.471c-0.028,0.443-0.442,0.915-0.857,1.025l-0.581-0.472
	c-0.801,0.777-1.853,1.193-2.958,1.193c-2.268,0-4.037-1.802-4.037-4.103c0-0.748,0.221-1.525,0.553-2.162l-0.333-0.306l-0.58,0.776
	c-0.415-0.055-0.774-0.333-0.885-0.776l0.58-0.692l-2.737-2.273v3.603l0.913,0.028c0.11,0.14,0.194,0.333,0.194,0.555
	c0,0.193-0.083,0.416-0.166,0.582h-0.94v0.444c1.991,0.333,3.65,2.023,3.65,4.074c0,2.133-1.631,3.825-3.65,4.158v0.722
	c-0.193,0.108-0.442,0.192-0.663,0.192c-0.249,0-0.526-0.084-0.747-0.192v-0.722c-2.018-0.333-3.594-2.025-3.594-4.158
	c0-2.051,1.576-3.741,3.594-4.047V59.2h-0.94c-0.111-0.166-0.166-0.389-0.166-0.582c0-0.222,0.055-0.415,0.166-0.583h0.94v-3.603
	l-2.765,2.273l0.608,0.692c-0.138,0.443-0.498,0.722-0.913,0.776l-0.581-0.776l-0.359,0.306c0.387,0.637,0.58,1.414,0.58,2.162
	c0,2.301-1.769,4.103-4.036,4.103c-1.078,0-2.157-0.416-2.931-1.193l-0.608,0.472c-0.388-0.11-0.802-0.582-0.857-1.025l0.581-0.471
	c-0.359-0.664-0.581-1.47-0.581-2.217c0-2.274,1.77-4.13,4.037-4.13c1.106,0,2.157,0.47,2.958,1.191l0.332-0.249l-0.581-0.748
	c0.139-0.389,0.498-0.666,0.913-0.721l0.581,0.721l3.235-2.606l-3.401-2.828l-0.498,0.638l0.664,0.526l-0.498,0.638l-0.664-0.527
	l-0.498,0.583l0.637,0.526l-0.498,0.666l-1.825-1.498l1.714-0.942l-0.498-0.415l-1.575,0.859l0.525-1.719l-0.498-0.416l-0.581,1.885
	l-1.852-1.497l0.498-0.609l0.636,0.527l0.526-0.609l-0.665-0.583l0.498-0.583l0.664,0.5l0.47-0.583l-1.438-1.136
	c0.138-0.472,0.442-0.859,0.885-1.137l7.658,6.265v-4.187h-0.774v0.804h-0.774v-0.804h-0.802v0.804h-0.802v-2.356l1.825,0.776
	v-0.665l-1.686-0.693l1.686-0.665V43.9l-1.825,0.721v-2.384h0.802v0.859h0.802v-0.859h0.774v0.859h0.774v-1.885
	c0.221-0.083,0.471-0.139,0.719-0.139c0.222,0,0.47,0.056,0.691,0.139v10.312l7.659-6.265c0.415,0.277,0.719,0.665,0.885,1.137
	l-1.465,1.136l0.498,0.583l0.664-0.5l0.498,0.583l-0.664,0.583l0.499,0.609l0.663-0.527l0.498,0.609l-1.852,1.497L132.358,49.083z
	 M116.708,60.42c0,0.667,0.498,1.081,1.079,1.137l-0.968,0.748c-0.663-0.25-1.272-1.053-1.272-1.746c0-0.223,0.056-0.36,0.11-0.526
	c-0.082,0-0.138,0.028-0.194,0.028c-0.884,0-1.631-0.832-1.796-1.691l0.995-0.776c-0.028,0.111-0.028,0.194-0.028,0.277
	c0,0.555,0.526,1.054,1.079,1.054c0.58,0,1.134-0.499,1.134-1.082c0-0.72-0.554-1.19-1.244-1.19c-1.355,0-2.682,1.303-2.682,3.021
	c0,0.499,0.11,0.97,0.332,1.386l0.609-0.471c0.415,0.194,0.746,0.609,0.857,1.081l-0.609,0.471c0.582,0.499,1.299,0.721,2.047,0.721
	c1.548,0,2.792-1.247,2.792-2.356c0-0.637-0.442-1.192-1.105-1.192C117.234,59.31,116.708,59.782,116.708,60.42L116.708,60.42z
	 M124.92,62.804c0,0.609,0.499,1.108,1.079,1.108c0.415,0,0.58-0.168,0.884-0.418v1.25c-0.304,0.165-0.607,0.249-0.94,0.249
	c-0.664,0-1.216-0.194-1.576-0.775c-0.387,0.581-0.94,0.775-1.604,0.775c-0.304,0-0.636-0.084-0.94-0.249v-1.25
	c0.277,0.278,0.498,0.418,0.885,0.418c0.608,0,1.079-0.499,1.079-1.108c0-0.583-0.387-1.108-1.023-1.108
	c-1.133,0-1.604,1.079-1.604,2.077c0,1.47,1.079,2.718,2.488,2.966v-0.747c0.221-0.111,0.471-0.141,0.691-0.141
	c0.249,0,0.498,0.029,0.719,0.141v0.747c1.3-0.192,2.488-1.579,2.488-2.966c0-1.025-0.414-2.077-1.604-2.077
	C125.335,61.696,124.92,62.221,124.92,62.804z M131.805,57.842c0,0.555,0.582,1.082,1.162,1.082c0.553,0,1.078-0.499,1.078-1.054
	c0-0.083-0.028-0.166-0.028-0.277l0.968,0.776c-0.167,0.941-0.996,1.773-1.963,1.663c0.055,0.166,0.082,0.304,0.082,0.526
	c0,0.693-0.607,1.496-1.271,1.746l-0.968-0.748c0.609-0.056,1.106-0.47,1.106-1.137c0-0.638-0.553-1.109-1.162-1.109
	c-0.636,0-1.105,0.556-1.105,1.221c0,0.805,0.967,2.328,2.82,2.328c0.747,0,1.465-0.222,2.019-0.721l-0.608-0.471
	c0.138-0.472,0.415-0.887,0.856-1.081l0.609,0.471c0.221-0.416,0.36-0.887,0.36-1.386c0-1.331-1.024-3.021-2.656-3.021
	C132.414,56.651,131.805,57.122,131.805,57.842L131.805,57.842z"/>
<g id="g7" transform="translate(1,62.937009)">
</g>
<g id="g9" transform="translate(1,62.937009)">
</g>
<g id="g11" transform="translate(1,62.937009)">
</g>
<g id="g13" transform="translate(1,62.937009)">
</g>
<g id="g15" transform="translate(1,62.937009)">
</g>
<g id="g17" transform="translate(1,62.937009)">
</g>
<g id="g19" transform="translate(1,62.937009)">
</g>
<g id="g21" transform="translate(1,62.937009)">
</g>
<g id="g23" transform="translate(1,62.937009)">
</g>
<g id="g25" transform="translate(1,62.937009)">
</g>
<g id="g27" transform="translate(1,62.937009)">
</g>
<g id="g29" transform="translate(1,62.937009)">
</g>
<g id="g31" transform="translate(1,62.937009)">
</g>
<g id="g33" transform="translate(1,62.937009)">
</g>
<g id="g35" transform="translate(1,62.937009)">
</g>
</svg>
