<?xml version="1.0" encoding="utf-8"?>
<!-- Generator: Adobe Illustrator 15.0.0, SVG Export Plug-In . SVG Version: 6.00 Build 0)  -->
<!DOCTYPE svg PUBLIC "-//W3C//DTD SVG 1.1//EN" "http://www.w3.org/Graphics/SVG/1.1/DTD/svg11.dtd">
<svg version="1.1"
	 id="svg2" xmlns:sodipodi="http://sodipodi.sourceforge.net/DTD/sodipodi-0.dtd" xmlns:dc="http://purl.org/dc/elements/1.1/" xmlns:rdf="http://www.w3.org/1999/02/22-rdf-syntax-ns#" xmlns:svg="http://www.w3.org/2000/svg" xmlns:cc="http://creativecommons.org/ns#" xmlns:inkscape="http://www.inkscape.org/namespaces/inkscape" sodipodi:docname="New document 1" inkscape:version="0.47 r22583"
	 xmlns="http://www.w3.org/2000/svg" xmlns:xlink="http://www.w3.org/1999/xlink" x="0px" y="0px" width="61px" height="62px"
	 viewBox="23.502 9.996 61 62" enable-background="new 23.502 9.996 61 62" xml:space="preserve">
<defs>
	
	
		<inkscape:perspective  id="perspective10" sodipodi:type="inkscape:persp3d" inkscape:vp_x="0 : 526.18109 : 1" inkscape:vp_y="0 : 1000 : 0" inkscape:vp_z="744.09448 : 526.18109 : 1" inkscape:persp3d-origin="372.04724 : 350.78739 : 1">
		</inkscape:perspective>
	
		<inkscape:perspective  id="perspective2824" sodipodi:type="inkscape:persp3d" inkscape:vp_x="0 : 0.5 : 1" inkscape:vp_y="0 : 1000 : 0" inkscape:vp_z="1 : 0.5 : 1" inkscape:persp3d-origin="0.5 : 0.33333333 : 1">
		</inkscape:perspective>
</defs>
<sodipodi:namedview  id="base" showgrid="false" bordercolor="#666666" inkscape:cy="14.752417" pagecolor="#ffffff" inkscape:cx="102.85718" borderopacity="1.0" inkscape:zoom="5.7066123" inkscape:window-maximized="1" inkscape:pageshadow="2" inkscape:current-layer="layer1" inkscape:document-units="px" inkscape:window-y="-8" inkscape:pageopacity="0.0" inkscape:window-height="1000" inkscape:window-width="1680" inkscape:window-x="-8">
	</sodipodi:namedview>
<path fill="#F9A929" d="M37.241,47.026c0.337-0.156,1.097-0.495,1.434-0.664c0.39-0.189,0.339-0.364,0.223-0.686
	c-0.512-1.55-0.768-3.205-0.768-4.918c0-8.794,7.145-15.959,15.951-15.959c8.781,0,15.943,7.165,15.943,15.959
	c0,2.257-0.478,4.41-1.321,6.36c-0.065,0.135-0.076,0.406,0.156,0.523c0.255,0.106,1.225,0.539,1.505,0.655
	c0.283,0.116,0.464,0.044,0.61-0.255c0.961-2.235,1.499-4.698,1.499-7.284c0-10.154-8.252-18.413-18.393-18.413
	c-10.154,0-18.399,8.259-18.399,18.413c0,2.086,0.346,4.083,0.991,5.951C36.764,46.998,36.916,47.171,37.241,47.026 M32.568,49.188
	c0.388-0.186,1.702-0.785,2.041-0.955c0.356-0.16,0.274-0.452,0.224-0.598c-0.776-2.149-1.186-4.453-1.186-6.87
	c0-11.284,9.163-20.448,20.441-20.448c11.254,0,20.426,9.164,20.426,20.448c0,2.891-0.604,5.634-1.689,8.129
	c-0.063,0.129-0.153,0.431,0.171,0.563c0.331,0.137,1.8,0.797,2.073,0.915c0.29,0.123,0.473,0.072,0.609-0.266
	c1.261-2.854,1.939-6.022,1.939-9.342c0-12.995-10.554-23.563-23.529-23.563c-12.999,0-23.549,10.568-23.549,23.563
	c0,2.861,0.512,5.597,1.455,8.146C32.049,49.065,32.171,49.371,32.568,49.188 M26.212,52.115c0.451-0.222,3.23-1.502,3.713-1.717
	c0.489-0.218,0.276-0.597,0.205-0.796c-1.021-2.764-1.583-5.733-1.583-8.844c0-14.096,11.448-25.55,25.535-25.55
	c14.072,0,25.523,11.454,25.523,25.55c0,3.564-0.736,6.957-2.056,10.047c-0.087,0.186-0.18,0.567,0.281,0.768
	c0.454,0.196,3.143,1.381,3.516,1.535c0.362,0.18,0.635,0.139,0.885-0.411c1.56-3.674,2.414-7.71,2.414-11.938
	c0-16.87-13.712-30.61-30.563-30.61c-16.866,0-30.58,13.74-30.58,30.61c0,3.879,0.731,7.592,2.047,11.004
	C25.627,51.952,25.756,52.325,26.212,52.115"/>
<path fill="#F03A2D" d="M54.092,34.115c1.798,0,3.279-1.464,3.279-3.271c0-1.825-1.48-3.29-3.279-3.29
	c-1.822,0-3.271,1.464-3.271,3.29C50.822,32.651,52.27,34.115,54.092,34.115 M55.292,51.281c0.637,0,1.155-0.521,1.155-1.158v-7.188
	c0.028-0.907,0.675-2.08,1.308-2.761l6.768-6.763c0.459-0.46,0.459-1.203,0-1.646l-1.232-1.234c-0.453-0.461-1.195-0.461-1.643,0
	l-6.109,6.122c-0.409,0.393-0.688,0.642-1.448,0.642c-0.757,0-1.044-0.249-1.438-0.642l-6.124-6.122
	c-0.458-0.461-1.184-0.461-1.639,0l-1.231,1.234c-0.454,0.443-0.454,1.187,0,1.646l6.767,6.763c0.641,0.681,1.278,1.854,1.306,2.761
	v7.188c0,0.638,0.516,1.158,1.157,1.158H55.292"/>
<path fill="#2251AA" d="M76.642,53.823c-1.155,0.42-3.288,2.53-4.264,3.392l-0.258,0.045c0.34-0.384,1.815-2.252,2.201-2.893
	c1.165-1.932-1.031-3.758-3.456-2.363c-0.915,0.521-2.446,2.14-3.188,2.713l-0.242,0.058c0.333-0.319,1.695-2.119,2.075-2.691
	c1.05-1.573-1.168-3.052-3.08-1.904c-1.349,0.814-2.458,1.926-3.593,2.807l-0.194,0.047c0.313-0.297,1.063-1.189,1.356-1.508
	c1.128-1.259-0.489-2.72-2.191-1.841c-1.628,0.839-3.99,3.178-6.556,4.829c1.195,0.647,3.298,0.738,6.625,2.164
	c3.334,1.423,4.403,4.744,2.238,7.365c-2.016,2.428-5.078,1.604-7.72,0.787c-3.062-0.955-4.14-1.953-7.83-3.233
	c-2.41-0.837-3.393-0.815-3.346-1.519c0.042-0.783,2.115-0.312,4.063,0.395c5.403,1.955,12.583,6.409,14.34,1.614
	c1.39-3.783-4.834-5.418-7.21-5.876c-3.326-0.635-5.612-3.068-8.492-4.62c-4.338-2.346-7.683-2.401-10.161-1.951
	c-2.667,0.481-6.476,2.662-8.781,4.039c-1.595,0.942-1.485,2.383,0.084,4.618c5.536,7.87,14.675,13.016,25.015,13.016
	c10.974,0,20.596-5.821,25.988-14.498C81.258,54.896,79.379,52.844,76.642,53.823"/>
</svg>
