<?xml version="1.0" encoding="utf-8"?>
<!-- Generator: Adobe Illustrator 15.0.0, SVG Export Plug-In . SVG Version: 6.00 Build 0)  -->
<!DOCTYPE svg PUBLIC "-//W3C//DTD SVG 1.1//EN" "http://www.w3.org/Graphics/SVG/1.1/DTD/svg11.dtd">
<svg version="1.1" id="Layer_1" xmlns="http://www.w3.org/2000/svg" xmlns:xlink="http://www.w3.org/1999/xlink" x="0px" y="0px"
	 width="56px" height="56px" viewBox="0 0 56 56" enable-background="new 0 0 56 56" xml:space="preserve">
<title>27CCB1D7-AD18-44EE-9188-C1A0634319A1</title>
<path d="M42.377,48.537l4.33-4.33l-1.414-1.414l-3.33,3.33V10.877l3.33,3.33l1.414-1.414L41,7.086l-5.707,5.707l1.414,1.414
	l3.33-3.33v35.246l-3.33-3.33l-1.415,1.414l4.331,4.33h-7.66v-43H3.038v43H0v1.926h3.038h28.925H56v-1.926H42.377z M4.963,48.537
	V7.463h25.075v41.074H4.963z M45.207,31.5v-3.75l-0.896,0.385V27.15l2.018-0.961V31.5H45.207z M53.782,25.926h-0.911
	c0,1.08-0.416,1.608-0.751,2.08h-0.001l0.433,0.248C52.919,27.958,53.782,26.943,53.782,25.926z M47.479,28.877
	c0-1.509,0.435-2.717,1.961-2.718c1.526,0.001,1.941,1.208,1.941,2.718c0,1.496-0.415,2.703-1.941,2.703
	C47.912,31.58,47.479,30.373,47.479,28.877z M48.598,28.877c0,0.881,0.2,1.615,0.84,1.615c0.633,0,0.824-0.734,0.824-1.615
	c0-0.887-0.191-1.63-0.824-1.63C48.798,27.247,48.598,27.99,48.598,28.877z M9.149,25.207l1.414-1.413l10.144,10.144l-1.414,1.414
	L9.149,25.207z M26.154,34.24L9.707,17.793l-1.414,1.414L24.74,35.654L26.154,34.24z M26.707,28.939L16.563,18.793l-1.414,1.414
	l10.144,10.145L26.707,28.939z"/>
</svg>
