<?xml version="1.0" encoding="utf-8"?>
<!-- Generator: Adobe Illustrator 15.0.0, SVG Export Plug-In . SVG Version: 6.00 Build 0)  -->
<!DOCTYPE svg PUBLIC "-//W3C//DTD SVG 1.1//EN" "http://www.w3.org/Graphics/SVG/1.1/DTD/svg11.dtd">
<svg version="1.1" id="Layer_1" xmlns="http://www.w3.org/2000/svg" xmlns:xlink="http://www.w3.org/1999/xlink" x="0px" y="0px"
	 width="34px" height="34px" viewBox="0 0 34 34" enable-background="new 0 0 34 34" xml:space="preserve">
<title>Binoculars</title>
<desc>Created with Sketch.</desc>
<path fill="#222222" d="M33.037,18.251l0.003-0.002l-5.86-11.02C26.406,5.852,24.941,5,23.357,5c-0.01,0-0.021,0-0.028,0
	c-1.187,0.001-2.337,0.488-3.157,1.336c-0.824,0.852-1.268,2.016-1.214,3.192L18.975,9.9c-0.604-0.294-1.272-0.462-1.972-0.462
	c-0.692,0-1.356,0.166-1.956,0.455l0.016-0.363c0.052-1.178-0.391-2.342-1.215-3.193C13.027,5.488,11.877,5.001,10.691,5
	c-0.001,0-0.002,0-0.002,0C9.062,5,7.578,5.885,6.818,7.308L0.953,18.246l0.01,0.005C0.354,19.303,0,20.518,0,21.813
	C0,25.775,3.257,29,7.261,29c3.91,0,7.098-3.077,7.247-6.911c0.464-0.876,1.418-1.425,2.424-1.341L17,20.752l0.068-0.004
	c1.009-0.081,1.961,0.468,2.425,1.345C19.645,25.926,22.83,29,26.738,29C30.743,29,34,25.775,34,21.813
	C34,20.516,33.646,19.302,33.037,18.251z M21.609,7.727C22.057,7.266,22.684,7,23.336,7c0.006,0,0.012,0,0.016,0
	c0.867,0,1.666,0.462,2.071,1.188l3.625,6.815c-0.728-0.242-1.502-0.379-2.31-0.379c-2.178,0-4.129,0.958-5.459,2.465l-0.323-7.648
	C20.927,8.81,21.166,8.185,21.609,7.727z M8.581,8.252C8.994,7.479,9.801,7,10.688,7h0.001c0.648,0,1.276,0.266,1.722,0.726
	c0.443,0.458,0.681,1.083,0.654,1.715l-0.336,7.655c-0.11-0.125-0.219-0.252-0.337-0.369c-1.371-1.355-3.192-2.102-5.13-2.102
	c-0.804,0-1.575,0.135-2.299,0.375L8.581,8.252z M7.261,27C4.36,27,2,24.674,2,21.813c0-2.859,2.36-5.188,5.261-5.188
	c1.407,0,2.73,0.541,3.724,1.523c0.991,0.979,1.537,2.278,1.537,3.664C12.522,24.673,10.162,27,7.261,27z M17,18.748
	c-0.838-0.041-1.65,0.159-2.366,0.535l0.295-6.709c0.453-0.699,1.223-1.137,2.074-1.137c0.856,0,1.632,0.443,2.084,1.149
	l0.283,6.698C18.654,18.908,17.843,18.708,17,18.748z M26.738,27c-2.899,0-5.26-2.326-5.26-5.188c0-2.86,2.359-5.188,5.26-5.188
	c2.902,0,5.262,2.328,5.262,5.188S29.639,27,26.738,27z"/>
</svg>
