<?xml version="1.0" encoding="utf-8"?>
<!-- Generator: Adobe Illustrator 15.0.0, SVG Export Plug-In . SVG Version: 6.00 Build 0)  -->
<!DOCTYPE svg PUBLIC "-//W3C//DTD SVG 1.1//EN" "http://www.w3.org/Graphics/SVG/1.1/DTD/svg11.dtd">
<svg version="1.1" id="Layer_1" xmlns="http://www.w3.org/2000/svg" xmlns:xlink="http://www.w3.org/1999/xlink" x="0px" y="0px"
	 width="48px" height="48px" viewBox="0 0 48 48" enable-background="new 0 0 48 48" xml:space="preserve">
<title>Calendar</title>
<desc>Created with Sketch.</desc>
<path d="M37,48H11C4.935,48,0,43.065,0,37V0h48v37C48,43.065,43.065,48,37,48z M2,2v35c0,4.963,4.038,9,9,9h26c4.963,0,9-4.037,9-9
	V2H2z M10,8h28v2H10V8z M14.739,20.67l-3.636,1.255v-1.931l5.76-2.092v21.4h-2.124V20.67z M23.494,33.8
	c0.805,2.06,3.122,3.604,5.342,3.604c3.443,0,5.374-2.125,5.374-4.827c0-2.993-2.542-4.569-4.827-4.569
	c-2.154,0-3.379,0.418-5.889,1.674l-0.836-1.127l1.867-10.652h10.49v2.156h-8.656l-1.287,7.08c1.545-0.771,2.896-1.32,4.312-1.32
	c3.767,0,7.048,2.414,7.048,6.76c0,4.313-2.992,7.048-7.595,7.048c-2.96,0-5.889-1.867-7.176-4.506L23.494,33.8z"/>
</svg>
