<?xml version="1.0" encoding="UTF-8"?>
<svg width="21px" height="15px" viewBox="0 0 21 15" version="1.1" xmlns="http://www.w3.org/2000/svg" xmlns:xlink="http://www.w3.org/1999/xlink">
    <!-- Generator: Sketch 53.2 (72643) - https://sketchapp.com -->
    <title>Shape</title>
    <desc>Created with Sketch.</desc>
    <g id="Product-Glass-Walls" stroke="none" stroke-width="1" fill="none" fill-rule="evenodd">
        <g id="alur_web_environment" transform="translate(-370.000000, -1945.000000)" fill="#1E306E" fill-rule="nonzero" stroke="#1E306E">
            <g id="SPOT-3" transform="translate(275.000000, 1645.000000)">
                <g id="Group-12" transform="translate(84.000000, 244.000000)">
                    <g id="Benefit-1">
                        <g id="Group-23" transform="translate(1.000000, 24.000000)">
                            <g id="Group-22" transform="translate(0.000000, 19.000000)">
                                <path d="M29.8274967,14.9986738 L17.9193683,26.8282837 C17.6889012,27.0572388 17.3160285,27.0572388 17.0855613,26.8282837 C17.0827846,26.8259192 17.0839747,26.8219785 17.0815946,26.8196141 C17.0760412,26.8148853 17.0696944,26.813309 17.0645377,26.8085801 L11.1743379,20.9566295 C10.9418874,20.725704 10.9418874,20.3513368 11.1743379,20.1208054 C11.4063917,19.88988 11.7832312,19.88988 12.0156816,20.1208054 L17.5100016,25.5790794 L28.9932931,14.1711252 C29.2233635,13.9429583 29.5966329,13.9429583 29.8271001,14.1711252 C30.0575672,14.3988981 30.0575672,14.7697187 29.8274967,14.9986738 Z" id="Shape"></path>
                            </g>
                        </g>
                    </g>
                </g>
            </g>
        </g>
    </g>
</svg>