<?xml version="1.0" encoding="utf-8"?>
<!-- Generator: Adobe Illustrator 15.0.0, SVG Export Plug-In . SVG Version: 6.00 Build 0)  -->
<!DOCTYPE svg PUBLIC "-//W3C//DTD SVG 1.1//EN" "http://www.w3.org/Graphics/SVG/1.1/DTD/svg11.dtd">
<svg version="1.1" id="Layer_1" xmlns="http://www.w3.org/2000/svg" xmlns:xlink="http://www.w3.org/1999/xlink" x="0px" y="0px"
	 width="48px" height="48px" viewBox="0 0 48 48" enable-background="new 0 0 48 48" xml:space="preserve">
<title>908C9B12-3765-435E-9427-6ED37AC55902</title>
<path d="M25.925,24.009l9.658-9.659c0.542-0.524,0.558-1.389,0.034-1.932s-1.389-0.559-1.932-0.036
	c-0.01,0.012-0.022,0.022-0.034,0.034l-9.66,9.659l-9.658-9.658c-0.534-0.535-1.399-0.535-1.933,0c-0.533,0.533-0.534,1.398,0,1.932
	l9.658,9.66l-9.658,9.658c-0.534,0.533-0.534,1.398,0,1.933c0.533,0.533,1.398,0.533,1.933,0l9.659-9.658l9.659,9.658
	c0.533,0.534,1.398,0.534,1.932,0.001c0.533-0.532,0.533-1.398,0-1.934L25.925,24.009L25.925,24.009z"/>
</svg>
