<?xml version="1.0" encoding="utf-8"?>
<!-- Generator: Adobe Illustrator 15.0.0, SVG Export Plug-In . SVG Version: 6.00 Build 0)  -->
<!DOCTYPE svg PUBLIC "-//W3C//DTD SVG 1.1//EN" "http://www.w3.org/Graphics/SVG/1.1/DTD/svg11.dtd">
<svg version="1.1" id="Layer_1" xmlns="http://www.w3.org/2000/svg" xmlns:xlink="http://www.w3.org/1999/xlink" x="0px" y="0px"
	 width="48px" height="48px" viewBox="0 0 48 48" enable-background="new 0 0 48 48" xml:space="preserve">
<path fill="#263238" d="M22,27.998C22,29.104,21.105,30,20,30c-1.106,0-2-0.896-2-2.002c0-1.104,0.894-1.996,2-1.996
	C21.105,26.002,22,26.895,22,27.998z M12,33.998c-1.106,0-2,0.896-2,2.002s0.894,2.002,2,2.002s2-0.896,2-2.002
	S13.106,33.998,12,33.998z M27.998,33.998c-1.104,0-1.996,0.896-1.996,2.002s0.893,2.002,1.996,2.002C29.104,38.002,30,37.105,30,36
	S29.104,33.998,27.998,33.998z M12,26.002c-1.106,0-2,0.893-2,1.996C10,29.104,10.894,30,12,30s2-0.896,2-2.002
	C14,26.895,13.106,26.002,12,26.002z M20,33.998c-1.106,0-2,0.896-2,2.002s0.894,2.002,2,2.002c1.105,0,2-0.896,2-2.002
	S21.105,33.998,20,33.998z M10,16c-1.105,0-2,0.894-2,2s0.895,2,2,2h28.002c1.104,0,1.996-0.894,1.996-2s-0.893-2-1.996-2H10z M48,6
	v39.998C48,47.104,47.104,48,45.998,48H2c-1.106,0-2-0.896-2-2.002V6c0-1.106,0.894-2,2-2h8V2c0-1.106,0.894-2,2-2s2,0.894,2,2v2h8
	V2c0-1.106,0.894-2,2-2c1.105,0,2.002,0.894,2.002,2v2h7.996V2c0-1.106,0.896-2,2.002-2s2.002,0.894,2.002,2v2h7.996
	C47.104,4,48,4.894,48,6z M44.002,8h-6v2c0,1.106-0.896,2-2.002,2s-2.002-0.894-2.002-2V8h-7.996v2c0,1.106-0.896,2-2.002,2
	c-1.106,0-2-0.894-2-2V8h-8v2c0,1.106-0.894,2-2,2s-2-0.894-2-2V8H4v36.001h40.002V8z M36,33.998c-1.105,0-2.002,0.896-2.002,2.002
	s0.896,2.002,2.002,2.002s2.002-0.896,2.002-2.002S37.105,33.998,36,33.998z M27.998,26.002c-1.104,0-1.996,0.893-1.996,1.996
	c0,1.105,0.893,2.002,1.996,2.002C29.104,30,30,29.104,30,27.998C30,26.895,29.104,26.002,27.998,26.002z M36,26.002
	c-1.105,0-2.002,0.893-2.002,1.996C33.998,29.104,34.895,30,36,30s2.002-0.896,2.002-2.002C38.002,26.895,37.105,26.002,36,26.002z"
	/>
</svg>
