<?xml version="1.0" encoding="utf-8"?>
<!-- Generator: Adobe Illustrator 15.0.0, SVG Export Plug-In . SVG Version: 6.00 Build 0)  -->
<!DOCTYPE svg PUBLIC "-//W3C//DTD SVG 1.1//EN" "http://www.w3.org/Graphics/SVG/1.1/DTD/svg11.dtd">
<svg version="1.1" id="Layer_1" xmlns="http://www.w3.org/2000/svg" xmlns:xlink="http://www.w3.org/1999/xlink" x="0px" y="0px"
	 width="48px" height="48px" viewBox="0 0 48 48" enable-background="new 0 0 48 48" xml:space="preserve">
<path d="M17.5,27.057c-1.381,0-2.5-1.119-2.5-2.5s1.119-2.5,2.5-2.5s2.5,1.119,2.5,2.5S18.881,27.057,17.5,27.057z M33,24.557
	c0,1.381-1.119,2.5-2.5,2.5s-2.5-1.119-2.5-2.5s1.119-2.5,2.5-2.5S33,23.176,33,24.557z M29.105,34.609l1.789,0.896l-0.201,0.399
	c-1.279,2.562-3.844,4.152-6.693,4.152c-2.849,0-5.414-1.591-6.694-4.152l-0.2-0.399l1.789-0.896l0.2,0.4
	c0.939,1.88,2.819,3.047,4.905,3.047s3.966-1.167,4.904-3.047L29.105,34.609z M42,20.105v-1.049c0-8.486-6.643-15.451-15-15.969
	v-3.145l-6.705,0.718C12.146,1.52,6,8.353,6,16.557v3.549c-1.715,0.238-3,1.661-3,3.451v2.5c0,3.033,2.142,5.475,5.029,5.925
	c0.24,3.83,1.966,7.374,4.817,9.832l3.647,3.15c1.994,1.993,4.66,3.093,7.507,3.093c2.848,0,5.514-1.1,7.454-3.043l3.698-3.199
	c2.853-2.459,4.578-6.002,4.818-9.833C42.857,31.531,45,29.09,45,26.057v-2.5C45,21.766,43.715,20.344,42,20.105z M20.506,2.65
	L25,2.169v2.888h1c7.721,0,14,6.279,14,14v0.75l-3.176-2.382l-2.049-5.12L34.4,12.141c-3.16-1.383-6.66-2.084-10.4-2.084
	c-3.741,0-7.24,0.701-10.401,2.084l-0.375,0.164l-2.048,5.12L8,19.807v-3.25C8,9.38,13.376,3.401,20.506,2.65z M43,26.057
	c0,2.243-1.757,4-4,4h-1v1c0,3.6-1.514,6.968-4.154,9.243l-3.753,3.25c-1.616,1.616-3.78,2.507-6.093,2.507
	c-2.313,0-4.476-0.891-6.146-2.557l-3.702-3.201C11.514,38.024,10,34.656,10,31.057v-1H9c-2.243,0-4-1.757-4-4v-2.5
	c0-0.841,0.659-1.5,1.5-1.5s1.5,0.659,1.5,1.5v3.5h2v-3.5c0-0.835-0.291-1.583-0.762-2.18l3.586-2.688l1.95-4.875
	c2.809-1.166,5.911-1.757,9.226-1.757c3.314,0,6.417,0.591,9.227,1.757l1.949,4.875l3.586,2.688C38.29,21.974,38,22.722,38,23.557
	v3.5h2v-3.5c0-0.841,0.659-1.5,1.5-1.5s1.5,0.659,1.5,1.5V26.057z"/>
</svg>
