<?xml version="1.0" encoding="utf-8"?>
<!-- Generator: Adobe Illustrator 15.0.0, SVG Export Plug-In . SVG Version: 6.00 Build 0)  -->
<!DOCTYPE svg PUBLIC "-//W3C//DTD SVG 1.1//EN" "http://www.w3.org/Graphics/SVG/1.1/DTD/svg11.dtd">
<svg version="1.1" id="Layer_1" xmlns="http://www.w3.org/2000/svg" xmlns:xlink="http://www.w3.org/1999/xlink" x="0px" y="0px"
	 width="47px" height="47px" viewBox="0 0 47 47" enable-background="new 0 0 47 47" xml:space="preserve">
<path d="M40.332,1.732l-4.785,0.761l0.26,1.631l3.153-0.501L44.501,38.5l-33.288,5.289L5.671,8.914l19.819-3.15l-0.26-1.63
	L3.782,7.542l0,0L0.607,8.047l6.06,38.136l3.99-0.634v-0.001l35.735-5.68L40.332,1.732z M8.039,44.293L2.496,9.417l1.545-0.245
	l5.542,34.876L8.039,44.293z M24.872,11.616l0.385,2.416l-1.63,0.26l-0.384-2.417l-2.417,0.384l-0.259-1.63l2.417-0.384
	l-0.384-2.416l1.628-0.26l0.385,2.417l2.416-0.384l0.261,1.63L24.872,11.616z M33.098,14.726l0.383,2.416l-1.631,0.26l-0.384-2.417
	l-2.416,0.384l-0.26-1.63l2.418-0.384l-0.384-2.417l1.63-0.258l0.384,2.416l2.415-0.384l0.261,1.63L33.098,14.726z M31.521,4.807
	l0.393,2.471l-1.631,0.26l-0.393-2.472l-2.416,0.383l-0.261-1.63l2.417-0.384l-0.375-2.358l1.631-0.26l0.375,2.359l2.415-0.384
	l0.261,1.632L31.521,4.807z"/>
</svg>
