<?xml version="1.0" encoding="utf-8"?>
<!-- Generator: Adobe Illustrator 15.0.0, SVG Export Plug-In . SVG Version: 6.00 Build 0)  -->
<!DOCTYPE svg PUBLIC "-//W3C//DTD SVG 1.1//EN" "http://www.w3.org/Graphics/SVG/1.1/DTD/svg11.dtd">
<svg version="1.1" id="Layer_1" xmlns="http://www.w3.org/2000/svg" xmlns:xlink="http://www.w3.org/1999/xlink" x="0px" y="0px"
	 width="48px" height="48px" viewBox="0 0 48 48" enable-background="new 0 0 48 48" xml:space="preserve">
<path d="M39.973,36.024c0.286-0.293,0.531-0.619,0.733-0.976c1.183-2.09,0.704-5.121-1.347-8.539
	c-0.901-1.502-1.381-3.16-1.473-4.924c0.236-0.12,0.471-0.265,0.68-0.457c0.351-0.32,1.099-1.195,1.188-2.836
	c1.346,0.924,2.486,0.813,2.949,0.708c1.27-0.288,2.128-1.374,2.139-2.705c0.008-0.919-0.402-1.973-1.408-2.912
	c1.481-0.45,2.088-1.373,2.291-1.784c0.584-1.181,0.256-2.597-0.797-3.444c-0.695-0.563-1.728-0.892-3.031-0.706
	c0.424-1.158,0.266-2.047,0.104-2.517c-0.396-1.166-1.437-1.935-2.649-1.957c-0.019,0-0.035,0-0.052,0
	c-1.077,0-2.448,0.659-3.229,2.459c-0.151-0.018-0.301-0.041-0.467-0.041c-0.229,0-0.467,0.017-0.705,0.052
	c0.432-1.17,0.261-2.068,0.095-2.54c-0.412-1.173-1.47-1.93-2.696-1.93c-0.849,0-1.673,0.369-2.32,1.041
	c-0.225,0.231-0.457,0.532-0.674,0.92c-1.839-2.827-5.023-1.96-5.699,0.207c-0.155,0.496-0.296,1.436,0.238,2.624
	c-1.567-0.132-2.954,0.489-3.604,1.614c-0.499,0.864-0.5,1.896-0.002,2.76c0.472,0.815,1.327,1.384,2.436,1.643
	c-1.069,1.1-1.396,2.294-1.254,3.253c0.205,1.386,1.338,2.354,2.756,2.354c0.502,0,1.417-0.137,2.45-0.929
	c0.092,0.969,0.397,1.634,0.672,2.049c0.447,0.682,1.083,1.124,1.795,1.288c0.187,1.801,0.026,4.256-1.446,6.709
	c-2.052,3.418-2.529,6.451-1.348,8.541c0.202,0.355,0.447,0.682,0.732,0.975H23.5v-10h-20v10h-3v11h47v-11H39.973z M39.294,4.978
	c0.007,0,0.013,0,0.019,0c0.367,0.007,0.672,0.236,0.795,0.6c0.199,0.59-0.037,1.563-1.1,2.735c-0.018-0.78-0.391-1.571-1.076-2.137
	C38.271,5.43,38.766,4.978,39.294,4.978z M38.369,10.141l0.681,0.854c2.159-1.72,3.878-1.881,4.623-1.282
	c0.327,0.264,0.429,0.657,0.259,1.002c-0.387,0.783-1.998,1.276-4.729,0.612l-0.473,1.943c2.85,0.693,4.119,2.012,4.107,3.011
	c-0.004,0.401-0.221,0.688-0.581,0.77c-0.671,0.146-2.196-0.409-3.688-3.466l-0.752,0.367c-0.086-0.831-0.504-1.744-1.396-2.571
	C37.301,11.116,37.941,10.669,38.369,10.141z M37.213,19.658c-0.271,0.249-0.596,0.29-0.888,0.118
	c-0.522-0.311-0.882-1.271-0.655-2.774c0.706-0.149,1.293-0.55,1.68-1.119C37.984,17.788,37.795,19.122,37.213,19.658z
	 M28.966,17.415c-0.233-0.357-0.896-1.771,0.472-4.932l-1.836-0.795c-1.783,4.119-4.023,4.263-4.206,3.057
	c-0.145-0.984,1.051-2.451,4.02-3.347l-0.578-1.915c-2.387,0.722-4.367,0.531-4.87-0.341c-0.141-0.243-0.14-0.514,0.002-0.76
	c0.229-0.396,0.769-0.632,1.446-0.632c0.701,0,1.887,0.242,3.561,1.398l1.137-1.646c-2.288-1.584-2.834-3.017-2.6-3.764
	c0.113-0.363,0.42-0.589,0.803-0.589c0.955,0,2.035,1.321,2.146,4.223l1.998-0.074c-0.091-2.428,0.563-3.48,0.958-3.893
	c0.603-0.623,1.456-0.503,1.688,0.16c0.269,0.769-0.193,2.188-2.299,3.865l1.243,1.563c1.298-1.033,2.56-1.601,3.556-1.601
	c0.927,0,1.41,0.491,1.41,0.977c0,0.611-0.781,1.27-2.498,1.27c-0.658,0-1.408-0.1-2.289-0.308c-0.004,0-0.006-0.001-0.013-0.002
	c-0.007-0.002-0.015-0.003-0.021-0.005l-0.408,1.958c2.954,0.732,4.172,2.127,4.051,3.114c-0.148,1.229-2.363,1.084-4.261-2.813
	l-1.8,0.876c1.52,3.119,0.886,4.564,0.654,4.934C30.046,18.009,29.363,18.021,28.966,17.415z M29.357,27.538
	c1.779-2.963,1.943-5.909,1.709-8.04c0.416-0.245,0.781-0.6,1.06-1.044c0.276-0.442,0.579-1.149,0.63-2.173
	c0.331,0.229,0.639,0.376,0.928,0.495c-0.468,3.178,1.088,4.404,1.619,4.72c0.191,0.114,0.393,0.191,0.596,0.255
	c0.115,2.07,0.687,4.02,1.746,5.787c1.642,2.734,2.121,5.111,1.319,6.525c-0.917,1.621-3.478,1.961-5.463,1.961
	s-4.546-0.34-5.463-1.961C27.236,32.649,27.718,30.272,29.357,27.538z M5.5,28.026h16v3h-16V28.026z M5.5,33.026h16v3h-16V33.026z
	 M45.5,45.026h-43v-7h1h20h22V45.026z"/>
</svg>
