<?xml version="1.0" encoding="utf-8"?>
<!-- Generator: Adobe Illustrator 15.0.0, SVG Export Plug-In . SVG Version: 6.00 Build 0)  -->
<!DOCTYPE svg PUBLIC "-//W3C//DTD SVG 1.1//EN" "http://www.w3.org/Graphics/SVG/1.1/DTD/svg11.dtd">
<svg version="1.1" id="Layer_1" xmlns="http://www.w3.org/2000/svg" xmlns:xlink="http://www.w3.org/1999/xlink" x="0px" y="0px"
	 width="56px" height="56px" viewBox="0 0 56 56" enable-background="new 0 0 56 56" xml:space="preserve">
<title>E3014673-25C0-4F94-A22A-07726DA93031</title>
<path d="M47.023,43.514c0.939-0.721,1.629-1.752,1.875-2.953H53v-30H19v28h-1v-20H2v22h3.101c0.245,1.201,0.935,2.232,1.875,2.953H0
	v1.926h56v-1.926H47.023z M25,39.561c0-1.653,1.346-3,3-3c1.654,0,3,1.347,3,3c0,1.654-1.346,3-3,3
	C26.346,42.561,25,41.215,25,39.561z M32.898,40.561h6.203c0.244,1.201,0.935,2.232,1.875,2.953h-9.951
	C31.964,42.793,32.654,41.762,32.898,40.561z M41,39.561c0-1.653,1.346-3,3-3s3,1.347,3,3c0,1.654-1.346,3-3,3S41,41.215,41,39.561z
	 M21,12.56h30v26.001h-2.102c-0.465-2.279-2.483-4-4.898-4s-4.434,1.721-4.898,4h-6.203c-0.465-2.279-2.482-4-4.897-4
	s-4.434,1.721-4.899,4H21V12.56z M4,24.561h7v6H4V24.561z M5.101,38.561H4v-6h9v-10H4v-2h12v18h-1.101c-0.465-2.278-2.484-4-4.899-4
	S5.566,36.281,5.101,38.561z M10,42.561c-1.654,0-3-1.346-3-3c0-1.653,1.346-3,3-3s3,1.347,3,3C13,41.215,11.654,42.561,10,42.561z
	 M14.899,40.561h8.202c0.245,1.201,0.935,2.232,1.875,2.953H13.024C13.964,42.793,14.654,41.762,14.899,40.561z"/>
</svg>
