<?xml version="1.0" encoding="utf-8"?>
<!-- Generator: Adobe Illustrator 15.0.0, SVG Export Plug-In . SVG Version: 6.00 Build 0)  -->
<!DOCTYPE svg PUBLIC "-//W3C//DTD SVG 1.1//EN" "http://www.w3.org/Graphics/SVG/1.1/DTD/svg11.dtd">
<svg version="1.1" id="Layer_1" xmlns="http://www.w3.org/2000/svg" xmlns:xlink="http://www.w3.org/1999/xlink" x="0px" y="0px"
	 width="48px" height="48px" viewBox="0 0 48 48" enable-background="new 0 0 48 48" xml:space="preserve">
<path d="M24,0C10.767,0,0,10.767,0,24c0,13.232,10.767,24,24,24c13.232,0,24-10.768,24-24C48,10.767,37.232,0,24,0z M39.585,39.512
	l-0.026,0.081l-0.041-0.014C35.536,43.545,30.05,46,24,46c-6.07,0-11.574-2.472-15.559-6.461l0.786-0.255
	c2.696-0.876,5.463-1.495,8.259-1.874l-0.005,0.011c2.041,0.993,4.234,1.496,6.518,1.496c0.007,0,0.014,0,0.021,0
	c2.173,0,4.359-0.487,6.324-1.413l-0.048-0.101c2.814,0.378,5.601,0.999,8.313,1.881l0.908,0.295
	C39.54,39.557,39.563,39.534,39.585,39.512l2.655-8.16l-0.952-0.31c-1.205-0.392-2.423-0.731-3.649-1.039
	c0.829-1.884,1.281-3.945,1.278-6.004c0-8.225-6.69-14.917-14.917-14.917c-8.225,0-14.916,6.692-14.916,14.916
	c-0.004,2.058,0.429,4.091,1.249,5.97c-1.272,0.315-2.536,0.669-3.785,1.074l-0.952,0.31l2.567,7.896C4.352,35.29,2,29.916,2,24
	C2,11.869,11.869,2,24,2s22,9.869,22,22C46,30.047,43.547,35.53,39.585,39.512z M29.792,16.765c0,0-2.208,1.764-2.208,7.058
	c0,2.185,0.521,3.699,1.057,4.684c-1.076-0.09-2.155-0.145-3.234-0.173c0.568-0.987,1.094-2.45,1.094-4.511
	c0-5.294-2.583-8.823-2.583-8.823S21.5,18.529,21.5,23.823c0,2.059,0.524,3.521,1.092,4.508c-1.03,0.023-2.06,0.065-3.088,0.146
	c0.55-0.986,1.08-2.491,1.08-4.654c0-5.294-2.292-7.058-2.292-7.058S16,18.529,16,23.823c0,2.337,0.618,3.907,1.212,4.882
	c-1.633,0.194-3.257,0.467-4.869,0.805c-0.813-1.721-1.262-3.6-1.259-5.51c0-7.123,5.794-12.917,12.916-12.917
	s12.917,5.794,12.917,12.918c0.003,1.909-0.431,3.825-1.25,5.546c-1.605-0.341-3.224-0.616-4.851-0.815
	C31.394,27.759,32,26.182,32,23.823C32,18.529,29.792,16.765,29.792,16.765z M39.714,32.645l-1.442,4.438
	c-9.314-2.822-19.395-2.822-28.709,0l-1.443-4.438C18.369,29.521,29.464,29.521,39.714,32.645z"/>
</svg>
