<?xml version="1.0" encoding="UTF-8"?>
<svg width="42px" height="42px" viewBox="0 0 42 42" version="1.1" xmlns="http://www.w3.org/2000/svg" xmlns:xlink="http://www.w3.org/1999/xlink">
    <!-- Generator: Sketch 53.2 (72643) - https://sketchapp.com -->
    <title>ic_leed</title>
    <desc>Created with Sketch.</desc>
    <g id="Product-Glass-Walls" stroke="none" stroke-width="1" fill="none" fill-rule="evenodd">
        <g id="alur_web_environment" transform="translate(-601.000000, -1186.000000)">
            <g id="SPOT2" transform="translate(80.000000, 723.000000)">
                <g id="Group-16" transform="translate(0.000000, 160.000000)">
                    <g id="Group-2">
                        <g id="Group-5" transform="translate(512.000000, 296.000000)">
                            <g id="ic_leed" transform="translate(6.000000, 4.000000)">
                                <g id="Page-1" transform="translate(4.285714, 4.285714)">
                                    <path d="M39.4283143,19.7142857 C39.4283143,30.6017143 30.6023143,39.4285714 19.7140286,39.4285714 C8.8266,39.4285714 -0.000257142857,30.6017143 -0.000257142857,19.7142857 C-0.000257142857,8.82685714 8.8266,0 19.7140286,0 C30.6023143,0 39.4283143,8.82685714 39.4283143,19.7142857 Z" id="Stroke-1" stroke="#1E306E" stroke-width="1.71428571"></path>
                                    <path d="M32.5000286,31.9997143 C24.1437429,29.2851429 15.1420286,29.2851429 6.78574286,31.9997143 C6.19688571,30.1885714 5.60888571,28.3765714 5.01917143,26.5654286 C14.5240286,23.478 24.7617429,23.478 34.2666,26.5654286 C33.6768857,28.3765714 33.0888857,30.1885714 32.5000286,31.9997143 Z" id="Stroke-3" stroke="#1E306E" stroke-width="1.71428571"></path>
                                    <path d="M24.7857429,30.5139429 C23.2463143,31.2382286 21.5277429,31.6428 19.7140286,31.6428 C17.8446,31.6428 16.0754571,31.2125143 14.5008857,30.4462286" id="Stroke-5" stroke="#1E306E" stroke-width="1.71428571"></path>
                                    <path d="M9.35717143,25.6364571 C8.35774286,23.8913143 7.78602857,21.8693143 7.78602857,19.7144571 C7.78602857,13.1264571 13.1260286,7.7856 19.7140286,7.7856 C26.3028857,7.7856 31.6428857,13.1264571 31.6428857,19.7144571 C31.6428857,21.5556 31.2254571,23.2998857 30.4806,24.8573143" id="Stroke-7" stroke="#1E306E" stroke-width="1.71428571"></path>
                                    <path d="M19.7140286,24.8571429 C19.7140286,24.8571429 21.8568857,23.4188571 21.8568857,19.5625714 C21.8568857,15.0248571 19.6428857,12 19.6428857,12 C19.6428857,12 17.5711714,15.0248571 17.5711714,19.5625714 C17.5711714,23.4188571 19.7140286,24.8571429 19.7140286,24.8571429" id="Fill-9" fill="#1E306E"></path>
                                    <path d="M14.8214571,24.8571429 C14.8214571,24.8571429 16.7860286,23.4188571 16.7860286,19.5625714 C16.7860286,15.0248571 14.8214571,13.5128571 14.8214571,13.5128571 C14.8214571,13.5128571 12.8568857,15.0248571 12.8568857,19.5625714 C12.8568857,23.4188571 14.8214571,24.8571429 14.8214571,24.8571429 M24.6786,24.8571429 C24.6786,24.8571429 22.7860286,23.4188571 22.7860286,19.5625714 C22.7860286,15.0248571 24.6786,13.5128571 24.6786,13.5128571 C24.6786,13.5128571 26.5711714,15.0248571 26.5711714,19.5625714 C26.5711714,23.4188571 24.6786,24.8571429 24.6786,24.8571429" id="Fill-11" fill="#1E306E"></path>
                                </g>
                            </g>
                        </g>
                    </g>
                </g>
            </g>
        </g>
    </g>
</svg>