<?xml version="1.0" encoding="utf-8"?>
<!-- Generator: Adobe Illustrator 15.0.0, SVG Export Plug-In . SVG Version: 6.00 Build 0)  -->
<!DOCTYPE svg PUBLIC "-//W3C//DTD SVG 1.1//EN" "http://www.w3.org/Graphics/SVG/1.1/DTD/svg11.dtd">
<svg version="1.1" id="Layer_1" xmlns="http://www.w3.org/2000/svg" xmlns:xlink="http://www.w3.org/1999/xlink" x="0px" y="0px"
	 width="34px" height="34px" viewBox="0 0 34 34" enable-background="new 0 0 34 34" xml:space="preserve">
<title>Loudspeaker</title>
<desc>Created with Sketch.</desc>
<path fill="#222222" d="M34,1.375L6.373,12.464H4.478C1.967,12.464,0,14.456,0,17c0,2.543,1.967,4.537,4.478,4.537h1.895
	l2.832,1.137l-0.654,1.758c-0.731,1.947,0.238,4.173,2.17,4.96l6.475,2.548c0.453,0.175,0.922,0.266,1.39,0.266
	c0.521,0,1.042-0.111,1.53-0.33c0.924-0.414,1.632-1.176,1.991-2.139l0.625-1.632L34,32.625V1.375z M2,17
	c0-1.422,1.088-2.536,2.478-2.536h1.087v5.073H4.478C3.088,19.537,2,18.422,2,17z M20.238,29.026
	c-0.174,0.464-0.508,0.827-0.94,1.021c-0.435,0.192-0.924,0.199-1.374,0.027l-6.459-2.541c-0.928-0.379-1.395-1.457-1.04-2.404
	l0.637-1.709l9.815,3.938L20.238,29.026z M32,29.668L7.565,19.861V14.14L32,4.333V29.668z"/>
</svg>
