<?xml version="1.0" encoding="utf-8"?>
<!-- Generator: Adobe Illustrator 15.0.0, SVG Export Plug-In . SVG Version: 6.00 Build 0)  -->
<!DOCTYPE svg PUBLIC "-//W3C//DTD SVG 1.1//EN" "http://www.w3.org/Graphics/SVG/1.1/DTD/svg11.dtd">
<svg version="1.1" id="Layer_1" xmlns="http://www.w3.org/2000/svg" xmlns:xlink="http://www.w3.org/1999/xlink" x="0px" y="0px"
	 width="34px" height="34px" viewBox="0 0 34 34" enable-background="new 0 0 34 34" xml:space="preserve">
<title>News</title>
<desc>Created with Sketch.</desc>
<path fill="#222222" d="M28.826,32.5H5.174C2.321,32.5,0,30.193,0,27.357V17c0-1.722,1.356-3.071,3.087-3.071S6.174,15.278,6.174,17
	v8.977h-2V17c0-0.621-0.457-1.071-1.087-1.071S2,16.379,2,17v10.357C2,29.09,3.424,30.5,5.174,30.5s3.174-1.41,3.174-3.143V1.5H34
	v25.857C34,30.193,31.68,32.5,28.826,32.5z M9.267,30.5h19.56c1.749,0,3.173-1.41,3.173-3.143V3.5H10.348v23.857
	C10.348,28.54,9.944,29.63,9.267,30.5z M28.436,17.31H13.913V7.024h14.521V17.31H28.436z M15.913,15.31h10.521V9.024H15.913V15.31z
	 M14.217,18.5h13.914v2H14.217V18.5z M14.217,23.5h10.436v2H14.217V23.5z"/>
</svg>
