<?xml version="1.0" encoding="utf-8"?>
<!-- Generator: Adobe Illustrator 15.0.0, SVG Export Plug-In . SVG Version: 6.00 Build 0)  -->
<!DOCTYPE svg PUBLIC "-//W3C//DTD SVG 1.1//EN" "http://www.w3.org/Graphics/SVG/1.1/DTD/svg11.dtd">
<svg version="1.1" id="Layer_1" xmlns="http://www.w3.org/2000/svg" xmlns:xlink="http://www.w3.org/1999/xlink" x="0px" y="0px"
	 width="48px" height="48px" viewBox="0 0 48 48" enable-background="new 0 0 48 48" xml:space="preserve">
<path d="M24,13.577c-3.463,0-6.279,2.803-6.279,6.248c0,3.444,2.816,6.248,6.279,6.248s6.279-2.804,6.279-6.248
	C30.279,16.38,27.463,13.577,24,13.577z M24,23.283c-1.924,0-3.488-1.553-3.488-3.458c0-1.906,1.564-3.458,3.488-3.458
	s3.488,1.552,3.488,3.458C27.488,21.73,25.924,23.283,24,23.283z M38.077,5.829c-0.022-0.023-0.048-0.046-0.069-0.069
	C34.232,2.045,29.268,0,24.018,0C18.719,0,13.717,2.07,9.836,5.927c-3.761,3.737-5.831,8.708-5.831,13.995
	c0,5.289,2.07,10.26,5.831,13.997L24.006,48l14.17-14.081c3.752-3.729,5.819-8.688,5.819-13.961
	C43.995,14.64,41.893,9.621,38.077,5.829z M36.208,31.939L24.006,44.064L11.804,31.939c-3.229-3.209-5.009-7.479-5.009-12.018
	c0-4.54,1.779-8.808,5.107-12.114C15.158,4.572,19.46,2.79,24.016,2.79c4.543,0,8.838,1.781,12.094,5.018
	c3.285,3.265,5.095,7.579,5.095,12.149C41.204,24.482,39.432,28.738,36.208,31.939z"/>
</svg>
