<?xml version="1.0" encoding="utf-8"?>
<!-- Generator: Adobe Illustrator 15.0.0, SVG Export Plug-In . SVG Version: 6.00 Build 0)  -->
<!DOCTYPE svg PUBLIC "-//W3C//DTD SVG 1.1//EN" "http://www.w3.org/Graphics/SVG/1.1/DTD/svg11.dtd">
<svg version="1.1" id="Layer_1" xmlns="http://www.w3.org/2000/svg" xmlns:xlink="http://www.w3.org/1999/xlink" x="0px" y="0px"
	 width="48px" height="48px" viewBox="0 0 48 48" enable-background="new 0 0 48 48" xml:space="preserve">
<title>Planet</title>
<desc>Created with Sketch.</desc>
<path d="M46.807,1.093c-3.394-3.394-13.207,2.609-16.7,4.933C28.188,5.371,26.138,5,24,5C13.523,5,5,13.523,5,24
	c0,2.114,0.362,4.143,1.002,6.043C1.73,36.377-1.73,43.983,1.093,46.807c0.758,0.758,1.82,1.135,3.163,1.135
	c2.237,0,5.252-1.046,8.936-3.12c1.472-0.829,3.007-1.806,4.577-2.893C19.723,42.61,21.815,43,24,43c10.477,0,19-8.523,19-19
	c0-2.178-0.387-4.264-1.064-6.214c1.105-1.595,2.1-3.154,2.937-4.647C48.159,7.28,48.828,3.114,46.807,1.093z M24,7
	c7.066,0,13.136,4.336,15.697,10.485c-2.768,3.87-6.25,7.953-10.204,11.907c-4.162,4.162-8.291,7.616-12.046,10.291
	C11.317,37.112,7,31.053,7,24C7,14.626,14.626,7,24,7z M2.507,45.393c-1.252-1.252,0.104-6.403,4.417-13.116
	c1.836,3.771,4.875,6.842,8.625,8.716C9.106,45.266,4.071,46.956,2.507,45.393z M41,24c0,9.374-7.626,17-17,17
	c-1.445,0-2.84-0.201-4.181-0.542c3.643-2.706,7.427-5.991,11.088-9.651c3.625-3.625,6.874-7.368,9.556-10.97
	C40.801,21.172,41,22.562,41,24z M41.01,15.586c-1.86-3.746-4.914-6.786-8.669-8.631c7.014-4.484,11.828-5.67,13.052-4.448
	c0.976,0.976,0.894,4.024-2.265,9.654C42.508,13.267,41.787,14.417,41.01,15.586z"/>
</svg>
