<?xml version="1.0" encoding="utf-8"?>
<!-- Generator: Adobe Illustrator 15.0.0, SVG Export Plug-In . SVG Version: 6.00 Build 0)  -->
<!DOCTYPE svg PUBLIC "-//W3C//DTD SVG 1.1//EN" "http://www.w3.org/Graphics/SVG/1.1/DTD/svg11.dtd">
<svg version="1.1" id="Layer_1" xmlns="http://www.w3.org/2000/svg" xmlns:xlink="http://www.w3.org/1999/xlink" x="0px" y="0px"
	 width="48px" height="48px" viewBox="0 0 48 48" enable-background="new 0 0 48 48" xml:space="preserve">
<path d="M48,24c0,13.232-10.768,24-24,24c-2.521,0-5.008-0.391-7.391-1.16l0.616-1.902C19.414,45.645,21.7,46.002,24,46
	c12.131,0,22-9.869,22-22S36.131,2,24,2S2,11.869,2,24c0,4.501,1.35,8.828,3.903,12.514l-1.644,1.139C1.477,33.645-0.01,28.879,0,24
	C0,10.767,10.767,0,24,0C37.232,0,48,10.767,48,24z M35,16.5v1c0,5.729-4.4,10.448-10,10.955V36.5h-2v-8.045
	c-5.599-0.507-10-5.227-10-10.955v-1h6v-5h2v5h6v-5h2v5H35z M32.943,18.5H15.055c0.499,4.494,4.32,8,8.945,8
	S32.445,22.994,32.943,18.5z M6.958,33.083c6.043,0,10.959,4.916,10.959,10.959h2c0-7.146-5.813-12.959-12.959-12.959V33.083z
	 M13.521,37.479c1.734,1.732,2.689,4.039,2.69,6.492h-2c0-1.918-0.748-3.722-2.104-5.078c-1.356-1.354-3.16-2.103-5.077-2.103
	c-0.001,0-0.001,0-0.002,0v-2c0,0,0.001,0,0.002,0C9.482,34.79,11.787,35.745,13.521,37.479z M10.909,40.064
	c1.021,1.015,1.587,2.367,1.592,3.807l-1,0.033h-1c-0.003-0.932-0.359-1.782-1.001-2.422c-0.64-0.635-1.487-0.983-2.388-0.983
	c-0.004,0-0.008,0-0.013,0l-0.007-2C8.492,38.505,9.887,39.05,10.909,40.064z"/>
</svg>
