<?xml version="1.0" encoding="UTF-8"?>
<svg width="32px" height="34px" viewBox="0 0 32 34" version="1.1" xmlns="http://www.w3.org/2000/svg" xmlns:xlink="http://www.w3.org/1999/xlink">
    <!-- Generator: Sketch 53.2 (72643) - https://sketchapp.com -->
    <title>recycle</title>
    <desc>Created with Sketch.</desc>
    <g id="Product-Glass-Walls" stroke="none" stroke-width="1" fill="none" fill-rule="evenodd">
        <g id="alur_web_environment" transform="translate(-974.000000, -1191.000000)" fill="#1E306E" fill-rule="nonzero" stroke="#1E306E" stroke-width="0.8">
            <g id="SPOT2" transform="translate(80.000000, 723.000000)">
                <g id="Group-16" transform="translate(0.000000, 160.000000)">
                    <g id="Group-2">
                        <g id="Group-5" transform="translate(882.000000, 296.000000)">
                            <g id="Group-19">
                                <g id="recycle" transform="translate(12.000000, 12.000000)">
                                    <path d="M30.7712,22.3235294 L26.0352,14.0282353 L24.928,14.6752941 L29.664,22.9705882 C30.2159029,23.9760806 30.2044219,25.2008599 29.6337688,26.1955961 C29.0631158,27.1903323 28.0173016,27.8085816 26.88,27.8235294 L18.9184,27.8235294 L21.9904,24.8923529 L21.12,23.9411765 L16.3392,28.4705882 L21.12,33 L21.9904,32.0488235 L18.9184,29.1176471 L26.88,29.1176471 C28.4825868,29.1217753 29.9652949,28.2601052 30.7683558,26.8579439 C31.5714167,25.4557826 31.5725012,23.7267194 30.7712,22.3235294 Z" id="Shape"></path>
                                    <path d="M18.528,3.40352941 L22.368,10.0294118 L18.624,9.01352941 L18.2912,10.2623529 L24.1536,11.8541176 L25.728,5.92705882 L24.4928,5.59058824 L23.488,9.39529412 L19.648,2.75 C18.8988302,1.43239307 17.5030998,0.62780456 16,0.647058824 L16,0.647058824 C14.5039529,0.642136522 13.1216143,1.45347792 12.384,2.76941176 L7.7248,10.9352941 L8.832,11.5823529 L13.4976,3.41 C14.0092778,2.50054106 14.9651187,1.93949502 16,1.94117647 L16,1.94117647 C17.042327,1.93017197 18.0091813,2.48946088 18.528,3.40352941 L18.528,3.40352941 Z" id="Shape"></path>
                                    <path d="M2.368,26.1476471 C1.79075706,25.172745 1.77609251,23.9594605 2.3296,22.9705882 L6.2144,16.1764706 L7.2192,19.9617647 L8.4544,19.6252941 L6.8864,13.6723529 L1.1264,15.2317647 L1.4592,16.4805882 L5.12,15.4905882 L1.2288,22.3105882 C0.433495561,23.6925293 0.433495561,25.3998236 1.2288,26.7817647 C1.99954161,28.2272934 3.49574806,29.1254642 5.12,29.1176471 L13.44,29.1176471 L13.44,27.8235294 L5.12,27.8235294 C3.96781198,27.8184524 2.91116857,27.1749894 2.368,26.1476471 L2.368,26.1476471 Z" id="Shape"></path>
                                </g>
                            </g>
                        </g>
                    </g>
                </g>
            </g>
        </g>
    </g>
</svg>