<?xml version="1.0" encoding="utf-8"?>
<!-- Generator: Adobe Illustrator 15.0.0, SVG Export Plug-In . SVG Version: 6.00 Build 0)  -->
<!DOCTYPE svg PUBLIC "-//W3C//DTD SVG 1.1//EN" "http://www.w3.org/Graphics/SVG/1.1/DTD/svg11.dtd">
<svg version="1.1" id="Layer_1" xmlns="http://www.w3.org/2000/svg" xmlns:xlink="http://www.w3.org/1999/xlink" x="0px" y="0px"
	 width="48px" height="48px" viewBox="0 0 48 48" enable-background="new 0 0 48 48" xml:space="preserve">
<title>Group 12</title>
<desc>Created with Sketch.</desc>
<path d="M45.772,38.615c-1.252,2.188-3.586,3.547-6.086,3.547H29.642l3.793,3.619L31.403,48l-7.752-7.346l7.752-7.346l2.031,2.217
	l-3.793,3.619h10.029c1.418-0.019,2.749-0.806,3.467-2.055c0.719-1.252,0.732-2.813,0.038-4.082l-7.101-12.435l2.591-1.514
	l7.11,12.457C47.028,33.706,47.026,36.427,45.772,38.615z M38.716,7.776l-2.563,9.651l-9.559-2.595l0.775-2.912l4.602,1.248
	l-4.83-8.333c-0.638-1.124-1.822-1.818-3.099-1.818c-1.329,0-2.515,0.698-3.147,1.822l-7.011,12.28l-2.59-1.514l6.994-12.258
	C19.446,1.284,21.627,0,23.979,0l0,0c2.434,0,4.61,1.272,5.776,3.32l4.829,8.358l1.237-4.689L38.716,7.776z M8.33,39.146
	c-1.449-0.006-2.773-0.813-3.471-2.131c-0.727-1.227-0.745-2.759-0.051-3.996l4.898-8.568l1.237,4.656l2.89-0.789l-2.552-9.688
	L1.87,21.178l0.775,2.912l4.494-1.215l-4.917,8.618c-1.246,2.165-1.246,4.853-0.009,6.998c1.206,2.265,3.537,3.671,6.083,3.671
	h12.59v-3.018H8.33V39.146z M8.296,41.584L8.296,41.584v0.002V41.584z"/>
</svg>
