<?xml version="1.0" encoding="utf-8"?>
<!-- Generator: Adobe Illustrator 15.0.0, SVG Export Plug-In . SVG Version: 6.00 Build 0)  -->
<!DOCTYPE svg PUBLIC "-//W3C//DTD SVG 1.1//EN" "http://www.w3.org/Graphics/SVG/1.1/DTD/svg11.dtd">
<svg version="1.1" id="Layer_1" xmlns="http://www.w3.org/2000/svg" xmlns:xlink="http://www.w3.org/1999/xlink" x="0px" y="0px"
	 width="56px" height="56px" viewBox="0 0 56 56" enable-background="new 0 0 56 56" xml:space="preserve">
<title>30AF3A19-AD5D-4953-A9B4-66C8A39DCA71</title>
<path d="M0,51.08h56v-1.926H0V51.08z M41.891,7.477L24.368,45.279c1.804-0.076,5.36-1.039,8.696-6.689
	c4.127-6.979,1.979-10.147,1.959-10.179L34.7,27.956l0.224-0.521l8.848-19.086L41.891,7.477z M24.109,47.205
	c-0.843,0-1.374-0.139-1.448-0.158l-1.095-0.303L40.953,4.919l5.375,2.492l-9.45,20.385c0.649,1.344,1.74,5.184-2.155,11.776
	C30.783,46.24,26.346,47.205,24.109,47.205z M20.134,40.678l-5-7l1.566-1.119l5,7L20.134,40.678z M18.383,44.92l-6-4l1.068-1.604
	l6,4L18.383,44.92z M35.451,44.92l-1.068-1.604l6-4l1.068,1.604L35.451,44.92z"/>
</svg>
