<?xml version="1.0" encoding="utf-8"?>
<!-- Generator: Adobe Illustrator 15.0.0, SVG Export Plug-In . SVG Version: 6.00 Build 0)  -->
<!DOCTYPE svg PUBLIC "-//W3C//DTD SVG 1.1//EN" "http://www.w3.org/Graphics/SVG/1.1/DTD/svg11.dtd">
<svg version="1.1" id="Layer_1" xmlns="http://www.w3.org/2000/svg" xmlns:xlink="http://www.w3.org/1999/xlink" x="0px" y="0px"
	 width="56px" height="56px" viewBox="0 0 56 56" enable-background="new 0 0 56 56" xml:space="preserve">
<path d="M25.5,0h2.001v56H25.5V37.917H0v-2h25.5v-16H0v-2h25.5V0z M30.5,9H50V7H30.5V0h-2v56h2V43H49v-2H30.5v-3.083H56v-2H30.5v-16
	H56v-2H30.5V9z M22,9H2v2h20V9z M4.223,39.966C3.383,39.984,2.627,40,2,40H0v2h2c0.64,0,1.41-0.018,2.265-0.034
	c4.211-0.09,12.049-0.254,14.229,1.88C18.838,44.184,19,44.551,19,45.001c0,0.2-0.043,0.508-0.413,0.87
	c-2.562,2.501-13.555,2.238-17.165,2.154C0.812,48.012,0.325,48,0,48v2c0.315,0,0.786,0.012,1.376,0.025
	c1.271,0.029,2.558,0.05,3.831,0.05c6.38,0,12.453-0.505,14.776-2.772C20.648,46.652,21,45.855,21,45
	c0-0.994-0.372-1.864-1.107-2.584C17.113,39.693,9.357,39.857,4.223,39.966z M36,12v2h20v-2H36z M13,15v-2H3v2H13z M54,2H34v2h20V2z
	 M22,5H12v2h10V5z M33,49h9v-2h-9V49z M35,46h19v-2H35V46z M14,44H0v2h14V44z M45,52h6v-2h-6V52z M14,54h7v-2h-7V54z"/>
</svg>
