<?xml version="1.0" encoding="utf-8"?>
<!-- Generator: Adobe Illustrator 15.0.0, SVG Export Plug-In . SVG Version: 6.00 Build 0)  -->
<!DOCTYPE svg PUBLIC "-//W3C//DTD SVG 1.1//EN" "http://www.w3.org/Graphics/SVG/1.1/DTD/svg11.dtd">
<svg version="1.1" id="Layer_1" xmlns="http://www.w3.org/2000/svg" xmlns:xlink="http://www.w3.org/1999/xlink" x="0px" y="0px"
	 width="54px" height="54px" viewBox="0 0 54 54" enable-background="new 0 0 54 54" xml:space="preserve">
<title>54953AB4-A7AB-46FE-8AA9-D1506530B579</title>
<path d="M1.32,0l1.157,5.79L0.315,9.034l3.14,4.185l-1.047,4.183l4.281,3.211l1.413,4.239l2.33-2.329L11.54,24h-2v4.721l2.734,0.911
	l-0.878,2.638l6.143,6.146v4.433l6.804,1.135l4.704,0.939l1.899,1.901l3.95,1.974L39.059,54h14.098l-2.399-4.802l2.928-2.927
	l-1.217-3.645l-2.101-5.251l-9.214-7.166l-1.229,1.578l8.785,6.834l1.881,4.692l0.804,2.414l-3.072,3.072L49.921,52h-9.899
	l-3.838-4.796l-4.05-2.027l-2.102-2.098l-5.329-1.065l-5.164-0.861v-3.565l-5.857-5.856l1.122-3.361l-3.265-1.088V26h4l-4.892-6.522
	l-1.672,1.67l-0.586-1.76L4.67,16.599l0.954-3.818L2.766,8.966L4.601,6.21L3.759,2h16.781v15.492l13.39,10.301l1.218-1.586
	L22.54,16.508V0H1.32z M32.766,39.547l-8.929-8.836l1.407-1.422l7.072,6.998l12.355-21.78l1.74,0.986L32.766,39.547z"/>
</svg>
