<?xml version="1.0" encoding="utf-8"?>
<!-- Generator: Adobe Illustrator 15.0.0, SVG Export Plug-In . SVG Version: 6.00 Build 0)  -->
<!DOCTYPE svg PUBLIC "-//W3C//DTD SVG 1.1//EN" "http://www.w3.org/Graphics/SVG/1.1/DTD/svg11.dtd">
<svg version="1.1" id="Layer_1" xmlns="http://www.w3.org/2000/svg" xmlns:xlink="http://www.w3.org/1999/xlink" x="0px" y="0px"
	 width="48px" height="48px" viewBox="0 0 48 48" enable-background="new 0 0 48 48" xml:space="preserve">
<title>ACE38F76-3A88-4DD3-B37B-388D1B672487</title>
<path d="M35.005,48h1.65V0h-1.649L35.005,48z M40.862,48h1.65V0h-1.65V48z M6.699,31.87l-1.212-1.214c3.67-3.67,3.67-9.644,0-13.314
	l1.212-1.212c4.339,4.339,4.339,11.399,0,15.738V31.87z M12.704,38.096l-1.21-1.213c7.104-7.104,7.104-18.662,0-25.766l1.21-1.212
	C20.476,17.677,20.476,30.323,12.704,38.096 M27.258,24.857h5.144v-1.714h-5.144V24.857z M28.722,37.463l-1.212-1.212l4.042-4.043
	l1.212,1.212L28.722,37.463z M31.553,15.792l-4.043-4.043l1.212-1.212l4.043,4.043L31.553,15.792z"/>
</svg>
