<?xml version="1.0" encoding="utf-8"?>
<!-- Generator: Adobe Illustrator 15.0.0, SVG Export Plug-In . SVG Version: 6.00 Build 0)  -->
<!DOCTYPE svg PUBLIC "-//W3C//DTD SVG 1.1//EN" "http://www.w3.org/Graphics/SVG/1.1/DTD/svg11.dtd">
<svg version="1.1" id="Layer_1" xmlns="http://www.w3.org/2000/svg" xmlns:xlink="http://www.w3.org/1999/xlink" x="0px" y="0px"
	 width="48px" height="48px" viewBox="0 0 48 48" enable-background="new 0 0 48 48" xml:space="preserve">
<title>F180B482-4BA0-4276-BB22-FD81F9C4B831</title>
<path d="M11.042,37.954h25v1.926h-25V37.954z M11.042,35.88h25v-1.926h-25V35.88z M28.301,24.11c-1.943,0.003-3.518,1.58-3.52,3.522
	c0.002,1.943,1.578,3.519,3.521,3.521c1.944-0.002,3.519-1.576,3.521-3.521C31.82,25.688,30.244,24.112,28.301,24.11z
	 M28.301,29.152c-0.838,0-1.52-0.682-1.52-1.521c0-0.838,0.681-1.521,1.521-1.521c0.839,0,1.521,0.686,1.521,1.522
	C29.823,28.471,29.141,29.152,28.301,29.152z M20.108,22.959c1.943-0.003,3.518-1.578,3.52-3.521
	c-0.003-1.943-1.578-3.518-3.521-3.521c-1.943,0.003-3.518,1.578-3.521,3.521C16.588,21.382,18.164,22.958,20.108,22.959z
	 M20.107,17.917L20.107,17.917c0.839,0,1.521,0.683,1.521,1.521c0,0.839-0.681,1.521-1.521,1.521c-0.839,0-1.52-0.682-1.52-1.521
	C18.587,18.6,19.268,17.917,20.107,17.917z M17.885,31.242l-1.414-1.414l13.37-13.37l1.414,1.414L17.885,31.242z M6,0v48h23
	c7.168,0,13-5.832,13-13V0H6z M40,2v9.954H8V2H40z M29,46H8V13.88h32V35C40,41.064,35.064,46,29,46z M14.396,3.667v1.64h-1.638v4.86
	h-1.862v-4.86h-1.61v-1.64H14.396z M19.603,10.167H17.62l-0.463-1.54h-1.343l-0.428,1.54h-1.933l1.986-6.5h2.15L19.603,10.167z
	 M16.812,7.112l-0.28-0.953l-0.06-0.21l-0.054,0.207l-0.269,0.956h0.001H16.812z M23.088,6.847l1.834-3.18h-2.14l-0.58,1.251
	C22.13,5.083,22.066,5.23,22.003,5.38c-0.069-0.151-0.143-0.307-0.225-0.477l-0.594-1.236H19.04l1.815,3.214l-1.879,3.286h2.14
	L21.81,8.65l0.134-0.3c0.097,0.199,0.198,0.396,0.301,0.591l0.612,1.226h2.155L23.088,6.847z"/>
</svg>
