<?xml version="1.0" encoding="utf-8"?>
<!-- Generator: Adobe Illustrator 15.0.0, SVG Export Plug-In . SVG Version: 6.00 Build 0)  -->
<!DOCTYPE svg PUBLIC "-//W3C//DTD SVG 1.1//EN" "http://www.w3.org/Graphics/SVG/1.1/DTD/svg11.dtd">
<svg version="1.1" id="Layer_1" xmlns="http://www.w3.org/2000/svg" xmlns:xlink="http://www.w3.org/1999/xlink" x="0px" y="0px"
	 width="48px" height="48px" viewBox="0 0 48 48" enable-background="new 0 0 48 48" xml:space="preserve">
<path fill="#263238" d="M35.999,24c0,1.105-0.896,2.001-2.001,2.001H24c-1.104,0-2-0.896-2-2.001V8c0-1.106,0.896-2,2-2
	c1.104,0,2.001,0.894,2.001,2v14h7.997C35.104,22,35.999,22.894,35.999,24z M24,0C10.746,0,0,10.746,0,24s10.746,24,24,24
	s24-10.746,24-24S37.254,0,24,0z M24,44.002C12.954,44.002,4,35.044,4,24C4,12.957,12.955,4,24,4s20.002,8.957,20.002,20
	C44.002,35.044,35.046,44.002,24,44.002z"/>
</svg>
