<?xml version="1.0" encoding="utf-8"?>
<!-- Generator: Adobe Illustrator 15.0.0, SVG Export Plug-In . SVG Version: 6.00 Build 0)  -->
<!DOCTYPE svg PUBLIC "-//W3C//DTD SVG 1.1//EN" "http://www.w3.org/Graphics/SVG/1.1/DTD/svg11.dtd">
<svg version="1.1" id="Layer_1" xmlns="http://www.w3.org/2000/svg" xmlns:xlink="http://www.w3.org/1999/xlink" x="0px" y="0px"
	 width="50px" height="50px" viewBox="0 0 50 50" enable-background="new 0 0 50 50" xml:space="preserve">
<path d="M14,20.5c-3.309,0-6,2.691-6,6c0,3.309,2.691,6,6,6s6-2.691,6-6C20,23.191,17.309,20.5,14,20.5z M14,30.5
	c-2.206,0-4-1.794-4-4s1.794-4,4-4s4,1.794,4,4S16.206,30.5,14,30.5z M0,10.5v3v1v25h20.38l4.62-8l4.619,8H50v-25v-1v-3H0z M2,15.5
	h1v22H2V15.5z M25,27.5l-5.773,10H5v-22h40v22H30.773L25,27.5z M48,37.5h-1v-22h1V37.5z M2,13.5v-1h46v1H2z M36,20.5
	c-3.309,0-6,2.691-6,6c0,3.309,2.691,6,6,6s6-2.691,6-6C42,23.191,39.309,20.5,36,20.5z M36,30.5c-2.206,0-4-1.794-4-4s1.794-4,4-4
	s4,1.794,4,4S38.206,30.5,36,30.5z"/>
</svg>
