<?xml version="1.0" encoding="utf-8"?>
<!-- Generator: Adobe Illustrator 15.0.0, SVG Export Plug-In . SVG Version: 6.00 Build 0)  -->
<!DOCTYPE svg PUBLIC "-//W3C//DTD SVG 1.1//EN" "http://www.w3.org/Graphics/SVG/1.1/DTD/svg11.dtd">
<svg version="1.1" id="Layer_1" xmlns="http://www.w3.org/2000/svg" xmlns:xlink="http://www.w3.org/1999/xlink" x="0px" y="0px"
	 width="48px" height="48px" viewBox="0 0 48 48" enable-background="new 0 0 48 48" xml:space="preserve">
<title>A05A125F-258F-474F-87D3-1E24C732982B</title>
<path d="M24,2C11.869,2,2,11.869,2,24s9.869,22,22,22s22-9.869,22-22S36.131,2,24,2 M24,48C10.767,48,0,37.232,0,24
	C0,10.767,10.767,0,24,0c13.232,0,24,10.767,24,24C48,37.232,37.232,48,24,48 M12.474,16.046c-0.43,2.71-1.122,13.144,11.4,21.748
	c12.513-8.594,12.032-19.01,11.653-21.75c-6.373-0.898-10.127-2.936-11.521-3.83C22.613,13.109,18.856,15.149,12.474,16.046z
	 M23.874,40.199l-0.551-0.365c-8.361-5.538-11.366-11.984-12.414-16.418c-1.148-4.85-0.286-8.365-0.248-8.513l0.167-0.664
	l0.68-0.083c8-0.984,11.845-3.914,11.883-3.943l0.618-0.48l0.617,0.482c0.036,0.027,3.88,2.957,11.88,3.94l0.695,0.086l0.158,0.68
	c0.033,0.142,3.117,14.282-12.934,24.913L23.874,40.199z M23.85,30.273l-5.557-5.559l1.414-1.415l3.715,3.716l4.712-8.16l1.733,1
	L23.85,30.273z"/>
</svg>
